<?xml version="1.0" encoding="utf-8"?>
<!-- Generator: Adobe Illustrator 26.0.1, SVG Export Plug-In . SVG Version: 6.00 Build 0)  -->
<svg version="1.1" id="Layer_1" xmlns="http://www.w3.org/2000/svg" xmlns:xlink="http://www.w3.org/1999/xlink" x="0px" y="0px"
	 viewBox="0 0 1941.8 254.9" style="enable-background:new 0 0 1941.8 254.9;" xml:space="preserve">
<style type="text/css">
	.st0{fill:#D72A80;}
	.st1{filter:url(#Adobe_OpacityMaskFilter);}
	.st2{mask:url(#SVGID_1_);}
	.st3{fill:#FFFFFF;}
	.st4{font-family:'Aeroport-Light';}
	.st5{font-size:24.268px;}
	.st6{fill:#5B3289;}
	.st7{fill:#50AE48;}
	.st8{fill:#01519C;}
	.st9{fill:#F48120;}
</style>
<g>
	<rect y="10.2" class="st0" width="628.3" height="234.5"/>
	<defs>
		<filter id="Adobe_OpacityMaskFilter" filterUnits="userSpaceOnUse" x="378.1" y="13.6" width="238" height="227.7">
			<feColorMatrix  type="matrix" values="1 0 0 0 0  0 1 0 0 0  0 0 1 0 0  0 0 0 1 0"/>
		</filter>
	</defs>
	<mask maskUnits="userSpaceOnUse" x="378.1" y="13.6" width="238" height="227.7" id="SVGID_1_">
		<g class="st1">
			<g>
				<defs>
					<rect id="SVGID_00000134965244609279563610000007723037769086735258_" x="367.5" y="5.1" width="260.5" height="238.3"/>
				</defs>
				<clipPath id="SVGID_00000060021370289767534120000015528474869370920605_">
					<use xlink:href="#SVGID_00000134965244609279563610000007723037769086735258_"  style="overflow:visible;"/>
				</clipPath>
				<g style="clip-path:url(#SVGID_00000060021370289767534120000015528474869370920605_);">
					
						<image style="overflow:visible;" width="492" height="450" xlink:href="2A2FEC6C.jpg"  transform="matrix(0.5295 0 0 0.5295 367.5013 5.1486)">
					</image>
				</g>
			</g>
		</g>
	</mask>
	<g class="st2">
		<g>
			<defs>
				<rect id="SVGID_00000026149645308488404440000004498732262591666309_" x="378.1" y="13.6" width="238" height="227.7"/>
			</defs>
			<clipPath id="SVGID_00000092457462331826053440000006796343809141242008_">
				<use xlink:href="#SVGID_00000026149645308488404440000004498732262591666309_"  style="overflow:visible;"/>
			</clipPath>
		</g>
	</g>
	<text transform="matrix(1 0 0 1 526.2148 134.922)" class="st3 st4 st5"> </text>
	<polygon class="st6" points="1941.8,10.2 1941.8,244.7 1399.9,244.7 1462.3,127.5 1399.9,10.2 	"/>
	<polygon class="st7" points="618.2,10.2 565.8,127.5 628.1,244.7 1115.9,244.7 1105.9,10.2 	"/>
	<polygon class="st8" points="1462.8,127.5 1400.4,244.7 1192.6,244.7 1198.3,234.8 1259.6,127.1 1197.8,20.1 1192.1,10.2 
		1400.4,10.2 	"/>
	<polygon class="st9" points="1108.9,254.9 1254.6,254.9 1327.4,127.5 1254.6,0 1108.9,0 1036,127.5 	"/>
</g>
</svg>
