<?xml version="1.0" encoding="utf-8"?>
<!-- Generator: Adobe Illustrator 26.0.1, SVG Export Plug-In . SVG Version: 6.00 Build 0)  -->
<svg version="1.1" id="Layer_1" xmlns="http://www.w3.org/2000/svg" xmlns:xlink="http://www.w3.org/1999/xlink" x="0px" y="0px"
	 viewBox="0 0 162.9 214.9" style="enable-background:new 0 0 162.9 214.9;" xml:space="preserve">
<style type="text/css">
	.st0{fill:#D72A80;}
	.st1{filter:url(#Adobe_OpacityMaskFilter);}
	.st2{mask:url(#SVGID_1_);}
	.st3{fill:#E52581;}
	.st4{fill:none;stroke:#F06EA1;stroke-width:1.9167;}
	.st5{fill:#5B3289;}
	.st6{fill:#50AE48;}
	.st7{fill:#4DB757;}
	.st8{fill:none;stroke:#93CD91;stroke-width:1.9167;}
	.st9{fill:none;stroke:#FFFFFF;stroke-width:0.4792;stroke-miterlimit:10;}
	.st10{filter:url(#Adobe_OpacityMaskFilter_00000132806738151958262660000013300230315593191097_);}
	.st11{mask:url(#SVGID_00000095339494601177315830000017970007451341310140_);}
	.st12{opacity:0.35;clip-path:url(#SVGID_00000020367944338997739320000014110488351310722494_);fill:#231F20;}
	.st13{fill:none;stroke:#FFFFFF;stroke-width:0.4792;}
	.st14{filter:url(#Adobe_OpacityMaskFilter_00000051385631548292865780000003318249505590367372_);}
	.st15{mask:url(#SVGID_00000043424283464617571210000009582990364747034809_);}
	.st16{fill:#593C96;}
	.st17{fill:none;stroke:#7761A9;stroke-width:1.9167;}
	.st18{fill:#FFFFFF;}
	.st19{font-family:'Aeroport-Bold';}
	.st20{font-size:13.2371px;}
	.st21{font-size:14.3401px;}
	.st22{filter:url(#Adobe_OpacityMaskFilter_00000155839439002084805370000006795700435476359564_);}
	.st23{clip-path:url(#SVGID_00000141419134864581502000000017333965706762782337_);}
	
		.st24{clip-path:url(#SVGID_00000141419134864581502000000017333965706762782337_);mask:url(#SVGID_00000146475465527134191460000011151915562073417384_);}
	.st25{clip-path:url(#SVGID_00000141419134864581502000000017333965706762782337_);fill:#FFFFFF;}
	.st26{fill:#F48120;}
	.st27{clip-path:url(#SVGID_00000067922707726827329100000010589680443951902906_);}
	.st28{clip-path:url(#SVGID_00000090263396215916369250000009462556519649253814_);}
	.st29{fill:none;stroke:#F48120;stroke-width:1.9167;}
	.st30{clip-path:url(#SVGID_00000101066468341471422600000013640241923451252116_);fill:#FFFFFF;}
	.st31{fill:#01519C;}
	.st32{filter:url(#Adobe_OpacityMaskFilter_00000165918364005545219190000002273396903279750792_);}
	.st33{mask:url(#SVGID_00000034769578499002063690000005094710429056088502_);}
	.st34{fill:#3657A6;}
	.st35{fill:none;stroke:#586FB4;stroke-width:1.9167;}
	
		.st36{clip-path:url(#SVGID_00000160192314910181628570000011053579767428982441_);fill:none;stroke:#FFFFFF;stroke-width:0.7188;stroke-linecap:round;stroke-linejoin:round;stroke-miterlimit:10;}
	
		.st37{clip-path:url(#SVGID_00000160192314910181628570000011053579767428982441_);fill:none;stroke:#FFFFFF;stroke-width:0.7188;stroke-miterlimit:10;}
	
		.st38{clip-path:url(#SVGID_00000179633066830340099050000011649591934446823306_);fill:none;stroke:#FFFFFF;stroke-width:0.7188;stroke-miterlimit:10;}
	
		.st39{clip-path:url(#SVGID_00000146465893793929291880000015799201397309246103_);fill:none;stroke:#FFFFFF;stroke-width:0.7188;stroke-linecap:round;stroke-linejoin:round;stroke-miterlimit:10;}
	.st40{fill:none;stroke:#FFFFFF;stroke-width:0.7188;stroke-miterlimit:10;}
</style>
<rect x="-1093.2" y="-53.1" class="st0" width="628.3" height="234.5"/>
<defs>
	<filter id="Adobe_OpacityMaskFilter" filterUnits="userSpaceOnUse" x="-715.2" y="-46.6" width="238" height="227.7">
		<feColorMatrix  type="matrix" values="1 0 0 0 0  0 1 0 0 0  0 0 1 0 0  0 0 0 1 0"/>
	</filter>
</defs>
<mask maskUnits="userSpaceOnUse" x="-715.2" y="-46.6" width="238" height="227.7" id="SVGID_1_">
	<g class="st1">
		<g>
			<defs>
				<rect id="SVGID_00000152945118889746810700000003361503873095746970_" x="-725.7" y="-55" width="260.5" height="238.3"/>
			</defs>
			<clipPath id="SVGID_00000088097758442038144720000007238549468897296312_">
				<use xlink:href="#SVGID_00000152945118889746810700000003361503873095746970_"  style="overflow:visible;"/>
			</clipPath>
			
				<g transform="matrix(1 0 0 1 -6.103516e-05 -3.814697e-06)" style="clip-path:url(#SVGID_00000088097758442038144720000007238549468897296312_);">
				
					<image style="overflow:visible;" width="492" height="450" xlink:href="2A2FEC6F.jpg"  transform="matrix(0.5295 0 0 0.5295 -725.7454 -55.0439)">
				</image>
			</g>
		</g>
	</g>
</mask>
<g class="st2">
	<g>
		<defs>
			<rect id="SVGID_00000031186190542957701260000008899624801952885941_" x="-715.2" y="-46.6" width="238" height="227.7"/>
		</defs>
		<clipPath id="SVGID_00000026154444968884698820000002038753511024048572_">
			<use xlink:href="#SVGID_00000031186190542957701260000008899624801952885941_"  style="overflow:visible;"/>
		</clipPath>
	</g>
</g>
<text transform="matrix(1 0 0 1 -567.0319 83.8129)" class="st18" style="font-family:'Aeroport-Light'; font-size:24.268px;"> </text>
<g>
	<path class="st3" d="M-463.6,499.8h-215.1v213h223.4c-19.1-35.2-38.2-70.3-57.3-105.5l-0.3-0.5l0.3-0.5L-463.6,499.8"/>
	<path class="st4" d="M-463.6,499.8h-215.1v213h223.4c-19.1-35.2-38.2-70.3-57.3-105.5l-0.3-0.5l0.3-0.5L-463.6,499.8z"/>
	<text transform="matrix(1 0 0 1 -669.0748 570.8116)"><tspan x="0" y="0" class="st18 st19" style="font-size:24.268px;">Stimulating</tspan><tspan x="0" y="29.1" class="st18 st19" style="font-size:24.268px;">the Senses</tspan><tspan x="0" y="58.2" class="st18 st19" style="font-size:24.268px;">of New Adult</tspan><tspan x="0" y="87.4" class="st18 st19" style="font-size:24.268px;">Generations</tspan></text>
	<text transform="matrix(1 0 0 1 -668.564 518.1944)"><tspan x="0" y="0" class="st18 st19 st20">O</tspan><tspan x="10" y="0" class="st18 st19 st20">U</tspan><tspan x="19.3" y="0" class="st18 st19 st20">R</tspan><tspan x="28.2" y="0" class="st18 st19 st20"> </tspan><tspan x="30.7" y="0" class="st18 st19 st20">M</tspan><tspan x="43.1" y="0" class="st18 st19 st20">I</tspan><tspan x="46.6" y="0" class="st18 st19 st20">S</tspan><tspan x="54.7" y="0" class="st18 st19 st20">S</tspan><tspan x="62.8" y="0" class="st18 st19 st20">I</tspan><tspan x="66.4" y="0" class="st18 st19 st20">O</tspan><tspan x="76.3" y="0" class="st18 st19 st20">N</tspan></text>
</g>
<polygon class="st5" points="848.6,-53.1 848.6,181.4 306.7,181.4 369,64.2 306.7,-53.1 "/>
<polygon class="st6" points="-335.7,335.8 -388.1,453 -325.8,570.3 162,570.3 152.1,335.8 "/>
<path class="st7" d="M114.1,345.7h-439.6c-9.1,35.8-28.1,71.5-47.2,107.3c19,35.8,38,71.5,57.1,107.3H124L114.1,345.7z"/>
<path class="st8" d="M96.8,345.7h-422.3c-9.1,35.8-28.1,71.5-47.2,107.3c19,35.8,38,71.5,57.1,107.3h422.3L96.8,345.7z"/>
<text transform="matrix(1 0 0 1 -304.4166 385.0451)"><tspan x="0" y="0" class="st18 st19" style="font-size:11.0309px;">Mu</tspan><tspan x="16.7" y="0" class="st18 st19" style="font-size:11.0309px;">s</tspan><tspan x="22.5" y="0" class="st18 st19" style="font-size:11.0309px;">t</tspan><tspan x="27" y="0" class="st18 st19" style="font-size:11.0309px;"> </tspan><tspan x="29.1" y="0" class="st18 st19" style="font-size:11.0309px;">wi</tspan><tspan x="41.4" y="0" class="st18 st19" style="font-size:11.0309px;">n</tspan></text>
<line class="st9" x1="-139.8" y1="437.9" x2="-3.2" y2="437.9"/>
<line class="st9" x1="-139.8" y1="458" x2="-3.2" y2="458"/>
<line class="st9" x1="-139.8" y1="478" x2="-3.2" y2="478"/>
<line class="st9" x1="-139.8" y1="498.1" x2="-3.2" y2="498.1"/>
<text transform="matrix(1 0 0 1 -139.7584 431.4191)"><tspan x="0" y="0" class="st18" style="font-family:'Aeroport'; font-size:11.0309px;">Insp</tspan><tspan x="20.9" y="0" class="st18" style="font-family:'Aeroport'; font-size:11.0309px;">i</tspan><tspan x="23.5" y="0" class="st18" style="font-family:'Aeroport'; font-size:11.0309px;">rati</tspan><tspan x="40.2" y="0" class="st18" style="font-family:'Aeroport'; font-size:11.0309px;">o</tspan><tspan x="46.4" y="0" class="st18" style="font-family:'Aeroport'; font-size:11.0309px;">na</tspan><tspan x="58.6" y="0" class="st18" style="font-family:'Aeroport'; font-size:11.0309px;">l</tspan><tspan x="61.1" y="0" class="st18" style="font-family:'Aeroport'; font-size:11.0309px;"> f</tspan><tspan x="67.1" y="0" class="st18" style="font-family:'Aeroport'; font-size:11.0309px;">o</tspan><tspan x="73.3" y="0" class="st18" style="font-family:'Aeroport'; font-size:11.0309px;">res</tspan><tspan x="89" y="0" class="st18" style="font-family:'Aeroport'; font-size:11.0309px;">i</tspan><tspan x="91.5" y="0" class="st18" style="font-family:'Aeroport'; font-size:11.0309px;">g</tspan><tspan x="98" y="0" class="st18" style="font-family:'Aeroport'; font-size:11.0309px;">h</tspan><tspan x="104.3" y="0" class="st18" style="font-family:'Aeroport'; font-size:11.0309px;">t</tspan><tspan x="108.4" y="0" class="st18" style="font-family:'Aeroport'; font-size:11.0309px;">s</tspan></text>
<text transform="matrix(1 0 0 1 -139.7584 451.4621)"><tspan x="0" y="0" class="st18" style="font-family:'Aeroport'; font-size:11.0309px;">R</tspan><tspan x="6.9" y="0" class="st18" style="font-family:'Aeroport'; font-size:11.0309px;">ema</tspan><tspan x="28.8" y="0" class="st18" style="font-family:'Aeroport'; font-size:11.0309px;">r</tspan><tspan x="33.3" y="0" class="st18" style="font-family:'Aeroport'; font-size:11.0309px;">ka</tspan><tspan x="44.5" y="0" class="st18" style="font-family:'Aeroport'; font-size:11.0309px;">bl</tspan><tspan x="53.5" y="0" class="st18" style="font-family:'Aeroport'; font-size:11.0309px;">e i</tspan><tspan x="64.3" y="0" class="st18" style="font-family:'Aeroport'; font-size:11.0309px;">n</tspan><tspan x="70.6" y="0" class="st18" style="font-family:'Aeroport'; font-size:11.0309px;">n</tspan><tspan x="77" y="0" class="st18" style="font-family:'Aeroport'; font-size:11.0309px;">o</tspan><tspan x="82.8" y="0" class="st18" style="font-family:'Aeroport'; font-size:11.0309px;">v</tspan><tspan x="88.2" y="0" class="st18" style="font-family:'Aeroport'; font-size:11.0309px;">at</tspan><tspan x="98.2" y="0" class="st18" style="font-family:'Aeroport'; font-size:11.0309px;">i</tspan><tspan x="100.7" y="0" class="st18" style="font-family:'Aeroport'; font-size:11.0309px;">o</tspan><tspan x="106.9" y="0" class="st18" style="font-family:'Aeroport'; font-size:11.0309px;">n</tspan></text>
<text transform="matrix(1 0 0 1 -139.7584 471.506)"><tspan x="0" y="0" class="st18" style="font-family:'Aeroport'; font-size:11.0309px;">P</tspan><tspan x="6.5" y="0" class="st18" style="font-family:'Aeroport'; font-size:11.0309px;">o</tspan><tspan x="12.6" y="0" class="st18" style="font-family:'Aeroport'; font-size:11.0309px;">werf</tspan><tspan x="35.4" y="0" class="st18" style="font-family:'Aeroport'; font-size:11.0309px;">u</tspan><tspan x="41.6" y="0" class="st18" style="font-family:'Aeroport'; font-size:11.0309px;">l bran</tspan><tspan x="69.3" y="0" class="st18" style="font-family:'Aeroport'; font-size:11.0309px;">d</tspan><tspan x="75.7" y="0" class="st18" style="font-family:'Aeroport'; font-size:11.0309px;">s</tspan></text>
<text transform="matrix(1 0 0 1 -139.7584 491.549)"><tspan x="0" y="0" class="st18" style="font-family:'Aeroport'; font-size:11.0309px;">C</tspan><tspan x="7.7" y="0" class="st18" style="font-family:'Aeroport'; font-size:11.0309px;">o</tspan><tspan x="13.9" y="0" class="st18" style="font-family:'Aeroport'; font-size:11.0309px;">n</tspan><tspan x="20.2" y="0" class="st18" style="font-family:'Aeroport'; font-size:11.0309px;">nected </tspan><tspan x="57.2" y="0" class="st18" style="font-family:'Aeroport'; font-size:11.0309px;">o</tspan><tspan x="63.4" y="0" class="st18" style="font-family:'Aeroport'; font-size:11.0309px;">r</tspan><tspan x="67.6" y="0" class="st18" style="font-family:'Aeroport'; font-size:11.0309px;">g</tspan><tspan x="73.9" y="0" class="st18" style="font-family:'Aeroport'; font-size:11.0309px;">a</tspan><tspan x="79.8" y="0" class="st18" style="font-family:'Aeroport'; font-size:11.0309px;">n</tspan><tspan x="86.1" y="0" class="st18" style="font-family:'Aeroport'; font-size:11.0309px;">isat</tspan><tspan x="104.2" y="0" class="st18" style="font-family:'Aeroport'; font-size:11.0309px;">i</tspan><tspan x="106.7" y="0" class="st18" style="font-family:'Aeroport'; font-size:11.0309px;">o</tspan><tspan x="112.9" y="0" class="st18" style="font-family:'Aeroport'; font-size:11.0309px;">n</tspan></text>
<text transform="matrix(1 0 0 1 -139.7584 511.591)"><tspan x="0" y="0" class="st18" style="font-family:'Aeroport'; font-size:11.0309px;">P</tspan><tspan x="6.5" y="0" class="st18" style="font-family:'Aeroport'; font-size:11.0309px;">e</tspan><tspan x="12.5" y="0" class="st18" style="font-family:'Aeroport'; font-size:11.0309px;">o</tspan><tspan x="18.7" y="0" class="st18" style="font-family:'Aeroport'; font-size:11.0309px;">p</tspan><tspan x="25.2" y="0" class="st18" style="font-family:'Aeroport'; font-size:11.0309px;">l</tspan><tspan x="27.7" y="0" class="st18" style="font-family:'Aeroport'; font-size:11.0309px;">e </tspan><tspan x="36" y="0" class="st18" style="font-family:'Aeroport'; font-size:11.0309px;">&amp;</tspan><tspan x="38.3" y="0" class="st18" style="font-family:'Aeroport'; font-size:11.0309px;"> </tspan><tspan x="40.6" y="0" class="st18" style="font-family:'Aeroport'; font-size:11.0309px;">p</tspan><tspan x="47.1" y="0" class="st18" style="font-family:'Aeroport'; font-size:11.0309px;">a</tspan><tspan x="53" y="0" class="st18" style="font-family:'Aeroport'; font-size:11.0309px;">r</tspan><tspan x="57.7" y="0" class="st18" style="font-family:'Aeroport'; font-size:11.0309px;">t</tspan><tspan x="61.8" y="0" class="st18" style="font-family:'Aeroport'; font-size:11.0309px;">n</tspan><tspan x="68.1" y="0" class="st18" style="font-family:'Aeroport'; font-size:11.0309px;">e</tspan><tspan x="74.1" y="0" class="st18" style="font-family:'Aeroport'; font-size:11.0309px;">r</tspan><tspan x="78.4" y="0" class="st18" style="font-family:'Aeroport'; font-size:11.0309px;">s</tspan><tspan x="84" y="0" class="st18" style="font-family:'Aeroport'; font-size:11.0309px;">h</tspan><tspan x="90.3" y="0" class="st18" style="font-family:'Aeroport'; font-size:11.0309px;">i</tspan><tspan x="92.8" y="0" class="st18" style="font-family:'Aeroport'; font-size:11.0309px;">p</tspan><tspan x="99.2" y="0" class="st18" style="font-family:'Aeroport'; font-size:11.0309px;">s</tspan></text>
<text transform="matrix(1 0 0 1 -304.4166 364.8625)"><tspan x="0" y="0" class="st18 st19 st20">H</tspan><tspan x="9.5" y="0" class="st18 st19 st20">O</tspan><tspan x="19.4" y="0" class="st18 st19 st20">W</tspan><tspan x="33" y="0" class="st18 st19 st20"> </tspan><tspan x="35.5" y="0" class="st18 st19 st20">W</tspan><tspan x="49.3" y="0" class="st18 st19 st20">E </tspan><tspan x="59.5" y="0" class="st18 st19 st20">W</tspan><tspan x="73.3" y="0" class="st18 st19 st20">I</tspan><tspan x="76.9" y="0" class="st18 st19 st20">N</tspan></text>
<defs>
	
		<filter id="Adobe_OpacityMaskFilter_00000067939555401670797830000011935534373173701782_" filterUnits="userSpaceOnUse" x="-307" y="391.7" width="164.7" height="155.9">
		<feColorMatrix  type="matrix" values="1 0 0 0 0  0 1 0 0 0  0 0 1 0 0  0 0 0 1 0"/>
	</filter>
</defs>
<mask maskUnits="userSpaceOnUse" x="-307" y="391.7" width="164.7" height="155.9" id="SVGID_00000020394109323139728190000010335582609294041270_">
	<g style="filter:url(#Adobe_OpacityMaskFilter_00000067939555401670797830000011935534373173701782_);">
		<g>
			<defs>
				<rect id="SVGID_00000057122135686773528210000011400951751083441846_" x="-317.6" y="383.2" width="186.4" height="166.3"/>
			</defs>
			<clipPath id="SVGID_00000181807647154081516530000014180767402375605134_">
				<use xlink:href="#SVGID_00000057122135686773528210000011400951751083441846_"  style="overflow:visible;"/>
			</clipPath>
			<g style="clip-path:url(#SVGID_00000181807647154081516530000014180767402375605134_);">
				
					<image style="overflow:visible;" width="352" height="314" xlink:href="2A2FEC6D.jpg"  transform="matrix(0.5295 0 0 0.5295 -317.6133 383.2383)">
				</image>
			</g>
		</g>
	</g>
</mask>
<g style="mask:url(#SVGID_00000020394109323139728190000010335582609294041270_);">
	<g>
		<defs>
			<rect id="SVGID_00000157301530080008968450000013698749186736369835_" x="-307" y="391.7" width="164.7" height="155.9"/>
		</defs>
		<clipPath id="SVGID_00000098213716459039318610000018234981285468721070_">
			<use xlink:href="#SVGID_00000157301530080008968450000013698749186736369835_"  style="overflow:visible;"/>
		</clipPath>
		
			<rect x="-307" y="391.7" style="opacity:0.35;clip-path:url(#SVGID_00000098213716459039318610000018234981285468721070_);fill:#231F20;" width="164.7" height="155.9"/>
	</g>
</g>
<path class="st7" d="M-302.8,395.9v141.4h119.6c10.3-23.6,20.5-47.1,30.8-70.7c-10.3-23.6-20.5-47.1-30.8-70.7H-302.8z"/>
<path class="st8" d="M-302.8,395.9v141.4h119.6c10.3-23.6,20.5-47.1,30.8-70.7c-10.3-23.6-20.5-47.1-30.8-70.7H-302.8z"/>
<text transform="matrix(1 0 0 1 -272.9508 420.0646)"><tspan x="0" y="0" class="st18 st19 st21">High </tspan><tspan x="0" y="17.2" class="st18 st19 st21">G</tspan><tspan x="10.7" y="17.2" class="st18 st19 st21">r</tspan><tspan x="16.5" y="17.2" class="st18 st19 st21">owth </tspan><tspan x="0" y="34.4" class="st18 st19 st21">S</tspan><tspan x="9" y="34.4" class="st18 st19 st21">e</tspan><tspan x="17.6" y="34.4" class="st18 st19 st21">gments</tspan></text>
<text transform="matrix(1 0 0 1 -227.9371 420.0646)" class="st18 st19 st21"> </text>
<text transform="matrix(1 0 0 1 -218.8463 434.4055)" class="st18 st19 st21"> </text>
<text transform="matrix(1 0 0 1 -272.9508 494.9719)"><tspan x="0" y="0" class="st18 st19 st21">Priority </tspan><tspan x="0" y="17.2" class="st18 st19 st21">Mar</tspan><tspan x="27.8" y="17.2" class="st18 st19 st21">k</tspan><tspan x="35.6" y="17.2" class="st18 st19 st21">ets</tspan></text>
<text transform="matrix(1 0 0 1 -218.7604 502.7785)" class="st18 st19 st21"> </text>
<line class="st13" x1="-284.2" y1="469.1" x2="-208.4" y2="469.1"/>
<text transform="matrix(1 0 0 1 -139.7584 394.5031)"><tspan x="0" y="0" class="st18 st19" style="font-size:11.0309px;">H</tspan><tspan x="7.9" y="0" class="st18 st19" style="font-size:11.0309px;">o</tspan><tspan x="14.2" y="0" class="st18 st19" style="font-size:11.0309px;">w</tspan><tspan x="23.7" y="0" class="st18 st19" style="font-size:11.0309px;"> </tspan><tspan x="25.8" y="0" class="st18 st19" style="font-size:11.0309px;">to</tspan><tspan x="36.7" y="0" class="st18 st19" style="font-size:11.0309px;"> </tspan><tspan x="38.8" y="0" class="st18 st19" style="font-size:11.0309px;">w</tspan><tspan x="48.3" y="0" class="st18 st19" style="font-size:11.0309px;">i</tspan><tspan x="51.1" y="0" class="st18 st19" style="font-size:11.0309px;">n</tspan></text>
<defs>
	
		<filter id="Adobe_OpacityMaskFilter_00000036213860106916195980000008311734912463267728_" filterUnits="userSpaceOnUse" x="-348.8" y="341.5" width="437.3" height="229.3">
		<feColorMatrix  type="matrix" values="1 0 0 0 0  0 1 0 0 0  0 0 1 0 0  0 0 0 1 0"/>
	</filter>
</defs>
<mask maskUnits="userSpaceOnUse" x="-348.8" y="341.5" width="437.3" height="229.3" id="SVGID_00000003071807923204715610000010088812373539483055_">
	<g style="filter:url(#Adobe_OpacityMaskFilter_00000036213860106916195980000008311734912463267728_);">
		<g>
			<defs>
				<rect id="SVGID_00000179606143041017649000000005105684194906863240_" x="-435.1" y="333.1" width="545.4" height="239.3"/>
			</defs>
			<clipPath id="SVGID_00000178918586433655358380000010490702575113702795_">
				<use xlink:href="#SVGID_00000179606143041017649000000005105684194906863240_"  style="overflow:visible;"/>
			</clipPath>
			<g style="clip-path:url(#SVGID_00000178918586433655358380000010490702575113702795_);">
				
					<image style="overflow:visible;" width="1030" height="452" xlink:href="2A2FEC73.jpg"  transform="matrix(0.5295 0 0 0.5295 -435.1489 333.0742)">
				</image>
			</g>
		</g>
	</g>
</mask>
<g style="mask:url(#SVGID_00000003071807923204715610000010088812373539483055_);">
	<g>
		<defs>
			<polygon id="SVGID_00000137850431972073780640000000780983836473912476_" points="-338.9,570.8 88.5,570.8 78.6,341.5 
				-348.8,341.5 			"/>
		</defs>
		<clipPath id="SVGID_00000172410458952730171560000017187612143165788344_">
			<use xlink:href="#SVGID_00000137850431972073780640000000780983836473912476_"  style="overflow:visible;"/>
		</clipPath>
	</g>
</g>
<g>
	<g>
		<path class="st16" d="M23.3,1H162v213H23.3c19.1-35.2,38.2-70.3,57.3-105.5l0.3-0.5l-0.3-0.5C61.5,71.9,42.4,36.4,23.3,1L23.3,1z"
			/>
		<path class="st17" d="M23.3,1H162v213H23.3c19.1-35.2,38.2-70.3,57.3-105.5l0.3-0.5l-0.3-0.5C61.5,71.9,42.4,36.4,23.3,1z"/>
	</g>
	<text transform="matrix(1 0 0 1 106.5977 19.3397)"><tspan x="0" y="0" class="st18 st19 st20">E</tspan><tspan x="7.7" y="0" class="st18 st19 st20">T</tspan><tspan x="15.5" y="0" class="st18 st19 st20">H</tspan><tspan x="25" y="0" class="st18 st19 st20">O</tspan><tspan x="34.9" y="0" class="st18 st19 st20">S</tspan></text>
	<text transform="matrix(1 0 0 1 72.8164 54.4285)"><tspan x="0" y="0" class="st18 st19 st21">Em</tspan><tspan x="21.9" y="0" class="st18 st19 st21">po</tspan><tspan x="39.3" y="0" class="st18 st19 st21">w</tspan><tspan x="51.5" y="0" class="st18 st19 st21">e</tspan><tspan x="59.8" y="0" class="st18 st19 st21">r</tspan><tspan x="65.5" y="0" class="st18 st19 st21">e</tspan><tspan x="73.9" y="0" class="st18 st19 st21">d</tspan></text>
	<text transform="matrix(1 0 0 1 119.8809 84.8572)"><tspan x="0" y="0" class="st18 st19 st21">Bol</tspan><tspan x="21.1" y="0" class="st18 st19 st21">d</tspan></text>
	<text transform="matrix(1 0 0 1 122.7041 115.285)"><tspan x="0" y="0" class="st18 st19 st21">F</tspan><tspan x="7.5" y="0" class="st18 st19 st21">a</tspan><tspan x="15.5" y="0" class="st18 st19 st21">s</tspan><tspan x="23" y="0" class="st18 st19 st21">t</tspan></text>
	<text transform="matrix(1 0 0 1 101.1016 145.7147)"><tspan x="0" y="0" class="st18 st19 st21">D</tspan><tspan x="9.9" y="0" class="st18 st19 st21">i</tspan><tspan x="13.4" y="0" class="st18 st19 st21">v</tspan><tspan x="21.1" y="0" class="st18 st19 st21">e</tspan><tspan x="29.3" y="0" class="st18 st19 st21">r</tspan><tspan x="34.9" y="0" class="st18 st19 st21">s</tspan><tspan x="42.4" y="0" class="st18 st19 st21">e</tspan></text>
	<text transform="matrix(1 0 0 1 73.8994 176.1444)"><tspan x="0" y="0" class="st18 st19 st21">R</tspan><tspan x="9.4" y="0" class="st18 st19 st21">e</tspan><tspan x="17.6" y="0" class="st18 st19 st21">s</tspan><tspan x="25.1" y="0" class="st18 st19 st21">po</tspan><tspan x="42.2" y="0" class="st18 st19 st21">ns</tspan><tspan x="58.3" y="0" class="st18 st19 st21">i</tspan><tspan x="61.9" y="0" class="st18 st19 st21">b</tspan><tspan x="70.8" y="0" class="st18 st19 st21">l</tspan><tspan x="74.4" y="0" class="st18 st19 st21">e</tspan></text>
	<text transform="matrix(1 0 0 1 0 19.3397)" class="st18 st19 st20"> </text>
	<line class="st13" x1="100.1" y1="64.7" x2="148.6" y2="64.7"/>
	<line class="st13" x1="100.1" y1="95" x2="148.6" y2="95"/>
	<line class="st13" x1="100.1" y1="125.3" x2="148.6" y2="125.3"/>
	<line class="st13" x1="100.1" y1="155.8" x2="148.6" y2="155.8"/>
</g>
<g>
	<g>
		<g>
			<g>
				<defs>
					<rect id="SVGID_00000068668111680668380280000014622136877139787649_" x="392.2" y="671.3" width="199" height="251.2"/>
				</defs>
				<clipPath id="SVGID_00000029725995242479341300000018322495413424830344_">
					<use xlink:href="#SVGID_00000068668111680668380280000014622136877139787649_"  style="overflow:visible;"/>
				</clipPath>
				<defs>
					
						<filter id="Adobe_OpacityMaskFilter_00000008123742224772909170000001327326826806370744_" filterUnits="userSpaceOnUse" x="402.8" y="679.7" width="177.1" height="240.4">
						<feColorMatrix  type="matrix" values="1 0 0 0 0  0 1 0 0 0  0 0 1 0 0  0 0 0 1 0"/>
					</filter>
				</defs>
				
					<mask maskUnits="userSpaceOnUse" x="402.8" y="679.7" width="177.1" height="240.4" id="SVGID_00000150077478542595803890000007270894810406001072_">
					<g style="filter:url(#Adobe_OpacityMaskFilter_00000008123742224772909170000001327326826806370744_);">
						<g>
							<defs>
								<rect id="SVGID_00000011028660436453549700000003869544590707847579_" x="392.2" y="671.3" width="199.1" height="251"/>
							</defs>
							
								<clipPath id="SVGID_00000016077469280320021200000006940161581952953746_" style="clip-path:url(#SVGID_00000029725995242479341300000018322495413424830344_);">
								<use xlink:href="#SVGID_00000011028660436453549700000003869544590707847579_"  style="overflow:visible;"/>
							</clipPath>
							<g style="clip-path:url(#SVGID_00000016077469280320021200000006940161581952953746_);">
								
									<image style="overflow:visible;" width="376" height="474" xlink:href="2A2FEC75.jpg"  transform="matrix(0.5295 0 0 0.5295 392.2224 671.2745)">
								</image>
							</g>
						</g>
					</g>
				</mask>
				
					<g style="clip-path:url(#SVGID_00000029725995242479341300000018322495413424830344_);mask:url(#SVGID_00000150077478542595803890000007270894810406001072_);">
					<g>
						<defs>
							<rect id="SVGID_00000123418067280281951760000016305186722510806965_" x="402.8" y="679.7" width="177.1" height="240.4"/>
						</defs>
						<clipPath id="SVGID_00000124865770990525345190000003931859141188008124_">
							<use xlink:href="#SVGID_00000123418067280281951760000016305186722510806965_"  style="overflow:visible;"/>
						</clipPath>
					</g>
				</g>
				<polygon style="clip-path:url(#SVGID_00000029725995242479341300000018322495413424830344_);fill:#FFFFFF;" points="
					405.5,914.8 506.1,914.8 572.1,800 506.1,685.2 405.5,685.2 				"/>
			</g>
		</g>
		<g>
			<g>
				<polygon class="st18" points="446.5,685.2 345.9,685.2 279.9,800 345.9,914.8 446.5,914.8 				"/>
			</g>
		</g>
	</g>
	<polygon class="st26" points="353.5,927.4 499.2,927.4 572,800 499.2,672.5 353.5,672.5 280.6,800 	"/>
	<g>
		<defs>
			<polygon id="SVGID_00000069376081428895215070000000390756201203659906_" points="353.5,672.5 280.6,800 353.5,927.4 
				499.2,927.4 572,800 499.2,672.5 			"/>
		</defs>
		<clipPath id="SVGID_00000081617572382336146320000013266700117840590773_">
			<use xlink:href="#SVGID_00000069376081428895215070000000390756201203659906_"  style="overflow:visible;"/>
		</clipPath>
		<g style="clip-path:url(#SVGID_00000081617572382336146320000013266700117840590773_);">
			<defs>
				<polygon id="SVGID_00000116926737978408650810000015815358915993291171_" points="842.4,1577.8 1075.1,1001 387.3,603.8 
					154.5,1172.4 				"/>
			</defs>
			<clipPath id="SVGID_00000116918289101383066140000004080986142918438817_">
				<use xlink:href="#SVGID_00000116926737978408650810000015815358915993291171_"  style="overflow:visible;"/>
			</clipPath>
			
				<g transform="matrix(1 0 0 1 2.670288e-05 0)" style="clip-path:url(#SVGID_00000116918289101383066140000004080986142918438817_);">
				
					<image style="overflow:visible;" width="1240" height="1501" xlink:href="2A2FEC77.jpg"  transform="matrix(0.2647 -0.4585 0.4583 0.2646 59.0475 1172.3845)">
				</image>
			</g>
		</g>
	</g>
	<g>
		<defs>
			<polygon id="SVGID_00000096049031861745315240000004067253297960964782_" points="358.8,681.8 291.2,800 358.8,918.2 
				493.9,918.2 561.4,800 493.9,681.8 			"/>
		</defs>
		<clipPath id="SVGID_00000096028439049356979960000001233646102202267810_">
			<use xlink:href="#SVGID_00000096049031861745315240000004067253297960964782_"  style="overflow:visible;"/>
		</clipPath>
		<g style="clip-path:url(#SVGID_00000096028439049356979960000001233646102202267810_);">
			<defs>
				<polygon id="SVGID_00000067945160460277150180000000807042026830959769_" points="840.5,1581.1 1076.1,999.4 397.5,607.6 
					162,1181.1 				"/>
			</defs>
			<clipPath id="SVGID_00000115480647702253546380000001408875482572643468_">
				<use xlink:href="#SVGID_00000067945160460277150180000000807042026830959769_"  style="overflow:visible;"/>
			</clipPath>
			
				<g transform="matrix(1 0 0 1 -7.629395e-06 0)" style="clip-path:url(#SVGID_00000115480647702253546380000001408875482572643468_);">
				
					<image style="overflow:visible;" width="1251" height="1480" xlink:href="2A2FEC74.jpg"  transform="matrix(0.2646 -0.4584 0.4585 0.2647 66.4709 1181.0529)">
				</image>
			</g>
		</g>
	</g>
	<g>
		<path class="st29" d="M359.4,917.1h133.8c22.3-39,44.6-78.1,66.9-117.1c-22.3-39-44.6-78.1-66.9-117.1H359.4
			c-22.3,39-44.6,78.1-66.9,117.1C314.8,839,337.1,878,359.4,917.1z"/>
	</g>
	<text transform="matrix(1 0 0 1 379.0319 712.1193)"><tspan x="0" y="0" class="st18 st19 st20">O</tspan><tspan x="10" y="0" class="st18 st19 st20">U</tspan><tspan x="19.3" y="0" class="st18 st19 st20">R</tspan><tspan x="28.2" y="0" class="st18 st19 st20"> </tspan><tspan x="30.5" y="0" class="st18 st19 st20">P</tspan><tspan x="38.9" y="0" class="st18 st19 st20">U</tspan><tspan x="48.3" y="0" class="st18 st19 st20">R</tspan><tspan x="57.2" y="0" class="st18 st19 st20">P</tspan><tspan x="65.8" y="0" class="st18 st19 st20">OS</tspan><tspan x="83.8" y="0" class="st18 st19 st20">E</tspan></text>
	<g>
		<defs>
			<rect id="SVGID_00000155110258762038256160000011668991160607306400_" x="333.7" y="758.8" width="185.5" height="77.7"/>
		</defs>
		<clipPath id="SVGID_00000094608037492151308300000016689117405210970261_">
			<use xlink:href="#SVGID_00000155110258762038256160000011668991160607306400_"  style="overflow:visible;"/>
		</clipPath>
		<path style="clip-path:url(#SVGID_00000094608037492151308300000016689117405210970261_);fill:#FFFFFF;" d="M390.4,818.5h13.9
			c-0.7,1-1.4,2.1-2.1,3c-7,9.1-17.9,14.9-30.2,14.9c-21.1,0-38.3-17.4-38.3-38.8c0-21.5,17.1-38.8,38.3-38.8
			c12.3,0,23.2,5.9,30.3,15c0.7,1,1.4,2,2.1,3h-13.8c-1.2-1.1-2.5-2.1-3.9-3c-4.3-2.8-9.4-4.3-14.6-4.3c-7.3,0-14.2,2.9-19.4,8.2
			c-5.2,5.3-8.1,12.4-8.1,19.9s2.9,14.6,8.1,19.9c5.2,5.3,12.1,8.2,19.4,8.2c5.2,0,10.2-1.5,14.5-4.2
			C387.8,820.7,389.1,819.6,390.4,818.5 M391.2,794h-8l-2.2,3.7h-2.8l11-18h1.4l4,18H392L391.2,794z M390.8,791.8l-1.6-7.5l-4.5,7.5
			H390.8z M402.1,797.7l3.5-17.8h5.7c2.8,0,4.7,1.6,4.7,4.1c0,0.4,0,0.7-0.1,1c-0.3,1.6-1.2,2.8-2.4,3.4c1.4,0.5,2.4,1.8,2.4,3.6
			c0,0.3,0,0.7-0.1,1c-0.6,3-3,4.8-6.1,4.8H402.1z M406.5,787.7h3.7c1.8,0,2.9-1.1,3.2-2.8c0-0.2,0.1-0.4,0.1-0.7
			c0-1.3-0.8-2.2-2.6-2.2h-3.3L406.5,787.7z M404.9,795.6h4.6c2,0,3.3-1.1,3.7-3c0-0.2,0.1-0.4,0-0.6c0-1.4-0.9-2.3-2.7-2.3h-4.4
			L404.9,795.6z M421.7,789.7h8.1l0.4-2h-8l1.1-5.5h8.7l0.4-2.3h-11.2l-3.5,17.8h11.2l0.5-2.3h-8.7L421.7,789.7z M435.9,797.7h2.4
			l3-15.6h5.5l0.4-2.2h-13.5l-0.4,2.2h5.5L435.9,797.7z M450.6,797.7h2.4l3-15.6h5.5l0.4-2.2h-13.5l-0.4,2.2h5.5L450.6,797.7z
			 M471.7,797.7l0.5-2.3h-8.7l1.1-5.7h8.1l0.4-2h-8l1.1-5.5h8.7l0.4-2.3l-11.2,0l-3.5,17.8H471.7z M474.5,797.7l3.5-17.8h6.2
			c3.2,0,5.3,1.7,5.3,4.3c0,0.4,0,0.7-0.1,1.1c-0.5,2.5-2.3,4-5,4.5l3.3,7.9H485l-3.1-7.7l-3.4,0l-1.5,7.8H474.5z M478.9,787.9h3.9
			c2.2,0,3.7-0.9,4.1-2.8c0-0.2,0.1-0.4,0.1-0.6c0-1.5-1.3-2.4-3.2-2.4H480L478.9,787.9z M388.1,802.6h-9.9v3.1h9.9V802.6z
			 M384.8,807.3h-3.3v8h3.3V807.3z M389.1,809c0-3.8,1.6-6.6,7.1-6.6s7,2.8,7.1,6.6c0,3.8-1.7,6.6-7.1,6.6
			C390.7,815.6,389.1,812.8,389.1,809 M392.4,809c0,2.5,0.8,3.7,3.7,3.7c2.9,0,3.7-1.2,3.7-3.7h0c0-2.5-0.8-3.7-3.7-3.7
			C393.3,805.3,392.5,806.5,392.4,809 M416.3,812.6l-6.4-10h-4.8v12.8h3.3V806l6,9.3h3.6l6.1-9.3v9.3h3.3v-12.8h-4.8L416.3,812.6z
			 M443.6,809c0,3.8-1.7,6.6-7.1,6.6c-5.4,0-7.1-2.8-7.1-6.6c0-3.8,1.6-6.6,7.1-6.6C442,802.3,443.6,805.2,443.6,809 M440.2,809
			L440.2,809c0-2.5-0.8-3.7-3.7-3.7c-2.9,0-3.7,1.2-3.7,3.7c0,2.5,0.8,3.7,3.7,3.7C439.4,812.7,440.2,811.5,440.2,809 M494.8,809
			c0,3.8-1.7,6.6-7.1,6.6s-7.1-2.8-7.1-6.6c0-3.8,1.6-6.6,7.1-6.6C493.2,802.3,494.8,805.2,494.8,809 M491.4,809
			c0-2.5-0.8-3.7-3.7-3.7c-2.9,0-3.7,1.2-3.7,3.7c0,2.5,0.8,3.7,3.7,3.7S491.4,811.5,491.4,809 M511.3,812.4l-3.8-9.8h-3.1l1,2.5
			l-2.8,7.2l-4-9.8H495l5.6,12.8h3.8l2.5-6.3l2.5,6.3h3.8l5.5-12.8h-3.4L511.3,812.4z M521,803.6h1.2v3.3h1v-3.3h1.2v-0.9H521V803.6
			z M528.5,802.6l-1.5,1.7l-1.5-1.7h-0.7v4.3h1v-2.5l1.2,1.3l1.2-1.3v2.5h1v-4.3H528.5z M461.2,806.9c0-2.7-1.7-4.4-4.7-4.4h-12v0.7
			h0v5.7h3.2v-3.5h8.6c1.1,0,1.7,0.5,1.7,1.5s-0.6,1.5-1.7,1.5H451v2.8h5.2l2.3,4.1h3.5l-2.7-4.8
			C460.5,809.9,461.2,808.6,461.2,806.9 M479.2,806.9c0-2.7-1.7-4.4-4.7-4.4h-12v2.9h0v3.5h3.2v-3.5h8.6c1.1,0,1.7,0.5,1.7,1.5
			s-0.6,1.5-1.7,1.5h-5.2v2.8h5.2l2.3,4.1h3.5l-2.7-4.8C478.5,809.9,479.2,808.6,479.2,806.9"/>
	</g>
</g>
<g>
	<polygon class="st31" points="618.1,463.1 555.7,580.4 347.9,580.4 353.6,570.5 414.9,462.8 353.1,355.8 347.4,345.9 555.7,345.9 	
		"/>
	<g>
		<defs>
			
				<filter id="Adobe_OpacityMaskFilter_00000047042870713331555590000007832506824956752792_" filterUnits="userSpaceOnUse" x="333.4" y="351.6" width="283.3" height="229.3">
				<feColorMatrix  type="matrix" values="1 0 0 0 0  0 1 0 0 0  0 0 1 0 0  0 0 0 1 0"/>
			</filter>
		</defs>
		
			<mask maskUnits="userSpaceOnUse" x="333.4" y="351.6" width="283.3" height="229.3" id="SVGID_00000119084937193391748630000015731890720575840175_">
			<g style="filter:url(#Adobe_OpacityMaskFilter_00000047042870713331555590000007832506824956752792_);">
				<g>
					<defs>
						<rect id="SVGID_00000114035887943707167270000002591651078154894745_" x="322.8" y="343.1" width="305" height="239.3"/>
					</defs>
					<clipPath id="SVGID_00000111909709105141324540000011452028979985587895_">
						<use xlink:href="#SVGID_00000114035887943707167270000002591651078154894745_"  style="overflow:visible;"/>
					</clipPath>
					<g style="clip-path:url(#SVGID_00000111909709105141324540000011452028979985587895_);">
						
							<image style="overflow:visible;" width="576" height="452" xlink:href="2A2FEC7C.jpg"  transform="matrix(0.5295 0 0 0.5295 322.8011 343.1491)">
						</image>
					</g>
				</g>
			</g>
		</mask>
		<g style="mask:url(#SVGID_00000119084937193391748630000015731890720575840175_);">
			<g>
				<defs>
					<rect id="SVGID_00000117637893139254429640000015032792596376676996_" x="333.4" y="351.6" width="283.3" height="229.3"/>
				</defs>
				<clipPath id="SVGID_00000020386675272438682790000005814335284411135411_">
					<use xlink:href="#SVGID_00000117637893139254429640000015032792596376676996_"  style="overflow:visible;"/>
				</clipPath>
			</g>
		</g>
		<path class="st34" d="M606.5,463.1c-19,35.8-38.1,71.5-57.1,107.3H353.6l61.3-107.6l-61.7-107h196.3
			C568.5,391.6,587.5,427.3,606.5,463.1z"/>
		<path class="st35" d="M606.5,463.1c-19,35.8-38.1,71.5-57.1,107.3H353.6l61.3-107.6l-61.7-107h196.3
			C568.5,391.6,587.5,427.3,606.5,463.1z"/>
	</g>
	<line class="st9" x1="422.6" y1="410.8" x2="544.1" y2="410.8"/>
	<line class="st9" x1="422.6" y1="455.2" x2="545.1" y2="455.2"/>
	<line class="st9" x1="422.6" y1="499.7" x2="544.6" y2="499.7"/>
	<line class="st9" x1="422.6" y1="544.1" x2="543.8" y2="544.1"/>
	<text transform="matrix(1 0 0 1 422.5784 406.1087)"><tspan x="0" y="0" class="st18 st19" style="font-size:11.0309px;">Co</tspan><tspan x="14.2" y="0" class="st18 st19" style="font-size:11.0309px;">n</tspan><tspan x="20.8" y="0" class="st18 st19" style="font-size:11.0309px;">s</tspan><tspan x="26.6" y="0" class="st18 st19" style="font-size:11.0309px;">u</tspan><tspan x="33.1" y="0" class="st18 st19" style="font-size:11.0309px;">me</tspan><tspan x="49.6" y="0" class="st18 st19" style="font-size:11.0309px;">r</tspan><tspan x="53.9" y="0" class="st18 st19" style="font-size:11.0309px;">s</tspan></text>
	<text transform="matrix(1 0 0 1 422.5784 450.5599)"><tspan x="0" y="0" class="st18 st19" style="font-size:11.0309px;">So</tspan><tspan x="13.2" y="0" class="st18 st19" style="font-size:11.0309px;">c</tspan><tspan x="19.3" y="0" class="st18 st19" style="font-size:11.0309px;">i</tspan><tspan x="22.1" y="0" class="st18 st19" style="font-size:11.0309px;">et</tspan><tspan x="32.9" y="0" class="st18 st19" style="font-size:11.0309px;">y</tspan></text>
	<text transform="matrix(1 0 0 1 422.5784 466.2806)"><tspan x="0" y="0" class="st18" style="font-family:'Aeroport'; font-size:9.3763px;">reduced overall health</tspan><tspan x="0" y="11.3" class="st18" style="font-family:'Aeroport'; font-size:9.3763px;">and environmental impact</tspan></text>
	<text transform="matrix(1 0 0 1 422.5784 495.0091)"><tspan x="0" y="0" class="st18 st19" style="font-size:11.0309px;">Em</tspan><tspan x="16.6" y="0" class="st18 st19" style="font-size:11.0309px;">p</tspan><tspan x="23.3" y="0" class="st18 st19" style="font-size:11.0309px;">l</tspan><tspan x="26.1" y="0" class="st18 st19" style="font-size:11.0309px;">o</tspan><tspan x="32.6" y="0" class="st18 st19" style="font-size:11.0309px;">y</tspan><tspan x="38.3" y="0" class="st18 st19" style="font-size:11.0309px;">e</tspan><tspan x="44.6" y="0" class="st18 st19" style="font-size:11.0309px;">e</tspan><tspan x="50.9" y="0" class="st18 st19" style="font-size:11.0309px;">s</tspan></text>
	<path class="st18" d="M458.9,504h1v1.1h-1V504z M470.3,504h1v1.1h-1V504z M487.8,504h1v1.1h-1V504z M493.1,504h1v1.1h-1V504z"/>
	<text transform="matrix(1 0 0 1 422.5784 539.4564)"><tspan x="0" y="0" class="st18 st19" style="font-size:11.0309px;">Sh</tspan><tspan x="13.3" y="0" class="st18 st19" style="font-size:11.0309px;">a</tspan><tspan x="19.5" y="0" class="st18 st19" style="font-size:11.0309px;">r</tspan><tspan x="23.8" y="0" class="st18 st19" style="font-size:11.0309px;">e</tspan><tspan x="30" y="0" class="st18 st19" style="font-size:11.0309px;">h</tspan><tspan x="36.6" y="0" class="st18 st19" style="font-size:11.0309px;">ol</tspan><tspan x="45.8" y="0" class="st18 st19" style="font-size:11.0309px;">d</tspan><tspan x="52.5" y="0" class="st18 st19" style="font-size:11.0309px;">e</tspan><tspan x="58.8" y="0" class="st18 st19" style="font-size:11.0309px;">r</tspan><tspan x="63.1" y="0" class="st18 st19" style="font-size:11.0309px;">s</tspan></text>
	<path class="st18" d="M445,548.5h1v1.1h-1V548.5z M511.4,548.5h1v1.1h-1V548.5z"/>
	<text transform="matrix(1 0 0 1 422.5784 374.9378)"><tspan x="0" y="0" class="st18 st19 st20">K</tspan><tspan x="8" y="0" class="st18 st19 st20">E</tspan><tspan x="15.6" y="0" class="st18 st19 st20">Y </tspan><tspan x="26" y="0" class="st18 st19 st20">S</tspan><tspan x="33.7" y="0" class="st18 st19 st20" style="letter-spacing:-1;">T</tspan><tspan x="40.2" y="0" class="st18 st19 st20">A</tspan><tspan x="49.1" y="0" class="st18 st19 st20">K</tspan><tspan x="57.1" y="0" class="st18 st19 st20">E</tspan><tspan x="64.6" y="0" class="st18 st19 st20">H</tspan><tspan x="73.8" y="0" class="st18 st19 st20">O</tspan><tspan x="83.5" y="0" class="st18 st19 st20">L</tspan><tspan x="90.4" y="0" class="st18 st19 st20">DE</tspan><tspan x="106.8" y="0" class="st18 st19 st20">R </tspan></text>
	<text transform="matrix(1 0 0 1 548.5159 374.9378)" class="st18 st19 st20"> </text>
	<text transform="matrix(1 0 0 1 422.5784 388.1751)"><tspan x="0" y="0" class="st18 st19 st20">O</tspan><tspan x="10" y="0" class="st18 st19 st20">U</tspan><tspan x="19.2" y="0" class="st18 st19 st20">T</tspan><tspan x="26.8" y="0" class="st18 st19 st20">C</tspan><tspan x="35.9" y="0" class="st18 st19 st20">O</tspan><tspan x="45.9" y="0" class="st18 st19 st20">M</tspan><tspan x="58.2" y="0" class="st18 st19 st20">E</tspan><tspan x="65.8" y="0" class="st18 st19 st20">S</tspan></text>
	<g>
		<defs>
			<rect id="SVGID_00000155860969786443819640000006428866487709103020_" x="528.9" y="394.8" width="15.6" height="15.6"/>
		</defs>
		<clipPath id="SVGID_00000028305944752699817670000009589615828558345133_">
			<use xlink:href="#SVGID_00000155860969786443819640000006428866487709103020_"  style="overflow:visible;"/>
		</clipPath>
		
			<path style="clip-path:url(#SVGID_00000028305944752699817670000009589615828558345133_);fill:none;stroke:#FFFFFF;stroke-width:0.7188;stroke-linecap:round;stroke-linejoin:round;stroke-miterlimit:10;" d="
			M542.4,407h-7.8v-2.5c0-1.1,0.9-2,2.1-2.1c0,0,0,0,0,0l2.2,2.1l2.1-2.1h0.1c1.3,0,2.3,0.9,2.3,2.1v2.5H542.4z M533.4,406.4h-0.2
			h-3.2v-1.7c0-1.1,1-2.1,2.2-2.1h1.8"/>
		
			<path style="clip-path:url(#SVGID_00000028305944752699817670000009589615828558345133_);fill:none;stroke:#FFFFFF;stroke-width:0.7188;stroke-miterlimit:10;" d="
			M534.6,399.6c0,0.8-0.6,1.4-1.4,1.4s-1.4-0.6-1.4-1.4c0-0.8,0.6-1.4,1.4-1.4S534.6,398.9,534.6,399.6z M541,399c0,1.1-0.9,2-2,2
			c-1.1,0-2-0.9-2-2c0-1.1,0.9-2,2-2C540.1,397,541,397.9,541,399z"/>
	</g>
	<g>
		<defs>
			<rect id="SVGID_00000108300089324678389680000003695683848604675764_" x="530.1" y="438.5" width="15.6" height="15.6"/>
		</defs>
		<clipPath id="SVGID_00000113355408578487009150000013961536357105887924_">
			<use xlink:href="#SVGID_00000108300089324678389680000003695683848604675764_"  style="overflow:visible;"/>
		</clipPath>
		
			<path style="clip-path:url(#SVGID_00000113355408578487009150000013961536357105887924_);fill:none;stroke:#FFFFFF;stroke-width:0.7188;stroke-miterlimit:10;" d="
			M540,449.2c-0.6,0-1.3-0.1-2-0.1c-0.7,0-1.4,0-2,0.1c0.4,2,1.2,3.3,2,3.3C538.8,452.5,539.6,451.2,540,449.2z M536,443
			c0.6,0,1.3,0.1,2,0.1c0.7,0,1.4,0,2-0.1c-0.4-1.8-1.1-3-2-3C537.1,440,536.4,441.2,536,443z M535.9,449.2c0.6,0,1.3-0.1,2-0.1
			c0.7,0,1.4,0,2,0.1c0.2-0.9,0.3-1.9,0.3-3h-4.6C535.7,447.4,535.8,448.4,535.9,449.2z M538,443.1c-0.7,0-1.4,0-2-0.1
			c-0.2,1-0.3,2.1-0.3,3.3h4.6c0-1.2-0.1-2.3-0.3-3.3C539.3,443.1,538.7,443.1,538,443.1z M538,452.5c2.2,0,4.1-1.1,5.2-2.8
			c-0.8-0.2-1.9-0.4-3.2-0.5C539.6,451.2,538.8,452.5,538,452.5z M535.9,449.2c-1.3,0.1-2.4,0.2-3.2,0.5c1.1,1.7,3,2.8,5.2,2.8
			C537.1,452.5,536.3,451.2,535.9,449.2z M540.3,446.3c0,1.1-0.1,2.1-0.3,3c1.3,0.1,2.4,0.2,3.2,0.5c0.6-1,1-2.2,1-3.4H540.3z
			 M535.7,446.3h-3.9c0,1.3,0.4,2.4,1,3.4c0.8-0.2,1.9-0.4,3.2-0.5C535.8,448.4,535.7,447.4,535.7,446.3z M540.3,446.3h3.9
			c0-1.4-0.4-2.6-1.2-3.7c-0.8,0.2-1.8,0.3-3.1,0.4C540.1,444,540.3,445.1,540.3,446.3z M542.2,442.8c0.3,0,0.6-0.1,0.8-0.2
			c-1.1-1.6-3-2.6-5.1-2.6c0.8,0,1.6,1.2,2,3C540.8,443,541.6,442.9,542.2,442.8 M536,443c-1.2-0.1-2.3-0.2-3.1-0.4
			c-0.8,1-1.2,2.3-1.2,3.7h3.9C535.7,445.1,535.8,444,536,443z M538,440c-2.1,0-3.9,1-5.1,2.6c0.8,0.2,1.8,0.3,3.1,0.4
			C536.4,441.2,537.1,440,538,440z"/>
	</g>
	<g>
		<defs>
			<rect id="SVGID_00000042005246095256608820000017833831822634868100_" x="530.8" y="481.8" width="15.6" height="15.6"/>
		</defs>
		<clipPath id="SVGID_00000065768655449759342080000017074136528902505879_">
			<use xlink:href="#SVGID_00000042005246095256608820000017833831822634868100_"  style="overflow:visible;"/>
		</clipPath>
		
			<path style="clip-path:url(#SVGID_00000065768655449759342080000017074136528902505879_);fill:none;stroke:#FFFFFF;stroke-width:0.7188;stroke-linecap:round;stroke-linejoin:round;stroke-miterlimit:10;" d="
			M542.6,496.3l-4-2.1l-4,2.1c-0.3,0.1-0.6-0.1-0.5-0.4l0.8-4.4l-3.3-3.2c-0.2-0.2-0.1-0.5,0.2-0.5l4.5-0.7l2-4.1
			c0.1-0.2,0.5-0.2,0.6,0l2,4.1l4.5,0.7c0.3,0,0.4,0.4,0.2,0.6l-3.3,3.2l0.8,4.4C543.1,496.2,542.8,496.5,542.6,496.3z"/>
	</g>
	<path class="st18" d="M534.8,527.1h8.1v9.8h-1.8h-0.8v0.8v1.8h-5.5V527.1z M534,526.3v14.1h7.2v-2.6h2.6v-11.5H534z"/>
	<path class="st40" d="M538.2,532.5h3.6 M538.2,529.8h3.6"/>
	<rect x="535.8" y="534.5" class="st18" width="1.6" height="1.6"/>
	<rect x="535.8" y="531.8" class="st18" width="1.6" height="1.6"/>
	<rect x="535.8" y="529" class="st18" width="1.6" height="1.6"/>
	<line class="st40" x1="538.2" y1="535.3" x2="541.8" y2="535.3"/>
	<path class="st18" d="M534.8,527.1h8.1v10.3l-2.1,2.1h-6V527.1z M534,526.3v14.1h7.2l2.6-2.6v-11.5H534z"/>
	<text transform="matrix(1 0 0 1 422.5784 421.6761)"><tspan x="0" y="0" class="st18" style="font-family:'Aeroport'; font-size:9.3763px;">enjoyable choices for every mood</tspan><tspan x="0" y="11.3" class="st18" style="font-family:'Aeroport'; font-size:9.3763px;">and moment, today and tomorrow</tspan></text>
	<text transform="matrix(1 0 0 1 422.5784 510.8607)"><tspan x="0" y="0" class="st18" style="font-family:'Aeroport'; font-size:9.3763px;">a dynamic, inspiring and</tspan><tspan x="0" y="11.3" class="st18" style="font-family:'Aeroport'; font-size:9.3763px;">purposeful place to work</tspan></text>
	<text transform="matrix(1 0 0 1 422.5784 555.1859)" class="st18" style="font-family:'Aeroport'; font-size:9.3763px;">sustainable and superior returns</text>
</g>
<rect x="757" y="416.7" style="fill:none;" width="729.9" height="69.5"/>
<text transform="matrix(1 0 0 1 766.2179 430.112)"><tspan x="0" y="0" style="fill:#002A68; font-family:'Aeroport-Light'; font-size:20px;">“As a responsible consumer products Company, we evaluate our performance </tspan><tspan x="27.9" y="26" style="fill:#002A68; font-family:'Aeroport-Light'; font-size:20px;">in ways that go beyond financial results to include the quality, quantum, </tspan><tspan x="129.3" y="52" style="fill:#002A68; font-family:'Aeroport-Light'; font-size:20px;">consistency and reach of our community impact.”</tspan></text>
</svg>
