<?xml version="1.0" encoding="utf-8"?>
<!-- Generator: Adobe Illustrator 26.0.1, SVG Export Plug-In . SVG Version: 6.00 Build 0)  -->
<svg version="1.1" id="Layer_1" xmlns="http://www.w3.org/2000/svg" xmlns:xlink="http://www.w3.org/1999/xlink" x="0px" y="0px"
	 viewBox="0 0 550.1 235" style="enable-background:new 0 0 550.1 235;" xml:space="preserve">
<style type="text/css">
	.st0{fill:#50AE48;}
	.st1{fill:#4DB757;}
	.st2{fill:none;stroke:#93CD91;stroke-width:1.9167;}
	.st3{fill:#FFFFFF;}
	.st4{font-family:'Aeroport-Bold';}
	.st5{font-size:11.0309px;}
	.st6{fill:none;stroke:#FFFFFF;stroke-width:0.4792;stroke-miterlimit:10;}
	.st7{font-family:'Aeroport';}
	.st8{font-size:13.2371px;}
	.st9{filter:url(#Adobe_OpacityMaskFilter);}
	.st10{mask:url(#SVGID_1_);}
	.st11{opacity:0.35;clip-path:url(#SVGID_00000061443701584509328360000016056822407073584058_);fill:#231F20;}
	.st12{font-size:14.3401px;}
	.st13{fill:none;stroke:#FFFFFF;stroke-width:0.4792;}
	.st14{filter:url(#Adobe_OpacityMaskFilter_00000119108467110009349730000005768453846043359375_);}
	.st15{mask:url(#SVGID_00000106139099530248687050000001106317275505718714_);}
</style>
<g>
	<polygon class="st0" points="52.4,0 0,117.3 62.3,234.5 550.1,234.5 540.2,0 	"/>
	<path class="st1" d="M502.2,9.9H62.6c-9.1,35.8-28.1,71.5-47.2,107.3c19,35.8,38,71.5,57.1,107.3h439.6L502.2,9.9z"/>
	<path class="st2" d="M484.9,9.9H62.6c-9.1,35.8-28.1,71.5-47.2,107.3c19,35.8,38,71.5,57.1,107.3h422.3L484.9,9.9z"/>
	<text transform="matrix(1 0 0 1 83.6943 49.2557)"><tspan x="0" y="0" class="st3 st4 st5">Mu</tspan><tspan x="16.7" y="0" class="st3 st4 st5">s</tspan><tspan x="22.5" y="0" class="st3 st4 st5">t</tspan><tspan x="27" y="0" class="st3 st4 st5"> </tspan><tspan x="29.1" y="0" class="st3 st4 st5">wi</tspan><tspan x="41.4" y="0" class="st3 st4 st5">n</tspan></text>
	<line class="st6" x1="248.4" y1="102.2" x2="384.9" y2="102.2"/>
	<line class="st6" x1="248.4" y1="122.2" x2="384.9" y2="122.2"/>
	<line class="st6" x1="248.4" y1="142.2" x2="384.9" y2="142.2"/>
	<line class="st6" x1="248.4" y1="162.3" x2="384.9" y2="162.3"/>
	<text transform="matrix(1 0 0 1 248.3525 95.6298)"><tspan x="0" y="0" class="st3 st7 st5">Insp</tspan><tspan x="20.9" y="0" class="st3 st7 st5">i</tspan><tspan x="23.5" y="0" class="st3 st7 st5">rati</tspan><tspan x="40.2" y="0" class="st3 st7 st5">o</tspan><tspan x="46.4" y="0" class="st3 st7 st5">na</tspan><tspan x="58.6" y="0" class="st3 st7 st5">l</tspan><tspan x="61.1" y="0" class="st3 st7 st5"> f</tspan><tspan x="67.1" y="0" class="st3 st7 st5">o</tspan><tspan x="73.3" y="0" class="st3 st7 st5">res</tspan><tspan x="89" y="0" class="st3 st7 st5">i</tspan><tspan x="91.5" y="0" class="st3 st7 st5">g</tspan><tspan x="98" y="0" class="st3 st7 st5">h</tspan><tspan x="104.3" y="0" class="st3 st7 st5">t</tspan><tspan x="108.4" y="0" class="st3 st7 st5">s</tspan></text>
	<text transform="matrix(1 0 0 1 248.3525 115.6727)"><tspan x="0" y="0" class="st3 st7 st5">R</tspan><tspan x="6.9" y="0" class="st3 st7 st5">ema</tspan><tspan x="28.8" y="0" class="st3 st7 st5">r</tspan><tspan x="33.3" y="0" class="st3 st7 st5">ka</tspan><tspan x="44.5" y="0" class="st3 st7 st5">bl</tspan><tspan x="53.5" y="0" class="st3 st7 st5">e i</tspan><tspan x="64.3" y="0" class="st3 st7 st5">n</tspan><tspan x="70.6" y="0" class="st3 st7 st5">n</tspan><tspan x="77" y="0" class="st3 st7 st5">o</tspan><tspan x="82.8" y="0" class="st3 st7 st5">v</tspan><tspan x="88.2" y="0" class="st3 st7 st5">at</tspan><tspan x="98.2" y="0" class="st3 st7 st5">i</tspan><tspan x="100.7" y="0" class="st3 st7 st5">o</tspan><tspan x="106.9" y="0" class="st3 st7 st5">n</tspan></text>
	<text transform="matrix(1 0 0 1 248.3525 135.7167)"><tspan x="0" y="0" class="st3 st7 st5">P</tspan><tspan x="6.5" y="0" class="st3 st7 st5">o</tspan><tspan x="12.6" y="0" class="st3 st7 st5">werf</tspan><tspan x="35.4" y="0" class="st3 st7 st5">u</tspan><tspan x="41.6" y="0" class="st3 st7 st5">l bran</tspan><tspan x="69.3" y="0" class="st3 st7 st5">d</tspan><tspan x="75.7" y="0" class="st3 st7 st5">s</tspan></text>
	<text transform="matrix(1 0 0 1 248.3525 155.7597)"><tspan x="0" y="0" class="st3 st7 st5">C</tspan><tspan x="7.7" y="0" class="st3 st7 st5">o</tspan><tspan x="13.9" y="0" class="st3 st7 st5">n</tspan><tspan x="20.2" y="0" class="st3 st7 st5">nected </tspan><tspan x="57.2" y="0" class="st3 st7 st5">o</tspan><tspan x="63.4" y="0" class="st3 st7 st5">r</tspan><tspan x="67.6" y="0" class="st3 st7 st5">g</tspan><tspan x="73.9" y="0" class="st3 st7 st5">a</tspan><tspan x="79.8" y="0" class="st3 st7 st5">n</tspan><tspan x="86.1" y="0" class="st3 st7 st5">isat</tspan><tspan x="104.2" y="0" class="st3 st7 st5">i</tspan><tspan x="106.7" y="0" class="st3 st7 st5">o</tspan><tspan x="112.9" y="0" class="st3 st7 st5">n</tspan></text>
	<text transform="matrix(1 0 0 1 248.3525 175.8017)"><tspan x="0" y="0" class="st3 st7 st5">P</tspan><tspan x="6.5" y="0" class="st3 st7 st5">e</tspan><tspan x="12.5" y="0" class="st3 st7 st5">o</tspan><tspan x="18.7" y="0" class="st3 st7 st5">p</tspan><tspan x="25.2" y="0" class="st3 st7 st5">l</tspan><tspan x="27.7" y="0" class="st3 st7 st5">e </tspan><tspan x="36" y="0" class="st3 st7 st5">&amp;</tspan><tspan x="38.3" y="0" class="st3 st7 st5"> </tspan><tspan x="40.6" y="0" class="st3 st7 st5">p</tspan><tspan x="47.1" y="0" class="st3 st7 st5">a</tspan><tspan x="53" y="0" class="st3 st7 st5">r</tspan><tspan x="57.7" y="0" class="st3 st7 st5">t</tspan><tspan x="61.8" y="0" class="st3 st7 st5">n</tspan><tspan x="68.1" y="0" class="st3 st7 st5">e</tspan><tspan x="74.1" y="0" class="st3 st7 st5">r</tspan><tspan x="78.4" y="0" class="st3 st7 st5">s</tspan><tspan x="84" y="0" class="st3 st7 st5">h</tspan><tspan x="90.3" y="0" class="st3 st7 st5">i</tspan><tspan x="92.8" y="0" class="st3 st7 st5">p</tspan><tspan x="99.2" y="0" class="st3 st7 st5">s</tspan></text>
	<text transform="matrix(1 0 0 1 83.6943 29.0731)"><tspan x="0" y="0" class="st3 st4 st8">H</tspan><tspan x="9.5" y="0" class="st3 st4 st8">O</tspan><tspan x="19.4" y="0" class="st3 st4 st8">W</tspan><tspan x="33" y="0" class="st3 st4 st8"> </tspan><tspan x="35.5" y="0" class="st3 st4 st8">W</tspan><tspan x="49.3" y="0" class="st3 st4 st8">E </tspan><tspan x="59.5" y="0" class="st3 st4 st8">W</tspan><tspan x="73.3" y="0" class="st3 st4 st8">I</tspan><tspan x="76.9" y="0" class="st3 st4 st8">N</tspan></text>
	<defs>
		<filter id="Adobe_OpacityMaskFilter" filterUnits="userSpaceOnUse" x="81.1" y="55.9" width="164.7" height="155.9">
			<feColorMatrix  type="matrix" values="1 0 0 0 0  0 1 0 0 0  0 0 1 0 0  0 0 0 1 0"/>
		</filter>
	</defs>
	<mask maskUnits="userSpaceOnUse" x="81.1" y="55.9" width="164.7" height="155.9" id="SVGID_1_">
		<g class="st9">
			<g>
				<defs>
					<rect id="SVGID_00000129889927721949198170000001747799256918927791_" x="70.5" y="47.4" width="186.4" height="166.3"/>
				</defs>
				<clipPath id="SVGID_00000104668653261374231830000017680608135804193208_">
					<use xlink:href="#SVGID_00000129889927721949198170000001747799256918927791_"  style="overflow:visible;"/>
				</clipPath>
				<g style="clip-path:url(#SVGID_00000104668653261374231830000017680608135804193208_);">
					
						<image style="overflow:visible;" width="352" height="314" xlink:href="A910F470.jpg"  transform="matrix(0.5295 0 0 0.5295 70.4976 47.4489)">
					</image>
				</g>
			</g>
		</g>
	</mask>
	<g class="st10">
		<g>
			<defs>
				<rect id="SVGID_00000124147413063511719240000012922894559561976254_" x="81.1" y="55.9" width="164.7" height="155.9"/>
			</defs>
			<clipPath id="SVGID_00000019645888432821337180000003651730597950423484_">
				<use xlink:href="#SVGID_00000124147413063511719240000012922894559561976254_"  style="overflow:visible;"/>
			</clipPath>
			
				<rect x="81.1" y="55.9" style="opacity:0.35;clip-path:url(#SVGID_00000019645888432821337180000003651730597950423484_);fill:#231F20;" width="164.7" height="155.9"/>
		</g>
	</g>
	<path class="st1" d="M85.4,60.1v141.4h119.6c10.3-23.6,20.5-47.1,30.8-70.7c-10.3-23.6-20.5-47.1-30.8-70.7H85.4z"/>
	<path class="st2" d="M85.4,60.1v141.4h119.6c10.3-23.6,20.5-47.1,30.8-70.7c-10.3-23.6-20.5-47.1-30.8-70.7H85.4z"/>
	<text transform="matrix(1 0 0 1 115.1601 84.2753)"><tspan x="0" y="0" class="st3 st4 st12">High </tspan><tspan x="0" y="17.2" class="st3 st4 st12">G</tspan><tspan x="10.7" y="17.2" class="st3 st4 st12">r</tspan><tspan x="16.5" y="17.2" class="st3 st4 st12">owth </tspan><tspan x="0" y="34.4" class="st3 st4 st12">S</tspan><tspan x="9" y="34.4" class="st3 st4 st12">e</tspan><tspan x="17.6" y="34.4" class="st3 st4 st12">gments</tspan></text>
	<text transform="matrix(1 0 0 1 160.1738 84.2753)" class="st3 st4 st12"> </text>
	<text transform="matrix(1 0 0 1 169.2646 98.6161)" class="st3 st4 st12"> </text>
	<text transform="matrix(1 0 0 1 115.1601 159.1825)"><tspan x="0" y="0" class="st3 st4 st12">Priority </tspan><tspan x="0" y="17.2" class="st3 st4 st12">Mar</tspan><tspan x="27.8" y="17.2" class="st3 st4 st12">k</tspan><tspan x="35.6" y="17.2" class="st3 st4 st12">ets</tspan></text>
	<text transform="matrix(1 0 0 1 169.3505 166.9892)" class="st3 st4 st12"> </text>
	<line class="st13" x1="103.9" y1="133.3" x2="179.7" y2="133.3"/>
	<text transform="matrix(1 0 0 1 248.3525 58.7138)"><tspan x="0" y="0" class="st3 st4 st5">H</tspan><tspan x="7.9" y="0" class="st3 st4 st5">o</tspan><tspan x="14.2" y="0" class="st3 st4 st5">w</tspan><tspan x="23.7" y="0" class="st3 st4 st5"> </tspan><tspan x="25.8" y="0" class="st3 st4 st5">to</tspan><tspan x="36.7" y="0" class="st3 st4 st5"> </tspan><tspan x="38.8" y="0" class="st3 st4 st5">w</tspan><tspan x="48.3" y="0" class="st3 st4 st5">i</tspan><tspan x="51.1" y="0" class="st3 st4 st5">n</tspan></text>
	<defs>
		
			<filter id="Adobe_OpacityMaskFilter_00000137842064547805586840000016508798221123432125_" filterUnits="userSpaceOnUse" x="39.3" y="5.8" width="437.3" height="229.3">
			<feColorMatrix  type="matrix" values="1 0 0 0 0  0 1 0 0 0  0 0 1 0 0  0 0 0 1 0"/>
		</filter>
	</defs>
	
		<mask maskUnits="userSpaceOnUse" x="39.3" y="5.8" width="437.3" height="229.3" id="SVGID_00000024693972185181778770000018209807758011822739_">
		<g style="filter:url(#Adobe_OpacityMaskFilter_00000137842064547805586840000016508798221123432125_);">
			<g>
				<defs>
					<rect id="SVGID_00000046332380204425508280000016729882314671053727_" x="-47" y="-2.7" width="545.4" height="239.3"/>
				</defs>
				<clipPath id="SVGID_00000160188909515208260210000002939735934339689096_">
					<use xlink:href="#SVGID_00000046332380204425508280000016729882314671053727_"  style="overflow:visible;"/>
				</clipPath>
				<g style="clip-path:url(#SVGID_00000160188909515208260210000002939735934339689096_);">
					
						<image style="overflow:visible;" width="1030" height="452" xlink:href="A910F471.jpg"  transform="matrix(0.5295 0 0 0.5295 -47.038 -2.7152)">
					</image>
				</g>
			</g>
		</g>
	</mask>
	<g style="mask:url(#SVGID_00000024693972185181778770000018209807758011822739_);">
		<g>
			<defs>
				<polygon id="SVGID_00000005981071742365027360000017189520271975236255_" points="49.2,235 476.6,235 466.7,5.8 39.3,5.8 				
					"/>
			</defs>
			<clipPath id="SVGID_00000034771353642426361930000001215750984575400872_">
				<use xlink:href="#SVGID_00000005981071742365027360000017189520271975236255_"  style="overflow:visible;"/>
			</clipPath>
		</g>
	</g>
</g>
</svg>
