<?xml version="1.0" encoding="utf-8"?>
<!-- Generator: Adobe Illustrator 26.0.1, SVG Export Plug-In . SVG Version: 6.00 Build 0)  -->
<svg version="1.1" id="Layer_1" xmlns="http://www.w3.org/2000/svg" xmlns:xlink="http://www.w3.org/1999/xlink" x="0px" y="0px"
	 viewBox="0 0 311.3 256.2" style="enable-background:new 0 0 311.3 256.2;" xml:space="preserve">
<style type="text/css">
	.st0{fill:#D72A80;}
	.st1{filter:url(#Adobe_OpacityMaskFilter);}
	.st2{mask:url(#SVGID_1_);}
	.st3{fill:#E52581;}
	.st4{fill:none;stroke:#F06EA1;stroke-width:1.9167;}
	.st5{fill:#5B3289;}
	.st6{fill:#593C96;}
	.st7{fill:none;stroke:#7761A9;stroke-width:1.9167;}
	.st8{fill:#01519C;}
	.st9{filter:url(#Adobe_OpacityMaskFilter_00000031173237759991764960000008378228007461155968_);}
	.st10{mask:url(#SVGID_00000055665038322439797880000014561650107990335143_);}
	.st11{fill:#3657A6;}
	.st12{fill:none;stroke:#586FB4;stroke-width:1.9167;}
	.st13{fill:#50AE48;}
	.st14{fill:#4DB757;}
	.st15{fill:none;stroke:#93CD91;stroke-width:1.9167;}
	.st16{fill:none;stroke:#FFFFFF;stroke-width:0.4792;stroke-miterlimit:10;}
	.st17{filter:url(#Adobe_OpacityMaskFilter_00000056397661674622249850000010404835100642278280_);}
	.st18{mask:url(#SVGID_00000003102525394543058660000013051016679671053470_);}
	.st19{opacity:0.35;clip-path:url(#SVGID_00000136373243070148272660000000068160412837409210_);fill:#231F20;}
	.st20{fill:none;stroke:#FFFFFF;stroke-width:0.4792;}
	.st21{filter:url(#Adobe_OpacityMaskFilter_00000066483648919626239640000010772365535844131986_);}
	.st22{mask:url(#SVGID_00000054988220863178531560000012455949787711797935_);}
	.st23{fill:#FFFFFF;}
	
		.st24{clip-path:url(#SVGID_00000058552372675772993360000006499528646209504660_);fill:none;stroke:#FFFFFF;stroke-width:0.7188;stroke-linecap:round;stroke-linejoin:round;stroke-miterlimit:10;}
	
		.st25{clip-path:url(#SVGID_00000058552372675772993360000006499528646209504660_);fill:none;stroke:#FFFFFF;stroke-width:0.7188;stroke-miterlimit:10;}
	
		.st26{clip-path:url(#SVGID_00000127732738771595461220000004359470137205213871_);fill:none;stroke:#FFFFFF;stroke-width:0.7188;stroke-miterlimit:10;}
	
		.st27{clip-path:url(#SVGID_00000178911683855998602440000004010487287670739849_);fill:none;stroke:#FFFFFF;stroke-width:0.7188;stroke-linecap:round;stroke-linejoin:round;stroke-miterlimit:10;}
	.st28{fill:none;stroke:#FFFFFF;stroke-width:0.7188;stroke-miterlimit:10;}
	.st29{filter:url(#Adobe_OpacityMaskFilter_00000123416466069357744430000014206263704023961785_);}
	.st30{clip-path:url(#SVGID_00000111179695885992702040000004840599563499292549_);}
	
		.st31{clip-path:url(#SVGID_00000111179695885992702040000004840599563499292549_);mask:url(#SVGID_00000057843141592536684300000006781256933007099284_);}
	.st32{clip-path:url(#SVGID_00000111179695885992702040000004840599563499292549_);fill:#FFFFFF;}
	.st33{fill:#F48120;}
	.st34{clip-path:url(#SVGID_00000139291988850980462020000010937986995932348041_);}
	.st35{clip-path:url(#SVGID_00000105424411345872235050000002891066627890130306_);}
	.st36{fill:none;stroke:#F48120;stroke-width:1.9167;}
	.st37{font-family:'Aeroport-Bold';}
	.st38{font-size:13.2371px;}
	.st39{clip-path:url(#SVGID_00000003069862441963553920000001625906677614287260_);fill:#FFFFFF;}
</style>
<g>
	<g>
		<g>
			<g>
				<defs>
					<rect id="SVGID_00000179645287929591785700000014953890680019064738_" x="112.4" width="199" height="251.2"/>
				</defs>
				<clipPath id="SVGID_00000104679870956425322010000018389578914329769870_">
					<use xlink:href="#SVGID_00000179645287929591785700000014953890680019064738_"  style="overflow:visible;"/>
				</clipPath>
				<defs>
					<filter id="Adobe_OpacityMaskFilter" filterUnits="userSpaceOnUse" x="123" y="8.5" width="177.1" height="240.4">
						<feColorMatrix  type="matrix" values="1 0 0 0 0  0 1 0 0 0  0 0 1 0 0  0 0 0 1 0"/>
					</filter>
				</defs>
				<mask maskUnits="userSpaceOnUse" x="123" y="8.5" width="177.1" height="240.4" id="SVGID_1_">
					<g class="st1">
						<g>
							<defs>
								<rect id="SVGID_00000018224111187198031040000015881840803638612916_" x="112.4" y="0" width="199.1" height="251"/>
							</defs>
							
								<clipPath id="SVGID_00000091727501211832796950000007737901844879431055_" style="clip-path:url(#SVGID_00000104679870956425322010000018389578914329769870_);">
								<use xlink:href="#SVGID_00000018224111187198031040000015881840803638612916_"  style="overflow:visible;"/>
							</clipPath>
							<g style="clip-path:url(#SVGID_00000091727501211832796950000007737901844879431055_);">
								
									<image style="overflow:visible;" width="376" height="474" xlink:href="42645B33.jpg"  transform="matrix(0.5295 0 0 0.5295 112.364 6.732722e-05)">
								</image>
							</g>
						</g>
					</g>
				</mask>
				<g style="clip-path:url(#SVGID_00000104679870956425322010000018389578914329769870_);mask:url(#SVGID_1_);">
					<g>
						<defs>
							<rect id="SVGID_00000163761842190524834800000004729203617522013359_" x="123" y="8.5" width="177.1" height="240.4"/>
						</defs>
						<clipPath id="SVGID_00000151529308045123498340000007957483550901992889_">
							<use xlink:href="#SVGID_00000163761842190524834800000004729203617522013359_"  style="overflow:visible;"/>
						</clipPath>
					</g>
				</g>
				<polygon style="clip-path:url(#SVGID_00000104679870956425322010000018389578914329769870_);fill:#FFFFFF;" points="
					125.6,243.5 226.2,243.5 292.3,128.7 226.2,13.9 125.6,13.9 				"/>
			</g>
		</g>
		<g>
			<g>
				<polygon class="st23" points="166.7,13.9 66,13.9 0,128.7 66,243.5 166.7,243.5 				"/>
			</g>
		</g>
	</g>
	<polygon class="st33" points="73.6,256.2 219.3,256.2 292.2,128.7 219.3,1.3 73.6,1.3 0.8,128.7 	"/>
	<g>
		<defs>
			<polygon id="SVGID_00000093144350458836340830000011450683705985246854_" points="73.6,1.3 0.8,128.7 73.6,256.2 219.3,256.2 
				292.2,128.7 219.3,1.3 			"/>
		</defs>
		<clipPath id="SVGID_00000096757227561469995140000016390741876803616664_">
			<use xlink:href="#SVGID_00000093144350458836340830000011450683705985246854_"  style="overflow:visible;"/>
		</clipPath>
		<g style="clip-path:url(#SVGID_00000096757227561469995140000016390741876803616664_);">
			<defs>
				<polygon id="SVGID_00000033362457098949941400000005219841302520416694_" points="562.5,906.5 795.3,329.7 107.4,-67.4 
					-125.3,501.1 				"/>
			</defs>
			<clipPath id="SVGID_00000132791813594436836030000008345604065154394274_">
				<use xlink:href="#SVGID_00000033362457098949941400000005219841302520416694_"  style="overflow:visible;"/>
			</clipPath>
			<g style="clip-path:url(#SVGID_00000132791813594436836030000008345604065154394274_);">
				
					<image style="overflow:visible;" width="1240" height="1501" xlink:href="42645B31.jpg"  transform="matrix(0.2647 -0.4585 0.4583 0.2646 -220.811 501.1101)">
				</image>
			</g>
		</g>
	</g>
	<g>
		<defs>
			<polygon id="SVGID_00000005972055328834918350000004138498715659441057_" points="78.9,10.5 11.3,128.7 78.9,246.9 214,246.9 
				281.6,128.7 214,10.5 			"/>
		</defs>
		<clipPath id="SVGID_00000181808465402671949270000001508387835542607016_">
			<use xlink:href="#SVGID_00000005972055328834918350000004138498715659441057_"  style="overflow:visible;"/>
		</clipPath>
		<g style="clip-path:url(#SVGID_00000181808465402671949270000001508387835542607016_);">
			<defs>
				<polygon id="SVGID_00000005949977087325352800000014382985186272058023_" points="560.6,909.8 796.2,328.1 117.7,-63.7 
					-117.9,509.8 				"/>
			</defs>
			<clipPath id="SVGID_00000134937405436799481160000007809452700391312312_">
				<use xlink:href="#SVGID_00000005949977087325352800000014382985186272058023_"  style="overflow:visible;"/>
			</clipPath>
			
				<g transform="matrix(1 0 0 1 1.525879e-05 0)" style="clip-path:url(#SVGID_00000134937405436799481160000007809452700391312312_);">
				
					<image style="overflow:visible;" width="1251" height="1480" xlink:href="42645B37.jpg"  transform="matrix(0.2646 -0.4584 0.4585 0.2647 -213.3875 509.7784)">
				</image>
			</g>
		</g>
	</g>
	<g>
		<path class="st36" d="M79.5,245.8h133.8c22.3-39,44.6-78.1,66.9-117.1c-22.3-39-44.6-78.1-66.9-117.1H79.5
			c-22.3,39-44.6,78.1-66.9,117.1C34.9,167.7,57.2,206.8,79.5,245.8z"/>
	</g>
	<text transform="matrix(1 0 0 1 99.1735 40.8449)"><tspan x="0" y="0" class="st23 st37 st38">O</tspan><tspan x="10" y="0" class="st23 st37 st38">U</tspan><tspan x="19.3" y="0" class="st23 st37 st38">R</tspan><tspan x="28.2" y="0" class="st23 st37 st38"> </tspan><tspan x="30.5" y="0" class="st23 st37 st38">P</tspan><tspan x="38.9" y="0" class="st23 st37 st38">U</tspan><tspan x="48.3" y="0" class="st23 st37 st38">R</tspan><tspan x="57.2" y="0" class="st23 st37 st38">P</tspan><tspan x="65.8" y="0" class="st23 st37 st38">OS</tspan><tspan x="83.8" y="0" class="st23 st37 st38">E</tspan></text>
	<g>
		<defs>
			<rect id="SVGID_00000057843594982808441410000013154176092420577713_" x="53.8" y="87.5" width="185.5" height="77.7"/>
		</defs>
		<clipPath id="SVGID_00000156556319711441584610000001552220119863002753_">
			<use xlink:href="#SVGID_00000057843594982808441410000013154176092420577713_"  style="overflow:visible;"/>
		</clipPath>
		<path style="clip-path:url(#SVGID_00000156556319711441584610000001552220119863002753_);fill:#FFFFFF;" d="M110.5,147.2h13.9
			c-0.7,1-1.4,2.1-2.1,3c-7,9.1-17.9,14.9-30.2,14.9c-21.1,0-38.3-17.4-38.3-38.8S71,87.5,92.1,87.5c12.3,0,23.2,5.9,30.3,15
			c0.7,1,1.4,2,2.1,3h-13.8c-1.2-1.1-2.5-2.1-3.9-3c-4.3-2.8-9.4-4.3-14.6-4.3c-7.3,0-14.2,2.9-19.4,8.2c-5.2,5.3-8.1,12.4-8.1,19.9
			c0,7.5,2.9,14.6,8.1,19.9c5.2,5.3,12.1,8.2,19.4,8.2c5.2,0,10.2-1.5,14.5-4.2C108,149.4,109.3,148.4,110.5,147.2 M111.4,122.8h-8
			l-2.2,3.7h-2.8l11-18h1.4l4,18h-2.6L111.4,122.8z M110.9,120.5l-1.6-7.5l-4.5,7.5H110.9z M122.2,126.4l3.5-17.8h5.7
			c2.8,0,4.7,1.6,4.7,4.1c0,0.4,0,0.7-0.1,1c-0.3,1.6-1.2,2.8-2.4,3.4c1.4,0.5,2.4,1.8,2.4,3.6c0,0.3,0,0.7-0.1,1
			c-0.6,3-3,4.8-6.1,4.8H122.2z M126.6,116.4h3.7c1.8,0,2.9-1.1,3.2-2.8c0-0.2,0.1-0.4,0.1-0.7c0-1.3-0.8-2.2-2.6-2.2h-3.3
			L126.6,116.4z M125.1,124.3h4.6c2,0,3.3-1.1,3.7-3c0-0.2,0.1-0.4,0-0.6c0-1.4-0.9-2.3-2.7-2.3h-4.4L125.1,124.3z M141.9,118.4h8.1
			l0.4-2h-8l1.1-5.5h8.7l0.4-2.3h-11.2l-3.5,17.8H149l0.5-2.3h-8.7L141.9,118.4z M156.1,126.4h2.4l3-15.6h5.5l0.4-2.2H154l-0.4,2.2
			h5.5L156.1,126.4z M170.7,126.4h2.4l3-15.6h5.5l0.4-2.2h-13.5l-0.4,2.2h5.5L170.7,126.4z M191.8,126.4l0.5-2.3h-8.7l1.1-5.7h8.1
			l0.4-2h-8l1.1-5.5h8.7l0.4-2.3l-11.2,0l-3.5,17.8H191.8z M194.7,126.4l3.5-17.8h6.2c3.2,0,5.3,1.7,5.3,4.3c0,0.4,0,0.7-0.1,1.1
			c-0.5,2.5-2.3,4-5,4.5l3.3,7.9h-2.6l-3.1-7.7l-3.4,0l-1.5,7.8H194.7z M199,116.6h3.9c2.2,0,3.7-0.9,4.1-2.8c0-0.2,0.1-0.4,0.1-0.6
			c0-1.5-1.3-2.4-3.2-2.4h-3.8L199,116.6z M108.2,131.3h-9.9v3.1h9.9V131.3z M104.9,136.1h-3.3v8h3.3V136.1z M109.2,137.7
			c0-3.8,1.6-6.6,7.1-6.6c5.4,0,7,2.8,7.1,6.6c0,3.8-1.7,6.6-7.1,6.6C110.9,144.4,109.2,141.5,109.2,137.7 M112.6,137.7
			c0,2.5,0.8,3.7,3.7,3.7c2.9,0,3.7-1.2,3.7-3.7h0c0-2.5-0.8-3.7-3.7-3.7C113.4,134,112.6,135.2,112.6,137.7 M136.4,141.3l-6.4-10
			h-4.8v12.8h3.3v-9.3l6,9.3h3.6l6.1-9.3v9.3h3.3v-12.8h-4.8L136.4,141.3z M163.7,137.7c0,3.8-1.7,6.6-7.1,6.6
			c-5.4,0-7.1-2.8-7.1-6.6c0-3.8,1.6-6.6,7.1-6.6C162.1,131.1,163.7,133.9,163.7,137.7 M160.3,137.7L160.3,137.7
			c0-2.5-0.8-3.7-3.7-3.7c-2.9,0-3.7,1.2-3.7,3.7c0,2.5,0.8,3.7,3.7,3.7C159.6,141.4,160.3,140.2,160.3,137.7 M215,137.7
			c0,3.8-1.7,6.6-7.1,6.6c-5.4,0-7.1-2.8-7.1-6.6c0-3.8,1.6-6.6,7.1-6.6C213.3,131.1,215,133.9,215,137.7 M211.6,137.7
			c0-2.5-0.8-3.7-3.7-3.7c-2.9,0-3.7,1.2-3.7,3.7c0,2.5,0.8,3.7,3.7,3.7S211.6,140.2,211.6,137.7 M231.4,141.1l-3.8-9.8h-3.1l1,2.5
			l-2.8,7.2l-4-9.8h-3.5l5.6,12.8h3.8l2.5-6.3l2.5,6.3h3.8l5.5-12.8h-3.4L231.4,141.1z M241.1,132.3h1.2v3.3h1v-3.3h1.2v-0.9h-3.4
			V132.3z M248.6,131.4l-1.5,1.7l-1.5-1.7h-0.7v4.3h1v-2.5l1.2,1.3l1.2-1.3v2.5h1v-4.3H248.6z M181.3,135.7c0-2.7-1.7-4.4-4.7-4.4
			h-12v0.7h0v5.7h3.2v-3.5h8.6c1.1,0,1.7,0.5,1.7,1.5c0,1-0.6,1.5-1.7,1.5h-5.2v2.8h5.2l2.3,4.1h3.5l-2.7-4.8
			C180.6,138.6,181.3,137.3,181.3,135.7 M199.4,135.7c0-2.7-1.7-4.4-4.7-4.4h-12v2.9h0v3.5h3.2v-3.5h8.6c1.1,0,1.7,0.5,1.7,1.5
			c0,1-0.6,1.5-1.7,1.5h-5.2v2.8h5.2l2.3,4.1h3.5l-2.7-4.8C198.7,138.6,199.4,137.3,199.4,135.7"/>
	</g>
</g>
</svg>
