<?xml version="1.0" encoding="utf-8"?>
<!-- Generator: Adobe Illustrator 26.0.1, SVG Export Plug-In . SVG Version: 6.00 Build 0)  -->
<svg version="1.1" id="Layer_1" xmlns="http://www.w3.org/2000/svg" xmlns:xlink="http://www.w3.org/1999/xlink" x="0px" y="0px"
	 viewBox="0 0 284.7 235" style="enable-background:new 0 0 284.7 235;" xml:space="preserve">
<style type="text/css">
	.st0{fill:#D72A80;}
	.st1{filter:url(#Adobe_OpacityMaskFilter);}
	.st2{mask:url(#SVGID_1_);}
	.st3{fill:#E52581;}
	.st4{fill:none;stroke:#F06EA1;stroke-width:1.9167;}
	.st5{fill:#5B3289;}
	.st6{fill:#593C96;}
	.st7{fill:none;stroke:#7761A9;stroke-width:1.9167;}
	.st8{fill:#50AE48;}
	.st9{fill:#4DB757;}
	.st10{fill:none;stroke:#93CD91;stroke-width:1.9167;}
	.st11{fill:none;stroke:#FFFFFF;stroke-width:0.4792;stroke-miterlimit:10;}
	.st12{filter:url(#Adobe_OpacityMaskFilter_00000143618794968036410120000013152585053555594669_);}
	.st13{mask:url(#SVGID_00000147217298665831180110000013856190617751403924_);}
	.st14{opacity:0.35;clip-path:url(#SVGID_00000105427541625445610390000011381385504373904021_);fill:#231F20;}
	.st15{fill:none;stroke:#FFFFFF;stroke-width:0.4792;}
	.st16{filter:url(#Adobe_OpacityMaskFilter_00000015315998913886662190000000755715911093218490_);}
	.st17{mask:url(#SVGID_00000181781699655654160930000001711150829304860304_);}
	.st18{filter:url(#Adobe_OpacityMaskFilter_00000152261930751727711400000008095631747049868196_);}
	.st19{clip-path:url(#SVGID_00000091013054818338642400000012642540862682276530_);}
	
		.st20{clip-path:url(#SVGID_00000091013054818338642400000012642540862682276530_);mask:url(#SVGID_00000037660228674738410810000003618844565125404324_);}
	.st21{clip-path:url(#SVGID_00000091013054818338642400000012642540862682276530_);fill:#FFFFFF;}
	.st22{fill:#FFFFFF;}
	.st23{fill:#F48120;}
	.st24{clip-path:url(#SVGID_00000092448998100458430950000009972231975531861428_);}
	.st25{clip-path:url(#SVGID_00000126285396401152684820000014234680986917559995_);}
	.st26{fill:none;stroke:#F48120;stroke-width:1.9167;}
	.st27{clip-path:url(#SVGID_00000006667963972531879910000011278478599394635913_);fill:#FFFFFF;}
	.st28{fill:#01519C;}
	.st29{filter:url(#Adobe_OpacityMaskFilter_00000121990134828479680070000008984134714455712432_);}
	.st30{mask:url(#SVGID_00000112602693277531457700000017761055512220257189_);}
	.st31{fill:#3657A6;}
	.st32{fill:none;stroke:#586FB4;stroke-width:1.9167;}
	.st33{font-family:'Aeroport-Bold';}
	.st34{font-size:11.0309px;}
	.st35{font-family:'Aeroport';}
	.st36{font-size:9.3763px;}
	.st37{font-size:13.2371px;}
	.st38{letter-spacing:-1;}
	
		.st39{clip-path:url(#SVGID_00000150064449610825863870000005119683622537378224_);fill:none;stroke:#FFFFFF;stroke-width:0.7188;stroke-linecap:round;stroke-linejoin:round;stroke-miterlimit:10;}
	
		.st40{clip-path:url(#SVGID_00000150064449610825863870000005119683622537378224_);fill:none;stroke:#FFFFFF;stroke-width:0.7188;stroke-miterlimit:10;}
	
		.st41{clip-path:url(#SVGID_00000072984724458881989380000014196323763803171495_);fill:none;stroke:#FFFFFF;stroke-width:0.7188;stroke-miterlimit:10;}
	
		.st42{clip-path:url(#SVGID_00000161611147724746674710000007111231154027261349_);fill:none;stroke:#FFFFFF;stroke-width:0.7188;stroke-linecap:round;stroke-linejoin:round;stroke-miterlimit:10;}
	.st43{fill:none;stroke:#FFFFFF;stroke-width:0.7188;stroke-miterlimit:10;}
</style>
<g>
	<polygon class="st28" points="284.7,117.3 222.3,234.5 14.5,234.5 20.2,224.6 81.5,117 19.8,9.9 14,0 222.3,0 	"/>
	<g>
		<defs>
			<filter id="Adobe_OpacityMaskFilter" filterUnits="userSpaceOnUse" x="0" y="5.8" width="283.3" height="229.3">
				<feColorMatrix  type="matrix" values="1 0 0 0 0  0 1 0 0 0  0 0 1 0 0  0 0 0 1 0"/>
			</filter>
		</defs>
		<mask maskUnits="userSpaceOnUse" x="0" y="5.8" width="283.3" height="229.3" id="SVGID_1_">
			<g class="st1">
				<g>
					<defs>
						<rect id="SVGID_00000175298329039372964700000007337009284387763893_" x="-10.6" y="-2.7" width="305" height="239.3"/>
					</defs>
					<clipPath id="SVGID_00000003088735171349027190000000310213807454372515_">
						<use xlink:href="#SVGID_00000175298329039372964700000007337009284387763893_"  style="overflow:visible;"/>
					</clipPath>
					<g style="clip-path:url(#SVGID_00000003088735171349027190000000310213807454372515_);">
						
							<image style="overflow:visible;" width="576" height="452" xlink:href="1A5D26AE.jpg"  transform="matrix(0.5295 0 0 0.5295 -10.5898 -2.7134)">
						</image>
					</g>
				</g>
			</g>
		</mask>
		<g class="st2">
			<g>
				<defs>
					<rect id="SVGID_00000000204662836224808920000009360331355048129471_" y="5.8" width="283.3" height="229.3"/>
				</defs>
				<clipPath id="SVGID_00000137831816070961095920000009346356416430528668_">
					<use xlink:href="#SVGID_00000000204662836224808920000009360331355048129471_"  style="overflow:visible;"/>
				</clipPath>
			</g>
		</g>
		<path class="st31" d="M273.2,117.3c-19,35.8-38.1,71.5-57.1,107.3H20.2L81.5,117L19.8,9.9h196.3
			C235.1,45.7,254.1,81.5,273.2,117.3z"/>
		<path class="st32" d="M273.2,117.3c-19,35.8-38.1,71.5-57.1,107.3H20.2L81.5,117L19.8,9.9h196.3
			C235.1,45.7,254.1,81.5,273.2,117.3z"/>
	</g>
	<line class="st11" x1="89.2" y1="64.9" x2="210.8" y2="64.9"/>
	<line class="st11" x1="89.2" y1="109.4" x2="211.7" y2="109.4"/>
	<line class="st11" x1="89.2" y1="153.8" x2="211.2" y2="153.8"/>
	<line class="st11" x1="89.2" y1="198.3" x2="210.4" y2="198.3"/>
	<text transform="matrix(1 0 0 1 89.1875 60.2462)"><tspan x="0" y="0" class="st22 st33 st34">Co</tspan><tspan x="14.2" y="0" class="st22 st33 st34">n</tspan><tspan x="20.8" y="0" class="st22 st33 st34">s</tspan><tspan x="26.6" y="0" class="st22 st33 st34">u</tspan><tspan x="33.1" y="0" class="st22 st33 st34">me</tspan><tspan x="49.6" y="0" class="st22 st33 st34">r</tspan><tspan x="53.9" y="0" class="st22 st33 st34">s</tspan></text>
	<text transform="matrix(1 0 0 1 89.1875 104.6974)"><tspan x="0" y="0" class="st22 st33 st34">So</tspan><tspan x="13.2" y="0" class="st22 st33 st34">c</tspan><tspan x="19.3" y="0" class="st22 st33 st34">i</tspan><tspan x="22.1" y="0" class="st22 st33 st34">et</tspan><tspan x="32.9" y="0" class="st22 st33 st34">y</tspan></text>
	<text transform="matrix(1 0 0 1 89.1875 120.4181)"><tspan x="0" y="0" class="st22 st35 st36">reduced overall health</tspan><tspan x="0" y="11.3" class="st22 st35 st36">and environmental impact</tspan></text>
	<text transform="matrix(1 0 0 1 89.1875 149.1466)"><tspan x="0" y="0" class="st22 st33 st34">Em</tspan><tspan x="16.6" y="0" class="st22 st33 st34">p</tspan><tspan x="23.3" y="0" class="st22 st33 st34">l</tspan><tspan x="26.1" y="0" class="st22 st33 st34">o</tspan><tspan x="32.6" y="0" class="st22 st33 st34">y</tspan><tspan x="38.3" y="0" class="st22 st33 st34">e</tspan><tspan x="44.6" y="0" class="st22 st33 st34">e</tspan><tspan x="50.9" y="0" class="st22 st33 st34">s</tspan></text>
	<path class="st22" d="M125.5,158.2h1v1.1h-1V158.2z M136.9,158.2h1v1.1h-1V158.2z M154.4,158.2h1v1.1h-1V158.2z M159.7,158.2h1v1.1
		h-1V158.2z"/>
	<text transform="matrix(1 0 0 1 89.1875 193.5939)"><tspan x="0" y="0" class="st22 st33 st34">Sh</tspan><tspan x="13.3" y="0" class="st22 st33 st34">a</tspan><tspan x="19.5" y="0" class="st22 st33 st34">r</tspan><tspan x="23.8" y="0" class="st22 st33 st34">e</tspan><tspan x="30" y="0" class="st22 st33 st34">h</tspan><tspan x="36.6" y="0" class="st22 st33 st34">ol</tspan><tspan x="45.8" y="0" class="st22 st33 st34">d</tspan><tspan x="52.5" y="0" class="st22 st33 st34">e</tspan><tspan x="58.8" y="0" class="st22 st33 st34">r</tspan><tspan x="63.1" y="0" class="st22 st33 st34">s</tspan></text>
	<path class="st22" d="M111.6,202.6h1v1.1h-1V202.6z M178,202.6h1v1.1h-1V202.6z"/>
	<text transform="matrix(1 0 0 1 89.1875 29.0753)"><tspan x="0" y="0" class="st22 st33 st37">K</tspan><tspan x="8" y="0" class="st22 st33 st37">E</tspan><tspan x="15.6" y="0" class="st22 st33 st37">Y </tspan><tspan x="26" y="0" class="st22 st33 st37">S</tspan><tspan x="33.7" y="0" class="st22 st33 st37 st38">T</tspan><tspan x="40.2" y="0" class="st22 st33 st37">A</tspan><tspan x="49.1" y="0" class="st22 st33 st37">K</tspan><tspan x="57.1" y="0" class="st22 st33 st37">E</tspan><tspan x="64.6" y="0" class="st22 st33 st37">H</tspan><tspan x="73.8" y="0" class="st22 st33 st37">O</tspan><tspan x="83.5" y="0" class="st22 st33 st37">L</tspan><tspan x="90.4" y="0" class="st22 st33 st37">DE</tspan><tspan x="106.8" y="0" class="st22 st33 st37">R </tspan></text>
	<text transform="matrix(1 0 0 1 215.125 29.0753)" class="st22 st33 st37"> </text>
	<text transform="matrix(1 0 0 1 89.1875 42.3126)"><tspan x="0" y="0" class="st22 st33 st37">O</tspan><tspan x="10" y="0" class="st22 st33 st37">U</tspan><tspan x="19.2" y="0" class="st22 st33 st37">T</tspan><tspan x="26.8" y="0" class="st22 st33 st37">C</tspan><tspan x="35.9" y="0" class="st22 st33 st37">O</tspan><tspan x="45.9" y="0" class="st22 st33 st37">M</tspan><tspan x="58.2" y="0" class="st22 st33 st37">E</tspan><tspan x="65.8" y="0" class="st22 st33 st37">S</tspan></text>
	<g>
		<defs>
			<rect id="SVGID_00000061450077070684945170000010451751936942283165_" x="195.5" y="48.9" width="15.6" height="15.6"/>
		</defs>
		<clipPath id="SVGID_00000008140338619491950240000009966524687963181990_">
			<use xlink:href="#SVGID_00000061450077070684945170000010451751936942283165_"  style="overflow:visible;"/>
		</clipPath>
		
			<path style="clip-path:url(#SVGID_00000008140338619491950240000009966524687963181990_);fill:none;stroke:#FFFFFF;stroke-width:0.7188;stroke-linecap:round;stroke-linejoin:round;stroke-miterlimit:10;" d="
			M209,61.2h-7.8v-2.5c0-1.1,0.9-2,2.1-2.1c0,0,0,0,0,0l2.2,2.1l2.1-2.1h0.1c1.3,0,2.3,0.9,2.3,2.1v2.5H209z M200,60.6h-0.2h-3.2
			v-1.7c0-1.1,1-2.1,2.2-2.1h1.8"/>
		
			<path style="clip-path:url(#SVGID_00000008140338619491950240000009966524687963181990_);fill:none;stroke:#FFFFFF;stroke-width:0.7188;stroke-miterlimit:10;" d="
			M201.2,53.8c0,0.8-0.6,1.4-1.4,1.4c-0.8,0-1.4-0.6-1.4-1.4c0-0.8,0.6-1.4,1.4-1.4C200.6,52.4,201.2,53,201.2,53.8z M207.6,53.1
			c0,1.1-0.9,2-2,2c-1.1,0-2-0.9-2-2c0-1.1,0.9-2,2-2C206.7,51.1,207.6,52,207.6,53.1z"/>
	</g>
	<g>
		<defs>
			<rect id="SVGID_00000177445650709222121550000004743148067687565998_" x="196.8" y="92.6" width="15.6" height="15.6"/>
		</defs>
		<clipPath id="SVGID_00000173119845319808803200000017488564457436703617_">
			<use xlink:href="#SVGID_00000177445650709222121550000004743148067687565998_"  style="overflow:visible;"/>
		</clipPath>
		
			<path style="clip-path:url(#SVGID_00000173119845319808803200000017488564457436703617_);fill:none;stroke:#FFFFFF;stroke-width:0.7188;stroke-miterlimit:10;" d="
			M206.6,103.4c-0.6,0-1.3-0.1-2-0.1c-0.7,0-1.4,0-2,0.1c0.4,2,1.2,3.3,2,3.3C205.4,106.7,206.2,105.3,206.6,103.4z M202.6,97.2
			c0.6,0,1.3,0.1,2,0.1c0.7,0,1.4,0,2-0.1c-0.4-1.8-1.1-3-2-3C203.7,94.2,203,95.4,202.6,97.2z M202.5,103.4c0.6,0,1.3-0.1,2-0.1
			c0.7,0,1.4,0,2,0.1c0.2-0.9,0.3-1.9,0.3-3h-4.6C202.3,101.5,202.4,102.5,202.5,103.4z M204.6,97.2c-0.7,0-1.4,0-2-0.1
			c-0.2,1-0.3,2.1-0.3,3.3h4.6c0-1.2-0.1-2.3-0.3-3.3C205.9,97.2,205.3,97.2,204.6,97.2z M204.6,106.7c2.2,0,4.1-1.1,5.2-2.8
			c-0.8-0.2-1.9-0.4-3.2-0.5C206.2,105.3,205.4,106.7,204.6,106.7z M202.5,103.4c-1.3,0.1-2.4,0.2-3.2,0.5c1.1,1.7,3,2.8,5.2,2.8
			C203.7,106.7,202.9,105.3,202.5,103.4z M206.9,100.4c0,1.1-0.1,2.1-0.3,3c1.3,0.1,2.4,0.2,3.2,0.5c0.6-1,1-2.2,1-3.4H206.9z
			 M202.3,100.4h-3.9c0,1.3,0.4,2.4,1,3.4c0.8-0.2,1.9-0.4,3.2-0.5C202.4,102.5,202.3,101.5,202.3,100.4z M206.9,100.4h3.9
			c0-1.4-0.4-2.6-1.2-3.7c-0.8,0.2-1.8,0.3-3.1,0.4C206.8,98.1,206.9,99.2,206.9,100.4z M208.8,96.9c0.3,0,0.6-0.1,0.8-0.2
			c-1.1-1.6-3-2.6-5.1-2.6c0.8,0,1.6,1.2,2,3C207.4,97.1,208.2,97,208.8,96.9 M202.6,97.2c-1.2-0.1-2.3-0.2-3.1-0.4
			c-0.8,1-1.2,2.3-1.2,3.7h3.9C202.3,99.2,202.4,98.1,202.6,97.2z M204.6,94.2c-2.1,0-3.9,1-5.1,2.6c0.8,0.2,1.8,0.3,3.1,0.4
			C203,95.4,203.7,94.2,204.6,94.2z"/>
	</g>
	<g>
		<defs>
			<rect id="SVGID_00000069384495016062969190000003842822208750558395_" x="197.4" y="136" width="15.6" height="15.6"/>
		</defs>
		<clipPath id="SVGID_00000153706806449806070840000000368496489556390807_">
			<use xlink:href="#SVGID_00000069384495016062969190000003842822208750558395_"  style="overflow:visible;"/>
		</clipPath>
		
			<path style="clip-path:url(#SVGID_00000153706806449806070840000000368496489556390807_);fill:none;stroke:#FFFFFF;stroke-width:0.7188;stroke-linecap:round;stroke-linejoin:round;stroke-miterlimit:10;" d="
			M209.2,150.5l-4-2.1l-4,2.1c-0.3,0.1-0.6-0.1-0.5-0.4l0.8-4.4l-3.3-3.2c-0.2-0.2-0.1-0.5,0.2-0.5l4.5-0.7l2-4.1
			c0.1-0.2,0.5-0.2,0.6,0l2,4.1l4.5,0.7c0.3,0,0.4,0.4,0.2,0.6l-3.3,3.2l0.8,4.4C209.8,150.4,209.5,150.6,209.2,150.5z"/>
	</g>
	<path class="st22" d="M201.4,181.3h8.1v9.8h-1.8h-0.8v0.8v1.8h-5.5V181.3z M200.6,180.4v14.1h7.2v-2.6h2.6v-11.5H200.6z"/>
	<path class="st43" d="M204.8,186.7h3.6 M204.8,183.9h3.6"/>
	<rect x="202.4" y="188.6" class="st22" width="1.6" height="1.6"/>
	<rect x="202.4" y="185.9" class="st22" width="1.6" height="1.6"/>
	<rect x="202.4" y="183.1" class="st22" width="1.6" height="1.6"/>
	<line class="st43" x1="204.8" y1="189.4" x2="208.4" y2="189.4"/>
	<path class="st22" d="M201.4,181.3h8.1v10.3l-2.1,2.1h-6V181.3z M200.6,180.4v14.1h7.2l2.6-2.6v-11.5H200.6z"/>
	<text transform="matrix(1 0 0 1 89.1875 75.8136)"><tspan x="0" y="0" class="st22 st35 st36">enjoyable choices for every mood</tspan><tspan x="0" y="11.3" class="st22 st35 st36">and moment, today and tomorrow</tspan></text>
	<text transform="matrix(1 0 0 1 89.1875 164.9982)"><tspan x="0" y="0" class="st22 st35 st36">a dynamic, inspiring and</tspan><tspan x="0" y="11.3" class="st22 st35 st36">purposeful place to work</tspan></text>
	<text transform="matrix(1 0 0 1 89.1875 209.3234)" class="st22 st35 st36">sustainable and superior returns</text>
</g>
</svg>
