<?xml version="1.0" encoding="utf-8"?>
<!-- Generator: Adobe Illustrator 26.0.1, SVG Export Plug-In . SVG Version: 6.00 Build 0)  -->
<svg version="1.1" id="Layer_1" xmlns="http://www.w3.org/2000/svg" xmlns:xlink="http://www.w3.org/1999/xlink" x="0px" y="0px"
	 viewBox="0 0 113.4 149.5" style="enable-background:new 0 0 113.4 149.5;" xml:space="preserve">
<style type="text/css">
	.st0{fill:none;}
	.st1{fill:#01519C;}
	.st2{fill:#FDB913;}
	.st3{clip-path:url(#SVGID_00000106119297401349007760000008902768726642505662_);fill:#FDB913;}
	.st4{fill:#ED7F22;}
	.st5{fill:#ED328C;}
	.st6{fill:#39B54A;}
	.st7{fill:#A6CE39;}
</style>
<g>
	<path class="st0" d="M287.9,13.8c0-8.2-6.7-14.9-15-14.9c-8.3,0-15,6.7-15,14.9c0,8.3,6.7,15,15,15
		C281.1,28.8,287.9,22.1,287.9,13.8z M268.8,21c-0.8-0.9-1.3-2.1-1.3-3.3h3c0,0.6,0.2,1.1,0.5,1.5c0.3,0.4,0.7,0.6,1.2,0.6v-3.9
		c-1.4-0.4-2.7-1-3.8-1.9c-0.7-0.8-1.1-1.8-1.1-2.9c-0.1-1.2,0.4-2.4,1.3-3.3c1-0.9,2.3-1.4,3.6-1.4V4.3h1.3l0,2.1
		c1.4,0,2.7,0.5,3.7,1.4c0.9,1,1.3,2.3,1.2,3.7h-2.9c0-0.7-0.2-1.3-0.6-1.9c-0.3-0.4-0.9-0.8-1.4-0.9v4.5c1.3,0.2,2.6,0.8,3.6,1.7
		c0.7,0.8,1.1,1.8,1.1,2.8c0,1.2-0.4,2.4-1.3,3.2c-0.9,0.8-2.1,1.3-3.4,1.3v1.4h-1.3v-1.4C271,22.3,269.8,21.8,268.8,21z"/>
	<path class="st0" d="M275.3,18.1c0-0.4-0.1-0.8-0.4-1.1c-0.4-0.4-0.8-0.6-1.3-0.8v3.7c0.5,0,0.9-0.2,1.3-0.6
		C275.1,19,275.3,18.5,275.3,18.1z"/>
	<path class="st0" d="M272.2,12.9V8.7c-0.5,0-1,0.3-1.4,0.7c-0.3,0.4-0.5,0.9-0.5,1.4c0,0.5,0.1,0.9,0.4,1.3
		C271.2,12.4,271.7,12.7,272.2,12.9L272.2,12.9z"/>
	<path class="st0" d="M218.4-20.1c11.3,0,20.4-9.1,20.4-20.4c0-11.3-9.1-20.4-20.4-20.4c-11.3,0-20.4,9.1-20.4,20.4
		C197.9-29.2,207.1-20.1,218.4-20.1z"/>
	<path class="st1" d="M222.5,0c-1.4,0.1-2.7,0.2-4.1,0.2c-3.7,0-7.3-0.5-10.8-1.5c-6.7,9.1-19.5,11-28.6,4.4
		c-9.1-6.7-11-19.4-4.4-28.5c1.2-1.7,2.7-3.1,4.4-4.4c-1-3.5-1.5-7.1-1.5-10.8c0-1.4,0.1-2.7,0.2-4.1c-17.3,7.3-25.4,27.3-18,44.6
		c5.4,12.5,17.7,20.7,31.4,20.7C204.8,20.7,217.1,12.6,222.5,0z"/>
	<path class="st1" d="M234.7,13.8c0,2.3,1.8,4.1,4.1,4.1c2.3,0,4.1-1.8,4.1-4.1c0-2.2-1.8-4.1-4.1-4.1
		C236.6,9.8,234.7,11.6,234.7,13.8z"/>
	<path class="st1" d="M218.4-6.5c18.8,0,34.1-15.2,34.1-34c0-18.8-15.2-34-34.1-34c-18.8,0-34.1,15.2-34.1,34
		C184.3-21.8,199.6-6.5,218.4-6.5z M218.4-60.9c11.3,0,20.4,9.1,20.4,20.4c0,11.3-9.1,20.4-20.4,20.4c-11.3,0-20.4-9.1-20.4-20.4
		C197.9-51.8,207.1-60.9,218.4-60.9z"/>
	<path class="st1" d="M273.5,23.7v-1.4c1.3,0,2.5-0.4,3.4-1.3c0.9-0.9,1.3-2,1.3-3.2c0.1-1-0.3-2.1-1.1-2.8
		c-1.1-0.9-2.3-1.4-3.6-1.7V8.7c0.6,0.1,1.1,0.4,1.4,0.9c0.4,0.6,0.6,1.2,0.6,1.9h2.9c0.1-1.3-0.4-2.7-1.2-3.7
		c-1-0.9-2.3-1.4-3.7-1.4l0-2.1h-1.3v2.1c-1.3,0-2.6,0.6-3.6,1.4c-0.9,0.9-1.3,2.1-1.3,3.3c0,1.1,0.3,2.1,1.1,2.9
		c1.1,0.9,2.4,1.6,3.8,1.9v3.9c-0.5,0-0.9-0.2-1.2-0.6c-0.3-0.4-0.5-1-0.5-1.5h-3c0,1.2,0.5,2.4,1.3,3.3c0.9,0.8,2.1,1.3,3.3,1.3
		v1.4H273.5z M273.5,16.2c0.5,0.1,1,0.4,1.3,0.8c0.3,0.3,0.4,0.7,0.4,1.1c0,0.4-0.1,0.9-0.5,1.3c-0.3,0.3-0.8,0.6-1.3,0.6V16.2z
		 M270.8,12c-0.3-0.3-0.5-0.8-0.4-1.3c0-0.5,0.2-1,0.5-1.4c0.4-0.4,0.8-0.6,1.4-0.7v4.1l0,0C271.7,12.7,271.2,12.4,270.8,12z"/>
	<path class="st1" d="M253.3-23.5c-2.6,5.3-6.4,10-11.1,13.6h85.2v47.6h-109V14.2c-3.9,3.8-8.5,6.8-13.6,8.7v28.3H341v-74.7H253.3z"
		/>
	<path class="st1" d="M311,13.8c0-2.2-1.8-4.1-4.1-4.1c-2.3,0-4.1,1.8-4.1,4.1c0,2.3,1.8,4.1,4.1,4.1C309.2,17.9,311,16.1,311,13.8z
		"/>
	<path class="st1" d="M292.6,13.8c0-10.9-8.8-19.7-19.8-19.7c-10.9,0-19.8,8.8-19.8,19.7c0,10.9,8.8,19.7,19.8,19.7
		C283.8,33.5,292.6,24.7,292.6,13.8z M257.9,13.8c0-8.2,6.7-14.9,15-14.9c8.3,0,15,6.7,15,14.9c0,8.3-6.7,15-15,15
		C264.6,28.8,257.9,22.1,257.9,13.8z"/>
</g>
<g>
	<path class="st2" d="M-232.9-112l15.1-26.2h30.3l15.1,26.2l-15.1,26.2h-30.3L-232.9-112z M-224.1-149l-21.4,37.1l21.4,37.1h42.8
		l21.4-37.1l-21.4-37.1H-224.1z"/>
	<path class="st2" d="M-178.1-80.3l15.1-26.2h30.3l15.1,26.2l-15.1,26.2H-163L-178.1-80.3z M-169.3-117.4l-21.4,37.1l21.4,37.1h42.8
		l21.4-37.1l-21.4-37.1H-169.3z"/>
	<path class="st2" d="M-232.9-48.7l15.1-26.2h30.3l15.1,26.2l-15.1,26.2h-30.3L-232.9-48.7z M-224.1-85.8l-21.4,37.1l21.4,37.1h42.8
		l21.4-37.1l-21.4-37.1H-224.1z"/>
	<g>
		<defs>
			<rect id="SVGID_1_" x="-245.5" y="-149" width="140.4" height="137.4"/>
		</defs>
		<clipPath id="SVGID_00000150806412651400416070000004428079112944338857_">
			<use xlink:href="#SVGID_1_"  style="overflow:visible;"/>
		</clipPath>
		<path style="clip-path:url(#SVGID_00000150806412651400416070000004428079112944338857_);fill:#FDB913;" d="M-202.6-118.4
			c-2.7,0-4.9-2.1-4.9-4.8v-0.1c0-2.7,2.1-4.8,4.8-4.9c2.7,0,4.9,2.1,4.9,4.8C-197.7-120.6-199.9-118.4-202.6-118.4 M-202.7-133.1
			L-202.7-133.1c-5.4-0.1-9.9,4.3-9.9,9.7c-0.1,5.4,4.3,9.9,9.7,9.9c5.4,0.1,9.9-4.3,9.9-9.7c0,0,0-0.1,0-0.1
			C-192.9-128.7-197.3-133.1-202.7-133.1"/>
		<path style="clip-path:url(#SVGID_00000150806412651400416070000004428079112944338857_);fill:#FDB913;" d="M-192.7-82.5h-20V-103
			c0-0.8,0.6-1.4,1.4-1.4h17.2v0c0.8,0,1.4,0.6,1.4,1.4V-82.5z M-194.1-109.4h-17.2c-3.5,0-6.3,2.9-6.3,6.4v25.5h29.8V-103
			C-187.8-106.5-190.6-109.4-194.1-109.4"/>
		<path style="clip-path:url(#SVGID_00000150806412651400416070000004428079112944338857_);fill:#FDB913;" d="M-147.1-84.1
			c-2.6,0-4.7-2-4.8-4.6v-0.1c0-2.6,2.1-4.7,4.6-4.7c2.6,0,4.7,2,4.8,4.6S-144.5-84.2-147.1-84.1 M-147.3-98.3L-147.3-98.3
			c-5.3-0.1-9.6,4.1-9.6,9.4c-0.1,5.3,4.1,9.5,9.4,9.6c5.3,0.1,9.6-4.1,9.6-9.4c0,0,0-0.1,0-0.1C-137.8-94-142-98.3-147.3-98.3"/>
		<path style="clip-path:url(#SVGID_00000150806412651400416070000004428079112944338857_);fill:#FDB913;" d="M-137.6-49.3h-19.3
			v-19.9c0-0.7,0.6-1.4,1.3-1.4h16.6v0c0.8,0,1.4,0.6,1.4,1.4V-49.3z M-138.9-75.4h-16.7c-3.4,0-6.1,2.8-6.1,6.2v24.7h28.8v-24.7
			C-132.8-72.6-135.5-75.4-138.9-75.4"/>
		<path style="clip-path:url(#SVGID_00000150806412651400416070000004428079112944338857_);fill:#FDB913;" d="M-197.6-31
			c-0.9,0.7-1.9,1.3-3.4,1.5v-10.1c1.6,0.5,2.8,1.2,3.4,2c0.7,0.7,1.1,1.8,1.1,3.1C-196.4-33.1-196.8-31.9-197.6-31 M-204.2-48.2
			c-1.6-0.5-2.7-1.1-3.3-1.8c-0.7-0.7-1.1-1.7-1.1-2.8c0-1.3,0.3-2.4,1.1-3.2c0.8-0.7,1.9-1.2,3.3-1.4V-48.2z M-191.6-42.5
			c-1.9-1.7-5.1-3.3-9.6-4.8v-9.9c1.3,0.2,2.3,0.7,3,1.5c0.6,0.9,1,2.2,1.1,3.9h7.4c-0.2-3.6-1.3-6.3-3.2-8.3c-2-2-4.7-3-8.3-3.2
			v-3.5h-3.2v3.5c-3.6,0-6.3,1-8.5,3.1c-2.1,2.1-3.2,4.7-3.2,8.1c0,3,0.9,5.4,2.7,7.1c1.8,1.7,4.7,3.1,9.1,4.2v11.3
			c-1.6-0.3-2.8-1.1-3.8-2c-0.8-1.2-1.3-2.7-1.4-4.7h-7.3c0,4.1,1,7.1,3.1,9.3c2.1,2.1,5.1,3.2,9.3,3.5v5.3h3.2v-5.3
			c3.9-0.4,6.9-1.5,9.1-3.6c2.1-2.1,3.2-4.9,3.2-8.4C-188.8-38.3-189.8-40.7-191.6-42.5"/>
	</g>
</g>
<g>
	<path class="st4" d="M-235.8,195.6L-235.8,195.6l-42.5,0c-1.9,0-3.4,1.6-3.4,3.5v50.8h49.4v-50.8
		C-232.4,197.2-233.9,195.6-235.8,195.6 M-321.9,195.6L-321.9,195.6l-42.5,0c-1.9,0-3.4,1.6-3.4,3.5v50.8h49.4v-50.8
		C-318.5,197.2-320,195.6-321.9,195.6 M-278.3,183.4h42.5c8.6,0.1,15.6,7.1,15.6,15.8v63.1h-73.7v-63.1
		C-293.9,190.4-287,183.4-278.3,183.4 M-364.4,183.4h42.5h0c8.6,0.1,15.6,7.1,15.6,15.8v63.1H-380v-63.1
		C-380,190.4-373.1,183.4-364.4,183.4 M-257.7,137c-6.6,0.1-11.9,5.4-11.9,12v0.2c0.1,6.6,5.5,12,12.2,11.9
		c6.6-0.1,11.9-5.5,11.9-12.2C-245.6,142.3-251,136.9-257.7,137 M-343.2,137c-6.6,0.1-11.9,5.4-11.9,12v0.2
		c0.1,6.6,5.5,12,12.2,11.9c6.6-0.1,12-5.5,11.9-12.2C-331.1,142.3-336.5,136.9-343.2,137 M-257.7,124.8L-257.7,124.8
		c13.3,0.1,24.1,10.9,24,24.3v0.3c-0.2,13.4-11.1,24.2-24.5,24c-13.4-0.2-24.2-11.1-24-24.5C-282,135.4-271.1,124.6-257.7,124.8
		 M-343.2,124.8L-343.2,124.8c13.3,0.1,24.1,10.9,24,24.3c0,0.1,0,0.2,0,0.3c-0.1,13.4-11.1,24.2-24.5,24
		c-13.4-0.2-24.1-11.1-24-24.5C-367.6,135.4-356.6,124.6-343.2,124.8"/>
</g>
<g>
	<path class="st5" d="M56.7,113.8c-7.1,0-13.3-4.4-15.7-11.1v-0.1c-0.5-1.5-1.6-2.1-2.2-2.3c-0.6-0.3-1.8-0.6-3.3,0.1l-0.6,0.3
		c-6.3,2.7-13.4,1.3-18.3-3.6c-5-5-6.3-12.3-3.4-18.7l0.1-0.3c0.7-1.4,0.3-2.7,0.1-3.3c-0.3-0.6-0.9-1.7-2.3-2.3H11
		C4.3,70.2,0,64.1,0,56.9c0-7.1,4.3-13.3,11-15.7h0.1c1.4-0.5,2.1-1.6,2.3-2.3c0.3-0.6,0.6-1.8-0.1-3.3l-0.1-0.1
		c-3-6.4-1.7-13.8,3.4-18.9c5-5,12.2-6.3,18.6-3.4l0.3,0.1c1.4,0.7,2.7,0.3,3.3,0.1c0.6-0.3,1.7-0.9,2.2-2.3V11
		c2.4-6.7,8.5-11,15.7-11c7,0,13.1,4.2,15.5,10.7v0.1l0.1,0.4c0.5,1.4,1.6,2.1,2.3,2.3c0.6,0.3,1.8,0.6,3.3-0.1l0.3-0.1
		c6.4-2.9,13.6-1.6,18.6,3.4c5.1,5.1,6.3,12.5,3.3,19v0.1c-0.6,1.4-0.3,2.6-0.1,3.2c0.3,0.6,0.9,1.7,2.3,2.3l0.4,0.1
		c6.5,2.5,10.7,8.6,10.7,15.6c0,7-4.2,13.1-10.7,15.6h-0.1l-0.4,0.1c-1.4,0.5-2.1,1.6-2.3,2.3c-0.3,0.6-0.6,1.8,0.1,3.2
		c3.1,6.4,1.8,13.9-3.3,19c-4.9,4.9-12,6.3-18.3,3.6h-0.1l-0.5-0.3c-1.4-0.7-2.7-0.3-3.3-0.1c-0.6,0.3-1.7,0.9-2.3,2.3l-0.1,0.4
		C69.7,109.6,63.7,113.8,56.7,113.8 M52.9,98.5c0.9,2.4,2.9,2.7,3.8,2.7c0.8,0,2.9-0.2,3.8-2.7l0.1-0.4c1.7-4.3,4.9-7.7,9.2-9.4
		c4.1-1.7,8.8-1.7,12.9,0.1h0.1l0.5,0.3c2.3,1.1,4-0.2,4.5-0.8c0.6-0.6,1.9-2.3,0.8-4.5c-2-4.3-2.1-9.2-0.3-13.5
		c1.8-4.3,5.2-7.6,9.4-9.2h0.1l0.4-0.1c2.4-0.9,2.7-2.9,2.7-3.8c0-0.9-0.3-2.9-2.7-3.8l-0.4-0.1c-4.2-1.7-7.7-4.9-9.4-9.2
		c-1.8-4.4-1.7-9.3,0.3-13.5v-0.1c1.1-2.3-0.2-3.9-0.8-4.5c-0.6-0.6-2.3-1.9-4.5-0.8l-0.3,0.1c-4.2,1.9-9,2-13.3,0.2
		c-4.2-1.8-7.5-5.2-9.2-9.4v-0.1l-0.1-0.4c-0.9-2.4-2.9-2.7-3.8-2.7c-0.8,0-2.9,0.3-3.8,2.7v0.1c-1.6,4.5-5,8.1-9.3,9.8
		c-4.2,1.8-9,1.7-13.3-0.2L30.1,25c-2.3-1.1-4,0.2-4.5,0.8c-0.6,0.6-1.9,2.3-0.8,4.5l0.1,0.1c2,4.2,2.1,9.1,0.3,13.4
		c-1.8,4.3-5.4,7.7-9.7,9.3h-0.1c-2.4,0.9-2.7,2.9-2.7,3.8c0,0.9,0.3,2.9,2.7,3.8h0.1c4.4,1.6,8,5,9.7,9.3c1.8,4.2,1.7,9-0.2,13.3
		l-0.1,0.3c-1.1,2.3,0.2,4,0.8,4.5c0.6,0.6,2.3,1.9,4.5,0.8l0.6-0.3c4.1-1.8,8.8-1.8,12.9-0.1C47.9,90.4,51.3,94,52.9,98.5
		 M56.7,82.1c-14,0-25.3-11.3-25.3-25.3c0-14,11.3-25.3,25.3-25.3c14,0,25.3,11.3,25.3,25.3C81.9,70.8,70.6,82.1,56.7,82.1
		 M56.7,44.1c-6.9,0-12.6,5.7-12.6,12.7c0,7,5.7,12.7,12.6,12.7c7,0,12.6-5.7,12.6-12.7C69.3,49.8,63.6,44.1,56.7,44.1 M43.3,112.6
		L39,126.5l-8.7-8.2l-11.8,1.7l4.6-14.9c-3.5-0.9-6.6-2.7-9.3-5.4c-0.6-0.6-1.2-1.3-1.7-1.9L0.4,135.5l25.6-3.8l19,17.7l10-32
		C50.6,117.2,46.5,115.4,43.3,112.6 M99.5,99.8c-2.7,2.7-5.8,4.4-9.3,5.4l4.6,14.9L83,118.4l-8.6,8.2L70,112.6
		c-3.2,2.8-7.3,4.6-11.7,4.9l10,32l19-17.7l25.6,3.8l-11.8-37.7C100.6,98.5,100.1,99.2,99.5,99.8"/>
</g>
<g>
	<path class="st6" d="M378.6,505.4l-5.1-1.6l-1.8,5c-0.8,2.2-20.1,54.4-1.7,92.1c7.9,16.2,21.8,27.5,40.3,32.7
		c7.1,2,14.4,3,21.7,3.1l6,12.3c1.4,2.8,4.7,3.9,7.4,2.6c2.8-1.3,3.9-4.7,2.6-7.4l-6-12.3c4.5-5.8,8.2-12.2,11-19
		c7.3-17.7,7-35.7-0.8-51.9C433.7,523.1,380.8,506.1,378.6,505.4 M442.8,608.2c-1.7,4.3-3.9,8.3-6.4,12.2l-9.4-19.2l8.7-14.8
		c1.6-2.7,0.7-6.1-2-7.6s-6.1-0.7-7.6,2l-4.9,8.3l-4.9-10l8.6-14.7c1.6-2.7,0.7-6.1-2-7.7c-2.7-1.6-6.1-0.7-7.6,2l-4.9,8.4
		l-11.5-23.7c-1.4-2.7-4.7-3.9-7.5-2.5c-2.7,1.4-3.9,4.7-2.5,7.5l11.5,23.7l-9.6-1.3c-3.1-0.5-5.9,1.6-6.4,4.6
		c-0.5,3,1.6,5.9,4.6,6.4c0.1,0,0.2,0,0.3,0l16.9,2.3l4.8,9.9l-9.6-1.4c-3-0.5-5.9,1.5-6.4,4.6c-0.5,3,1.5,5.9,4.6,6.4
		c0.1,0,0.2,0,0.3,0.1l17.2,2.5l9.3,19.2c-4.6-0.4-9.1-1.2-13.5-2.5c-15.4-4.4-26.5-13.4-33-26.7c-13.1-27-3.8-64.5,0.4-78.1
		c13.3,5.1,48.6,20.8,61.7,47.9C448.6,579.1,448.8,593.4,442.8,608.2"/>
</g>
<g>
	<path class="st7" d="M150.5,515.2c-8.1-8.1-21.1-8.8-30-1.5c-9.6-7.8-23.6-6.4-31.4,3.2c-7.2,8.9-6.6,21.8,1.4,29.9l29.7,29.8
		l0.3-0.2l0.3,0.2l29.7-29.8C159.2,538.1,159.2,524,150.5,515.2 M106.2,518.9c3.2,0,6.3,1.3,8.6,3.6l5.6,5.6l5.6-5.6
		c4.7-4.7,12.4-4.7,17.1,0c4.7,4.8,4.7,12.4,0,17.2l-22.5,22.5l-0.3-0.2l-0.3,0.2l-22.5-22.5c-4.7-4.7-4.8-12.4,0-17.2
		C99.9,520.2,103,518.9,106.2,518.9 M112.1,617.1c0.2-9.5-1.1-16.8-4.1-23c-3.6-7.4-9.2-10.5-14.5-13.5l-0.2-0.1
		c-0.9-0.5-1.9-1-2.9-1.6c-4.4-2.6-8.2-6.6-12.1-10.6c-0.8-0.8-1.6-1.6-2.4-2.4c-1.1-1.2-5.5-5.2-6.1-5.7c-0.8-0.9-1.8-1.6-2.9-2.1
		v-17.4c0-6.6-5-12.3-11.3-12.9c-6.9-0.6-13.1,4.5-13.7,11.4c0,0.4-0.1,0.8-0.1,1.1v43.6c0,3.2,1.2,6.3,3.5,8.5
		C48.9,596,67,614.2,71,618c0,0,0.1,0.1,0.1,0.2l2.2,16.3h10.3L81,614.7c-0.2-1.4-1.2-2.4-3.7-4.8c-0.3-0.3-0.6-0.5-0.8-0.7
		l-23.8-23.8c-0.7-1-0.7-1.3-0.7-1.4v-8.8c0.4,0.6,0.8,1.1,1.3,1.6l20.6,20.5c1.1,1.4,2.7,2.2,4.5,2.1c1.6-0.1,3.1-1,4.1-2.3
		c1.3-2.2,0.4-5-1.1-6.6l-20.8-21c-0.3-0.3-0.4-0.6-0.4-1c0-0.4,0.2-0.8,0.4-1c0.6-0.5,1.6-0.5,2.1,0.1l0.1,0.1
		c1.6,1.5,5.1,4.7,5.8,5.5c0.8,0.8,1.5,1.6,2.3,2.4c4.1,4.2,8.7,9.1,14.2,12.3c1,0.6,2.1,1.2,3.1,1.8l0.2,0.1
		c4.7,2.6,8.1,4.5,10.3,9c2.3,4.7,3.3,10.5,3,18.5v0.1l0.9,17.3h10.2L112.1,617.1z M52,540.3c0-0.6,0.3-1.3,0.8-1.7
		c0.4-0.4,1-0.6,1.6-0.6h0.2c1.2,0.1,2.1,1.3,2.1,2.7v17.2c-1.2,0.6-2.3,1.3-3.3,2.3c-0.5,0.5-1,1-1.4,1.6V540.3z M128,634.4h10.2
		l0.9-17.3v0c-0.2-7.9,0.8-13.8,3-18.5c2.2-4.5,5.6-6.4,10.3-9l0.2-0.1c1-0.6,2-1.1,3.1-1.7c5.6-3.3,10.2-8.1,14.2-12.3
		c0.8-0.8,1.5-1.6,2.3-2.4c0.8-0.8,4.2-4,5.8-5.5l0.1-0.1c0.6-0.6,1.5-0.6,2.1-0.1c0.3,0.3,0.4,0.7,0.4,1c0,0.4-0.2,0.8-0.4,1
		l-20.8,21c-1.5,1.6-2.4,4.4-1.1,6.6c1,1.3,2.5,2.2,4.1,2.3c1.7,0.1,3.4-0.7,4.5-2.1l20.6-20.5c0.5-0.5,0.9-1,1.3-1.6v8.8
		c0,0.1,0,0.4-0.7,1.4l-23.8,23.8c-0.2,0.2-0.5,0.5-0.8,0.7c-2.5,2.3-3.5,3.4-3.7,4.8l-2.6,19.7h10.3l2.1-16.3c0-0.1,0-0.1,0.1-0.1
		c4-3.8,22.1-22,25.7-25.6c2.3-2.2,3.6-5.3,3.5-8.5v-43.6c0-7-5.7-12.6-12.6-12.6c-0.4,0-0.8,0-1.1,0.1c-6.4,0.6-11.4,6.3-11.4,12.9
		v17.4c-1.1,0.5-2.1,1.2-2.9,2.1c-0.6,0.5-4.9,4.5-6.1,5.7c-0.8,0.8-1.6,1.6-2.4,2.4c-3.8,4-7.7,8-12.1,10.6c-1,0.6-2,1.1-2.9,1.6
		l-0.2,0.1c-5.4,3-11,6-14.6,13.5c-3,6.1-4.3,13.4-4.1,22.9L128,634.4z M188.9,561.8c-0.4-0.6-0.8-1.1-1.3-1.6c-1-1-2.1-1.7-3.3-2.3
		v-17.2c0-1.4,0.9-2.6,2.1-2.7h0.2c0.6,0,1.2,0.2,1.6,0.6c0.5,0.4,0.8,1,0.8,1.7L188.9,561.8z"/>
</g>
</svg>
