<?xml version="1.0" encoding="utf-8"?>
<!-- Generator: Adobe Illustrator 26.0.1, SVG Export Plug-In . SVG Version: 6.00 Build 0)  -->
<svg version="1.1" id="Layer_1" xmlns="http://www.w3.org/2000/svg" xmlns:xlink="http://www.w3.org/1999/xlink" x="0px" y="0px"
	 viewBox="0 0 159.5 169" style="enable-background:new 0 0 159.5 169;" xml:space="preserve">
<style type="text/css">
	.st0{fill:#FFFFFF;}
	.st1{fill:none;}
	.st2{fill:#01519C;}
	.st3{fill:#FDB913;}
	.st4{clip-path:url(#SVGID_00000141448400114454886270000016772226430217231284_);fill:#FDB913;}
	.st5{clip-path:url(#SVGID_00000027605685550835673180000005499166202725881533_);fill:#FDB913;}
	.st6{clip-path:url(#SVGID_00000067198478507414859170000014257474667007923610_);fill:#FDB913;}
	.st7{clip-path:url(#SVGID_00000004548224435848316480000017293515469762808746_);fill:#FDB913;}
	.st8{clip-path:url(#SVGID_00000010999678970989789050000002398321434309546923_);fill:#FDB913;}
	.st9{fill:#ED7F22;}
	.st10{fill:#39B54A;}
	.st11{fill:#A6CE39;}
	.st12{fill:#ED328C;}
</style>
<path class="st0" d="M-1070.1,108.4c0.1-13.5,11.1-24.3,24.5-24.1c13.3,0.1,24.1,10.9,24,24.3v0.3c-0.1,13.4-11.1,24.2-24.5,24
	S-1070.2,121.8-1070.1,108.4z"/>
<path class="st0" d="M-1013.3,147.6c2.8,2.8,4.6,6.8,4.6,11.1v63.1h-73.6v-63.1c-0.1-8.8,6.9-15.8,15.5-15.8h42.5
	C-1020.1,143-1016.2,144.7-1013.3,147.6z"/>
<path class="st0" d="M-984.6,108.4c0.1-13.5,11.1-24.3,24.5-24.1c13.3,0.1,24.1,10.9,24,24.3v0.3c-0.2,13.4-11.1,24.2-24.5,24
	C-974,132.7-984.8,121.8-984.6,108.4z"/>
<path class="st0" d="M-922.6,158.7v63.1h-73.7v-63.1c0-8.8,6.9-15.8,15.6-15.8h42.5C-929.6,143-922.6,150-922.6,158.7z"/>
<path class="st0" d="M-518.3,546.9l-20.6,20.5c-1.1,1.4-2.8,2.2-4.5,2.1c-1.6-0.1-3.1-1-4.1-2.3c-1.3-2.2-0.4-5,1.1-6.6l20.8-21
	c0.2-0.2,0.4-0.6,0.4-1c0-0.3-0.1-0.7-0.4-1c-0.6-0.5-1.5-0.5-2.1,0.1l-0.1,0.1c-1.6,1.5-5,4.7-5.8,5.5c-0.8,0.8-1.5,1.6-2.3,2.4
	c-4,4.2-8.6,9-14.2,12.3c-1.1,0.6-2.1,1.1-3.1,1.7l-0.2,0.1c-4.7,2.6-8.1,4.5-10.3,9c-2,4.3-3,9.6-3,16.6c0,0.6,0,1.3,0,1.9
	l-0.9,17.3l29.3-0.1h-10.3l2.6-19.7c0.2-1.4,1.2-2.5,3.7-4.8c0.3-0.2,0.6-0.5,0.8-0.7l23.8-23.8c0.7-1,0.7-1.3,0.7-1.4v-8.8
	C-517.4,545.9-517.8,546.4-518.3,546.9z"/>
<path class="st0" d="M-593.1,605h-10.2l0-0.3h-29.3l-2.2-16.3c0-0.1-0.1-0.2-0.1-0.2c-4-3.8-22.1-22-25.7-25.6
	c-2.3-2.2-3.5-5.3-3.5-8.5v-43.6c0-0.3,0.1-0.7,0.1-1.1c0.6-6.9,6.8-12,13.7-11.4c6.3,0.6,11.3,6.3,11.3,12.9v17.4
	c1.1,0.5,2.1,1.2,2.9,2.1c0.6,0.5,5,4.5,6.1,5.7c0.8,0.8,1.6,1.6,2.4,2.4c3.9,4,7.7,8,12.1,10.6c1,0.6,2,1.1,2.9,1.6l0.2,0.1
	c5.3,3,10.9,6.1,14.5,13.5c3,6.2,4.3,13.5,4.1,23l0.7,17.3v0.1L-593.1,605z"/>
<path class="st0" d="M-555.4,517l-29.7,29.8l-0.3-0.2l-0.3,0.2l-29.7-29.8c-8-8.1-8.6-21-1.4-29.9c7.8-9.6,21.8-11,31.4-3.2
	c8.9-7.3,21.9-6.6,30,1.5C-546.7,494.2-546.7,508.3-555.4,517z"/>
<path class="st0" d="M-506.9,510.6V554c0.1,3.2-1.2,6.3-3.5,8.5c-3.6,3.6-21.7,21.8-25.7,25.6c-0.1,0-0.1,0-0.1,0.1l-2.1,16.3h-10.3
	l2.6-19.7c0.2-1.4,1.2-2.5,3.7-4.8c0.3-0.2,0.6-0.5,0.8-0.7l23.8-23.8c0.7-1,0.7-1.3,0.7-1.4v-8.8c-0.4,0.6-0.8,1.1-1.3,1.6
	l-20.6,20.5c-1.1,1.4-2.8,2.2-4.5,2.1c-1.6-0.1-3.1-1-4.1-2.3c-1.3-2.2-0.4-5,1.1-6.6l20.8-21c0.2-0.2,0.4-0.6,0.4-1
	c0-0.3-0.1-0.7-0.4-1c-0.6-0.5-1.5-0.5-2.1,0.1l-0.1,0.1c-1.6,1.5-5,4.7-5.8,5.5c-0.8,0.8-1.5,1.6-2.3,2.4c-4,4.2-8.6,9-14.2,12.3
	c-1.1,0.6-2.1,1.1-3.1,1.7l-0.2,0.1c-4.7,2.6-8.1,4.5-10.3,9c-2,4.3-3,9.6-3,16.6c0,0.6,0,1.3,0,1.9l-0.9,17.3v0h-10.2v0l0.7-17.3
	c-0.2-9.5,1.1-16.8,4.1-22.9c3.6-7.5,9.2-10.5,14.6-13.5l0.2-0.1c0.9-0.5,1.9-1,2.9-1.6c4.4-2.6,8.3-6.6,12.1-10.6
	c0.8-0.8,1.6-1.6,2.4-2.4c1.2-1.2,5.5-5.2,6.1-5.7c0.8-0.9,1.8-1.6,2.9-2.1V511c0-6.6,5-12.4,11.2-12.9c0.3-0.1,0.7-0.1,1.1-0.1
	C-512.6,498-506.9,503.6-506.9,510.6z"/>
<g>
	<path class="st1" d="M-414.6-26.7c0-8.2-6.7-14.9-15-14.9c-8.3,0-15,6.7-15,14.9c0,8.3,6.7,15,15,15S-414.6-18.4-414.6-26.7z
		 M-433.6-19.5c-0.8-0.9-1.3-2.1-1.3-3.3h3c0,0.6,0.2,1.1,0.5,1.5c0.3,0.4,0.7,0.6,1.2,0.6v-3.9c-1.4-0.4-2.7-1-3.8-1.9
		c-0.7-0.8-1.1-1.8-1.1-2.9c-0.1-1.2,0.4-2.4,1.3-3.3c1-0.9,2.3-1.4,3.6-1.4v-2.1h1.3v2.1c1.4,0,2.7,0.5,3.7,1.4
		c0.9,1,1.3,2.3,1.2,3.7h-2.9c0-0.7-0.2-1.3-0.6-1.9c-0.3-0.4-0.9-0.8-1.4-0.9v4.5c1.3,0.2,2.6,0.8,3.6,1.7c0.7,0.8,1.1,1.8,1.1,2.8
		c0,1.2-0.4,2.4-1.3,3.2c-0.9,0.8-2.1,1.3-3.4,1.3v1.4h-1.3v-1.4C-431.5-18.2-432.7-18.7-433.6-19.5z"/>
	<path class="st1" d="M-427.2-22.4c0-0.4-0.1-0.8-0.4-1.1c-0.4-0.4-0.8-0.6-1.3-0.8v3.7c0.5,0,0.9-0.2,1.3-0.6
		C-427.3-21.5-427.1-22-427.2-22.4z"/>
	<path class="st1" d="M-430.2-27.6v-4.1c-0.5,0-1,0.3-1.4,0.7c-0.3,0.4-0.5,0.9-0.5,1.4s0.1,0.9,0.4,1.3
		C-431.2-28.1-430.8-27.8-430.2-27.6L-430.2-27.6z"/>
	<path class="st1" d="M-484-60.6c11.3,0,20.4-9.1,20.4-20.4c0-11.3-9.1-20.4-20.4-20.4c-11.3,0-20.4,9.1-20.4,20.4
		C-504.5-69.7-495.3-60.6-484-60.6z"/>
	<path class="st2" d="M-480-40.4c-1.4,0.1-2.7,0.2-4.1,0.2c-3.7,0-7.3-0.5-10.8-1.5c-6.7,9.1-19.5,11-28.6,4.4
		c-9.1-6.7-11-19.4-4.4-28.5c1.2-1.7,2.7-3.1,4.4-4.4c-1-3.5-1.5-7.1-1.5-10.8c0-1.4,0.1-2.7,0.2-4.1c-17.3,7.3-25.4,27.3-18,44.6
		c5.4,12.5,17.7,20.7,31.4,20.7C-497.7-19.8-485.3-27.9-480-40.4z"/>
	<path class="st2" d="M-467.7-26.7c0,2.3,1.8,4.1,4.1,4.1s4.1-1.8,4.1-4.1c0-2.2-1.8-4.1-4.1-4.1C-465.9-30.7-467.7-28.9-467.7-26.7
		z"/>
	<path class="st2" d="M-484-47c18.8,0,34.1-15.2,34.1-34s-15.2-34-34.1-34c-18.8,0-34.1,15.2-34.1,34C-518.1-62.3-502.9-47-484-47z
		 M-484-101.4c11.3,0,20.4,9.1,20.4,20.4c0,11.3-9.1,20.4-20.4,20.4c-11.3,0-20.4-9.1-20.4-20.4C-504.5-92.3-495.3-101.4-484-101.4z
		"/>
	<path class="st2" d="M-428.9-16.8v-1.4c1.3,0,2.5-0.4,3.4-1.3s1.3-2,1.3-3.2c0.1-1-0.3-2.1-1.1-2.8c-1.1-0.9-2.3-1.4-3.6-1.7v-4.5
		c0.6,0.1,1.1,0.4,1.4,0.9c0.4,0.6,0.6,1.2,0.6,1.9h2.9c0.1-1.3-0.4-2.7-1.2-3.7c-1-0.9-2.3-1.4-3.7-1.4v-2.1h-1.3v2.1
		c-1.3,0-2.6,0.6-3.6,1.4c-0.9,0.9-1.3,2.1-1.3,3.3c0,1.1,0.3,2.1,1.1,2.9c1.1,0.9,2.4,1.6,3.8,1.9v3.9c-0.5,0-0.9-0.2-1.2-0.6
		s-0.5-1-0.5-1.5h-3c0,1.2,0.5,2.4,1.3,3.3c0.9,0.8,2.1,1.3,3.3,1.3v1.4L-428.9-16.8L-428.9-16.8z M-428.9-24.3
		c0.5,0.1,1,0.4,1.3,0.8c0.3,0.3,0.4,0.7,0.4,1.1s-0.1,0.9-0.5,1.3c-0.3,0.3-0.8,0.6-1.3,0.6v-3.8H-428.9z M-431.6-28.5
		c-0.3-0.3-0.5-0.8-0.4-1.3c0-0.5,0.2-1,0.5-1.4c0.4-0.4,0.8-0.6,1.4-0.7v4.1l0,0C-430.8-27.8-431.2-28.1-431.6-28.5z"/>
	<path class="st2" d="M-449.2-64c-2.6,5.3-6.4,10-11.1,13.6h85.2v47.6h-109v-23.4c-3.9,3.8-8.5,6.8-13.6,8.7v28.3h136.3v-74.7
		L-449.2-64L-449.2-64z"/>
	<path class="st2" d="M-391.4-26.7c0-2.2-1.8-4.1-4.1-4.1s-4.1,1.8-4.1,4.1c0,2.3,1.8,4.1,4.1,4.1S-391.4-24.4-391.4-26.7z"/>
	<path class="st2" d="M-409.8-26.7c0-10.9-8.8-19.7-19.8-19.7c-10.9,0-19.8,8.8-19.8,19.7c0,10.9,8.8,19.7,19.8,19.7
		S-409.8-15.8-409.8-26.7z M-444.5-26.7c0-8.2,6.7-14.9,15-14.9c8.3,0,15,6.7,15,14.9c0,8.3-6.7,15-15,15
		C-437.8-11.7-444.5-18.4-444.5-26.7z"/>
</g>
<g>
	<path class="st3" d="M-935.4-152.5l15.1-26.2h30.3l15.1,26.2l-15.1,26.2h-30.3L-935.4-152.5z M-926.5-189.5l-21.4,37.1l21.4,37.1
		h42.8l21.4-37.1l-21.4-37.1H-926.5z"/>
	<path class="st3" d="M-880.6-120.8l15.1-26.2h30.3l15.1,26.2l-15.1,26.2h-30.2L-880.6-120.8z M-871.7-157.9l-21.4,37.1l21.4,37.1
		h42.8l21.4-37.1l-21.4-37.1H-871.7z"/>
	<path class="st3" d="M-935.4-89.2l15.1-26.2h30.3l15.1,26.2L-890-63h-30.3L-935.4-89.2z M-926.5-126.3l-21.4,37.1l21.4,37.1h42.8
		l21.4-37.1l-21.4-37.1H-926.5z"/>
	<g>
		<g>
			<defs>
				<rect id="SVGID_1_" x="-947.9" y="-189.5" width="140.4" height="137.4"/>
			</defs>
			<clipPath id="SVGID_00000010297649879864231640000009851083590011822479_">
				<use xlink:href="#SVGID_1_"  style="overflow:visible;"/>
			</clipPath>
			<path style="clip-path:url(#SVGID_00000010297649879864231640000009851083590011822479_);fill:#FDB913;" d="M-905-158.9
				c-2.7,0-4.9-2.1-4.9-4.8v-0.1c0-2.7,2.1-4.8,4.8-4.9c2.7,0,4.9,2.1,4.9,4.8C-900.1-161.1-902.3-158.9-905-158.9 M-905.1-173.6
				L-905.1-173.6c-5.4-0.1-9.9,4.3-9.9,9.7c-0.1,5.4,4.3,9.9,9.7,9.9c5.4,0.1,9.9-4.3,9.9-9.7v-0.1
				C-895.4-169.2-899.7-173.6-905.1-173.6"/>
		</g>
		<g>
			<defs>
				<rect id="SVGID_00000179633961075309065400000001885619126901991832_" x="-947.9" y="-189.5" width="140.4" height="137.4"/>
			</defs>
			<clipPath id="SVGID_00000029017064270131097540000007921893496946030242_">
				<use xlink:href="#SVGID_00000179633961075309065400000001885619126901991832_"  style="overflow:visible;"/>
			</clipPath>
			<path style="clip-path:url(#SVGID_00000029017064270131097540000007921893496946030242_);fill:#FDB913;" d="M-895.1-122.9h-20
				v-20.6c0-0.8,0.6-1.4,1.4-1.4h17.2l0,0c0.8,0,1.4,0.6,1.4,1.4L-895.1-122.9L-895.1-122.9z M-896.5-149.9h-17.2
				c-3.5,0-6.3,2.9-6.3,6.4v25.5h29.8v-25.5C-890.2-147-893-149.9-896.5-149.9"/>
		</g>
		<g>
			<defs>
				<rect id="SVGID_00000029029646220232310430000017655212260061937829_" x="-947.9" y="-189.5" width="140.4" height="137.4"/>
			</defs>
			<clipPath id="SVGID_00000106149582765243007460000012476265081899685300_">
				<use xlink:href="#SVGID_00000029029646220232310430000017655212260061937829_"  style="overflow:visible;"/>
			</clipPath>
			<path style="clip-path:url(#SVGID_00000106149582765243007460000012476265081899685300_);fill:#FDB913;" d="M-849.6-124.6
				c-2.6,0-4.7-2-4.8-4.6v-0.1c0-2.6,2.1-4.7,4.6-4.7c2.6,0,4.7,2,4.8,4.6C-844.9-126.8-847-124.6-849.6-124.6 M-849.7-138.8
				L-849.7-138.8c-5.3-0.1-9.6,4.1-9.6,9.4c0,5.3,4.1,9.5,9.4,9.6s9.6-4.1,9.6-9.4v-0.1C-840.2-134.5-844.5-138.8-849.7-138.8"/>
		</g>
		<g>
			<defs>
				<rect id="SVGID_00000086650546956886452910000008505214207751339451_" x="-947.9" y="-189.5" width="140.4" height="137.4"/>
			</defs>
			<clipPath id="SVGID_00000008846886624834817630000005506757897041106053_">
				<use xlink:href="#SVGID_00000086650546956886452910000008505214207751339451_"  style="overflow:visible;"/>
			</clipPath>
			<path style="clip-path:url(#SVGID_00000008846886624834817630000005506757897041106053_);fill:#FDB913;" d="M-840-89.8h-19.3
				v-19.9c0-0.7,0.6-1.4,1.3-1.4h16.6l0,0c0.8,0,1.4,0.6,1.4,1.4V-89.8L-840-89.8z M-841.4-115.9h-16.7c-3.4,0-6.1,2.8-6.1,6.2V-85
				h28.8v-24.7C-835.2-113.1-838-115.9-841.4-115.9"/>
		</g>
		<g>
			<defs>
				<rect id="SVGID_00000163042190318931336190000013127084381997662086_" x="-947.9" y="-189.5" width="140.4" height="137.4"/>
			</defs>
			<clipPath id="SVGID_00000066493834911595661400000000516112532765276563_">
				<use xlink:href="#SVGID_00000163042190318931336190000013127084381997662086_"  style="overflow:visible;"/>
			</clipPath>
			<path style="clip-path:url(#SVGID_00000066493834911595661400000000516112532765276563_);fill:#FDB913;" d="M-900-71.5
				c-0.9,0.7-1.9,1.3-3.4,1.5v-10.1c1.6,0.5,2.8,1.2,3.4,2c0.7,0.7,1.1,1.8,1.1,3.1C-898.8-73.6-899.2-72.4-900-71.5 M-906.7-88.7
				c-1.6-0.5-2.7-1.1-3.3-1.8c-0.7-0.7-1.1-1.7-1.1-2.8c0-1.3,0.3-2.4,1.1-3.2c0.8-0.7,1.9-1.2,3.3-1.4V-88.7z M-894-83
				c-1.9-1.7-5.1-3.3-9.6-4.8v-9.9c1.3,0.2,2.3,0.7,3,1.5c0.6,0.9,1,2.2,1.1,3.9h7.4c-0.2-3.6-1.3-6.3-3.2-8.3c-2-2-4.7-3-8.3-3.2
				v-3.5h-3.2v3.5c-3.6,0-6.3,1-8.5,3.1c-2.1,2.1-3.2,4.7-3.2,8.1c0,3,0.9,5.4,2.7,7.1c1.8,1.7,4.7,3.1,9.1,4.2V-70
				c-1.6-0.3-2.8-1.1-3.8-2c-0.8-1.2-1.3-2.7-1.4-4.7h-7.3c0,4.1,1,7.1,3.1,9.3c2.1,2.1,5.1,3.2,9.3,3.5v5.3h3.2v-5.3
				c3.9-0.4,6.9-1.5,9.1-3.6c2.1-2.1,3.2-4.9,3.2-8.4C-891.3-78.8-892.2-81.2-894-83"/>
		</g>
	</g>
</g>
<g>
	<path class="st9" d="M-1045.6,84.3c-13.4-0.2-24.4,10.6-24.5,24.1c-0.1,13.4,10.6,24.3,24,24.5s24.4-10.6,24.5-24v-0.3
		C-1021.5,95.2-1032.3,84.4-1045.6,84.3z M-1045.3,120.7c-6.7,0.1-12.1-5.3-12.2-11.9v-0.2c0-6.6,5.3-11.9,11.9-12
		s12.1,5.2,12.2,11.9C-1033.3,115.2-1038.7,120.6-1045.3,120.7z M-960.1,84.3c-13.4-0.2-24.4,10.6-24.5,24.1
		c-0.2,13.4,10.6,24.3,24,24.5c13.4,0.2,24.3-10.6,24.5-24v-0.3C-936,95.2-946.8,84.4-960.1,84.3z M-959.8,120.7
		c-6.7,0.1-12.1-5.3-12.2-11.9v-0.2c0-6.6,5.3-11.9,11.9-12c6.7-0.1,12.1,5.2,12.2,11.9C-947.9,115.2-953.2,120.6-959.8,120.7z
		 M-1013.3,147.6c-2.8-2.9-6.7-4.6-11-4.7h-42.5c-8.6,0-15.6,7-15.5,15.8v63.1h73.6v-63.1C-1008.8,154.4-1010.5,150.4-1013.3,147.6z
		 M-1020.9,209.4h-49.4v-50.8c0-1.9,1.5-3.5,3.4-3.5h42.5c2,0,3.5,1.6,3.5,3.5V209.4z M-938.2,142.9h-42.5c-8.7,0-15.6,7-15.6,15.8
		v63.1h73.7v-63.1C-922.6,150-929.6,143-938.2,142.9z M-934.7,209.4h-49.4v-50.8c0-1.9,1.5-3.5,3.4-3.5h42.5c1.9,0,3.4,1.6,3.5,3.5
		V209.4z"/>
</g>
<g>
	<path class="st0" d="M-249.5,572.4c-2.8,6.8-6.5,13.2-11,19l6,12.3c0.2,0.4,0.3,0.9,0.4,1.3h-12.1l-4.3-8.8
		c-7.3-0.1-14.6-1.1-21.7-3.1c-18.5-5.2-32.4-16.5-40.3-32.7c-14.7-30.2-5.2-69.9-0.5-85.5h32.8c17.2,8.9,39.3,23.8,49.9,45.6
		C-242.5,536.7-242.2,554.7-249.5,572.4z"/>
	<g>
		<path class="st10" d="M-250.3,520.5c-10.6-21.8-32.7-36.7-49.9-45.6c-12.7-6.5-22.7-9.8-23.7-10l-5-1.6l-1.9,5
			c-0.2,0.4-1,2.8-2.2,6.6c-4.7,15.6-14.2,55.2,0.5,85.5c7.9,16.2,21.8,27.5,40.3,32.7c7.1,2,14.4,3,21.7,3.1l4.3,8.8l1.7,3.5
			c1.4,2.8,4.7,3.9,7.4,2.6c2.4-1.1,3.5-3.7,3-6.1c-0.1-0.4-0.2-0.9-0.4-1.3l-6-12.3c4.5-5.8,8.2-12.2,11-19
			C-242.2,554.7-242.5,536.7-250.3,520.5z M-259.7,567.7c-1.7,4.3-3.9,8.3-6.4,12.2l-9.3-19.2l8.7-14.8c1.6-2.7,0.7-6.1-2-7.6
			c-2.7-1.6-6.1-0.7-7.6,2l-4.9,8.3l-4.9-10l8.7-14.8c1.6-2.7,0.7-6.1-2-7.7s-6.1-0.7-7.6,2l-4.9,8.4l-11.6-23.7
			c-1.4-2.7-4.7-3.9-7.5-2.5c-2.7,1.4-3.9,4.7-2.5,7.5l11.5,23.7l-9.6-1.3c-3.1-0.5-5.9,1.6-6.4,4.6s1.6,5.9,4.6,6.4h0.3l16.9,2.3
			l4.8,9.9l-9.6-1.4c-3-0.5-5.9,1.5-6.4,4.6c-0.5,3,1.5,5.9,4.6,6.4c0.1,0,0.2,0,0.3,0.1l17.2,2.5l9.3,19.2
			c-4.6-0.4-9.1-1.2-13.5-2.5c-15.4-4.4-26.5-13.4-33-26.7c-13.1-27-3.8-64.5,0.4-78.1c13.3,5.1,48.6,20.8,61.7,47.9
			C-253.9,538.6-253.6,552.9-259.7,567.7z"/>
	</g>
</g>
<g>
	<path class="st11" d="M-555.4,485.4c-8.1-8.1-21.1-8.8-30-1.5c-9.6-7.8-23.6-6.4-31.4,3.2c-7.2,8.9-6.6,21.8,1.4,29.9l29.7,29.8
		l0.3-0.2l0.3,0.2l29.7-29.8C-546.7,508.3-546.7,494.2-555.4,485.4z M-562.7,509.9l-22.5,22.5l-0.3-0.2l-0.3,0.2l-22.5-22.5
		c-4.7-4.7-4.8-12.4,0-17.2c2.4-2.3,5.5-3.6,8.7-3.6s6.3,1.3,8.6,3.6l5.6,5.6l5.6-5.6c4.7-4.7,12.4-4.7,17.1,0
		C-558,497.5-558,505.1-562.7,509.9z M-593.1,604.7L-593.1,604.7l-0.7-17.4c0.2-9.5-1.1-16.8-4.1-23c-3.6-7.4-9.2-10.5-14.5-13.5
		l-0.2-0.1c-0.9-0.5-1.9-1-2.9-1.6c-4.4-2.6-8.2-6.6-12.1-10.6c-0.8-0.8-1.6-1.6-2.4-2.4c-1.1-1.2-5.5-5.2-6.1-5.7
		c-0.8-0.9-1.8-1.6-2.9-2.1v-17.4c0-6.6-5-12.3-11.3-12.9c-6.9-0.6-13.1,4.5-13.7,11.4c0,0.4-0.1,0.8-0.1,1.1v43.6
		c0,3.2,1.2,6.3,3.5,8.5c3.6,3.6,21.7,21.8,25.7,25.6c0,0,0.1,0.1,0.1,0.2l2.2,16.3h10.3v0l-2.6-19.7c-0.2-1.4-1.2-2.4-3.7-4.8
		c-0.3-0.3-0.6-0.5-0.8-0.7l-23.8-23.8c-0.7-1-0.7-1.3-0.7-1.4v-8.8c0.4,0.6,0.8,1.1,1.3,1.6l20.6,20.5c1.1,1.4,2.7,2.2,4.5,2.1
		c1.6-0.1,3.1-1,4.1-2.3c1.3-2.2,0.4-5-1.1-6.6l-20.8-21c-0.3-0.3-0.4-0.6-0.4-1c0-0.4,0.2-0.8,0.4-1c0.6-0.5,1.6-0.5,2.1,0.1
		l0.1,0.1c1.6,1.5,5.1,4.7,5.8,5.5c0.8,0.8,1.5,1.6,2.3,2.4c4.1,4.2,8.7,9.1,14.2,12.3c1,0.6,2.1,1.2,3.1,1.8l0.2,0.1
		c4.7,2.6,8.1,4.5,10.3,9c2.3,4.7,3.3,10.5,3,18.5v0.1l0.9,16.9v0.1l0,0.3h10.2L-593.1,604.7z M-649.1,528.1
		c-1.2,0.6-2.3,1.3-3.3,2.3c-0.5,0.5-1,1-1.4,1.6v-21.5c0-0.6,0.3-1.3,0.8-1.7c0.4-0.4,1-0.6,1.6-0.6h0.2c1.2,0.1,2.1,1.3,2.1,2.7
		V528.1z M-519.5,498c-0.4,0-0.8,0-1.1,0.1c-6.2,0.5-11.2,6.3-11.2,12.9v17.4c-1.1,0.5-2.1,1.2-2.9,2.1c-0.6,0.5-4.9,4.5-6.1,5.7
		c-0.8,0.8-1.6,1.6-2.4,2.4c-3.8,4-7.7,8-12.1,10.6c-1,0.6-2,1.1-2.9,1.6l-0.2,0.1c-5.4,3-11,6-14.6,13.5c-3,6.1-4.3,13.4-4.1,22.9
		l-0.7,17.3v0h10.2v0l0.9-17.3c0-0.7,0-1.3,0-1.9c0-6.9,1-12.3,3-16.6c2.2-4.5,5.6-6.4,10.3-9l0.2-0.1c1-0.6,2-1.1,3.1-1.7
		c5.6-3.3,10.2-8.1,14.2-12.3c0.8-0.8,1.5-1.6,2.3-2.4c0.8-0.8,4.2-4,5.8-5.5l0.1-0.1c0.6-0.6,1.5-0.6,2.1-0.1
		c0.3,0.3,0.4,0.7,0.4,1c0,0.4-0.2,0.8-0.4,1l-20.8,21c-1.5,1.6-2.4,4.4-1.1,6.6c1,1.3,2.5,2.2,4.1,2.3c1.7,0.1,3.4-0.7,4.5-2.1
		l20.6-20.5c0.5-0.5,0.9-1,1.3-1.6v8.8c0,0.1,0,0.4-0.7,1.4l-23.8,23.8c-0.2,0.2-0.5,0.5-0.8,0.7c-2.5,2.3-3.5,3.4-3.7,4.8
		l-2.6,19.7h10.3l2.1-16.3c0-0.1,0-0.1,0.1-0.1c4-3.8,22.1-22,25.7-25.6c2.3-2.2,3.6-5.3,3.5-8.5v-43.4
		C-506.9,503.6-512.6,498-519.5,498z M-516.9,532c-0.4-0.6-0.8-1.1-1.3-1.6c-1-1-2.1-1.7-3.3-2.3v-17.2c0-1.4,0.9-2.6,2.1-2.7h0.2
		c0.6,0,1.2,0.2,1.6,0.6c0.5,0.4,0.8,1,0.8,1.7L-516.9,532z"/>
</g>
<polyline class="st1" points="-538.3,604.5 -567.6,604.6 -577.8,604.6 -593.1,604.7 -603.4,604.7 -622.3,604.7 -632.6,604.7 "/>
<g>
	<path class="st0" d="M124.4,95.2c2.4-4.6,2.6-10,0.2-14.9c-0.7-1.4-0.4-2.6-0.1-3.2c0.2-0.7,0.9-1.8,2.3-2.3l0.4-0.1h0.1
		c6.5-2.5,10.7-8.6,10.7-15.6s-4.2-13.1-10.7-15.6l-0.4-0.1c-1.4-0.6-2-1.7-2.3-2.3c-0.2-0.6-0.5-1.8,0.1-3.2v-0.1
		c3-6.5,1.8-13.9-3.3-19c-5-5-12.2-6.3-18.6-3.4l-0.3,0.1c-1.5,0.7-2.7,0.4-3.3,0.1c-0.7-0.2-1.8-0.9-2.3-2.3l-0.1-0.4v-0.1
		C94.5,6.3,88.4,2.1,81.4,2.1c-7.2,0-13.3,4.3-15.7,11v0.1c-0.5,1.4-1.6,2-2.2,2.3c-0.6,0.2-1.9,0.6-3.3-0.1l-0.3-0.1
		c-6.4-2.9-13.6-1.6-18.6,3.4c-5.1,5.1-6.4,12.5-3.4,18.9l0.1,0.1c0.7,1.5,0.4,2.7,0.1,3.3c-0.2,0.7-0.9,1.8-2.3,2.3h-0.1
		c-6.7,2.4-11,8.6-11,15.7c0,7.1,4.3,13.3,11,15.7h0.1c1.4,0.6,2,1.7,2.3,2.3c0.2,0.6,0.6,1.9-0.1,3.3l-0.1,0.3
		c-2.2,4.9-2,10.3,0.5,14.9l-1.6,4.6l-11.6,37.6l25.6-3.8l19,17.7l10-32l3.4,0.2l10,32l19-17.7l25.6,3.8l-5.2-16.6L124.4,95.2z"/>
	<g>
		<path class="st12" d="M125.9,100.4c-0.6,0.5-1.2,1.2-1.7,1.8c-2.7,2.7-5.8,4.4-9.3,5.4l4.6,14.9l-11.8-1.7l-8.6,8.2l-4.3-13.9
			c-3.2,2.8-7.3,4.6-11.7,4.9l10,32l19-17.7l25.6,3.8L125.9,100.4z M68,115.1L63.6,129l-8.7-8.2l-11.8,1.7l4.6-14.9
			c-3.5-0.9-6.6-2.7-9.3-5.4c-0.6-0.6-1.2-1.3-1.7-1.9l-11.6,37.6l25.6-3.8l19,17.7l10-32C75.3,119.6,71.2,117.8,68,115.1z
			 M81.3,33.9c-14,0-25.3,11.3-25.3,25.3s11.3,25.3,25.3,25.3s25.3-11.3,25.3-25.3S95.3,33.9,81.3,33.9z M81.3,71.9
			c-6.9,0-12.6-5.7-12.6-12.7s5.7-12.7,12.6-12.7c7,0,12.7,5.7,12.6,12.7C93.9,66.2,88.3,71.9,81.3,71.9z M81.3,33.9
			c-14,0-25.3,11.3-25.3,25.3s11.3,25.3,25.3,25.3s25.3-11.3,25.3-25.3S95.3,33.9,81.3,33.9z M81.3,71.9c-6.9,0-12.6-5.7-12.6-12.7
			s5.7-12.7,12.6-12.7c7,0,12.7,5.7,12.6,12.7C93.9,66.2,88.3,71.9,81.3,71.9z M127.3,43.7l-0.4-0.1c-1.4-0.6-2-1.7-2.3-2.3
			c-0.2-0.6-0.5-1.8,0.1-3.2V38c3-6.5,1.8-13.9-3.3-19c-5-5-12.2-6.3-18.6-3.4l-0.3,0.1c-1.5,0.7-2.7,0.4-3.3,0.1
			c-0.7-0.2-1.8-0.9-2.3-2.3l-0.1-0.4V13C94.4,6.5,88.3,2.3,81.3,2.3c-7.2,0-13.3,4.3-15.7,11v0.1c-0.5,1.4-1.6,2-2.2,2.3
			c-0.6,0.2-1.9,0.6-3.3-0.1l-0.3-0.1c-6.4-2.9-13.6-1.6-18.6,3.4c-5.1,5.1-6.4,12.5-3.4,18.9l0.1,0.1c0.7,1.5,0.4,2.7,0.1,3.3
			c-0.2,0.7-0.9,1.8-2.3,2.3h-0.1c-6.7,2.4-11,8.6-11,15.7c0,7.1,4.3,13.3,11,15.7h0.1c1.4,0.6,2,1.7,2.3,2.3
			c0.2,0.6,0.6,1.9-0.1,3.3l-0.1,0.3c-2.9,6.4-1.6,13.7,3.4,18.7c4.9,4.9,12,6.3,18.3,3.6l0.6-0.3c1.5-0.7,2.7-0.4,3.3-0.1
			c0.6,0.2,1.7,0.8,2.2,2.3v0.1c2.4,6.7,8.6,11.1,15.7,11.1c7.1,0,13.1-4.2,15.4-10.8l0.1-0.4c0.6-1.4,1.7-2,2.3-2.3
			c0.6-0.2,1.9-0.6,3.3,0.1l0.5,0.3h0.1c6.3,2.7,13.4,1.3,18.3-3.6c5.1-5.1,6.4-12.6,3.3-19c-0.7-1.4-0.4-2.6-0.1-3.2
			c0.2-0.7,0.9-1.8,2.3-2.3l0.4-0.1h0.1c6.5-2.5,10.7-8.6,10.7-15.6S133.8,46.2,127.3,43.7z M122.9,63.4l-0.4,0.1h-0.1
			c-4.2,1.6-7.6,4.9-9.4,9.2c-1.8,4.3-1.7,9.2,0.3,13.5c1.1,2.2-0.2,3.9-0.8,4.5c-0.5,0.6-2.2,1.9-4.5,0.8l-0.5-0.3h-0.1
			c-4.1-1.8-8.8-1.8-12.9-0.1c-4.3,1.7-7.5,5.1-9.2,9.4l-0.1,0.4c-0.9,2.5-3,2.7-3.8,2.7c-0.9,0-2.9-0.3-3.8-2.7
			c-1.6-4.5-5-8.1-9.3-9.8c-4.1-1.7-8.8-1.7-12.9,0.1l-0.6,0.3c-2.2,1.1-3.9-0.2-4.5-0.8c-0.6-0.5-1.9-2.2-0.8-4.5l0.1-0.3
			c1.9-4.3,2-9.1,0.2-13.3c-1.7-4.3-5.3-7.7-9.7-9.3H40c-2.4-0.9-2.7-2.9-2.7-3.8s0.3-2.9,2.7-3.8h0.1c4.3-1.6,7.9-5,9.7-9.3
			c1.8-4.3,1.7-9.2-0.3-13.4l-0.1-0.1c-1.1-2.2,0.2-3.9,0.8-4.5c0.5-0.6,2.2-1.9,4.5-0.8l0.3,0.1c4.3,1.9,9.1,2,13.3,0.2
			c4.3-1.7,7.7-5.3,9.3-9.8V18c0.9-2.4,3-2.7,3.8-2.7c0.9,0,2.9,0.3,3.8,2.7l0.1,0.4v0.1c1.7,4.2,5,7.6,9.2,9.4
			c4.3,1.8,9.1,1.7,13.3-0.2l0.3-0.1c2.2-1.1,3.9,0.2,4.5,0.8c0.6,0.6,1.9,2.2,0.8,4.5V33c-2,4.2-2.1,9.1-0.3,13.5
			c1.7,4.3,5.2,7.5,9.4,9.2l0.4,0.1c2.4,0.9,2.7,2.9,2.7,3.8C125.6,60.5,125.3,62.5,122.9,63.4z M81.3,33.9
			c-14,0-25.3,11.3-25.3,25.3s11.3,25.3,25.3,25.3s25.3-11.3,25.3-25.3S95.3,33.9,81.3,33.9z M81.3,71.9c-6.9,0-12.6-5.7-12.6-12.7
			s5.7-12.7,12.6-12.7c7,0,12.7,5.7,12.6,12.7C93.9,66.2,88.3,71.9,81.3,71.9z"/>
		<path class="st1" d="M0,0v169h159.5V0H0z M69.7,151.8l-19-17.7l-25.6,3.8l11.6-37.6c0.5,0.6,1.1,1.3,1.7,1.9
			c2.7,2.7,5.8,4.5,9.3,5.4l-4.6,14.9l11.8-1.7l8.7,8.2l4.4-13.9c3.2,2.7,7.3,4.5,11.7,4.7L69.7,151.8z M112.1,134.3l-19,17.7
			l-10-32c4.4-0.3,8.5-2.1,11.7-4.9l4.3,13.9l8.6-8.2l11.8,1.7l-4.6-14.9c3.5-1,6.6-2.7,9.3-5.4c0.5-0.6,1.1-1.3,1.7-1.8l11.8,37.7
			L112.1,134.3z M127.3,74.9h-0.1l-0.4,0.1c-1.4,0.5-2.1,1.6-2.3,2.3c-0.3,0.6-0.6,1.8,0.1,3.2c3.1,6.4,1.8,13.9-3.3,19
			c-4.9,4.9-12,6.3-18.3,3.6h-0.1l-0.5-0.3c-1.4-0.7-2.7-0.3-3.3-0.1c-0.6,0.3-1.7,0.9-2.3,2.3l-0.1,0.4
			c-2.3,6.6-8.3,10.8-15.4,10.8c-7.1,0-13.3-4.4-15.7-11.1V105c-0.5-1.5-1.6-2.1-2.2-2.3c-0.6-0.3-1.8-0.6-3.3,0.1l-0.6,0.3
			c-6.3,2.7-13.4,1.3-18.3-3.6c-5-5-6.3-12.3-3.4-18.7l0.1-0.3c0.7-1.4,0.3-2.7,0.1-3.3c-0.3-0.6-0.9-1.7-2.3-2.3h-0.1
			c-6.7-2.4-11-8.6-11-15.7c0-7.1,4.3-13.3,11-15.7h0.1c1.4-0.5,2.1-1.6,2.3-2.3c0.3-0.6,0.6-1.8-0.1-3.3l-0.1-0.1
			c-3-6.4-1.7-13.8,3.4-18.9c5-5,12.2-6.3,18.6-3.4l0.3,0.1c1.4,0.7,2.7,0.3,3.3,0.1c0.6-0.3,1.7-0.9,2.2-2.3v-0.1
			c2.4-6.7,8.5-11,15.7-11c7,0,13.1,4.2,15.5,10.7v0.1l0.1,0.4c0.5,1.4,1.6,2.1,2.3,2.3c0.6,0.3,1.8,0.6,3.3-0.1l0.3-0.1
			c6.4-2.9,13.6-1.6,18.6,3.4c5.1,5.1,6.3,12.5,3.3,19v0.1c-0.6,1.4-0.3,2.6-0.1,3.2c0.3,0.6,0.9,1.7,2.3,2.3l0.4,0.1
			c6.5,2.5,10.7,8.6,10.7,15.6S133.8,72.4,127.3,74.9z"/>
	</g>
</g>
</svg>
