<?xml version="1.0" encoding="utf-8"?>
<!-- Generator: Adobe Illustrator 26.0.1, SVG Export Plug-In . SVG Version: 6.00 Build 0)  -->
<svg version="1.1" id="Layer_1" xmlns="http://www.w3.org/2000/svg" xmlns:xlink="http://www.w3.org/1999/xlink" x="0px" y="0px"
	 viewBox="0 0 159.8 137.4" style="enable-background:new 0 0 159.8 137.4;" xml:space="preserve">
<style type="text/css">
	.st0{fill:none;}
	.st1{fill:#01519C;}
	.st2{fill:#FDB913;}
	.st3{clip-path:url(#SVGID_00000027571809341571127530000010778784390313702578_);fill:#FDB913;}
	.st4{fill:#ED7F22;}
	.st5{fill:#ED328C;}
	.st6{fill:#39B54A;}
	.st7{fill:#A6CE39;}
</style>
<g>
	<path class="st0" d="M667.9-110.9c0-8.2-6.7-14.9-15-14.9c-8.3,0-15,6.7-15,14.9c0,8.3,6.7,15,15,15
		C661.2-96,667.9-102.7,667.9-110.9z M648.9-103.8c-0.8-0.9-1.3-2.1-1.3-3.3h3c0,0.6,0.2,1.1,0.5,1.5c0.3,0.4,0.7,0.6,1.2,0.6v-3.9
		c-1.4-0.4-2.7-1-3.8-1.9c-0.7-0.8-1.1-1.8-1.1-2.9c-0.1-1.2,0.4-2.4,1.3-3.3c1-0.9,2.3-1.4,3.6-1.4v-2.1h1.3l0,2.1
		c1.4,0,2.7,0.5,3.7,1.4c0.9,1,1.3,2.3,1.2,3.7h-2.9c0-0.7-0.2-1.3-0.6-1.9c-0.3-0.4-0.9-0.8-1.4-0.9v4.5c1.3,0.2,2.6,0.8,3.6,1.7
		c0.7,0.8,1.1,1.8,1.1,2.8c0,1.2-0.4,2.4-1.3,3.2c-0.9,0.8-2.1,1.3-3.4,1.3v1.4h-1.3v-1.4C651-102.5,649.8-103,648.9-103.8z"/>
	<path class="st0" d="M655.3-106.7c0-0.4-0.1-0.8-0.4-1.1c-0.4-0.4-0.8-0.6-1.3-0.8v3.7c0.5,0,0.9-0.2,1.3-0.6
		C655.1-105.8,655.3-106.3,655.3-106.7z"/>
	<path class="st0" d="M652.2-111.9v-4.1c-0.5,0-1,0.3-1.4,0.7c-0.3,0.4-0.5,0.9-0.5,1.4c0,0.5,0.1,0.9,0.4,1.3
		C651.2-112.4,651.7-112.1,652.2-111.9L652.2-111.9z"/>
	<path class="st0" d="M598.4-144.9c11.3,0,20.4-9.1,20.4-20.4c0-11.3-9.1-20.4-20.4-20.4c-11.3,0-20.4,9.1-20.4,20.4
		C578-154,587.1-144.9,598.4-144.9z"/>
	<path class="st1" d="M602.5-124.7c-1.4,0.1-2.7,0.2-4.1,0.2c-3.7,0-7.3-0.5-10.8-1.5c-6.7,9.1-19.5,11-28.6,4.4
		c-9.1-6.7-11-19.4-4.4-28.5c1.2-1.7,2.7-3.1,4.4-4.4c-1-3.5-1.5-7.1-1.5-10.8c0-1.4,0.1-2.7,0.2-4.1c-17.3,7.3-25.4,27.3-18,44.6
		c5.4,12.5,17.7,20.7,31.4,20.7C584.8-104.1,597.1-112.2,602.5-124.7z"/>
	<path class="st1" d="M614.7-110.9c0,2.3,1.8,4.1,4.1,4.1c2.3,0,4.1-1.8,4.1-4.1c0-2.2-1.8-4.1-4.1-4.1
		C616.6-115,614.7-113.2,614.7-110.9z"/>
	<path class="st1" d="M598.4-131.3c18.8,0,34.1-15.2,34.1-34c0-18.8-15.2-34-34.1-34c-18.8,0-34.1,15.2-34.1,34
		C564.3-146.5,579.6-131.3,598.4-131.3z M598.4-185.7c11.3,0,20.4,9.1,20.4,20.4c0,11.3-9.1,20.4-20.4,20.4
		c-11.3,0-20.4-9.1-20.4-20.4C578-176.5,587.1-185.7,598.4-185.7z"/>
	<path class="st1" d="M653.5-101.1v-1.4c1.3,0,2.5-0.4,3.4-1.3c0.9-0.9,1.3-2,1.3-3.2c0.1-1-0.3-2.1-1.1-2.8
		c-1.1-0.9-2.3-1.4-3.6-1.7v-4.5c0.6,0.1,1.1,0.4,1.4,0.9c0.4,0.6,0.6,1.2,0.6,1.9h2.9c0.1-1.3-0.4-2.7-1.2-3.7
		c-1-0.9-2.3-1.4-3.7-1.4l0-2.1h-1.3v2.1c-1.3,0-2.6,0.6-3.6,1.4c-0.9,0.9-1.3,2.1-1.3,3.3c0,1.1,0.3,2.1,1.1,2.9
		c1.1,0.9,2.4,1.6,3.8,1.9v3.9c-0.5,0-0.9-0.2-1.2-0.6c-0.3-0.4-0.5-1-0.5-1.5h-3c0,1.2,0.5,2.4,1.3,3.3c0.9,0.8,2.1,1.3,3.3,1.3
		v1.4H653.5z M653.5-108.6c0.5,0.1,1,0.4,1.3,0.8c0.3,0.3,0.4,0.7,0.4,1.1c0,0.4-0.1,0.9-0.5,1.3c-0.3,0.3-0.8,0.6-1.3,0.6V-108.6z
		 M650.8-112.7c-0.3-0.3-0.5-0.8-0.4-1.3c0-0.5,0.2-1,0.5-1.4c0.4-0.4,0.8-0.6,1.4-0.7v4.1l0,0C651.7-112.1,651.2-112.4,650.8-112.7
		z"/>
	<path class="st1" d="M633.3-148.3c-2.6,5.3-6.4,10-11.1,13.6h85.2v47.6h-109v-23.4c-3.9,3.8-8.5,6.8-13.6,8.7v28.3H721v-74.7H633.3
		z"/>
	<path class="st1" d="M691-110.9c0-2.2-1.8-4.1-4.1-4.1c-2.3,0-4.1,1.8-4.1,4.1c0,2.3,1.8,4.1,4.1,4.1
		C689.2-106.8,691-108.7,691-110.9z"/>
	<path class="st1" d="M672.6-110.9c0-10.9-8.8-19.7-19.8-19.7c-10.9,0-19.8,8.8-19.8,19.7c0,10.9,8.8,19.7,19.8,19.7
		C663.8-91.2,672.6-100.1,672.6-110.9z M637.9-110.9c0-8.2,6.7-14.9,15-14.9c8.3,0,15,6.7,15,14.9c0,8.3-6.7,15-15,15
		C644.6-96,637.9-102.7,637.9-110.9z"/>
</g>
<g>
	<path class="st2" d="M147.1-236.7l15.1-26.2h30.3l15.1,26.2l-15.1,26.2h-30.3L147.1-236.7z M155.9-273.8l-21.4,37.1l21.4,37.1h42.8
		l21.4-37.1l-21.4-37.1H155.9z"/>
	<path class="st2" d="M201.9-205.1l15.1-26.2h30.3l15.1,26.2l-15.1,26.2H217L201.9-205.1z M210.7-242.2l-21.4,37.1l21.4,37.1h42.8
		l21.4-37.1l-21.4-37.1H210.7z"/>
	<path class="st2" d="M147.1-173.5l15.1-26.2h30.3l15.1,26.2l-15.1,26.2h-30.3L147.1-173.5z M155.9-210.5l-21.4,37.1l21.4,37.1h42.8
		l21.4-37.1l-21.4-37.1H155.9z"/>
	<g>
		<defs>
			<rect id="SVGID_1_" x="134.5" y="-273.8" width="140.4" height="137.4"/>
		</defs>
		<clipPath id="SVGID_00000081638488685991526840000007224216704339429023_">
			<use xlink:href="#SVGID_1_"  style="overflow:visible;"/>
		</clipPath>
		<path style="clip-path:url(#SVGID_00000081638488685991526840000007224216704339429023_);fill:#FDB913;" d="M177.5-243.2
			c-2.7,0-4.9-2.1-4.9-4.8v-0.1c0-2.7,2.1-4.8,4.8-4.9c2.7,0,4.9,2.1,4.9,4.8C182.3-245.4,180.1-243.2,177.5-243.2 M177.3-257.9
			L177.3-257.9c-5.4-0.1-9.9,4.3-9.9,9.7c-0.1,5.4,4.3,9.9,9.7,9.9s9.9-4.3,9.9-9.7c0,0,0-0.1,0-0.1
			C187.1-253.4,182.7-257.8,177.3-257.9"/>
		<path style="clip-path:url(#SVGID_00000081638488685991526840000007224216704339429023_);fill:#FDB913;" d="M187.3-207.2h-20
			v-20.6c0-0.8,0.6-1.4,1.4-1.4h17.2v0c0.8,0,1.4,0.6,1.4,1.4V-207.2z M185.9-234.2h-17.2c-3.5,0-6.3,2.9-6.3,6.4v25.5h29.8v-25.5
			C192.3-231.3,189.4-234.1,185.9-234.2"/>
		<path style="clip-path:url(#SVGID_00000081638488685991526840000007224216704339429023_);fill:#FDB913;" d="M232.9-208.9
			c-2.6,0-4.7-2-4.8-4.6v-0.1c0-2.6,2.1-4.7,4.6-4.7c2.6,0,4.7,2,4.8,4.6S235.5-208.9,232.9-208.9 M232.8-223.1L232.8-223.1
			c-5.3-0.1-9.6,4.1-9.6,9.4c-0.1,5.3,4.1,9.5,9.4,9.6c5.3,0.1,9.6-4.1,9.6-9.4c0,0,0-0.1,0-0.1C242.2-218.8,238-223.1,232.8-223.1"
			/>
		<path style="clip-path:url(#SVGID_00000081638488685991526840000007224216704339429023_);fill:#FDB913;" d="M242.4-174.1h-19.3
			V-194c0-0.7,0.6-1.4,1.3-1.4h16.6v0c0.8,0,1.3,0.6,1.3,1.4V-174.1z M241.1-200.2h-16.7c-3.4,0-6.1,2.8-6.1,6.2v24.7h28.8V-194
			C247.2-197.4,244.5-200.1,241.1-200.2"/>
		<path style="clip-path:url(#SVGID_00000081638488685991526840000007224216704339429023_);fill:#FDB913;" d="M182.5-155.8
			c-0.9,0.7-1.9,1.3-3.4,1.5v-10.1c1.6,0.5,2.8,1.2,3.4,2c0.7,0.7,1.1,1.8,1.1,3.1C183.6-157.9,183.2-156.7,182.5-155.8 M175.8-173
			c-1.6-0.5-2.7-1.1-3.3-1.8c-0.7-0.7-1.1-1.7-1.1-2.8c0-1.3,0.3-2.4,1.1-3.2c0.8-0.7,1.9-1.2,3.3-1.4V-173z M188.5-167.3
			c-1.9-1.7-5.1-3.3-9.6-4.8v-9.9c1.3,0.2,2.3,0.7,3,1.5c0.6,0.9,1,2.2,1.1,3.9h7.4c-0.2-3.6-1.3-6.3-3.2-8.3c-2-2-4.7-3-8.3-3.2
			v-3.5h-3.2v3.5c-3.6,0-6.3,1-8.5,3.1c-2.1,2.1-3.2,4.7-3.2,8.1c0,3,0.9,5.4,2.7,7.1c1.8,1.7,4.7,3.1,9.1,4.2v11.3
			c-1.6-0.3-2.8-1.1-3.8-2c-0.8-1.2-1.3-2.7-1.4-4.7h-7.3c0,4.1,1,7.1,3.1,9.3c2.1,2.1,5.1,3.2,9.3,3.5v5.3h3.2v-5.3
			c3.9-0.4,6.9-1.5,9.1-3.6c2.1-2.1,3.2-4.9,3.2-8.4C191.2-163.1,190.2-165.5,188.5-167.3"/>
	</g>
</g>
<g>
	<path class="st4" d="M144.2,70.8L144.2,70.8l-42.5,0c-1.9,0-3.4,1.6-3.4,3.5v50.8h49.4V74.3C147.7,72.4,146.1,70.8,144.2,70.8
		 M58.1,70.8L58.1,70.8l-42.5,0c-1.9,0-3.4,1.6-3.4,3.5v50.8h49.4V74.3C61.5,72.4,60,70.8,58.1,70.8 M101.7,58.6h42.5
		c8.6,0.1,15.6,7.1,15.6,15.8v63.1H86.1V74.3C86.1,65.7,93.1,58.6,101.7,58.6 M15.6,58.6h42.5h0c8.6,0.1,15.6,7.1,15.6,15.8v63.1H0
		V74.3C0,65.7,6.9,58.6,15.6,58.6 M122.3,12.3c-6.6,0.1-11.9,5.4-11.9,12v0.2c0.1,6.6,5.5,12,12.2,11.9c6.6-0.1,11.9-5.5,11.9-12.2
		C134.4,17.5,129,12.2,122.3,12.3 M36.8,12.3c-6.6,0.1-11.9,5.4-11.9,12v0.2c0.1,6.6,5.5,12,12.2,11.9c6.6-0.1,12-5.5,11.9-12.2
		C48.9,17.5,43.5,12.2,36.8,12.3 M122.3,0L122.3,0c13.3,0.1,24.1,10.9,24,24.3v0.3c-0.2,13.4-11.1,24.2-24.5,24
		c-13.4-0.2-24.2-11.1-24-24.5C98,10.6,108.9-0.2,122.3,0 M36.8,0L36.8,0c13.3,0.1,24.1,10.9,24,24.3c0,0.1,0,0.2,0,0.3
		c-0.1,13.4-11.1,24.2-24.5,24c-13.4-0.2-24.1-11.1-24-24.5C12.4,10.6,23.4-0.2,36.8,0"/>
</g>
<g>
	<path class="st5" d="M436.7-11c-7.1,0-13.3-4.4-15.7-11.1v-0.1c-0.5-1.5-1.6-2.1-2.2-2.3c-0.6-0.3-1.8-0.6-3.3,0.1l-0.6,0.3
		c-6.3,2.7-13.4,1.3-18.3-3.6c-5-5-6.3-12.3-3.4-18.7l0.1-0.3c0.7-1.4,0.3-2.7,0.1-3.3c-0.3-0.6-0.9-1.7-2.3-2.3H391
		c-6.7-2.4-11-8.6-11-15.7c0-7.1,4.3-13.3,11-15.7h0.1c1.4-0.5,2.1-1.6,2.3-2.3c0.3-0.6,0.6-1.8-0.1-3.3l-0.1-0.1
		c-3-6.4-1.7-13.8,3.4-18.9c5-5,12.2-6.3,18.6-3.4l0.3,0.1c1.4,0.7,2.7,0.3,3.3,0.1c0.6-0.3,1.7-0.9,2.2-2.3v-0.1
		c2.4-6.7,8.5-11,15.7-11c7,0,13.1,4.2,15.5,10.7v0.1l0.1,0.4c0.5,1.4,1.6,2.1,2.3,2.3c0.6,0.3,1.8,0.6,3.3-0.1l0.3-0.1
		c6.4-2.9,13.6-1.6,18.6,3.4c5.1,5.1,6.3,12.5,3.3,19v0.1c-0.6,1.4-0.3,2.6-0.1,3.2c0.3,0.6,0.9,1.7,2.3,2.3l0.4,0.1
		c6.5,2.5,10.7,8.6,10.7,15.6c0,7-4.2,13.1-10.7,15.6h-0.1l-0.4,0.1c-1.4,0.5-2.1,1.6-2.3,2.3c-0.3,0.6-0.6,1.8,0.1,3.2
		c3.1,6.4,1.8,13.9-3.3,19c-4.9,4.9-12,6.3-18.3,3.6h-0.1l-0.5-0.3c-1.4-0.7-2.7-0.3-3.3-0.1c-0.6,0.3-1.7,0.9-2.3,2.3l-0.1,0.4
		C449.7-15.2,443.7-11,436.7-11 M432.9-26.3c0.9,2.4,2.9,2.7,3.8,2.7c0.8,0,2.9-0.2,3.8-2.7l0.1-0.4c1.7-4.3,4.9-7.7,9.2-9.4
		c4.1-1.7,8.8-1.7,12.9,0.1h0.1l0.5,0.3c2.3,1.1,4-0.2,4.5-0.8c0.6-0.6,1.9-2.3,0.8-4.5c-2-4.3-2.1-9.2-0.3-13.5
		c1.8-4.3,5.2-7.6,9.4-9.2h0.1l0.4-0.1c2.4-0.9,2.7-2.9,2.7-3.8c0-0.9-0.3-2.9-2.7-3.8l-0.4-0.1c-4.2-1.7-7.7-4.9-9.4-9.2
		c-1.8-4.4-1.7-9.3,0.3-13.5v-0.1c1.1-2.3-0.2-3.9-0.8-4.5c-0.6-0.6-2.3-1.9-4.5-0.8l-0.3,0.1c-4.2,1.9-9,2-13.3,0.2
		c-4.2-1.8-7.5-5.2-9.2-9.4v-0.1l-0.1-0.4c-0.9-2.4-2.9-2.7-3.8-2.7c-0.8,0-2.9,0.3-3.8,2.7v0.1c-1.6,4.5-5,8.1-9.3,9.8
		c-4.2,1.8-9,1.7-13.3-0.2l-0.3-0.1c-2.3-1.1-4,0.2-4.5,0.8c-0.6,0.6-1.9,2.3-0.8,4.5l0.1,0.1c2,4.2,2.1,9.1,0.3,13.4
		c-1.8,4.3-5.4,7.7-9.7,9.3h-0.1c-2.4,0.9-2.7,2.9-2.7,3.8c0,0.9,0.3,2.9,2.7,3.8h0.1c4.4,1.6,8,5,9.7,9.3c1.8,4.2,1.7,9-0.2,13.3
		l-0.1,0.3c-1.1,2.3,0.2,4,0.8,4.5c0.6,0.6,2.3,1.9,4.5,0.8l0.6-0.3c4.1-1.8,8.8-1.8,12.9-0.1C427.9-34.4,431.3-30.8,432.9-26.3
		 M436.7-42.6c-14,0-25.3-11.3-25.3-25.3c0-14,11.3-25.3,25.3-25.3c14,0,25.3,11.3,25.3,25.3C461.9-54,450.6-42.6,436.7-42.6
		 M436.7-80.6c-6.9,0-12.6,5.7-12.6,12.7c0,7,5.7,12.7,12.6,12.7c7,0,12.6-5.7,12.6-12.7C449.3-74.9,443.6-80.6,436.7-80.6
		 M423.3-12.1L419,1.7l-8.7-8.2l-11.8,1.7l4.6-14.9c-3.5-0.9-6.6-2.7-9.3-5.4c-0.6-0.6-1.2-1.3-1.7-1.9l-11.6,37.6l25.6-3.8l19,17.7
		l10-32C430.6-7.6,426.5-9.3,423.3-12.1 M479.5-25c-2.7,2.7-5.8,4.4-9.3,5.4l4.6,14.9L463-6.4l-8.6,8.2l-4.3-13.9
		c-3.2,2.8-7.3,4.6-11.7,4.9l10,32l19-17.7l25.6,3.8l-11.8-37.7C480.6-26.2,480.1-25.6,479.5-25"/>
</g>
<g>
	<path class="st6" d="M758.6,380.6l-5.1-1.6l-1.8,5c-0.8,2.2-20.1,54.4-1.7,92.1c7.9,16.2,21.8,27.5,40.3,32.7
		c7.1,2,14.4,3,21.7,3.1l6,12.3c1.4,2.8,4.7,3.9,7.4,2.6c2.8-1.3,3.9-4.7,2.6-7.4l-6-12.3c4.5-5.8,8.2-12.2,11-19
		c7.3-17.7,7-35.7-0.8-51.9C813.8,398.4,760.8,381.3,758.6,380.6 M822.8,483.4c-1.7,4.3-3.9,8.3-6.4,12.2l-9.4-19.2l8.7-14.8
		c1.6-2.7,0.7-6.1-2-7.6s-6.1-0.7-7.6,2l-4.9,8.3l-4.9-10l8.6-14.7c1.6-2.7,0.7-6.1-2-7.7c-2.7-1.6-6.1-0.7-7.6,2l-4.9,8.4
		L779,418.5c-1.4-2.7-4.7-3.9-7.5-2.5c-2.7,1.4-3.9,4.7-2.5,7.5l11.5,23.7l-9.6-1.3c-3.1-0.5-5.9,1.6-6.4,4.6
		c-0.5,3,1.6,5.9,4.6,6.4c0.1,0,0.2,0,0.3,0l16.9,2.3l4.8,9.9l-9.6-1.4c-3-0.5-5.9,1.5-6.4,4.6c-0.5,3,1.5,5.9,4.6,6.4
		c0.1,0,0.2,0,0.3,0.1l17.2,2.5l9.3,19.2c-4.6-0.4-9.1-1.2-13.5-2.5c-15.4-4.4-26.5-13.4-33-26.7c-13.1-27-3.8-64.5,0.4-78.1
		c13.3,5.1,48.6,20.8,61.7,47.9C828.6,454.3,828.8,468.6,822.8,483.4"/>
</g>
<g>
	<path class="st7" d="M530.5,390.5c-8.1-8.1-21.1-8.8-30-1.5c-9.6-7.8-23.6-6.4-31.4,3.2c-7.2,8.9-6.6,21.8,1.4,29.9l29.7,29.8
		l0.3-0.2l0.3,0.2l29.7-29.8C539.2,413.4,539.2,399.2,530.5,390.5 M486.2,394.2c3.2,0,6.3,1.3,8.6,3.6l5.6,5.6l5.6-5.6
		c4.7-4.7,12.4-4.7,17.1,0c4.7,4.8,4.7,12.4,0,17.2l-22.5,22.5l-0.3-0.2l-0.3,0.2l-22.5-22.5c-4.7-4.7-4.8-12.4,0-17.2
		C479.9,395.4,483,394.2,486.2,394.2 M492.1,492.3c0.2-9.5-1.1-16.8-4.1-23c-3.6-7.4-9.2-10.5-14.5-13.5l-0.2-0.1
		c-0.9-0.5-1.9-1-2.9-1.6c-4.4-2.6-8.2-6.6-12.1-10.6c-0.8-0.8-1.6-1.6-2.4-2.4c-1.1-1.2-5.5-5.2-6.1-5.7c-0.8-0.9-1.8-1.6-2.9-2.1
		v-17.4c0-6.6-5-12.3-11.3-12.9c-6.9-0.6-13.1,4.5-13.7,11.4c0,0.4-0.1,0.8-0.1,1.1v43.6c0,3.2,1.2,6.3,3.5,8.5
		c3.6,3.6,21.7,21.8,25.7,25.6c0,0,0.1,0.1,0.1,0.2l2.2,16.3h10.3l-2.6-19.7c-0.2-1.4-1.2-2.4-3.7-4.8c-0.3-0.3-0.6-0.5-0.8-0.7
		l-23.8-23.8c-0.7-1-0.7-1.3-0.7-1.4v-8.8c0.4,0.6,0.8,1.1,1.3,1.6l20.6,20.5c1.1,1.4,2.7,2.2,4.5,2.1c1.6-0.1,3.1-1,4.1-2.3
		c1.3-2.2,0.4-5-1.1-6.6l-20.8-21c-0.3-0.3-0.4-0.6-0.4-1c0-0.4,0.2-0.8,0.4-1c0.6-0.5,1.6-0.5,2.1,0.1l0.1,0.1
		c1.6,1.5,5.1,4.7,5.8,5.5c0.8,0.8,1.5,1.6,2.3,2.4c4.1,4.2,8.7,9.1,14.2,12.3c1,0.6,2.1,1.2,3.1,1.8l0.2,0.1
		c4.7,2.6,8.1,4.5,10.3,9c2.3,4.7,3.3,10.5,3,18.5v0.1l0.9,17.3h10.2L492.1,492.3z M432,415.5c0-0.6,0.3-1.3,0.8-1.7
		c0.4-0.4,1-0.6,1.6-0.6h0.2c1.2,0.1,2.1,1.3,2.1,2.7v17.2c-1.2,0.6-2.3,1.3-3.3,2.3c-0.5,0.5-1,1-1.4,1.6V415.5z M508,509.6h10.2
		l0.9-17.3v0c-0.2-7.9,0.8-13.8,3-18.5c2.2-4.5,5.6-6.4,10.3-9l0.2-0.1c1-0.6,2-1.1,3.1-1.7c5.6-3.3,10.2-8.1,14.2-12.3
		c0.8-0.8,1.5-1.6,2.3-2.4c0.8-0.8,4.2-4,5.8-5.5l0.1-0.1c0.6-0.6,1.5-0.6,2.1-0.1c0.3,0.3,0.4,0.7,0.4,1c0,0.4-0.2,0.8-0.4,1
		l-20.8,21c-1.5,1.6-2.4,4.4-1.1,6.6c1,1.3,2.5,2.2,4.1,2.3c1.7,0.1,3.4-0.7,4.5-2.1l20.6-20.5c0.5-0.5,0.9-1,1.3-1.6v8.8
		c0,0.1,0,0.4-0.7,1.4l-23.8,23.8c-0.2,0.2-0.5,0.5-0.8,0.7c-2.5,2.3-3.5,3.4-3.7,4.8l-2.6,19.7h10.3l2.1-16.3c0-0.1,0-0.1,0.1-0.1
		c4-3.8,22.1-22,25.7-25.6c2.3-2.2,3.6-5.3,3.5-8.5v-43.6c0-7-5.7-12.6-12.6-12.6c-0.4,0-0.8,0-1.1,0.1c-6.4,0.6-11.4,6.3-11.4,12.9
		v17.4c-1.1,0.5-2.1,1.2-2.9,2.1c-0.6,0.5-4.9,4.5-6.1,5.7c-0.8,0.8-1.6,1.6-2.4,2.4c-3.8,4-7.7,8-12.1,10.6c-1,0.6-2,1.1-2.9,1.6
		l-0.2,0.1c-5.4,3-11,6-14.6,13.5c-3,6.1-4.3,13.4-4.1,22.9L508,509.6z M568.9,437.1c-0.4-0.6-0.8-1.1-1.3-1.6c-1-1-2.1-1.7-3.3-2.3
		v-17.2c0-1.4,0.9-2.6,2.1-2.7h0.2c0.6,0,1.2,0.2,1.6,0.6c0.5,0.4,0.8,1,0.8,1.7L568.9,437.1z"/>
</g>
</svg>
