<?xml version="1.0" encoding="utf-8"?>
<!-- Generator: Adobe Illustrator 26.0.1, SVG Export Plug-In . SVG Version: 6.00 Build 0)  -->
<svg version="1.1" id="Layer_1" xmlns="http://www.w3.org/2000/svg" xmlns:xlink="http://www.w3.org/1999/xlink" x="0px" y="0px"
	 viewBox="0 0 159.8 137.5" style="enable-background:new 0 0 159.8 137.5;" xml:space="preserve">
<style type="text/css">
	.st0{fill:#FFFFFF;}
	.st1{fill:none;}
	.st2{fill:#01519C;}
	.st3{fill:#FDB913;}
	.st4{clip-path:url(#SVGID_00000155114323058265861330000002947855764971199390_);fill:#FDB913;}
	.st5{clip-path:url(#SVGID_00000054957369781748352590000006864124210311807369_);fill:#FDB913;}
	.st6{clip-path:url(#SVGID_00000160907706933102857080000007898510015251339911_);fill:#FDB913;}
	.st7{clip-path:url(#SVGID_00000170237450743906741450000008544303462700186553_);fill:#FDB913;}
	.st8{clip-path:url(#SVGID_00000055670531399198668060000007306372315475063722_);fill:#FDB913;}
	.st9{fill:#ED7F22;}
	.st10{fill:#ED328C;}
	.st11{fill:#39B54A;}
	.st12{fill:#A6CE39;}
</style>
<path class="st0" d="M12.3,24.1C12.4,10.6,23.4-0.2,36.8,0c13.3,0.1,24.1,10.9,24,24.3v0.3c-0.1,13.4-11.1,24.2-24.5,24
	C22.9,48.4,12.2,37.5,12.3,24.1z"/>
<path class="st0" d="M69,63.3c2.8,2.8,4.6,6.8,4.6,11.1v63.1H0V74.4c-0.1-8.8,6.9-15.8,15.5-15.8H58C62.3,58.7,66.2,60.4,69,63.3z"
	/>
<path class="st0" d="M97.8,24.1C97.9,10.6,108.9-0.2,122.3,0c13.3,0.1,24.1,10.9,24,24.3v0.3c-0.2,13.4-11.1,24.2-24.5,24
	C108.4,48.4,97.6,37.5,97.8,24.1z"/>
<path class="st0" d="M159.8,74.4v63.1H86.1V74.4c0-8.8,6.9-15.8,15.6-15.8h42.5C152.8,58.7,159.8,65.7,159.8,74.4z"/>
<path class="st0" d="M564,462.6l-20.6,20.5c-1.1,1.4-2.8,2.2-4.5,2.1c-1.6-0.1-3.1-1-4.1-2.3c-1.3-2.2-0.4-5,1.1-6.6l20.8-21
	c0.2-0.2,0.4-0.6,0.4-1c0-0.3-0.1-0.7-0.4-1c-0.6-0.5-1.5-0.5-2.1,0.1l-0.1,0.1c-1.6,1.5-5,4.7-5.8,5.5c-0.8,0.8-1.5,1.6-2.3,2.4
	c-4,4.2-8.6,9-14.2,12.3c-1.1,0.6-2.1,1.1-3.1,1.7l-0.2,0.1c-4.7,2.6-8.1,4.5-10.3,9c-2,4.3-3,9.6-3,16.6c0,0.6,0,1.3,0,1.9
	l-0.9,17.3l29.3-0.1h-10.3l2.6-19.7c0.2-1.4,1.2-2.5,3.7-4.8c0.3-0.2,0.6-0.5,0.8-0.7l23.8-23.8c0.7-1,0.7-1.3,0.7-1.4V461
	C564.9,461.6,564.5,462.1,564,462.6z"/>
<path class="st0" d="M489.2,520.7H479l0-0.3h-29.3l-2.2-16.3c0-0.1-0.1-0.2-0.1-0.2c-4-3.8-22.1-22-25.7-25.6
	c-2.3-2.2-3.5-5.3-3.5-8.5v-43.6c0-0.3,0.1-0.7,0.1-1.1c0.6-6.9,6.8-12,13.7-11.4c6.3,0.6,11.3,6.3,11.3,12.9V444
	c1.1,0.5,2.1,1.2,2.9,2.1c0.6,0.5,5,4.5,6.1,5.7c0.8,0.8,1.6,1.6,2.4,2.4c3.9,4,7.7,8,12.1,10.6c1,0.6,2,1.1,2.9,1.6l0.2,0.1
	c5.3,3,10.9,6.1,14.5,13.5c3,6.2,4.3,13.5,4.1,23l0.7,17.3v0.1L489.2,520.7z"/>
<path class="st0" d="M526.9,432.7l-29.7,29.8l-0.3-0.2l-0.3,0.2l-29.7-29.8c-8-8.1-8.6-21-1.4-29.9c7.8-9.6,21.8-11,31.4-3.2
	c8.9-7.3,21.9-6.6,30,1.5C535.6,409.9,535.6,424,526.9,432.7z"/>
<path class="st0" d="M575.4,426.3v43.4c0.1,3.2-1.2,6.3-3.5,8.5c-3.6,3.6-21.7,21.8-25.7,25.6c-0.1,0-0.1,0-0.1,0.1l-2.1,16.3h-10.3
	l2.6-19.7c0.2-1.4,1.2-2.5,3.7-4.8c0.3-0.2,0.6-0.5,0.8-0.7l23.8-23.8c0.7-1,0.7-1.3,0.7-1.4V461c-0.4,0.6-0.8,1.1-1.3,1.6
	l-20.6,20.5c-1.1,1.4-2.8,2.2-4.5,2.1c-1.6-0.1-3.1-1-4.1-2.3c-1.3-2.2-0.4-5,1.1-6.6l20.8-21c0.2-0.2,0.4-0.6,0.4-1
	c0-0.3-0.1-0.7-0.4-1c-0.6-0.5-1.5-0.5-2.1,0.1l-0.1,0.1c-1.6,1.5-5,4.7-5.8,5.5c-0.8,0.8-1.5,1.6-2.3,2.4c-4,4.2-8.6,9-14.2,12.3
	c-1.1,0.6-2.1,1.1-3.1,1.7l-0.2,0.1c-4.7,2.6-8.1,4.5-10.3,9c-2,4.3-3,9.6-3,16.6c0,0.6,0,1.3,0,1.9l-0.9,17.3v0h-10.2v0l0.7-17.3
	c-0.2-9.5,1.1-16.8,4.1-22.9c3.6-7.5,9.2-10.5,14.6-13.5l0.2-0.1c0.9-0.5,1.9-1,2.9-1.6c4.4-2.6,8.3-6.6,12.1-10.6
	c0.8-0.8,1.6-1.6,2.4-2.4c1.2-1.2,5.5-5.2,6.1-5.7c0.8-0.9,1.8-1.6,2.9-2.1v-17.4c0-6.6,5-12.4,11.2-12.9c0.3-0.1,0.7-0.1,1.1-0.1
	C569.7,413.7,575.4,419.3,575.4,426.3z"/>
<g>
	<path class="st1" d="M667.8-111c0-8.2-6.7-14.9-15-14.9c-8.3,0-15,6.7-15,14.9c0,8.3,6.7,15,15,15C661.1-96,667.8-102.7,667.8-111z
		 M648.8-103.8c-0.8-0.9-1.3-2.1-1.3-3.3h3c0,0.6,0.2,1.1,0.5,1.5c0.3,0.4,0.7,0.6,1.2,0.6v-3.9c-1.4-0.4-2.7-1-3.8-1.9
		c-0.7-0.8-1.1-1.8-1.1-2.9c-0.1-1.2,0.4-2.4,1.3-3.3c1-0.9,2.3-1.4,3.6-1.4v-2.1h1.3v2.1c1.4,0,2.7,0.5,3.7,1.4
		c0.9,1,1.3,2.3,1.2,3.7h-2.9c0-0.7-0.2-1.3-0.6-1.9c-0.3-0.4-0.9-0.8-1.4-0.9v4.5c1.3,0.2,2.6,0.8,3.6,1.7c0.7,0.8,1.1,1.8,1.1,2.8
		c0,1.2-0.4,2.4-1.3,3.2c-0.9,0.8-2.1,1.3-3.4,1.3v1.4h-1.3v-1.4C650.9-102.5,649.7-103,648.8-103.8z"/>
	<path class="st1" d="M655.2-106.7c0-0.4-0.1-0.8-0.4-1.1c-0.4-0.4-0.8-0.6-1.3-0.8v3.7c0.5,0,0.9-0.2,1.3-0.6
		C655.1-105.8,655.3-106.3,655.2-106.7z"/>
	<path class="st1" d="M652.2-111.9v-4.1c-0.5,0-1,0.3-1.4,0.7c-0.3,0.4-0.5,0.9-0.5,1.4s0.1,0.9,0.4,1.3
		C651.2-112.4,651.6-112.1,652.2-111.9L652.2-111.9z"/>
	<path class="st1" d="M598.4-144.9c11.3,0,20.4-9.1,20.4-20.4c0-11.3-9.1-20.4-20.4-20.4s-20.4,9.1-20.4,20.4
		C577.9-154,587.1-144.9,598.4-144.9z"/>
	<path class="st2" d="M602.4-124.7c-1.4,0.1-2.7,0.2-4.1,0.2c-3.7,0-7.3-0.5-10.8-1.5c-6.7,9.1-19.5,11-28.6,4.4
		c-9.1-6.7-11-19.4-4.4-28.5c1.2-1.7,2.7-3.1,4.4-4.4c-1-3.5-1.5-7.1-1.5-10.8c0-1.4,0.1-2.7,0.2-4.1c-17.3,7.3-25.4,27.3-18,44.6
		c5.4,12.5,17.7,20.7,31.4,20.7C584.7-104.1,597.1-112.2,602.4-124.7z"/>
	<path class="st2" d="M614.7-111c0,2.3,1.8,4.1,4.1,4.1c2.3,0,4.1-1.8,4.1-4.1c0-2.2-1.8-4.1-4.1-4.1
		C616.5-115,614.7-113.2,614.7-111z"/>
	<path class="st2" d="M598.4-131.3c18.8,0,34.1-15.2,34.1-34s-15.2-34-34.1-34c-18.8,0-34.1,15.2-34.1,34
		C564.3-146.6,579.5-131.3,598.4-131.3z M598.4-185.7c11.3,0,20.4,9.1,20.4,20.4c0,11.3-9.1,20.4-20.4,20.4S578-154,578-165.3
		C577.9-176.6,587.1-185.7,598.4-185.7z"/>
	<path class="st2" d="M653.5-101.1v-1.4c1.3,0,2.5-0.4,3.4-1.3s1.3-2,1.3-3.2c0.1-1-0.3-2.1-1.1-2.8c-1.1-0.9-2.3-1.4-3.6-1.7v-4.5
		c0.6,0.1,1.1,0.4,1.4,0.9c0.4,0.6,0.6,1.2,0.6,1.9h2.9c0.1-1.3-0.4-2.7-1.2-3.7c-1-0.9-2.3-1.4-3.7-1.4v-2.1h-1.3v2.1
		c-1.3,0-2.6,0.6-3.6,1.4c-0.9,0.9-1.3,2.1-1.3,3.3c0,1.1,0.3,2.1,1.1,2.9c1.1,0.9,2.4,1.6,3.8,1.9v3.9c-0.5,0-0.9-0.2-1.2-0.6
		c-0.3-0.4-0.5-1-0.5-1.5h-3c0,1.2,0.5,2.4,1.3,3.3c0.9,0.8,2.1,1.3,3.3,1.3v1.4L653.5-101.1L653.5-101.1z M653.5-108.6
		c0.5,0.1,1,0.4,1.3,0.8c0.3,0.3,0.4,0.7,0.4,1.1s-0.1,0.9-0.5,1.3c-0.3,0.3-0.8,0.6-1.3,0.6L653.5-108.6L653.5-108.6z M650.8-112.8
		c-0.3-0.3-0.5-0.8-0.4-1.3c0-0.5,0.2-1,0.5-1.4c0.4-0.4,0.8-0.6,1.4-0.7v4.1l0,0C651.6-112.1,651.2-112.4,650.8-112.8z"/>
	<path class="st2" d="M633.2-148.3c-2.6,5.3-6.4,10-11.1,13.6h85.2v47.6h-109v-23.4c-3.9,3.8-8.5,6.8-13.6,8.7v28.3H721v-74.7
		L633.2-148.3L633.2-148.3z"/>
	<path class="st2" d="M691-111c0-2.2-1.8-4.1-4.1-4.1s-4.1,1.8-4.1,4.1c0,2.3,1.8,4.1,4.1,4.1S691-108.7,691-111z"/>
	<path class="st2" d="M672.6-111c0-10.9-8.8-19.7-19.8-19.7c-10.9,0-19.8,8.8-19.8,19.7c0,10.9,8.8,19.7,19.8,19.7
		S672.6-100.1,672.6-111z M637.9-111c0-8.2,6.7-14.9,15-14.9s15,6.7,15,14.9c0,8.3-6.7,15-15,15S637.9-102.7,637.9-111z"/>
</g>
<g>
	<path class="st3" d="M147-236.8l15.1-26.2h30.3l15.1,26.2l-15.1,26.2h-30.3L147-236.8z M155.9-273.8l-21.4,37.1l21.4,37.1h42.8
		l21.4-37.1l-21.4-37.1H155.9z"/>
	<path class="st3" d="M201.8-205.1l15.1-26.2h30.3l15.1,26.2l-15.1,26.2H217L201.8-205.1z M210.7-242.2l-21.4,37.1l21.4,37.1h42.8
		l21.4-37.1l-21.4-37.1H210.7z"/>
	<path class="st3" d="M147-173.5l15.1-26.2h30.3l15.1,26.2l-15.1,26.2h-30.3L147-173.5z M155.9-210.6l-21.4,37.1l21.4,37.1h42.8
		l21.4-37.1l-21.4-37.1H155.9z"/>
	<g>
		<g>
			<defs>
				<rect id="SVGID_1_" x="134.5" y="-273.8" width="140.4" height="137.4"/>
			</defs>
			<clipPath id="SVGID_00000104668161128968014690000002304693071144302269_">
				<use xlink:href="#SVGID_1_"  style="overflow:visible;"/>
			</clipPath>
			<path style="clip-path:url(#SVGID_00000104668161128968014690000002304693071144302269_);fill:#FDB913;" d="M177.4-243.2
				c-2.7,0-4.9-2.1-4.9-4.8v-0.1c0-2.7,2.1-4.8,4.8-4.9c2.7,0,4.9,2.1,4.9,4.8C182.3-245.4,180.1-243.2,177.4-243.2 M177.3-257.9
				L177.3-257.9c-5.4-0.1-9.9,4.3-9.9,9.7c-0.1,5.4,4.3,9.9,9.7,9.9c5.4,0.1,9.9-4.3,9.9-9.7v-0.1
				C187-253.5,182.7-257.9,177.3-257.9"/>
		</g>
		<g>
			<defs>
				<rect id="SVGID_00000093864330825457877980000007740210472330019474_" x="134.5" y="-273.8" width="140.4" height="137.4"/>
			</defs>
			<clipPath id="SVGID_00000075150218058583674940000016880310375972644269_">
				<use xlink:href="#SVGID_00000093864330825457877980000007740210472330019474_"  style="overflow:visible;"/>
			</clipPath>
			<path style="clip-path:url(#SVGID_00000075150218058583674940000016880310375972644269_);fill:#FDB913;" d="M187.3-207.2h-20
				v-20.6c0-0.8,0.6-1.4,1.4-1.4h17.2l0,0c0.8,0,1.4,0.6,1.4,1.4L187.3-207.2L187.3-207.2z M185.9-234.2h-17.2
				c-3.5,0-6.3,2.9-6.3,6.4v25.5h29.8v-25.5C192.2-231.3,189.4-234.2,185.9-234.2"/>
		</g>
		<g>
			<defs>
				<rect id="SVGID_00000070830070655774983400000000761868693563454089_" x="134.5" y="-273.8" width="140.4" height="137.4"/>
			</defs>
			<clipPath id="SVGID_00000147196631188489534070000018284938604209869496_">
				<use xlink:href="#SVGID_00000070830070655774983400000000761868693563454089_"  style="overflow:visible;"/>
			</clipPath>
			<path style="clip-path:url(#SVGID_00000147196631188489534070000018284938604209869496_);fill:#FDB913;" d="M232.8-208.9
				c-2.6,0-4.7-2-4.8-4.6v-0.1c0-2.6,2.1-4.7,4.6-4.7c2.6,0,4.7,2,4.8,4.6C237.5-211.1,235.4-208.9,232.8-208.9 M232.7-223.1
				L232.7-223.1c-5.3-0.1-9.6,4.1-9.6,9.4c0,5.3,4.1,9.5,9.4,9.6c5.3,0.1,9.6-4.1,9.6-9.4v-0.1C242.2-218.8,237.9-223.1,232.7-223.1
				"/>
		</g>
		<g>
			<defs>
				<rect id="SVGID_00000160875725375901927630000006179077468306107547_" x="134.5" y="-273.8" width="140.4" height="137.4"/>
			</defs>
			<clipPath id="SVGID_00000127020724966785638210000000567636789010091916_">
				<use xlink:href="#SVGID_00000160875725375901927630000006179077468306107547_"  style="overflow:visible;"/>
			</clipPath>
			<path style="clip-path:url(#SVGID_00000127020724966785638210000000567636789010091916_);fill:#FDB913;" d="M242.4-174.1h-19.3
				V-194c0-0.7,0.6-1.4,1.3-1.4H241l0,0c0.8,0,1.4,0.6,1.4,1.4L242.4-174.1L242.4-174.1z M241-200.2h-16.7c-3.4,0-6.1,2.8-6.1,6.2
				v24.7H247V-194C247.2-197.4,244.4-200.2,241-200.2"/>
		</g>
		<g>
			<defs>
				<rect id="SVGID_00000108283785538657442960000013118760995415078058_" x="134.5" y="-273.8" width="140.4" height="137.4"/>
			</defs>
			<clipPath id="SVGID_00000043433205254213347340000008266958717871310249_">
				<use xlink:href="#SVGID_00000108283785538657442960000013118760995415078058_"  style="overflow:visible;"/>
			</clipPath>
			<path style="clip-path:url(#SVGID_00000043433205254213347340000008266958717871310249_);fill:#FDB913;" d="M182.4-155.8
				c-0.9,0.7-1.9,1.3-3.4,1.5v-10.1c1.6,0.5,2.8,1.2,3.4,2c0.7,0.7,1.1,1.8,1.1,3.1C183.6-157.9,183.2-156.7,182.4-155.8 M175.7-173
				c-1.6-0.5-2.7-1.1-3.3-1.8c-0.7-0.7-1.1-1.7-1.1-2.8c0-1.3,0.3-2.4,1.1-3.2c0.8-0.7,1.9-1.2,3.3-1.4V-173z M188.4-167.3
				c-1.9-1.7-5.1-3.3-9.6-4.8v-9.9c1.3,0.2,2.3,0.7,3,1.5c0.6,0.9,1,2.2,1.1,3.9h7.4c-0.2-3.6-1.3-6.3-3.2-8.3c-2-2-4.7-3-8.3-3.2
				v-3.5h-3.2v3.5c-3.6,0-6.3,1-8.5,3.1c-2.1,2.1-3.2,4.7-3.2,8.1c0,3,0.9,5.4,2.7,7.1c1.8,1.7,4.7,3.1,9.1,4.2v11.3
				c-1.6-0.3-2.8-1.1-3.8-2c-0.8-1.2-1.3-2.7-1.4-4.7h-7.3c0,4.1,1,7.1,3.1,9.3c2.1,2.1,5.1,3.2,9.3,3.5v5.3h3.2v-5.3
				c3.9-0.4,6.9-1.5,9.1-3.6c2.1-2.1,3.2-4.9,3.2-8.4C191.1-163.1,190.2-165.5,188.4-167.3"/>
		</g>
	</g>
</g>
<g>
	<path class="st9" d="M36.8,0C23.4-0.2,12.4,10.6,12.3,24.1c-0.1,13.4,10.6,24.3,24,24.5c13.4,0.2,24.4-10.6,24.5-24v-0.3
		C60.9,10.9,50.1,0.1,36.8,0z M37.1,36.4c-6.7,0.1-12.1-5.3-12.2-11.9v-0.2c0-6.6,5.3-11.9,11.9-12c6.6-0.1,12.1,5.2,12.2,11.9
		C49.1,30.9,43.7,36.3,37.1,36.4z M122.3,0c-13.4-0.2-24.4,10.6-24.5,24.1c-0.2,13.4,10.6,24.3,24,24.5c13.4,0.2,24.3-10.6,24.5-24
		v-0.3C146.4,10.9,135.6,0.1,122.3,0z M122.6,36.4c-6.7,0.1-12.1-5.3-12.2-11.9v-0.2c0-6.6,5.3-11.9,11.9-12
		c6.7-0.1,12.1,5.2,12.2,11.9C134.5,30.9,129.2,36.3,122.6,36.4z M69,63.3c-2.8-2.9-6.7-4.6-11-4.7H15.5c-8.6,0-15.6,7-15.5,15.8
		v63.1h73.6V74.4C73.6,70.1,71.9,66.1,69,63.3z M61.5,125.1H12.1V74.3c0-1.9,1.5-3.5,3.4-3.5H58c2,0,3.5,1.6,3.5,3.5V125.1z
		 M144.2,58.6h-42.5c-8.7,0-15.6,7-15.6,15.8v63.1h73.7V74.4C159.8,65.7,152.8,58.7,144.2,58.6z M147.7,125.1H98.3V74.3
		c0-1.9,1.5-3.5,3.4-3.5h42.5c1.9,0,3.4,1.6,3.5,3.5V125.1z"/>
</g>
<g>
	<path class="st10" d="M436.6-11c-7.1,0-13.3-4.4-15.7-11.1v-0.1c-0.5-1.5-1.6-2.1-2.2-2.3c-0.6-0.3-1.8-0.6-3.3,0.1l-0.6,0.3
		c-6.3,2.7-13.4,1.3-18.3-3.6c-5-5-6.3-12.3-3.4-18.7l0.1-0.3c0.7-1.4,0.3-2.7,0.1-3.3c-0.3-0.6-0.9-1.7-2.3-2.3h-0.1
		c-6.7-2.4-11-8.6-11-15.7s4.3-13.3,11-15.7h0.1c1.4-0.5,2.1-1.6,2.3-2.3c0.3-0.6,0.6-1.8-0.1-3.3l-0.1-0.1
		c-3-6.4-1.7-13.8,3.4-18.9c5-5,12.2-6.3,18.6-3.4l0.3,0.1c1.4,0.7,2.7,0.3,3.3,0.1c0.6-0.3,1.7-0.9,2.2-2.3v-0.1
		c2.4-6.7,8.5-11,15.7-11c7,0,13.1,4.2,15.5,10.7v0.1l0.1,0.4c0.5,1.4,1.6,2.1,2.3,2.3c0.6,0.3,1.8,0.6,3.3-0.1l0.3-0.1
		c6.4-2.9,13.6-1.6,18.6,3.4c5.1,5.1,6.3,12.5,3.3,19v0.1c-0.6,1.4-0.3,2.6-0.1,3.2c0.3,0.6,0.9,1.7,2.3,2.3l0.4,0.1
		c6.5,2.5,10.7,8.6,10.7,15.6s-4.2,13.1-10.7,15.6h-0.1l-0.4,0.1c-1.4,0.5-2.1,1.6-2.3,2.3c-0.3,0.6-0.6,1.8,0.1,3.2
		c3.1,6.4,1.8,13.9-3.3,19c-4.9,4.9-12,6.3-18.3,3.6h-0.1l-0.5-0.3c-1.4-0.7-2.7-0.3-3.3-0.1c-0.6,0.3-1.7,0.9-2.3,2.3l-0.1,0.4
		C449.7-15.2,443.7-11,436.6-11 M432.9-26.3c0.9,2.4,2.9,2.7,3.8,2.7c0.8,0,2.9-0.2,3.8-2.7l0.1-0.4c1.7-4.3,4.9-7.7,9.2-9.4
		c4.1-1.7,8.8-1.7,12.9,0.1h0.1l0.5,0.3c2.3,1.1,4-0.2,4.5-0.8c0.6-0.6,1.9-2.3,0.8-4.5c-2-4.3-2.1-9.2-0.3-13.5
		c1.8-4.3,5.2-7.6,9.4-9.2h0.1l0.4-0.1c2.4-0.9,2.7-2.9,2.7-3.8s-0.3-2.9-2.7-3.8l-0.4-0.1c-4.2-1.7-7.7-4.9-9.4-9.2
		c-1.8-4.4-1.7-9.3,0.3-13.5v-0.1c1.1-2.3-0.2-3.9-0.8-4.5c-0.6-0.6-2.3-1.9-4.5-0.8l-0.3,0.1c-4.2,1.9-9,2-13.3,0.2
		c-4.2-1.8-7.5-5.2-9.2-9.4v-0.1l-0.1-0.4c-0.9-2.4-2.9-2.7-3.8-2.7c-0.8,0-2.9,0.3-3.8,2.7v0.1c-1.6,4.5-5,8.1-9.3,9.8
		c-4.2,1.8-9,1.7-13.3-0.2l-0.3-0.1c-2.3-1.1-4,0.2-4.5,0.8c-0.6,0.6-1.9,2.3-0.8,4.5l0.1,0.1c2,4.2,2.1,9.1,0.3,13.4
		c-1.8,4.3-5.4,7.7-9.7,9.3h-0.1c-2.4,0.9-2.7,2.9-2.7,3.8s0.3,2.9,2.7,3.8h0.1c4.4,1.6,8,5,9.7,9.3c1.8,4.2,1.7,9-0.2,13.3
		l-0.1,0.3c-1.1,2.3,0.2,4,0.8,4.5c0.6,0.6,2.3,1.9,4.5,0.8l0.6-0.3c4.1-1.8,8.8-1.8,12.9-0.1C427.9-34.4,431.3-30.8,432.9-26.3
		 M436.6-42.7c-14,0-25.3-11.3-25.3-25.3s11.3-25.3,25.3-25.3S461.9-82,461.9-68S450.6-42.7,436.6-42.7 M436.6-80.7
		C429.7-80.7,424-75,424-68s5.7,12.7,12.6,12.7c7,0,12.6-5.7,12.6-12.7C449.3-75,443.6-80.7,436.6-80.7 M423.3-12.1l-4.4,13.9
		l-8.7-8.2l-11.8,1.7l4.6-14.9c-3.5-0.9-6.6-2.7-9.3-5.4c-0.6-0.6-1.2-1.3-1.7-1.9l-11.6,37.6L406,6.9l19,17.7l10-32
		C430.6-7.6,426.5-9.4,423.3-12.1 M479.5-25c-2.7,2.7-5.8,4.4-9.3,5.4l4.6,14.9L463-6.4l-8.6,8.2l-4.3-13.9
		c-3.2,2.8-7.3,4.6-11.7,4.9l10,32l19-17.7l25.6,3.8l-11.8-37.7C480.6-26.3,480-25.6,479.5-25"/>
</g>
<g>
	<path class="st0" d="M832.9,488.1c-2.8,6.8-6.5,13.2-11,19l6,12.3c0.2,0.4,0.3,0.9,0.4,1.3h-12.1l-4.3-8.8
		c-7.3-0.1-14.6-1.1-21.7-3.1c-18.5-5.2-32.4-16.5-40.3-32.7c-14.7-30.2-5.2-69.9-0.5-85.5h32.8c17.2,8.9,39.3,23.8,49.9,45.6
		C839.9,452.4,840.2,470.4,832.9,488.1z"/>
	<g>
		<path class="st11" d="M832.1,436.2c-10.6-21.8-32.7-36.7-49.9-45.6c-12.7-6.5-22.7-9.8-23.7-10l-5-1.6l-1.9,5
			c-0.2,0.4-1,2.8-2.2,6.6c-4.7,15.6-14.2,55.2,0.5,85.5c7.9,16.2,21.8,27.5,40.3,32.7c7.1,2,14.4,3,21.7,3.1l4.3,8.8l1.7,3.5
			c1.4,2.8,4.7,3.9,7.4,2.6c2.4-1.1,3.5-3.7,3-6.1c-0.1-0.4-0.2-0.9-0.4-1.3l-6-12.3c4.5-5.8,8.2-12.2,11-19
			C840.2,470.4,839.9,452.4,832.1,436.2z M822.7,483.4c-1.7,4.3-3.9,8.3-6.4,12.2l-9.3-19.2l8.7-14.8c1.6-2.7,0.7-6.1-2-7.6
			c-2.7-1.6-6.1-0.7-7.6,2l-4.9,8.3l-4.9-10l8.7-14.8c1.6-2.7,0.7-6.1-2-7.7s-6.1-0.7-7.6,2l-4.9,8.4l-11.6-23.7
			c-1.4-2.7-4.7-3.9-7.5-2.5c-2.7,1.4-3.9,4.7-2.5,7.5l11.5,23.7l-9.6-1.3c-3.1-0.5-5.9,1.6-6.4,4.6s1.6,5.9,4.6,6.4h0.3l16.9,2.3
			l4.8,9.9l-9.6-1.4c-3-0.5-5.9,1.5-6.4,4.6c-0.5,3,1.5,5.9,4.6,6.4c0.1,0,0.2,0,0.3,0.1l17.2,2.5l9.3,19.2
			c-4.6-0.4-9.1-1.2-13.5-2.5c-15.4-4.4-26.5-13.4-33-26.7c-13.1-27-3.8-64.5,0.4-78.1c13.3,5.1,48.6,20.8,61.7,47.9
			C828.5,454.3,828.8,468.6,822.7,483.4z"/>
	</g>
</g>
<g>
	<path class="st12" d="M526.9,401.1c-8.1-8.1-21.1-8.8-30-1.5c-9.6-7.8-23.6-6.4-31.4,3.2c-7.2,8.9-6.6,21.8,1.4,29.9l29.7,29.8
		l0.3-0.2l0.3,0.2l29.7-29.8C535.6,424,535.6,409.9,526.9,401.1z M519.6,425.6l-22.5,22.5l-0.3-0.2l-0.3,0.2L474,425.6
		c-4.7-4.7-4.8-12.4,0-17.2c2.4-2.3,5.5-3.6,8.7-3.6s6.3,1.3,8.6,3.6l5.6,5.6l5.6-5.6c4.7-4.7,12.4-4.7,17.1,0
		C524.3,413.2,524.3,420.8,519.6,425.6z M489.2,520.4L489.2,520.4l-0.7-17.4c0.2-9.5-1.1-16.8-4.1-23c-3.6-7.4-9.2-10.5-14.5-13.5
		l-0.2-0.1c-0.9-0.5-1.9-1-2.9-1.6c-4.4-2.6-8.2-6.6-12.1-10.6c-0.8-0.8-1.6-1.6-2.4-2.4c-1.1-1.2-5.5-5.2-6.1-5.7
		c-0.8-0.9-1.8-1.6-2.9-2.1v-17.4c0-6.6-5-12.3-11.3-12.9c-6.9-0.6-13.1,4.5-13.7,11.4c0,0.4-0.1,0.8-0.1,1.1v43.6
		c0,3.2,1.2,6.3,3.5,8.5c3.6,3.6,21.7,21.8,25.7,25.6c0,0,0.1,0.1,0.1,0.2l2.2,16.3H460v0l-2.6-19.7c-0.2-1.4-1.2-2.4-3.7-4.8
		c-0.3-0.3-0.6-0.5-0.8-0.7l-23.8-23.8c-0.7-1-0.7-1.3-0.7-1.4v-8.8c0.4,0.6,0.8,1.1,1.3,1.6l20.6,20.5c1.1,1.4,2.7,2.2,4.5,2.1
		c1.6-0.1,3.1-1,4.1-2.3c1.3-2.2,0.4-5-1.1-6.6l-20.8-21c-0.3-0.3-0.4-0.6-0.4-1c0-0.4,0.2-0.8,0.4-1c0.6-0.5,1.6-0.5,2.1,0.1
		l0.1,0.1c1.6,1.5,5.1,4.7,5.8,5.5c0.8,0.8,1.5,1.6,2.3,2.4c4.1,4.2,8.7,9.1,14.2,12.3c1,0.6,2.1,1.2,3.1,1.8l0.2,0.1
		c4.7,2.6,8.1,4.5,10.3,9c2.3,4.7,3.3,10.5,3,18.5v0.1l0.9,16.9v0.1l0,0.3h10.2L489.2,520.4z M433.2,443.8c-1.2,0.6-2.3,1.3-3.3,2.3
		c-0.5,0.5-1,1-1.4,1.6v-21.5c0-0.6,0.3-1.3,0.8-1.7c0.4-0.4,1-0.6,1.6-0.6h0.2c1.2,0.1,2.1,1.3,2.1,2.7V443.8z M562.8,413.7
		c-0.4,0-0.8,0-1.1,0.1c-6.2,0.5-11.2,6.3-11.2,12.9v17.4c-1.1,0.5-2.1,1.2-2.9,2.1c-0.6,0.5-4.9,4.5-6.1,5.7
		c-0.8,0.8-1.6,1.6-2.4,2.4c-3.8,4-7.7,8-12.1,10.6c-1,0.6-2,1.1-2.9,1.6l-0.2,0.1c-5.4,3-11,6-14.6,13.5c-3,6.1-4.3,13.4-4.1,22.9
		l-0.7,17.3v0h10.2v0l0.9-17.3c0-0.7,0-1.3,0-1.9c0-6.9,1-12.3,3-16.6c2.2-4.5,5.6-6.4,10.3-9l0.2-0.1c1-0.6,2-1.1,3.1-1.7
		c5.6-3.3,10.2-8.1,14.2-12.3c0.8-0.8,1.5-1.6,2.3-2.4c0.8-0.8,4.2-4,5.8-5.5l0.1-0.1c0.6-0.6,1.5-0.6,2.1-0.1
		c0.3,0.3,0.4,0.7,0.4,1c0,0.4-0.2,0.8-0.4,1l-20.8,21c-1.5,1.6-2.4,4.4-1.1,6.6c1,1.3,2.5,2.2,4.1,2.3c1.7,0.1,3.4-0.7,4.5-2.1
		l20.6-20.5c0.5-0.5,0.9-1,1.3-1.6v8.8c0,0.1,0,0.4-0.7,1.4L540.8,495c-0.2,0.2-0.5,0.5-0.8,0.7c-2.5,2.3-3.5,3.4-3.7,4.8l-2.6,19.7
		H544l2.1-16.3c0-0.1,0-0.1,0.1-0.1c4-3.8,22.1-22,25.7-25.6c2.3-2.2,3.6-5.3,3.5-8.5v-43.4C575.4,419.3,569.7,413.7,562.8,413.7z
		 M565.4,447.7c-0.4-0.6-0.8-1.1-1.3-1.6c-1-1-2.1-1.7-3.3-2.3v-17.2c0-1.4,0.9-2.6,2.1-2.7h0.2c0.6,0,1.2,0.2,1.6,0.6
		c0.5,0.4,0.8,1,0.8,1.7L565.4,447.7z"/>
</g>
<polyline class="st1" points="544,520.2 514.7,520.3 504.5,520.3 489.2,520.3 479,520.4 460,520.4 449.7,520.4 "/>
</svg>
