<?xml version="1.0" encoding="utf-8"?>
<!-- Generator: Adobe Illustrator 26.0.1, SVG Export Plug-In . SVG Version: 6.00 Build 0)  -->
<svg version="1.1" id="Layer_1" xmlns="http://www.w3.org/2000/svg" xmlns:xlink="http://www.w3.org/1999/xlink" x="0px" y="0px"
	 viewBox="0 0 157.2 126.2" style="enable-background:new 0 0 157.2 126.2;" xml:space="preserve">
<style type="text/css">
	.st0{fill:#FFFFFF;}
	.st1{fill:none;}
	.st2{fill:#01519C;}
	.st3{fill:#FDB913;}
	.st4{clip-path:url(#SVGID_00000183215570915592980320000007468806242804863159_);fill:#FDB913;}
	.st5{clip-path:url(#SVGID_00000070118370472427200030000004100813428408570281_);fill:#FDB913;}
	.st6{clip-path:url(#SVGID_00000126325042810015111980000018185065904488313013_);fill:#FDB913;}
	.st7{clip-path:url(#SVGID_00000075864185524620168310000015391062707654525852_);fill:#FDB913;}
	.st8{clip-path:url(#SVGID_00000056403709585038254040000011851932949450091442_);fill:#FDB913;}
	.st9{fill:#ED7F22;}
	.st10{fill:#ED328C;}
	.st11{fill:#39B54A;}
	.st12{fill:#A6CE39;}
</style>
<path class="st0" d="M145.8,68.1l-20.6,20.5c-1.1,1.4-2.8,2.2-4.5,2.1c-1.6-0.1-3.1-1-4.1-2.3c-1.3-2.2-0.4-5,1.1-6.6l20.8-21
	c0.2-0.2,0.4-0.6,0.4-1c0-0.3-0.1-0.7-0.4-1c-0.6-0.5-1.5-0.5-2.1,0.1l-0.1,0.1c-1.6,1.5-5,4.7-5.8,5.5c-0.8,0.8-1.5,1.6-2.3,2.4
	c-4,4.2-8.6,9-14.2,12.3c-1.1,0.6-2.1,1.1-3.1,1.7l-0.2,0.1c-4.7,2.6-8.1,4.5-10.3,9c-2,4.3-3,9.6-3,16.6c0,0.6,0,1.3,0,1.9
	l-0.9,17.3l29.3-0.1h-10.3l2.6-19.7c0.2-1.4,1.2-2.5,3.7-4.8c0.3-0.2,0.6-0.5,0.8-0.7l23.8-23.8c0.7-1,0.7-1.3,0.7-1.4v-8.8
	C146.7,67.1,146.3,67.6,145.8,68.1z"/>
<path class="st0" d="M71,126.2H60.8l0-0.3H31.5l-2.2-16.3c0-0.1-0.1-0.2-0.1-0.2c-4-3.8-22.1-22-25.7-25.6C1.2,81.6,0,78.5,0,75.3
	V31.7c0-0.3,0.1-0.7,0.1-1.1c0.6-6.9,6.8-12,13.7-11.4c6.3,0.6,11.3,6.3,11.3,12.9v17.4c1.1,0.5,2.1,1.2,2.9,2.1
	c0.6,0.5,5,4.5,6.1,5.7c0.8,0.8,1.6,1.6,2.4,2.4c3.9,4,7.7,8,12.1,10.6c1,0.6,2,1.1,2.9,1.6l0.2,0.1c5.3,3,10.9,6.1,14.5,13.5
	c3,6.2,4.3,13.5,4.1,23l0.7,17.3v0.1L71,126.2z"/>
<path class="st0" d="M108.7,38.2L79,68l-0.3-0.2L78.4,68L48.7,38.2c-8-8.1-8.6-21-1.4-29.9c7.8-9.6,21.8-11,31.4-3.2
	c8.9-7.3,21.9-6.6,30,1.5C117.4,15.4,117.4,29.5,108.7,38.2z"/>
<path class="st0" d="M157.2,31.8v43.4c0.1,3.2-1.2,6.3-3.5,8.5c-3.6,3.6-21.7,21.8-25.7,25.6c-0.1,0-0.1,0-0.1,0.1l-2.1,16.3h-10.3
	l2.6-19.7c0.2-1.4,1.2-2.5,3.7-4.8c0.3-0.2,0.6-0.5,0.8-0.7l23.8-23.8c0.7-1,0.7-1.3,0.7-1.4v-8.8c-0.4,0.6-0.8,1.1-1.3,1.6
	l-20.6,20.5c-1.1,1.4-2.8,2.2-4.5,2.1c-1.6-0.1-3.1-1-4.1-2.3c-1.3-2.2-0.4-5,1.1-6.6l20.8-21c0.2-0.2,0.4-0.6,0.4-1
	c0-0.3-0.1-0.7-0.4-1c-0.6-0.5-1.5-0.5-2.1,0.1l-0.1,0.1c-1.6,1.5-5,4.7-5.8,5.5c-0.8,0.8-1.5,1.6-2.3,2.4c-4,4.2-8.6,9-14.2,12.3
	c-1.1,0.6-2.1,1.1-3.1,1.7l-0.2,0.1c-4.7,2.6-8.1,4.5-10.3,9c-2,4.3-3,9.6-3,16.6c0,0.6,0,1.3,0,1.9l-0.9,17.3v0H86.3v0l0.7-17.3
	c-0.2-9.5,1.1-16.8,4.1-22.9c3.6-7.5,9.2-10.5,14.6-13.5l0.2-0.1c0.9-0.5,1.9-1,2.9-1.6c4.4-2.6,8.3-6.6,12.1-10.6
	c0.8-0.8,1.6-1.6,2.4-2.4c1.2-1.2,5.5-5.2,6.1-5.7c0.8-0.9,1.8-1.6,2.9-2.1V32.2c0-6.6,5-12.4,11.2-12.9c0.3-0.1,0.7-0.1,1.1-0.1
	C151.5,19.2,157.2,24.8,157.2,31.8z"/>
<g>
	<path class="st1" d="M249.6-505.6c0-8.2-6.7-14.9-15-14.9s-15,6.7-15,14.9c0,8.3,6.7,15,15,15S249.6-497.3,249.6-505.6z
		 M230.6-498.4c-0.8-0.9-1.3-2.1-1.3-3.3h3c0,0.6,0.2,1.1,0.5,1.5s0.7,0.6,1.2,0.6v-3.9c-1.4-0.4-2.7-1-3.8-1.9
		c-0.7-0.8-1.1-1.8-1.1-2.9c-0.1-1.2,0.4-2.4,1.3-3.3c1-0.9,2.3-1.4,3.6-1.4v-2.1h1.3v2.1c1.4,0,2.7,0.5,3.7,1.4
		c0.9,1,1.3,2.3,1.2,3.7h-2.9c0-0.7-0.2-1.3-0.6-1.9c-0.3-0.4-0.9-0.8-1.4-0.9v4.5c1.3,0.2,2.6,0.8,3.6,1.7c0.7,0.8,1.1,1.8,1.1,2.8
		c0,1.2-0.4,2.4-1.3,3.2c-0.9,0.8-2.1,1.3-3.4,1.3v1.4H234v-1.4C232.7-497.1,231.5-497.6,230.6-498.4z"/>
	<path class="st1" d="M237-501.3c0-0.4-0.1-0.8-0.4-1.1c-0.4-0.4-0.8-0.6-1.3-0.8v3.7c0.5,0,0.9-0.2,1.3-0.6
		C236.9-500.4,237.1-500.9,237-501.3z"/>
	<path class="st1" d="M234-506.5v-4.1c-0.5,0-1,0.3-1.4,0.7c-0.3,0.4-0.5,0.9-0.5,1.4s0.1,0.9,0.4,1.3
		C233-507,233.4-506.7,234-506.5L234-506.5z"/>
	<path class="st1" d="M180.2-539.5c11.3,0,20.4-9.1,20.4-20.4c0-11.3-9.1-20.4-20.4-20.4s-20.4,9.1-20.4,20.4
		C159.7-548.6,168.9-539.5,180.2-539.5z"/>
	<path class="st2" d="M184.2-519.3c-1.4,0.1-2.7,0.2-4.1,0.2c-3.7,0-7.3-0.5-10.8-1.5c-6.7,9.1-19.5,11-28.6,4.4
		c-9.1-6.7-11-19.4-4.4-28.5c1.2-1.7,2.7-3.1,4.4-4.4c-1-3.5-1.5-7.1-1.5-10.8c0-1.4,0.1-2.7,0.2-4.1c-17.3,7.3-25.4,27.3-18,44.6
		c5.4,12.5,17.7,20.7,31.4,20.7C166.5-498.7,178.9-506.8,184.2-519.3z"/>
	<path class="st2" d="M196.5-505.6c0,2.3,1.8,4.1,4.1,4.1c2.3,0,4.1-1.8,4.1-4.1c0-2.2-1.8-4.1-4.1-4.1
		C198.3-509.6,196.5-507.8,196.5-505.6z"/>
	<path class="st2" d="M180.2-525.9c18.8,0,34.1-15.2,34.1-34s-15.2-34-34.1-34c-18.8,0-34.1,15.2-34.1,34
		C146.1-541.2,161.3-525.9,180.2-525.9z M180.2-580.3c11.3,0,20.4,9.1,20.4,20.4c0,11.3-9.1,20.4-20.4,20.4s-20.4-9.1-20.4-20.4
		C159.7-571.2,168.9-580.3,180.2-580.3z"/>
	<path class="st2" d="M235.3-495.7v-1.4c1.3,0,2.5-0.4,3.4-1.3c0.9-0.9,1.3-2,1.3-3.2c0.1-1-0.3-2.1-1.1-2.8
		c-1.1-0.9-2.3-1.4-3.6-1.7v-4.5c0.6,0.1,1.1,0.4,1.4,0.9c0.4,0.6,0.6,1.2,0.6,1.9h2.9c0.1-1.3-0.4-2.7-1.2-3.7
		c-1-0.9-2.3-1.4-3.7-1.4v-2.1H234v2.1c-1.3,0-2.6,0.6-3.6,1.4c-0.9,0.9-1.3,2.1-1.3,3.3c0,1.1,0.3,2.1,1.1,2.9
		c1.1,0.9,2.4,1.6,3.8,1.9v3.9c-0.5,0-0.9-0.2-1.2-0.6s-0.5-1-0.5-1.5h-3c0,1.2,0.5,2.4,1.3,3.3c0.9,0.8,2.1,1.3,3.3,1.3v1.4
		L235.3-495.7L235.3-495.7z M235.3-503.2c0.5,0.1,1,0.4,1.3,0.8c0.3,0.3,0.4,0.7,0.4,1.1s-0.1,0.9-0.5,1.3c-0.3,0.3-0.8,0.6-1.3,0.6
		v-3.8H235.3z M232.6-507.4c-0.3-0.3-0.5-0.8-0.4-1.3c0-0.5,0.2-1,0.5-1.4c0.4-0.4,0.8-0.6,1.4-0.7v4.1l0,0
		C233.4-506.7,233-507,232.6-507.4z"/>
	<path class="st2" d="M215-542.9c-2.6,5.3-6.4,10-11.1,13.6h85.2v47.6h-109v-23.4c-3.9,3.8-8.5,6.8-13.6,8.7v28.3h136.3v-74.7
		L215-542.9L215-542.9z"/>
	<path class="st2" d="M272.8-505.6c0-2.2-1.8-4.1-4.1-4.1c-2.3,0-4.1,1.8-4.1,4.1c0,2.3,1.8,4.1,4.1,4.1
		C271-501.5,272.8-503.3,272.8-505.6z"/>
	<path class="st2" d="M254.4-505.6c0-10.9-8.8-19.7-19.8-19.7c-10.9,0-19.8,8.8-19.8,19.7c0,10.9,8.8,19.7,19.8,19.7
		S254.4-494.7,254.4-505.6z M219.7-505.6c0-8.2,6.7-14.9,15-14.9c8.3,0,15,6.7,15,14.9c0,8.3-6.7,15-15,15
		C226.4-490.6,219.7-497.3,219.7-505.6z"/>
</g>
<g>
	<path class="st3" d="M-271.2-631.4l15.1-26.2h30.3l15.1,26.2l-15.1,26.2h-30.3L-271.2-631.4z M-262.3-668.4l-21.4,37.1l21.4,37.1
		h42.8l21.4-37.1l-21.4-37.1H-262.3z"/>
	<path class="st3" d="M-216.4-599.7l15.1-26.2h30.3l15.1,26.2l-15.1,26.2h-30.2L-216.4-599.7z M-207.5-636.8l-21.4,37.1l21.4,37.1
		h42.8l21.4-37.1l-21.4-37.1H-207.5z"/>
	<path class="st3" d="M-271.2-568.1l15.1-26.2h30.3l15.1,26.2l-15.1,26.2h-30.3L-271.2-568.1z M-262.3-605.2l-21.4,37.1l21.4,37.1
		h42.8l21.4-37.1l-21.4-37.1H-262.3z"/>
	<g>
		<g>
			<defs>
				<rect id="SVGID_1_" x="-283.7" y="-668.4" width="140.4" height="137.4"/>
			</defs>
			<clipPath id="SVGID_00000085949857206274172470000007772250429784687035_">
				<use xlink:href="#SVGID_1_"  style="overflow:visible;"/>
			</clipPath>
			<path style="clip-path:url(#SVGID_00000085949857206274172470000007772250429784687035_);fill:#FDB913;" d="M-240.8-637.8
				c-2.7,0-4.9-2.1-4.9-4.8v-0.1c0-2.7,2.1-4.8,4.8-4.9c2.7,0,4.9,2.1,4.9,4.8C-235.9-640-238.1-637.8-240.8-637.8 M-240.9-652.5
				L-240.9-652.5c-5.4-0.1-9.9,4.3-9.9,9.7c-0.1,5.4,4.3,9.9,9.7,9.9c5.4,0.1,9.9-4.3,9.9-9.7v-0.1
				C-231.2-648.1-235.5-652.5-240.9-652.5"/>
		</g>
		<g>
			<defs>
				<rect id="SVGID_00000158007282938412842720000010126343549007033752_" x="-283.7" y="-668.4" width="140.4" height="137.4"/>
			</defs>
			<clipPath id="SVGID_00000161617740608426355870000002697158657654165168_">
				<use xlink:href="#SVGID_00000158007282938412842720000010126343549007033752_"  style="overflow:visible;"/>
			</clipPath>
			<path style="clip-path:url(#SVGID_00000161617740608426355870000002697158657654165168_);fill:#FDB913;" d="M-230.9-601.8h-20
				v-20.6c0-0.8,0.6-1.4,1.4-1.4h17.2l0,0c0.8,0,1.4,0.6,1.4,1.4L-230.9-601.8L-230.9-601.8z M-232.3-628.8h-17.2
				c-3.5,0-6.3,2.9-6.3,6.4v25.5h29.8v-25.5C-226-625.9-228.8-628.8-232.3-628.8"/>
		</g>
		<g>
			<defs>
				<rect id="SVGID_00000088126667521202918410000009651600552715211405_" x="-283.7" y="-668.4" width="140.4" height="137.4"/>
			</defs>
			<clipPath id="SVGID_00000014614210131201464360000002982048115936165785_">
				<use xlink:href="#SVGID_00000088126667521202918410000009651600552715211405_"  style="overflow:visible;"/>
			</clipPath>
			<path style="clip-path:url(#SVGID_00000014614210131201464360000002982048115936165785_);fill:#FDB913;" d="M-185.4-603.5
				c-2.6,0-4.7-2-4.8-4.6v-0.1c0-2.6,2.1-4.7,4.6-4.7c2.6,0,4.7,2,4.8,4.6C-180.7-605.7-182.8-603.5-185.4-603.5 M-185.5-617.7
				L-185.5-617.7c-5.3-0.1-9.6,4.1-9.6,9.4c0,5.3,4.1,9.5,9.4,9.6c5.3,0.1,9.6-4.1,9.6-9.4v-0.1C-176-613.4-180.3-617.7-185.5-617.7
				"/>
		</g>
		<g>
			<defs>
				<rect id="SVGID_00000039846364415516770280000001472989560538635967_" x="-283.7" y="-668.4" width="140.4" height="137.4"/>
			</defs>
			<clipPath id="SVGID_00000104695926185364142950000003010627832667134621_">
				<use xlink:href="#SVGID_00000039846364415516770280000001472989560538635967_"  style="overflow:visible;"/>
			</clipPath>
			<path style="clip-path:url(#SVGID_00000104695926185364142950000003010627832667134621_);fill:#FDB913;" d="M-175.8-568.7h-19.3
				v-19.9c0-0.7,0.6-1.4,1.3-1.4h16.6l0,0c0.8,0,1.4,0.6,1.4,1.4L-175.8-568.7L-175.8-568.7z M-177.2-594.8h-16.7
				c-3.4,0-6.1,2.8-6.1,6.2v24.7h28.8v-24.7C-171-592-173.8-594.8-177.2-594.8"/>
		</g>
		<g>
			<defs>
				<rect id="SVGID_00000103227073782435379290000005739051999925442197_" x="-283.7" y="-668.4" width="140.4" height="137.4"/>
			</defs>
			<clipPath id="SVGID_00000007386763432854442390000013282642318311913142_">
				<use xlink:href="#SVGID_00000103227073782435379290000005739051999925442197_"  style="overflow:visible;"/>
			</clipPath>
			<path style="clip-path:url(#SVGID_00000007386763432854442390000013282642318311913142_);fill:#FDB913;" d="M-235.8-550.4
				c-0.9,0.7-1.9,1.3-3.4,1.5V-559c1.6,0.5,2.8,1.2,3.4,2c0.7,0.7,1.1,1.8,1.1,3.1C-234.6-552.5-235-551.3-235.8-550.4
				 M-242.5-567.6c-1.6-0.5-2.7-1.1-3.3-1.8c-0.7-0.7-1.1-1.7-1.1-2.8c0-1.3,0.3-2.4,1.1-3.2c0.8-0.7,1.9-1.2,3.3-1.4V-567.6z
				 M-229.8-561.9c-1.9-1.7-5.1-3.3-9.6-4.8v-9.9c1.3,0.2,2.3,0.7,3,1.5c0.6,0.9,1,2.2,1.1,3.9h7.4c-0.2-3.6-1.3-6.3-3.2-8.3
				c-2-2-4.7-3-8.3-3.2v-3.5h-3.2v3.5c-3.6,0-6.3,1-8.5,3.1c-2.1,2.1-3.2,4.7-3.2,8.1c0,3,0.9,5.4,2.7,7.1c1.8,1.7,4.7,3.1,9.1,4.2
				v11.3c-1.6-0.3-2.8-1.1-3.8-2c-0.8-1.2-1.3-2.7-1.4-4.7h-7.3c0,4.1,1,7.1,3.1,9.3c2.1,2.1,5.1,3.2,9.3,3.5v5.3h3.2v-5.3
				c3.9-0.4,6.9-1.5,9.1-3.6c2.1-2.1,3.2-4.9,3.2-8.4C-227.1-557.7-228-560.1-229.8-561.9"/>
		</g>
	</g>
</g>
<g>
	<path class="st9" d="M-274-323.8L-274-323.8h-42.5c-1.9,0-3.4,1.6-3.4,3.5v50.8h49.4v-50.8C-270.6-322.2-272.1-323.8-274-323.8
		 M-360.2-323.8L-360.2-323.8h-42.5c-1.9,0-3.4,1.6-3.4,3.5v50.8h49.4v-50.8C-356.7-322.2-358.2-323.8-360.2-323.8 M-316.5-336h42.5
		c8.6,0.1,15.6,7.1,15.6,15.8v63.1h-73.7v-63.1C-332.1-329-325.2-336-316.5-336 M-402.7-336h42.5l0,0c8.6,0.1,15.6,7.1,15.6,15.8
		v63.1h-73.6v-63.1C-418.3-329-411.3-336-402.7-336 M-295.9-382.3c-6.6,0.1-11.9,5.4-11.9,12v0.2c0.1,6.6,5.5,12,12.2,11.9
		c6.6-0.1,11.9-5.5,11.9-12.2C-283.8-377.1-289.2-382.4-295.9-382.3 M-381.4-382.3c-6.6,0.1-11.9,5.4-11.9,12v0.2
		c0.1,6.6,5.5,12,12.2,11.9c6.6-0.1,12-5.5,11.9-12.2C-369.3-377.1-374.8-382.4-381.4-382.3 M-295.9-394.6L-295.9-394.6
		c13.3,0.1,24.1,10.9,24,24.3v0.3c-0.2,13.4-11.1,24.2-24.5,24s-24.2-11.1-24-24.5C-320.3-384-309.3-394.8-295.9-394.6
		 M-381.4-394.6L-381.4-394.6c13.3,0.1,24.1,10.9,24,24.3c0,0.1,0,0.2,0,0.3c-0.1,13.4-11.1,24.2-24.5,24s-24.1-11.1-24-24.5
		C-405.8-384-394.8-394.8-381.4-394.6"/>
</g>
<g>
	<path class="st10" d="M18.4-405.6c-7.1,0-13.3-4.4-15.7-11.1v-0.1c-0.5-1.5-1.6-2.1-2.2-2.3c-0.6-0.3-1.8-0.6-3.3,0.1l-0.6,0.3
		c-6.3,2.7-13.4,1.3-18.3-3.6c-5-5-6.3-12.3-3.4-18.7l0.1-0.3c0.7-1.4,0.3-2.7,0.1-3.3c-0.3-0.6-0.9-1.7-2.3-2.3h-0.1
		c-6.7-2.4-11-8.6-11-15.7s4.3-13.3,11-15.7h0.1c1.4-0.5,2.1-1.6,2.3-2.3c0.3-0.6,0.6-1.8-0.1-3.3l-0.1-0.1
		c-3-6.4-1.7-13.8,3.4-18.9c5-5,12.2-6.3,18.6-3.4l0.3,0.1c1.4,0.7,2.7,0.3,3.3,0.1c0.6-0.3,1.7-0.9,2.2-2.3v-0.1
		c2.4-6.7,8.5-11,15.7-11c7,0,13.1,4.2,15.5,10.7v0.1l0.1,0.4c0.5,1.4,1.6,2.1,2.3,2.3c0.6,0.3,1.8,0.6,3.3-0.1l0.3-0.1
		c6.4-2.9,13.6-1.6,18.6,3.4c5.1,5.1,6.3,12.5,3.3,19v0.1c-0.6,1.4-0.3,2.6-0.1,3.2c0.3,0.6,0.9,1.7,2.3,2.3l0.4,0.1
		c6.5,2.5,10.7,8.6,10.7,15.6s-4.2,13.1-10.7,15.6h-0.1l-0.4,0.1c-1.4,0.5-2.1,1.6-2.3,2.3c-0.3,0.6-0.6,1.8,0.1,3.2
		c3.1,6.4,1.8,13.9-3.3,19c-4.9,4.9-12,6.3-18.3,3.6H40l-0.5-0.3c-1.4-0.7-2.7-0.3-3.3-0.1c-0.6,0.3-1.7,0.9-2.3,2.3l-0.1,0.4
		C31.5-409.8,25.5-405.6,18.4-405.6 M14.7-420.9c0.9,2.4,2.9,2.7,3.8,2.7c0.8,0,2.9-0.2,3.8-2.7l0.1-0.4c1.7-4.3,4.9-7.7,9.2-9.4
		c4.1-1.7,8.8-1.7,12.9,0.1h0.1l0.5,0.3c2.3,1.1,4-0.2,4.5-0.8c0.6-0.6,1.9-2.3,0.8-4.5c-2-4.3-2.1-9.2-0.3-13.5
		c1.8-4.3,5.2-7.6,9.4-9.2h0.1l0.4-0.1c2.4-0.9,2.7-2.9,2.7-3.8s-0.3-2.9-2.7-3.8l-0.4-0.1c-4.2-1.7-7.7-4.9-9.4-9.2
		c-1.8-4.4-1.7-9.3,0.3-13.5v-0.1c1.1-2.3-0.2-3.9-0.8-4.5c-0.6-0.6-2.3-1.9-4.5-0.8l-0.3,0.1c-4.2,1.9-9,2-13.3,0.2
		c-4.2-1.8-7.5-5.2-9.2-9.4v-0.1l-0.1-0.4c-0.9-2.4-2.9-2.7-3.8-2.7c-0.8,0-2.9,0.3-3.8,2.7v0.1c-1.6,4.5-5,8.1-9.3,9.8
		c-4.2,1.8-9,1.7-13.3-0.2l-0.3-0.1c-2.3-1.1-4,0.2-4.5,0.8c-0.6,0.6-1.9,2.3-0.8,4.5l0.1,0.1c2,4.2,2.1,9.1,0.3,13.4
		c-1.8,4.3-5.4,7.7-9.7,9.3h-0.1c-2.4,0.9-2.7,2.9-2.7,3.8s0.3,2.9,2.7,3.8h0.1c4.4,1.6,8,5,9.7,9.3c1.8,4.2,1.7,9-0.2,13.3
		l-0.1,0.3c-1.1,2.3,0.2,4,0.8,4.5c0.6,0.6,2.3,1.9,4.5,0.8l0.6-0.3c4.1-1.8,8.8-1.8,12.9-0.1C9.7-429,13.1-425.4,14.7-420.9
		 M18.4-437.3c-14,0-25.3-11.3-25.3-25.3s11.3-25.3,25.3-25.3s25.3,11.3,25.3,25.3S32.4-437.3,18.4-437.3 M18.4-475.3
		c-6.9,0-12.6,5.7-12.6,12.7s5.7,12.7,12.6,12.7c7,0,12.6-5.7,12.6-12.7C31.1-469.6,25.4-475.3,18.4-475.3 M5.1-406.7l-4.4,13.9
		L-8-401l-11.8,1.7l4.6-14.9c-3.5-0.9-6.6-2.7-9.3-5.4c-0.6-0.6-1.2-1.3-1.7-1.9l-11.6,37.6l25.6-3.8l19,17.7l10-32
		C12.4-402.2,8.3-404,5.1-406.7 M61.3-419.6c-2.7,2.7-5.8,4.4-9.3,5.4l4.6,14.9L44.8-401l-8.6,8.2l-4.3-13.9
		c-3.2,2.8-7.3,4.6-11.7,4.9l10,32l19-17.7l25.6,3.8L63-421.4C62.4-420.9,61.8-420.2,61.3-419.6"/>
</g>
<g>
	<path class="st0" d="M414.7,93.5c-2.8,6.8-6.5,13.2-11,19l6,12.3c0.2,0.4,0.3,0.9,0.4,1.3H398l-4.3-8.8c-7.3-0.1-14.6-1.1-21.7-3.1
		c-18.5-5.2-32.4-16.5-40.3-32.7c-14.7-30.2-5.2-69.9-0.5-85.5H364c17.2,8.9,39.3,23.8,49.9,45.6C421.7,57.8,422,75.8,414.7,93.5z"
		/>
	<g>
		<path class="st11" d="M413.9,41.6C403.3,19.9,381.2,4.9,364-3.9c-12.7-6.5-22.7-9.8-23.7-10l-5-1.6l-1.9,5c-0.2,0.4-1,2.8-2.2,6.6
			c-4.7,15.6-14.2,55.2,0.5,85.5c7.9,16.2,21.8,27.5,40.3,32.7c7.1,2,14.4,3,21.7,3.1l4.3,8.8l1.7,3.5c1.4,2.8,4.7,3.9,7.4,2.6
			c2.4-1.1,3.5-3.7,3-6.1c-0.1-0.4-0.2-0.9-0.4-1.3l-6-12.3c4.5-5.8,8.2-12.2,11-19C422,75.8,421.7,57.8,413.9,41.6z M404.5,88.8
			c-1.7,4.3-3.9,8.3-6.4,12.2l-9.3-19.2l8.7-14.8c1.6-2.7,0.7-6.1-2-7.6c-2.7-1.6-6.1-0.7-7.6,2l-4.9,8.3l-4.9-10l8.7-14.8
			c1.6-2.7,0.7-6.1-2-7.7s-6.1-0.7-7.6,2l-4.9,8.4l-11.6-23.7c-1.4-2.7-4.7-3.9-7.5-2.5c-2.7,1.4-3.9,4.7-2.5,7.5l11.5,23.7
			l-9.6-1.3c-3.1-0.5-5.9,1.6-6.4,4.6s1.6,5.9,4.6,6.4h0.3l16.9,2.3l4.8,9.9l-9.6-1.4c-3-0.5-5.9,1.5-6.4,4.6
			c-0.5,3,1.5,5.9,4.6,6.4c0.1,0,0.2,0,0.3,0.1l17.2,2.5l9.3,19.2c-4.6-0.4-9.1-1.2-13.5-2.5c-15.4-4.4-26.5-13.4-33-26.7
			c-13.1-27-3.8-64.5,0.4-78.1c13.3,5.1,48.6,20.8,61.7,47.9C410.3,59.7,410.6,74,404.5,88.8z"/>
	</g>
</g>
<g>
	<path class="st12" d="M108.7,6.6c-8.1-8.1-21.1-8.8-30-1.5c-9.6-7.8-23.6-6.4-31.4,3.2c-7.2,8.9-6.6,21.8,1.4,29.9L78.4,68l0.3-0.2
		L79,68l29.7-29.8C117.4,29.5,117.4,15.4,108.7,6.6z M101.4,31.1L78.9,53.6l-0.3-0.2l-0.3,0.2L55.8,31.1c-4.7-4.7-4.8-12.4,0-17.2
		c2.4-2.3,5.5-3.6,8.7-3.6s6.3,1.3,8.6,3.6l5.6,5.6l5.6-5.6c4.7-4.7,12.4-4.7,17.1,0C106.1,18.7,106.1,26.3,101.4,31.1z M71,125.9
		L71,125.9l-0.7-17.4c0.2-9.5-1.1-16.8-4.1-23C62.6,78.1,57,75,51.7,72l-0.2-0.1c-0.9-0.5-1.9-1-2.9-1.6c-4.4-2.6-8.2-6.6-12.1-10.6
		c-0.8-0.8-1.6-1.6-2.4-2.4c-1.1-1.2-5.5-5.2-6.1-5.7c-0.8-0.9-1.8-1.6-2.9-2.1V32.1c0-6.6-5-12.3-11.3-12.9
		C6.9,18.6,0.7,23.7,0.1,30.6C0.1,31,0,31.4,0,31.7v43.6c0,3.2,1.2,6.3,3.5,8.5c3.6,3.6,21.7,21.8,25.7,25.6c0,0,0.1,0.1,0.1,0.2
		l2.2,16.3h10.3v0l-2.6-19.7c-0.2-1.4-1.2-2.4-3.7-4.8c-0.3-0.3-0.6-0.5-0.8-0.7L10.9,76.9c-0.7-1-0.7-1.3-0.7-1.4v-8.8
		c0.4,0.6,0.8,1.1,1.3,1.6l20.6,20.5c1.1,1.4,2.7,2.2,4.5,2.1c1.6-0.1,3.1-1,4.1-2.3c1.3-2.2,0.4-5-1.1-6.6L18.8,61
		c-0.3-0.3-0.4-0.6-0.4-1c0-0.4,0.2-0.8,0.4-1c0.6-0.5,1.6-0.5,2.1,0.1l0.1,0.1c1.6,1.5,5.1,4.7,5.8,5.5c0.8,0.8,1.5,1.6,2.3,2.4
		c4.1,4.2,8.7,9.1,14.2,12.3c1,0.6,2.1,1.2,3.1,1.8l0.2,0.1c4.7,2.6,8.1,4.5,10.3,9c2.3,4.7,3.3,10.5,3,18.5v0.1l0.9,16.9v0.1l0,0.3
		H71L71,125.9z M15,49.3c-1.2,0.6-2.3,1.3-3.3,2.3c-0.5,0.5-1,1-1.4,1.6V31.7c0-0.6,0.3-1.3,0.8-1.7c0.4-0.4,1-0.6,1.6-0.6h0.2
		c1.2,0.1,2.1,1.3,2.1,2.7V49.3z M144.6,19.2c-0.4,0-0.8,0-1.1,0.1c-6.2,0.5-11.2,6.3-11.2,12.9v17.4c-1.1,0.5-2.1,1.2-2.9,2.1
		c-0.6,0.5-4.9,4.5-6.1,5.7c-0.8,0.8-1.6,1.6-2.4,2.4c-3.8,4-7.7,8-12.1,10.6c-1,0.6-2,1.1-2.9,1.6l-0.2,0.1c-5.4,3-11,6-14.6,13.5
		c-3,6.1-4.3,13.4-4.1,22.9l-0.7,17.3v0h10.2v0l0.9-17.3c0-0.7,0-1.3,0-1.9c0-6.9,1-12.3,3-16.6c2.2-4.5,5.6-6.4,10.3-9l0.2-0.1
		c1-0.6,2-1.1,3.1-1.7c5.6-3.3,10.2-8.1,14.2-12.3c0.8-0.8,1.5-1.6,2.3-2.4c0.8-0.8,4.2-4,5.8-5.5l0.1-0.1c0.6-0.6,1.5-0.6,2.1-0.1
		c0.3,0.3,0.4,0.7,0.4,1c0,0.4-0.2,0.8-0.4,1l-20.8,21c-1.5,1.6-2.4,4.4-1.1,6.6c1,1.3,2.5,2.2,4.1,2.3c1.7,0.1,3.4-0.7,4.5-2.1
		l20.6-20.5c0.5-0.5,0.9-1,1.3-1.6v8.8c0,0.1,0,0.4-0.7,1.4l-23.8,23.8c-0.2,0.2-0.5,0.5-0.8,0.7c-2.5,2.3-3.5,3.4-3.7,4.8
		l-2.6,19.7h10.3l2.1-16.3c0-0.1,0-0.1,0.1-0.1c4-3.8,22.1-22,25.7-25.6c2.3-2.2,3.6-5.3,3.5-8.5V31.8
		C157.2,24.8,151.5,19.2,144.6,19.2z M147.2,53.2c-0.4-0.6-0.8-1.1-1.3-1.6c-1-1-2.1-1.7-3.3-2.3V32.1c0-1.4,0.9-2.6,2.1-2.7h0.2
		c0.6,0,1.2,0.2,1.6,0.6c0.5,0.4,0.8,1,0.8,1.7L147.2,53.2z"/>
</g>
<polyline class="st1" points="125.8,125.7 96.5,125.7 86.3,125.7 71,125.8 60.8,125.8 41.8,125.8 31.5,125.9 "/>
</svg>
