<?xml version="1.0" encoding="utf-8"?>
<!-- Generator: Adobe Illustrator 26.0.1, SVG Export Plug-In . SVG Version: 6.00 Build 0)  -->
<svg version="1.1" id="Layer_1" xmlns="http://www.w3.org/2000/svg" xmlns:xlink="http://www.w3.org/1999/xlink" x="0px" y="0px"
	 viewBox="0 0 157.3 125.7" style="enable-background:new 0 0 157.3 125.7;" xml:space="preserve">
<style type="text/css">
	.st0{fill:none;}
	.st1{fill:#01519C;}
	.st2{fill:#FDB913;}
	.st3{clip-path:url(#SVGID_00000047749963453727609940000004525238190539484594_);fill:#FDB913;}
	.st4{fill:#ED7F22;}
	.st5{fill:#ED328C;}
	.st6{fill:#39B54A;}
	.st7{fill:#A6CE39;}
</style>
<g>
	<path class="st0" d="M246.1-494.9c0-8.2-6.7-14.9-15-14.9c-8.3,0-15,6.7-15,14.9c0,8.3,6.7,15,15,15
		C239.4-479.9,246.1-486.6,246.1-494.9z M227.1-487.7c-0.8-0.9-1.3-2.1-1.3-3.3h3c0,0.6,0.2,1.1,0.5,1.5c0.3,0.4,0.7,0.6,1.2,0.6
		v-3.9c-1.4-0.4-2.7-1-3.8-1.9c-0.7-0.8-1.1-1.8-1.1-2.9c-0.1-1.2,0.4-2.4,1.3-3.3c1-0.9,2.3-1.4,3.6-1.4v-2.1h1.3l0,2.1
		c1.4,0,2.7,0.5,3.7,1.4c0.9,1,1.3,2.3,1.2,3.7h-2.9c0-0.7-0.2-1.3-0.6-1.9c-0.3-0.4-0.9-0.8-1.4-0.9v4.5c1.3,0.2,2.6,0.8,3.6,1.7
		c0.7,0.8,1.1,1.8,1.1,2.8c0,1.2-0.4,2.4-1.3,3.2c-0.9,0.8-2.1,1.3-3.4,1.3v1.4h-1.3v-1.4C229.2-486.4,228-486.9,227.1-487.7z"/>
	<path class="st0" d="M233.5-490.6c0-0.4-0.1-0.8-0.4-1.1c-0.4-0.4-0.8-0.6-1.3-0.8v3.7c0.5,0,0.9-0.2,1.3-0.6
		C233.3-489.7,233.5-490.2,233.5-490.6z"/>
	<path class="st0" d="M230.4-495.8v-4.1c-0.5,0-1,0.3-1.4,0.7c-0.3,0.4-0.5,0.9-0.5,1.4c0,0.5,0.1,0.9,0.4,1.3
		C229.4-496.3,229.9-496,230.4-495.8L230.4-495.8z"/>
	<path class="st0" d="M176.6-528.8c11.3,0,20.4-9.1,20.4-20.4c0-11.3-9.1-20.4-20.4-20.4c-11.3,0-20.4,9.1-20.4,20.4
		C156.2-537.9,165.3-528.8,176.6-528.8z"/>
	<path class="st1" d="M180.7-508.6c-1.4,0.1-2.7,0.2-4.1,0.2c-3.7,0-7.3-0.5-10.8-1.5c-6.7,9.1-19.5,11-28.6,4.4
		c-9.1-6.7-11-19.4-4.4-28.5c1.2-1.7,2.7-3.1,4.4-4.4c-1-3.5-1.5-7.1-1.5-10.8c0-1.4,0.1-2.7,0.2-4.1c-17.3,7.3-25.4,27.3-18,44.6
		c5.4,12.5,17.7,20.7,31.4,20.7C163-488,175.3-496.1,180.7-508.6z"/>
	<path class="st1" d="M192.9-494.9c0,2.3,1.8,4.1,4.1,4.1c2.3,0,4.1-1.8,4.1-4.1c0-2.2-1.8-4.1-4.1-4.1
		C194.8-498.9,192.9-497.1,192.9-494.9z"/>
	<path class="st1" d="M176.6-515.2c18.8,0,34.1-15.2,34.1-34c0-18.8-15.2-34-34.1-34c-18.8,0-34.1,15.2-34.1,34
		C142.5-530.5,157.8-515.2,176.6-515.2z M176.6-569.6c11.3,0,20.4,9.1,20.4,20.4c0,11.3-9.1,20.4-20.4,20.4
		c-11.3,0-20.4-9.1-20.4-20.4C156.2-560.5,165.3-569.6,176.6-569.6z"/>
	<path class="st1" d="M231.7-485v-1.4c1.3,0,2.5-0.4,3.4-1.3c0.9-0.9,1.3-2,1.3-3.2c0.1-1-0.3-2.1-1.1-2.8c-1.1-0.9-2.3-1.4-3.6-1.7
		v-4.5c0.6,0.1,1.1,0.4,1.4,0.9c0.4,0.6,0.6,1.2,0.6,1.9h2.9c0.1-1.3-0.4-2.7-1.2-3.7c-1-0.9-2.3-1.4-3.7-1.4l0-2.1h-1.3v2.1
		c-1.3,0-2.6,0.6-3.6,1.4c-0.9,0.9-1.3,2.1-1.3,3.3c0,1.1,0.3,2.1,1.1,2.9c1.1,0.9,2.4,1.6,3.8,1.9v3.9c-0.5,0-0.9-0.2-1.2-0.6
		c-0.3-0.4-0.5-1-0.5-1.5h-3c0,1.2,0.5,2.4,1.3,3.3c0.9,0.8,2.1,1.3,3.3,1.3v1.4H231.7z M231.7-492.5c0.5,0.1,1,0.4,1.3,0.8
		c0.3,0.3,0.4,0.7,0.4,1.1c0,0.4-0.1,0.9-0.5,1.3c-0.3,0.3-0.8,0.6-1.3,0.6V-492.5z M229-496.7c-0.3-0.3-0.5-0.8-0.4-1.3
		c0-0.5,0.2-1,0.5-1.4c0.4-0.4,0.8-0.6,1.4-0.7v4.1l0,0C229.9-496,229.4-496.3,229-496.7z"/>
	<path class="st1" d="M211.5-532.2c-2.6,5.3-6.4,10-11.1,13.6h85.2v47.6h-109v-23.4c-3.9,3.8-8.5,6.8-13.6,8.7v28.3h136.2v-74.7
		H211.5z"/>
	<path class="st1" d="M269.2-494.9c0-2.2-1.8-4.1-4.1-4.1c-2.3,0-4.1,1.8-4.1,4.1c0,2.3,1.8,4.1,4.1,4.1
		C267.4-490.8,269.2-492.6,269.2-494.9z"/>
	<path class="st1" d="M250.8-494.9c0-10.9-8.8-19.7-19.8-19.7c-10.9,0-19.8,8.8-19.8,19.7c0,10.9,8.8,19.7,19.8,19.7
		C242-475.1,250.8-484,250.8-494.9z M216.1-494.9c0-8.2,6.7-14.9,15-14.9c8.3,0,15,6.7,15,14.9c0,8.3-6.7,15-15,15
		C222.8-479.9,216.1-486.6,216.1-494.9z"/>
</g>
<g>
	<path class="st2" d="M-274.7-620.7l15.1-26.2h30.3l15.1,26.2l-15.1,26.2h-30.3L-274.7-620.7z M-265.9-657.7l-21.4,37.1l21.4,37.1
		h42.8l21.4-37.1l-21.4-37.1H-265.9z"/>
	<path class="st2" d="M-219.9-589l15.1-26.2h30.3l15.1,26.2l-15.1,26.2h-30.3L-219.9-589z M-211.1-626.1l-21.4,37.1l21.4,37.1h42.8
		l21.4-37.1l-21.4-37.1H-211.1z"/>
	<path class="st2" d="M-274.7-557.4l15.1-26.2h30.3l15.1,26.2l-15.1,26.2h-30.3L-274.7-557.4z M-265.9-594.5l-21.4,37.1l21.4,37.1
		h42.8l21.4-37.1l-21.4-37.1H-265.9z"/>
	<g>
		<defs>
			<rect id="SVGID_1_" x="-287.3" y="-657.7" width="140.4" height="137.4"/>
		</defs>
		<clipPath id="SVGID_00000108997519455623809690000000854210042439019395_">
			<use xlink:href="#SVGID_1_"  style="overflow:visible;"/>
		</clipPath>
		<path style="clip-path:url(#SVGID_00000108997519455623809690000000854210042439019395_);fill:#FDB913;" d="M-244.3-627.1
			c-2.7,0-4.9-2.1-4.9-4.8v-0.1c0-2.7,2.1-4.8,4.8-4.9c2.7,0,4.9,2.1,4.9,4.8C-239.5-629.3-241.7-627.1-244.3-627.1 M-244.5-641.8
			L-244.5-641.8c-5.4-0.1-9.9,4.3-9.9,9.7c-0.1,5.4,4.3,9.9,9.7,9.9c5.4,0.1,9.9-4.3,9.9-9.7c0,0,0-0.1,0-0.1
			C-234.7-637.4-239.1-641.8-244.5-641.8"/>
		<path style="clip-path:url(#SVGID_00000108997519455623809690000000854210042439019395_);fill:#FDB913;" d="M-234.5-591.1h-20
			v-20.6c0-0.8,0.6-1.4,1.4-1.4h17.2v0c0.8,0,1.4,0.6,1.4,1.4V-591.1z M-235.9-618.1h-17.2c-3.5,0-6.3,2.9-6.3,6.4v25.5h29.8v-25.5
			C-229.5-615.2-232.4-618.1-235.9-618.1"/>
		<path style="clip-path:url(#SVGID_00000108997519455623809690000000854210042439019395_);fill:#FDB913;" d="M-188.9-592.8
			c-2.6,0-4.7-2-4.8-4.6v-0.1c0-2.6,2.1-4.7,4.6-4.7c2.6,0,4.7,2,4.8,4.6C-184.2-595-186.3-592.8-188.9-592.8 M-189-607L-189-607
			c-5.3-0.1-9.6,4.1-9.6,9.4c-0.1,5.3,4.1,9.5,9.4,9.6c5.3,0.1,9.6-4.1,9.6-9.4c0,0,0-0.1,0-0.1C-179.6-602.7-183.8-607-189-607"/>
		<path style="clip-path:url(#SVGID_00000108997519455623809690000000854210042439019395_);fill:#FDB913;" d="M-179.4-558h-19.3
			v-19.9c0-0.7,0.6-1.4,1.3-1.4h16.6v0c0.8,0,1.4,0.6,1.4,1.4V-558z M-180.7-584.1h-16.7c-3.4,0-6.1,2.8-6.1,6.2v24.7h28.8v-24.7
			C-174.6-581.3-177.3-584.1-180.7-584.1"/>
		<path style="clip-path:url(#SVGID_00000108997519455623809690000000854210042439019395_);fill:#FDB913;" d="M-239.3-539.7
			c-0.9,0.7-1.9,1.3-3.4,1.5v-10.1c1.6,0.5,2.8,1.2,3.4,2c0.7,0.7,1.1,1.8,1.1,3.1C-238.2-541.8-238.6-540.6-239.3-539.7
			 M-246-556.9c-1.6-0.5-2.7-1.1-3.3-1.8c-0.7-0.7-1.1-1.7-1.1-2.8c0-1.3,0.3-2.4,1.1-3.2c0.8-0.7,1.9-1.2,3.3-1.4V-556.9z
			 M-233.3-551.2c-1.9-1.7-5.1-3.3-9.6-4.8v-9.9c1.3,0.2,2.3,0.7,3,1.5c0.6,0.9,1,2.2,1.1,3.9h7.4c-0.2-3.6-1.3-6.3-3.2-8.3
			c-2-2-4.7-3-8.3-3.2v-3.5h-3.2v3.5c-3.6,0-6.3,1-8.5,3.1c-2.1,2.1-3.2,4.7-3.2,8.1c0,3,0.9,5.4,2.7,7.1c1.8,1.7,4.7,3.1,9.1,4.2
			v11.3c-1.6-0.3-2.8-1.1-3.8-2c-0.8-1.2-1.3-2.7-1.4-4.7h-7.3c0,4.1,1,7.1,3.1,9.3c2.1,2.1,5.1,3.2,9.3,3.5v5.3h3.2v-5.3
			c3.9-0.4,6.9-1.5,9.1-3.6c2.1-2.1,3.2-4.9,3.2-8.4C-230.6-547-231.6-549.4-233.3-551.2"/>
	</g>
</g>
<g>
	<path class="st4" d="M-277.6-313.1L-277.6-313.1l-42.5,0c-1.9,0-3.4,1.6-3.4,3.5v50.8h49.4v-50.8
		C-274.1-311.5-275.7-313.1-277.6-313.1 M-363.7-313.1L-363.7-313.1l-42.5,0c-1.9,0-3.4,1.6-3.4,3.5v50.8h49.4v-50.8
		C-360.3-311.5-361.8-313.1-363.7-313.1 M-320.1-325.3h42.5c8.6,0.1,15.6,7.1,15.6,15.8v63.1h-73.7v-63.1
		C-335.7-318.3-328.7-325.3-320.1-325.3 M-406.2-325.3h42.5h0c8.6,0.1,15.6,7.1,15.6,15.8v63.1h-73.7v-63.1
		C-421.8-318.3-414.9-325.3-406.2-325.3 M-299.4-371.6c-6.6,0.1-11.9,5.4-11.9,12v0.2c0.1,6.6,5.5,12,12.2,11.9
		c6.6-0.1,11.9-5.5,11.9-12.2C-287.4-366.4-292.8-371.7-299.4-371.6 M-385-371.6c-6.6,0.1-11.9,5.4-11.9,12v0.2
		c0.1,6.6,5.5,12,12.2,11.9c6.6-0.1,12-5.5,11.9-12.2C-372.9-366.4-378.3-371.7-385-371.6 M-299.4-383.9L-299.4-383.9
		c13.3,0.1,24.1,10.9,24,24.3v0.3c-0.2,13.4-11.1,24.2-24.5,24c-13.4-0.2-24.2-11.1-24-24.5C-323.8-373.3-312.9-384.1-299.4-383.9
		 M-385-383.9L-385-383.9c13.3,0.1,24.1,10.9,24,24.3c0,0.1,0,0.2,0,0.3c-0.1,13.4-11.1,24.2-24.5,24c-13.4-0.2-24.1-11.1-24-24.5
		C-409.4-373.3-398.4-384.1-385-383.9"/>
</g>
<g>
	<path class="st5" d="M14.9-394.9c-7.1,0-13.3-4.4-15.7-11.1v-0.1c-0.5-1.5-1.6-2.1-2.2-2.3c-0.6-0.3-1.8-0.6-3.3,0.1l-0.6,0.3
		c-6.3,2.7-13.4,1.3-18.3-3.6c-5-5-6.3-12.3-3.4-18.7l0.1-0.3c0.7-1.4,0.3-2.7,0.1-3.3c-0.3-0.6-0.9-1.7-2.3-2.3h-0.1
		c-6.7-2.4-11-8.6-11-15.7c0-7.1,4.3-13.3,11-15.7h0.1c1.4-0.5,2.1-1.6,2.3-2.3c0.3-0.6,0.6-1.8-0.1-3.3l-0.1-0.1
		c-3-6.4-1.7-13.8,3.4-18.9c5-5,12.2-6.3,18.6-3.4l0.3,0.1c1.4,0.7,2.7,0.3,3.3,0.1c0.6-0.3,1.7-0.9,2.2-2.3v-0.1
		c2.4-6.7,8.5-11,15.7-11c7,0,13.1,4.2,15.5,10.7v0.1l0.1,0.4c0.5,1.4,1.6,2.1,2.3,2.3c0.6,0.3,1.8,0.6,3.3-0.1l0.3-0.1
		C42.7-498.3,50-497,55-492c5.1,5.1,6.3,12.5,3.3,19v0.1c-0.6,1.4-0.3,2.6-0.1,3.2c0.3,0.6,0.9,1.7,2.3,2.3l0.4,0.1
		c6.5,2.5,10.7,8.6,10.7,15.6c0,7-4.2,13.1-10.7,15.6h-0.1l-0.4,0.1c-1.4,0.5-2.1,1.6-2.3,2.3c-0.3,0.6-0.6,1.8,0.1,3.2
		c3.1,6.4,1.8,13.9-3.3,19c-4.9,4.9-12,6.3-18.3,3.6h-0.1l-0.5-0.3c-1.4-0.7-2.7-0.3-3.3-0.1c-0.6,0.3-1.7,0.9-2.3,2.3l-0.1,0.4
		C27.9-399.1,21.9-394.9,14.9-394.9 M11.1-410.2c0.9,2.4,2.9,2.7,3.8,2.7c0.8,0,2.9-0.2,3.8-2.7l0.1-0.4c1.7-4.3,4.9-7.7,9.2-9.4
		c4.1-1.7,8.8-1.7,12.9,0.1h0.1l0.5,0.3c2.3,1.1,4-0.2,4.5-0.8c0.6-0.6,1.9-2.3,0.8-4.5c-2-4.3-2.1-9.2-0.3-13.5
		c1.8-4.3,5.2-7.6,9.4-9.2H56l0.4-0.1c2.4-0.9,2.7-2.9,2.7-3.8c0-0.9-0.3-2.9-2.7-3.8l-0.4-0.1c-4.2-1.7-7.7-4.9-9.4-9.2
		c-1.8-4.4-1.7-9.3,0.3-13.5v-0.1c1.1-2.3-0.2-3.9-0.8-4.5c-0.6-0.6-2.3-1.9-4.5-0.8l-0.3,0.1c-4.2,1.9-9,2-13.3,0.2
		c-4.2-1.8-7.5-5.2-9.2-9.4v-0.1l-0.1-0.4c-0.9-2.4-2.9-2.7-3.8-2.7c-0.8,0-2.9,0.3-3.8,2.7v0.1c-1.6,4.5-5,8.1-9.3,9.8
		c-4.2,1.8-9,1.7-13.3-0.2l-0.3-0.1c-2.3-1.1-4,0.2-4.5,0.8c-0.6,0.6-1.9,2.3-0.8,4.5l0.1,0.1c2,4.2,2.1,9.1,0.3,13.4
		c-1.8,4.3-5.4,7.7-9.7,9.3h-0.1c-2.4,0.9-2.7,2.9-2.7,3.8c0,0.9,0.3,2.9,2.7,3.8h0.1c4.4,1.6,8,5,9.7,9.3c1.8,4.2,1.7,9-0.2,13.3
		l-0.1,0.3c-1.1,2.3,0.2,4,0.8,4.5c0.6,0.6,2.3,1.9,4.5,0.8l0.6-0.3c4.1-1.8,8.8-1.8,12.9-0.1C6.1-418.3,9.5-414.7,11.1-410.2
		 M14.9-426.6c-14,0-25.3-11.3-25.3-25.3c0-14,11.3-25.3,25.3-25.3c14,0,25.3,11.3,25.3,25.3C40.2-437.9,28.8-426.6,14.9-426.6
		 M14.9-464.6c-6.9,0-12.6,5.7-12.6,12.7c0,7,5.7,12.7,12.6,12.7c7,0,12.6-5.7,12.6-12.7C27.5-458.9,21.8-464.6,14.9-464.6 M1.6-396
		l-4.4,13.9l-8.7-8.2l-11.8,1.7l4.6-14.9c-3.5-0.9-6.6-2.7-9.3-5.4c-0.6-0.6-1.2-1.3-1.7-1.9l-11.6,37.6l25.6-3.8l19,17.7l10-32
		C8.8-391.5,4.7-393.3,1.6-396 M57.7-408.9c-2.7,2.7-5.8,4.4-9.3,5.4l4.6,14.9l-11.8-1.7l-8.6,8.2L28.3-396
		c-3.2,2.8-7.3,4.6-11.7,4.9l10,32l19-17.7l25.6,3.8l-11.8-37.7C58.9-410.2,58.3-409.5,57.7-408.9"/>
</g>
<g>
	<path class="st6" d="M336.8-3.3l-5.1-1.6l-1.8,5c-0.8,2.2-20.1,54.4-1.7,92.1c7.9,16.2,21.8,27.5,40.3,32.7c7.1,2,14.4,3,21.7,3.1
		l6,12.3c1.4,2.8,4.7,3.9,7.4,2.6c2.8-1.3,3.9-4.7,2.6-7.4l-6-12.3c4.5-5.8,8.2-12.2,11-19c7.3-17.7,7-35.7-0.8-51.9
		C392,14.5,339-2.6,336.8-3.3 M401,99.5c-1.7,4.3-3.9,8.3-6.4,12.2l-9.4-19.2l8.7-14.8c1.6-2.7,0.7-6.1-2-7.6
		c-2.7-1.6-6.1-0.7-7.6,2l-4.9,8.3l-4.9-10l8.6-14.7c1.6-2.7,0.7-6.1-2-7.7c-2.7-1.6-6.1-0.7-7.6,2l-4.9,8.4l-11.5-23.7
		c-1.4-2.7-4.7-3.9-7.5-2.5c-2.7,1.4-3.9,4.7-2.5,7.5l11.5,23.7l-9.6-1.3c-3.1-0.5-5.9,1.6-6.4,4.6c-0.5,3,1.6,5.9,4.6,6.4
		c0.1,0,0.2,0,0.3,0l16.9,2.3l4.8,9.9l-9.6-1.4c-3-0.5-5.9,1.5-6.4,4.6c-0.5,3,1.5,5.9,4.6,6.4c0.1,0,0.2,0,0.3,0.1l17.2,2.5
		l9.3,19.2c-4.6-0.4-9.1-1.2-13.5-2.5c-15.4-4.4-26.5-13.4-33-26.7c-13.1-27-3.8-64.5,0.4-78.1c13.3,5.1,48.6,20.8,61.7,47.9
		C406.8,70.4,407,84.7,401,99.5"/>
</g>
<g>
	<path class="st7" d="M108.7,6.6c-8.1-8.1-21.1-8.8-30-1.5C69.1-2.7,55-1.3,47.2,8.3c-7.2,8.9-6.6,21.8,1.4,29.9L78.4,68l0.3-0.2
		l0.3,0.2l29.7-29.8C117.4,29.4,117.4,15.3,108.7,6.6 M64.5,10.2c3.2,0,6.3,1.3,8.6,3.6l5.6,5.6l5.6-5.6c4.7-4.7,12.4-4.7,17.1,0
		c4.7,4.8,4.7,12.4,0,17.2L78.9,53.5l-0.3-0.2l-0.3,0.2L55.9,31c-4.7-4.7-4.8-12.4,0-17.2C58.1,11.5,61.2,10.2,64.5,10.2
		 M70.3,108.4c0.2-9.5-1.1-16.8-4.1-23C62.6,78,57,74.9,51.6,71.9l-0.2-0.1c-0.9-0.5-1.9-1-2.9-1.6c-4.4-2.6-8.2-6.6-12.1-10.6
		c-0.8-0.8-1.6-1.6-2.4-2.4C33,56,28.6,52,28,51.5c-0.8-0.9-1.8-1.6-2.9-2.1V32c0-6.6-5-12.3-11.3-12.9C6.8,18.5,0.7,23.6,0.1,30.5
		C0,30.9,0,31.2,0,31.6v43.6c0,3.2,1.2,6.3,3.5,8.5c3.6,3.6,21.7,21.8,25.7,25.6c0,0,0.1,0.1,0.1,0.2l2.2,16.3h10.3L39.2,106
		c-0.2-1.4-1.2-2.4-3.7-4.8c-0.3-0.3-0.6-0.5-0.8-0.7L10.9,76.7c-0.7-1-0.7-1.3-0.7-1.4v-8.8c0.4,0.6,0.8,1.1,1.3,1.6l20.6,20.5
		c1.1,1.4,2.7,2.2,4.5,2.1c1.6-0.1,3.1-1,4.1-2.3c1.3-2.2,0.4-5-1.1-6.6l-20.8-21c-0.3-0.3-0.4-0.6-0.4-1c0-0.4,0.2-0.8,0.4-1
		c0.6-0.5,1.6-0.5,2.1,0.1l0.1,0.1c1.6,1.5,5.1,4.7,5.8,5.5c0.8,0.8,1.5,1.6,2.3,2.4c4.1,4.2,8.7,9.1,14.2,12.3
		c1,0.6,2.1,1.2,3.1,1.8l0.2,0.1c4.7,2.6,8.1,4.5,10.3,9c2.3,4.7,3.3,10.5,3,18.5v0.1l0.9,17.3h10.2L70.3,108.4z M10.2,31.6
		c0-0.6,0.3-1.3,0.8-1.7c0.4-0.4,1-0.6,1.6-0.6h0.2c1.2,0.1,2.1,1.3,2.1,2.7v17.2c-1.2,0.6-2.3,1.3-3.3,2.3c-0.5,0.5-1,1-1.4,1.6
		V31.6z M86.2,125.7h10.2l0.9-17.3v0c-0.2-7.9,0.8-13.8,3-18.5c2.2-4.5,5.6-6.4,10.3-9l0.2-0.1c1-0.6,2-1.1,3.1-1.7
		c5.6-3.3,10.2-8.1,14.2-12.3c0.8-0.8,1.5-1.6,2.3-2.4c0.8-0.8,4.2-4,5.8-5.5l0.1-0.1c0.6-0.6,1.5-0.6,2.1-0.1
		c0.3,0.3,0.4,0.7,0.4,1c0,0.4-0.2,0.8-0.4,1l-20.8,21c-1.5,1.6-2.4,4.4-1.1,6.6c1,1.3,2.5,2.2,4.1,2.3c1.7,0.1,3.4-0.7,4.5-2.1
		l20.6-20.5c0.5-0.5,0.9-1,1.3-1.6v8.8c0,0.1,0,0.4-0.7,1.4l-23.8,23.8c-0.2,0.2-0.5,0.5-0.8,0.7c-2.5,2.3-3.5,3.4-3.7,4.8
		l-2.6,19.7h10.3l2.1-16.3c0-0.1,0-0.1,0.1-0.1c4-3.8,22.1-22,25.7-25.6c2.3-2.2,3.6-5.3,3.5-8.5V31.7c0-7-5.7-12.6-12.6-12.6
		c-0.4,0-0.8,0-1.1,0.1c-6.4,0.6-11.4,6.3-11.4,12.9v17.4c-1.1,0.5-2.1,1.2-2.9,2.1c-0.6,0.5-4.9,4.5-6.1,5.7
		c-0.8,0.8-1.6,1.6-2.4,2.4c-3.8,4-7.7,8-12.1,10.6c-1,0.6-2,1.1-2.9,1.6l-0.2,0.1c-5.4,3-11,6-14.6,13.5c-3,6.1-4.3,13.4-4.1,22.9
		L86.2,125.7z M147.1,53.1c-0.4-0.6-0.8-1.1-1.3-1.6c-1-1-2.1-1.7-3.3-2.3V32c0-1.4,0.9-2.6,2.1-2.7h0.2c0.6,0,1.2,0.2,1.6,0.6
		c0.5,0.4,0.8,1,0.8,1.7L147.1,53.1z"/>
</g>
</svg>
