<?xml version="1.0" encoding="utf-8"?>
<!-- Generator: Adobe Illustrator 26.0.1, SVG Export Plug-In . SVG Version: 6.00 Build 0)  -->
<svg version="1.1" id="Layer_1" xmlns="http://www.w3.org/2000/svg" xmlns:xlink="http://www.w3.org/1999/xlink" x="0px" y="0px"
	 viewBox="0 0 96.2 148.3" style="enable-background:new 0 0 96.2 148.3;" xml:space="preserve">
<style type="text/css">
	.st0{fill:#FFFFFF;}
	.st1{fill:none;}
	.st2{fill:#01519C;}
	.st3{fill:#FDB913;}
	.st4{clip-path:url(#SVGID_00000062175322139222664740000000119618800541743250_);fill:#FDB913;}
	.st5{clip-path:url(#SVGID_00000176754130717756707780000011999464037322046849_);fill:#FDB913;}
	.st6{clip-path:url(#SVGID_00000131353818763341457650000016316511144137888927_);fill:#FDB913;}
	.st7{clip-path:url(#SVGID_00000103950040089168839750000016774395774605468845_);fill:#FDB913;}
	.st8{clip-path:url(#SVGID_00000108997548652723239950000014102355112773223330_);fill:#FDB913;}
	.st9{fill:#ED7F22;}
	.st10{fill:#ED328C;}
	.st11{fill:#39B54A;}
	.st12{fill:#A6CE39;}
</style>
<path class="st0" d="M-178,83.6l-20.6,20.5c-1.1,1.4-2.8,2.2-4.5,2.1c-1.6-0.1-3.1-1-4.1-2.3c-1.3-2.2-0.4-5,1.1-6.6l20.8-21
	c0.2-0.2,0.4-0.6,0.4-1c0-0.3-0.1-0.7-0.4-1c-0.6-0.5-1.5-0.5-2.1,0.1l-0.1,0.1c-1.6,1.5-5,4.7-5.8,5.5c-0.8,0.8-1.5,1.6-2.3,2.4
	c-4,4.2-8.6,9-14.2,12.3c-1.1,0.6-2.1,1.1-3.1,1.7l-0.2,0.1c-4.7,2.6-8.1,4.5-10.3,9c-2,4.3-3,9.6-3,16.6c0,0.6,0,1.3,0,1.9
	l-0.9,17.3l29.3-0.1h-10.3l2.6-19.7c0.2-1.4,1.2-2.5,3.7-4.8c0.3-0.2,0.6-0.5,0.8-0.7l23.8-23.8c0.7-1,0.7-1.3,0.7-1.4V82
	C-177.1,82.6-177.5,83.1-178,83.6z"/>
<path class="st0" d="M-252.8,141.7H-263l0-0.3h-29.3l-2.2-16.3c0-0.1-0.1-0.2-0.1-0.2c-4-3.8-22.1-22-25.7-25.6
	c-2.3-2.2-3.5-5.3-3.5-8.5V47.2c0-0.3,0.1-0.7,0.1-1.1c0.6-6.9,6.8-12,13.7-11.4c6.3,0.6,11.3,6.3,11.3,12.9V65
	c1.1,0.5,2.1,1.2,2.9,2.1c0.6,0.5,5,4.5,6.1,5.7c0.8,0.8,1.6,1.6,2.4,2.4c3.9,4,7.7,8,12.1,10.6c1,0.6,2,1.1,2.9,1.6l0.2,0.1
	c5.3,3,10.9,6.1,14.5,13.5c3,6.2,4.3,13.5,4.1,23l0.7,17.3v0.1L-252.8,141.7z"/>
<path class="st0" d="M-215.1,53.7l-29.7,29.8l-0.3-0.2l-0.3,0.2l-29.7-29.8c-8-8.1-8.6-21-1.4-29.9c7.8-9.6,21.8-11,31.4-3.2
	c8.9-7.3,21.9-6.6,30,1.5C-206.4,30.9-206.4,45-215.1,53.7z"/>
<path class="st0" d="M-166.6,47.3v43.4c0.1,3.2-1.2,6.3-3.5,8.5c-3.6,3.6-21.7,21.8-25.7,25.6c-0.1,0-0.1,0-0.1,0.1l-2.1,16.3h-10.3
	l2.6-19.7c0.2-1.4,1.2-2.5,3.7-4.8c0.3-0.2,0.6-0.5,0.8-0.7l23.8-23.8c0.7-1,0.7-1.3,0.7-1.4V82c-0.4,0.6-0.8,1.1-1.3,1.6
	l-20.6,20.5c-1.1,1.4-2.8,2.2-4.5,2.1c-1.6-0.1-3.1-1-4.1-2.3c-1.3-2.2-0.4-5,1.1-6.6l20.8-21c0.2-0.2,0.4-0.6,0.4-1
	c0-0.3-0.1-0.7-0.4-1c-0.6-0.5-1.5-0.5-2.1,0.1l-0.1,0.1c-1.6,1.5-5,4.7-5.8,5.5c-0.8,0.8-1.5,1.6-2.3,2.4c-4,4.2-8.6,9-14.2,12.3
	c-1.1,0.6-2.1,1.1-3.1,1.7l-0.2,0.1c-4.7,2.6-8.1,4.5-10.3,9c-2,4.3-3,9.6-3,16.6c0,0.6,0,1.3,0,1.9l-0.9,17.3v0h-10.2v0l0.7-17.3
	c-0.2-9.5,1.1-16.8,4.1-22.9c3.6-7.5,9.2-10.5,14.6-13.5l0.2-0.1c0.9-0.5,1.9-1,2.9-1.6c4.4-2.6,8.3-6.6,12.1-10.6
	c0.8-0.8,1.6-1.6,2.4-2.4c1.2-1.2,5.5-5.2,6.1-5.7c0.8-0.9,1.8-1.6,2.9-2.1V47.7c0-6.6,5-12.4,11.2-12.9c0.3-0.1,0.7-0.1,1.1-0.1
	C-172.3,34.7-166.6,40.3-166.6,47.3z"/>
<g>
	<path class="st1" d="M-74.2-490c0-8.2-6.7-14.9-15-14.9s-15,6.7-15,14.9c0,8.3,6.7,15,15,15S-74.2-481.7-74.2-490z M-93.2-482.8
		c-0.8-0.9-1.3-2.1-1.3-3.3h3c0,0.6,0.2,1.1,0.5,1.5s0.7,0.6,1.2,0.6v-3.9c-1.4-0.4-2.7-1-3.8-1.9c-0.7-0.8-1.1-1.8-1.1-2.9
		c-0.1-1.2,0.4-2.4,1.3-3.3c1-0.9,2.3-1.4,3.6-1.4v-2.1h1.3v2.1c1.4,0,2.7,0.5,3.7,1.4c0.9,1,1.3,2.3,1.2,3.7h-2.9
		c0-0.7-0.2-1.3-0.6-1.9c-0.3-0.4-0.9-0.8-1.4-0.9v4.5c1.3,0.2,2.6,0.8,3.6,1.7c0.7,0.8,1.1,1.8,1.1,2.8c0,1.2-0.4,2.4-1.3,3.2
		c-0.9,0.8-2.1,1.3-3.4,1.3v1.4h-1.3v-1.4C-91.1-481.5-92.3-482-93.2-482.8z"/>
	<path class="st1" d="M-86.8-485.7c0-0.4-0.1-0.8-0.4-1.1c-0.4-0.4-0.8-0.6-1.3-0.8v3.7c0.5,0,0.9-0.2,1.3-0.6
		C-86.9-484.8-86.7-485.3-86.8-485.7z"/>
	<path class="st1" d="M-89.8-490.9v-4.1c-0.5,0-1,0.3-1.4,0.7c-0.3,0.4-0.5,0.9-0.5,1.4s0.1,0.9,0.4,1.3
		C-90.8-491.4-90.4-491.1-89.8-490.9L-89.8-490.9z"/>
	<path class="st1" d="M-143.6-523.9c11.3,0,20.4-9.1,20.4-20.4c0-11.3-9.1-20.4-20.4-20.4s-20.4,9.1-20.4,20.4
		C-164.1-533-154.9-523.9-143.6-523.9z"/>
	<path class="st2" d="M-139.6-503.7c-1.4,0.1-2.7,0.2-4.1,0.2c-3.7,0-7.3-0.5-10.8-1.5c-6.7,9.1-19.5,11-28.6,4.4
		c-9.1-6.7-11-19.4-4.4-28.5c1.2-1.7,2.7-3.1,4.4-4.4c-1-3.5-1.5-7.1-1.5-10.8c0-1.4,0.1-2.7,0.2-4.1c-17.3,7.3-25.4,27.3-18,44.6
		c5.4,12.5,17.7,20.7,31.4,20.7C-157.3-483.1-144.9-491.2-139.6-503.7z"/>
	<path class="st2" d="M-127.3-490c0,2.3,1.8,4.1,4.1,4.1c2.3,0,4.1-1.8,4.1-4.1c0-2.2-1.8-4.1-4.1-4.1
		C-125.5-494-127.3-492.2-127.3-490z"/>
	<path class="st2" d="M-143.6-510.3c18.8,0,34.1-15.2,34.1-34s-15.2-34-34.1-34c-18.8,0-34.1,15.2-34.1,34
		C-177.7-525.6-162.5-510.3-143.6-510.3z M-143.6-564.7c11.3,0,20.4,9.1,20.4,20.4c0,11.3-9.1,20.4-20.4,20.4S-164-533-164-544.3
		C-164.1-555.6-154.9-564.7-143.6-564.7z"/>
	<path class="st2" d="M-88.5-480.1v-1.4c1.3,0,2.5-0.4,3.4-1.3s1.3-2,1.3-3.2c0.1-1-0.3-2.1-1.1-2.8c-1.1-0.9-2.3-1.4-3.6-1.7v-4.5
		c0.6,0.1,1.1,0.4,1.4,0.9c0.4,0.6,0.6,1.2,0.6,1.9h2.9c0.1-1.3-0.4-2.7-1.2-3.7c-1-0.9-2.3-1.4-3.7-1.4v-2.1h-1.3v2.1
		c-1.3,0-2.6,0.6-3.6,1.4c-0.9,0.9-1.3,2.1-1.3,3.3c0,1.1,0.3,2.1,1.1,2.9c1.1,0.9,2.4,1.6,3.8,1.9v3.9c-0.5,0-0.9-0.2-1.2-0.6
		c-0.3-0.4-0.5-1-0.5-1.5h-3c0,1.2,0.5,2.4,1.3,3.3c0.9,0.8,2.1,1.3,3.3,1.3v1.4L-88.5-480.1L-88.5-480.1z M-88.5-487.6
		c0.5,0.1,1,0.4,1.3,0.8c0.3,0.3,0.4,0.7,0.4,1.1s-0.1,0.9-0.5,1.3c-0.3,0.3-0.8,0.6-1.3,0.6L-88.5-487.6L-88.5-487.6z M-91.2-491.8
		c-0.3-0.3-0.5-0.8-0.4-1.3c0-0.5,0.2-1,0.5-1.4c0.4-0.4,0.8-0.6,1.4-0.7v4.1l0,0C-90.4-491.1-90.8-491.4-91.2-491.8z"/>
	<path class="st2" d="M-108.8-527.3c-2.6,5.3-6.4,10-11.1,13.6h85.2v47.6h-109v-23.4c-3.9,3.8-8.5,6.8-13.6,8.7v28.3H-21v-74.7
		L-108.8-527.3L-108.8-527.3z"/>
	<path class="st2" d="M-51-490c0-2.2-1.8-4.1-4.1-4.1s-4.1,1.8-4.1,4.1c0,2.3,1.8,4.1,4.1,4.1S-51-487.7-51-490z"/>
	<path class="st2" d="M-69.4-490c0-10.9-8.8-19.7-19.8-19.7c-10.9,0-19.8,8.8-19.8,19.7c0,10.9,8.8,19.7,19.8,19.7
		S-69.4-479.1-69.4-490z M-104.1-490c0-8.2,6.7-14.9,15-14.9s15,6.7,15,14.9c0,8.3-6.7,15-15,15S-104.1-481.7-104.1-490z"/>
</g>
<g>
	<path class="st3" d="M-595-615.8l15.1-26.2h30.3l15.1,26.2l-15.1,26.2h-30.3L-595-615.8z M-586.1-652.8l-21.4,37.1l21.4,37.1h42.8
		l21.4-37.1l-21.4-37.1H-586.1z"/>
	<path class="st3" d="M-540.2-584.1l15.1-26.2h30.3l15.1,26.2l-15.1,26.2H-525L-540.2-584.1z M-531.3-621.2l-21.4,37.1l21.4,37.1
		h42.8l21.4-37.1l-21.4-37.1H-531.3z"/>
	<path class="st3" d="M-595-552.5l15.1-26.2h30.3l15.1,26.2l-15.1,26.2h-30.3L-595-552.5z M-586.1-589.6l-21.4,37.1l21.4,37.1h42.8
		l21.4-37.1l-21.4-37.1H-586.1z"/>
	<g>
		<g>
			<defs>
				<rect id="SVGID_1_" x="-607.5" y="-652.8" width="140.4" height="137.4"/>
			</defs>
			<clipPath id="SVGID_00000037675452036184162980000010205401231019597478_">
				<use xlink:href="#SVGID_1_"  style="overflow:visible;"/>
			</clipPath>
			<path style="clip-path:url(#SVGID_00000037675452036184162980000010205401231019597478_);fill:#FDB913;" d="M-564.6-622.2
				c-2.7,0-4.9-2.1-4.9-4.8v-0.1c0-2.7,2.1-4.8,4.8-4.9c2.7,0,4.9,2.1,4.9,4.8C-559.7-624.4-561.9-622.2-564.6-622.2 M-564.7-636.9
				L-564.7-636.9c-5.4-0.1-9.9,4.3-9.9,9.7c-0.1,5.4,4.3,9.9,9.7,9.9c5.4,0.1,9.9-4.3,9.9-9.7v-0.1
				C-555-632.5-559.3-636.9-564.7-636.9"/>
		</g>
		<g>
			<defs>
				<rect id="SVGID_00000135658223344255017300000004766455592703792056_" x="-607.5" y="-652.8" width="140.4" height="137.4"/>
			</defs>
			<clipPath id="SVGID_00000054975489010314974390000014195252688548839086_">
				<use xlink:href="#SVGID_00000135658223344255017300000004766455592703792056_"  style="overflow:visible;"/>
			</clipPath>
			<path style="clip-path:url(#SVGID_00000054975489010314974390000014195252688548839086_);fill:#FDB913;" d="M-554.7-586.2h-20
				v-20.6c0-0.8,0.6-1.4,1.4-1.4h17.2l0,0c0.8,0,1.4,0.6,1.4,1.4L-554.7-586.2L-554.7-586.2z M-556.1-613.2h-17.2
				c-3.5,0-6.3,2.9-6.3,6.4v25.5h29.8v-25.5C-549.8-610.3-552.6-613.2-556.1-613.2"/>
		</g>
		<g>
			<defs>
				<rect id="SVGID_00000073692922823182791030000013741616594186332835_" x="-607.5" y="-652.8" width="140.4" height="137.4"/>
			</defs>
			<clipPath id="SVGID_00000061433018822047971740000008270605978256547253_">
				<use xlink:href="#SVGID_00000073692922823182791030000013741616594186332835_"  style="overflow:visible;"/>
			</clipPath>
			<path style="clip-path:url(#SVGID_00000061433018822047971740000008270605978256547253_);fill:#FDB913;" d="M-509.2-587.9
				c-2.6,0-4.7-2-4.8-4.6v-0.1c0-2.6,2.1-4.7,4.6-4.7c2.6,0,4.7,2,4.8,4.6C-504.5-590.1-506.6-587.9-509.2-587.9 M-509.3-602.1
				L-509.3-602.1c-5.3-0.1-9.6,4.1-9.6,9.4c0,5.3,4.1,9.5,9.4,9.6c5.3,0.1,9.6-4.1,9.6-9.4v-0.1
				C-499.8-597.8-504.1-602.1-509.3-602.1"/>
		</g>
		<g>
			<defs>
				<rect id="SVGID_00000167374442450530549180000013013656122036362679_" x="-607.5" y="-652.8" width="140.4" height="137.4"/>
			</defs>
			<clipPath id="SVGID_00000047059670966363444790000002552027499631451809_">
				<use xlink:href="#SVGID_00000167374442450530549180000013013656122036362679_"  style="overflow:visible;"/>
			</clipPath>
			<path style="clip-path:url(#SVGID_00000047059670966363444790000002552027499631451809_);fill:#FDB913;" d="M-499.6-553.1h-19.3
				V-573c0-0.7,0.6-1.4,1.3-1.4h16.6l0,0c0.8,0,1.4,0.6,1.4,1.4L-499.6-553.1L-499.6-553.1z M-501-579.2h-16.7
				c-3.4,0-6.1,2.8-6.1,6.2v24.7h28.8V-573C-494.8-576.4-497.6-579.2-501-579.2"/>
		</g>
		<g>
			<defs>
				<rect id="SVGID_00000046298058185628297070000013204310458169798805_" x="-607.5" y="-652.8" width="140.4" height="137.4"/>
			</defs>
			<clipPath id="SVGID_00000012471502560221412410000009374249247220822205_">
				<use xlink:href="#SVGID_00000046298058185628297070000013204310458169798805_"  style="overflow:visible;"/>
			</clipPath>
			<path style="clip-path:url(#SVGID_00000012471502560221412410000009374249247220822205_);fill:#FDB913;" d="M-559.6-534.8
				c-0.9,0.7-1.9,1.3-3.4,1.5v-10.1c1.6,0.5,2.8,1.2,3.4,2c0.7,0.7,1.1,1.8,1.1,3.1C-558.4-536.9-558.8-535.7-559.6-534.8
				 M-566.3-552c-1.6-0.5-2.7-1.1-3.3-1.8c-0.7-0.7-1.1-1.7-1.1-2.8c0-1.3,0.3-2.4,1.1-3.2c0.8-0.7,1.9-1.2,3.3-1.4V-552z
				 M-553.6-546.3c-1.9-1.7-5.1-3.3-9.6-4.8v-9.9c1.3,0.2,2.3,0.7,3,1.5c0.6,0.9,1,2.2,1.1,3.9h7.4c-0.2-3.6-1.3-6.3-3.2-8.3
				c-2-2-4.7-3-8.3-3.2v-3.5h-3.2v3.5c-3.6,0-6.3,1-8.5,3.1c-2.1,2.1-3.2,4.7-3.2,8.1c0,3,0.9,5.4,2.7,7.1c1.8,1.7,4.7,3.1,9.1,4.2
				v11.3c-1.6-0.3-2.8-1.1-3.8-2c-0.8-1.2-1.3-2.7-1.4-4.7h-7.3c0,4.1,1,7.1,3.1,9.3c2.1,2.1,5.1,3.2,9.3,3.5v5.3h3.2v-5.3
				c3.9-0.4,6.9-1.5,9.1-3.6c2.1-2.1,3.2-4.9,3.2-8.4C-550.9-542.1-551.8-544.5-553.6-546.3"/>
		</g>
	</g>
</g>
<g>
	<path class="st9" d="M-597.8-308.2L-597.8-308.2h-42.5c-1.9,0-3.4,1.6-3.4,3.5v50.8h49.4v-50.8
		C-594.4-306.6-595.9-308.2-597.8-308.2 M-684-308.2L-684-308.2h-42.5c-1.9,0-3.4,1.6-3.4,3.5v50.8h49.4v-50.8
		C-680.5-306.6-682-308.2-684-308.2 M-640.3-320.4h42.5c8.6,0.1,15.6,7.1,15.6,15.8v63.1h-73.7v-63.1
		C-655.9-313.4-649-320.4-640.3-320.4 M-726.5-320.4h42.5l0,0c8.6,0.1,15.6,7.1,15.6,15.8v63.1H-742v-63.1
		C-742.1-313.4-735.1-320.4-726.5-320.4 M-619.7-366.7c-6.6,0.1-11.9,5.4-11.9,12v0.2c0.1,6.6,5.5,12,12.2,11.9
		c6.6-0.1,11.9-5.5,11.9-12.2C-607.6-361.5-613-366.8-619.7-366.7 M-705.2-366.7c-6.6,0.1-11.9,5.4-11.9,12v0.2
		c0.1,6.6,5.5,12,12.2,11.9c6.6-0.1,12-5.5,11.9-12.2C-693.1-361.5-698.6-366.8-705.2-366.7 M-619.7-379L-619.7-379
		c13.3,0.1,24.1,10.9,24,24.3v0.3c-0.2,13.4-11.1,24.2-24.5,24s-24.2-11.1-24-24.5C-644.1-368.4-633.1-379.2-619.7-379 M-705.2-379
		L-705.2-379c13.3,0.1,24.1,10.9,24,24.3c0,0.1,0,0.2,0,0.3c-0.1,13.4-11.1,24.2-24.5,24s-24.1-11.1-24-24.5
		C-729.6-368.4-718.6-379.2-705.2-379"/>
</g>
<g>
	<path class="st10" d="M-305.4-390c-7.1,0-13.3-4.4-15.7-11.1v-0.1c-0.5-1.5-1.6-2.1-2.2-2.3c-0.6-0.3-1.8-0.6-3.3,0.1l-0.6,0.3
		c-6.3,2.7-13.4,1.3-18.3-3.6c-5-5-6.3-12.3-3.4-18.7l0.1-0.3c0.7-1.4,0.3-2.7,0.1-3.3c-0.3-0.6-0.9-1.7-2.3-2.3h-0.1
		c-6.7-2.4-11-8.6-11-15.7s4.3-13.3,11-15.7h0.1c1.4-0.5,2.1-1.6,2.3-2.3c0.3-0.6,0.6-1.8-0.1-3.3l-0.1-0.1
		c-3-6.4-1.7-13.8,3.4-18.9c5-5,12.2-6.3,18.6-3.4l0.3,0.1c1.4,0.7,2.7,0.3,3.3,0.1c0.6-0.3,1.7-0.9,2.2-2.3v-0.1
		c2.4-6.7,8.5-11,15.7-11c7,0,13.1,4.2,15.5,10.7v0.1l0.1,0.4c0.5,1.4,1.6,2.1,2.3,2.3c0.6,0.3,1.8,0.6,3.3-0.1l0.3-0.1
		c6.4-2.9,13.6-1.6,18.6,3.4c5.1,5.1,6.3,12.5,3.3,19v0.1c-0.6,1.4-0.3,2.6-0.1,3.2c0.3,0.6,0.9,1.7,2.3,2.3l0.4,0.1
		c6.5,2.5,10.7,8.6,10.7,15.6s-4.2,13.1-10.7,15.6h-0.1l-0.4,0.1c-1.4,0.5-2.1,1.6-2.3,2.3c-0.3,0.6-0.6,1.8,0.1,3.2
		c3.1,6.4,1.8,13.9-3.3,19c-4.9,4.9-12,6.3-18.3,3.6h-0.1l-0.5-0.3c-1.4-0.7-2.7-0.3-3.3-0.1c-0.6,0.3-1.7,0.9-2.3,2.3l-0.1,0.4
		C-292.3-394.2-298.3-390-305.4-390 M-309.1-405.3c0.9,2.4,2.9,2.7,3.8,2.7c0.8,0,2.9-0.2,3.8-2.7l0.1-0.4c1.7-4.3,4.9-7.7,9.2-9.4
		c4.1-1.7,8.8-1.7,12.9,0.1h0.1l0.5,0.3c2.3,1.1,4-0.2,4.5-0.8c0.6-0.6,1.9-2.3,0.8-4.5c-2-4.3-2.1-9.2-0.3-13.5
		c1.8-4.3,5.2-7.6,9.4-9.2h0.1l0.4-0.1c2.4-0.9,2.7-2.9,2.7-3.8s-0.3-2.9-2.7-3.8l-0.4-0.1c-4.2-1.7-7.7-4.9-9.4-9.2
		c-1.8-4.4-1.7-9.3,0.3-13.5v-0.1c1.1-2.3-0.2-3.9-0.8-4.5c-0.6-0.6-2.3-1.9-4.5-0.8l-0.3,0.1c-4.2,1.9-9,2-13.3,0.2
		c-4.2-1.8-7.5-5.2-9.2-9.4v-0.1l-0.1-0.4c-0.9-2.4-2.9-2.7-3.8-2.7c-0.8,0-2.9,0.3-3.8,2.7v0.1c-1.6,4.5-5,8.1-9.3,9.8
		c-4.2,1.8-9,1.7-13.3-0.2l-0.3-0.1c-2.3-1.1-4,0.2-4.5,0.8c-0.6,0.6-1.9,2.3-0.8,4.5l0.1,0.1c2,4.2,2.1,9.1,0.3,13.4
		c-1.8,4.3-5.4,7.7-9.7,9.3h-0.1c-2.4,0.9-2.7,2.9-2.7,3.8s0.3,2.9,2.7,3.8h0.1c4.4,1.6,8,5,9.7,9.3c1.8,4.2,1.7,9-0.2,13.3
		l-0.1,0.3c-1.1,2.3,0.2,4,0.8,4.5c0.6,0.6,2.3,1.9,4.5,0.8l0.6-0.3c4.1-1.8,8.8-1.8,12.9-0.1C-314.1-413.4-310.7-409.8-309.1-405.3
		 M-305.4-421.7c-14,0-25.3-11.3-25.3-25.3s11.3-25.3,25.3-25.3s25.3,11.3,25.3,25.3S-291.4-421.7-305.4-421.7 M-305.4-459.7
		c-6.9,0-12.6,5.7-12.6,12.7s5.7,12.7,12.6,12.7c7,0,12.6-5.7,12.6-12.7C-292.7-454-298.4-459.7-305.4-459.7 M-318.7-391.1
		l-4.4,13.9l-8.7-8.2l-11.8,1.7l4.6-14.9c-3.5-0.9-6.6-2.7-9.3-5.4c-0.6-0.6-1.2-1.3-1.7-1.9l-11.6,37.6l25.6-3.8l19,17.7l10-32
		C-311.4-386.6-315.5-388.4-318.7-391.1 M-262.5-404c-2.7,2.7-5.8,4.4-9.3,5.4l4.6,14.9l-11.8-1.7l-8.6,8.2l-4.3-13.9
		c-3.2,2.8-7.3,4.6-11.7,4.9l10,32l19-17.7l25.6,3.8l-11.8-37.7C-261.4-405.3-262-404.6-262.5-404"/>
</g>
<g>
	<path class="st0" d="M90.9,109.1c-2.8,6.8-6.5,13.2-11,19l6,12.3c0.2,0.4,0.3,0.9,0.4,1.3H74.2l-4.3-8.8
		c-7.3-0.1-14.6-1.1-21.7-3.1c-18.5-5.2-32.4-16.5-40.3-32.7C-6.8,66.9,2.7,27.2,7.4,11.6h32.8c17.2,8.9,39.3,23.8,49.9,45.6
		C97.9,73.4,98.2,91.4,90.9,109.1z"/>
	<g>
		<path class="st11" d="M90.1,57.2C79.5,35.4,57.4,20.5,40.2,11.6c-12.7-6.5-22.7-9.8-23.7-10l-5-1.6L9.6,5c-0.2,0.4-1,2.8-2.2,6.6
			C2.7,27.2-6.8,66.9,7.9,97.1c7.9,16.2,21.8,27.5,40.3,32.7c7.1,2,14.4,3,21.7,3.1l4.3,8.8l1.7,3.5c1.4,2.8,4.7,3.9,7.4,2.6
			c2.4-1.1,3.5-3.7,3-6.1c-0.1-0.4-0.2-0.9-0.4-1.3l-6-12.3c4.5-5.8,8.2-12.2,11-19C98.2,91.4,97.9,73.4,90.1,57.2z M80.7,104.4
			c-1.7,4.3-3.9,8.3-6.4,12.2L65,97.4l8.7-14.8c1.6-2.7,0.7-6.1-2-7.6c-2.7-1.6-6.1-0.7-7.6,2l-4.9,8.3l-4.9-10L63,60.5
			c1.6-2.7,0.7-6.1-2-7.7s-6.1-0.7-7.6,2l-4.9,8.4L36.9,39.5c-1.4-2.7-4.7-3.9-7.5-2.5c-2.7,1.4-3.9,4.7-2.5,7.5l11.5,23.7l-9.6-1.3
			c-3.1-0.5-5.9,1.6-6.4,4.6s1.6,5.9,4.6,6.4h0.3l16.9,2.3l4.8,9.9l-9.6-1.4c-3-0.5-5.9,1.5-6.4,4.6c-0.5,3,1.5,5.9,4.6,6.4
			c0.1,0,0.2,0,0.3,0.1l17.2,2.5l9.3,19.2c-4.6-0.4-9.1-1.2-13.5-2.5c-15.4-4.4-26.5-13.4-33-26.7c-13.1-27-3.8-64.5,0.4-78.1
			C31.6,19.3,66.9,35,80,62.1C86.5,75.3,86.8,89.6,80.7,104.4z"/>
	</g>
</g>
<g>
	<path class="st12" d="M-215.1,22.1c-8.1-8.1-21.1-8.8-30-1.5c-9.6-7.8-23.6-6.4-31.4,3.2c-7.2,8.9-6.6,21.8,1.4,29.9l29.7,29.8
		l0.3-0.2l0.3,0.2l29.7-29.8C-206.4,45-206.4,30.9-215.1,22.1z M-222.4,46.6l-22.5,22.5l-0.3-0.2l-0.3,0.2L-268,46.6
		c-4.7-4.7-4.8-12.4,0-17.2c2.4-2.3,5.5-3.6,8.7-3.6s6.3,1.3,8.6,3.6l5.6,5.6l5.6-5.6c4.7-4.7,12.4-4.7,17.1,0
		C-217.7,34.2-217.7,41.8-222.4,46.6z M-252.8,141.4L-252.8,141.4l-0.7-17.4c0.2-9.5-1.1-16.8-4.1-23c-3.6-7.4-9.2-10.5-14.5-13.5
		l-0.2-0.1c-0.9-0.5-1.9-1-2.9-1.6c-4.4-2.6-8.2-6.6-12.1-10.6c-0.8-0.8-1.6-1.6-2.4-2.4c-1.1-1.2-5.5-5.2-6.1-5.7
		c-0.8-0.9-1.8-1.6-2.9-2.1V47.6c0-6.6-5-12.3-11.3-12.9c-6.9-0.6-13.1,4.5-13.7,11.4c0,0.4-0.1,0.8-0.1,1.1v43.6
		c0,3.2,1.2,6.3,3.5,8.5c3.6,3.6,21.7,21.8,25.7,25.6c0,0,0.1,0.1,0.1,0.2l2.2,16.3h10.3v0l-2.6-19.7c-0.2-1.4-1.2-2.4-3.7-4.8
		c-0.3-0.3-0.6-0.5-0.8-0.7l-23.8-23.8c-0.7-1-0.7-1.3-0.7-1.4v-8.8c0.4,0.6,0.8,1.1,1.3,1.6l20.6,20.5c1.1,1.4,2.7,2.2,4.5,2.1
		c1.6-0.1,3.1-1,4.1-2.3c1.3-2.2,0.4-5-1.1-6.6l-20.8-21c-0.3-0.3-0.4-0.6-0.4-1c0-0.4,0.2-0.8,0.4-1c0.6-0.5,1.6-0.5,2.1,0.1
		l0.1,0.1c1.6,1.5,5.1,4.7,5.8,5.5c0.8,0.8,1.5,1.6,2.3,2.4c4.1,4.2,8.7,9.1,14.2,12.3c1,0.6,2.1,1.2,3.1,1.8l0.2,0.1
		c4.7,2.6,8.1,4.5,10.3,9c2.3,4.7,3.3,10.5,3,18.5v0.1l0.9,16.9v0.1l0,0.3h10.2L-252.8,141.4z M-308.8,64.8
		c-1.2,0.6-2.3,1.3-3.3,2.3c-0.5,0.5-1,1-1.4,1.6V47.2c0-0.6,0.3-1.3,0.8-1.7c0.4-0.4,1-0.6,1.6-0.6h0.2c1.2,0.1,2.1,1.3,2.1,2.7
		V64.8z M-179.2,34.7c-0.4,0-0.8,0-1.1,0.1c-6.2,0.5-11.2,6.3-11.2,12.9v17.4c-1.1,0.5-2.1,1.2-2.9,2.1c-0.6,0.5-4.9,4.5-6.1,5.7
		c-0.8,0.8-1.6,1.6-2.4,2.4c-3.8,4-7.7,8-12.1,10.6c-1,0.6-2,1.1-2.9,1.6l-0.2,0.1c-5.4,3-11,6-14.6,13.5c-3,6.1-4.3,13.4-4.1,22.9
		l-0.7,17.3v0h10.2v0l0.9-17.3c0-0.7,0-1.3,0-1.9c0-6.9,1-12.3,3-16.6c2.2-4.5,5.6-6.4,10.3-9l0.2-0.1c1-0.6,2-1.1,3.1-1.7
		c5.6-3.3,10.2-8.1,14.2-12.3c0.8-0.8,1.5-1.6,2.3-2.4c0.8-0.8,4.2-4,5.8-5.5l0.1-0.1c0.6-0.6,1.5-0.6,2.1-0.1
		c0.3,0.3,0.4,0.7,0.4,1c0,0.4-0.2,0.8-0.4,1l-20.8,21c-1.5,1.6-2.4,4.4-1.1,6.6c1,1.3,2.5,2.2,4.1,2.3c1.7,0.1,3.4-0.7,4.5-2.1
		l20.6-20.5c0.5-0.5,0.9-1,1.3-1.6v8.8c0,0.1,0,0.4-0.7,1.4l-23.8,23.8c-0.2,0.2-0.5,0.5-0.8,0.7c-2.5,2.3-3.5,3.4-3.7,4.8
		l-2.6,19.7h10.3l2.1-16.3c0-0.1,0-0.1,0.1-0.1c4-3.8,22.1-22,25.7-25.6c2.3-2.2,3.6-5.3,3.5-8.5V47.3
		C-166.6,40.3-172.3,34.7-179.2,34.7z M-176.6,68.7c-0.4-0.6-0.8-1.1-1.3-1.6c-1-1-2.1-1.7-3.3-2.3V47.6c0-1.4,0.9-2.6,2.1-2.7h0.2
		c0.6,0,1.2,0.2,1.6,0.6c0.5,0.4,0.8,1,0.8,1.7L-176.6,68.7z"/>
</g>
<polyline class="st1" points="-198,141.2 -227.3,141.3 -237.5,141.3 -252.8,141.3 -263,141.4 -282,141.4 -292.3,141.4 "/>
</svg>
