<?xml version="1.0" encoding="utf-8"?>
<!-- Generator: Adobe Illustrator 26.0.1, SVG Export Plug-In . SVG Version: 6.00 Build 0)  -->
<svg version="1.1" id="Layer_1" xmlns="http://www.w3.org/2000/svg" xmlns:xlink="http://www.w3.org/1999/xlink" x="0px" y="0px"
	 viewBox="0 0 140.4 137.4" style="enable-background:new 0 0 140.4 137.4;" xml:space="preserve">
<style type="text/css">
	.st0{fill:none;}
	.st1{fill:#01519C;}
	.st2{fill:#FDB913;}
	.st3{clip-path:url(#SVGID_00000096045884271990532340000005804943833705425832_);fill:#FDB913;}
	.st4{fill:#ED7F22;}
	.st5{fill:#ED328C;}
	.st6{fill:#39B54A;}
	.st7{fill:#A6CE39;}
</style>
<g>
	<path class="st0" d="M533.3,162.9c0-8.2-6.7-14.9-15-14.9c-8.3,0-15,6.7-15,14.9c0,8.3,6.7,15,15,15
		C526.6,177.8,533.3,171.1,533.3,162.9z M514.3,170c-0.8-0.9-1.3-2.1-1.3-3.3h3c0,0.6,0.2,1.1,0.5,1.5c0.3,0.4,0.7,0.6,1.2,0.6v-3.9
		c-1.4-0.4-2.7-1-3.8-1.9c-0.7-0.8-1.1-1.8-1.1-2.9c-0.1-1.2,0.4-2.4,1.3-3.3c1-0.9,2.3-1.4,3.6-1.4v-2.1h1.3l0,2.1
		c1.4,0,2.7,0.5,3.7,1.4c0.9,1,1.3,2.3,1.2,3.7H521c0-0.7-0.2-1.3-0.6-1.9c-0.3-0.4-0.9-0.8-1.4-0.9v4.5c1.3,0.2,2.6,0.8,3.6,1.7
		c0.7,0.8,1.1,1.8,1.1,2.8c0,1.2-0.4,2.4-1.3,3.2c-0.9,0.8-2.1,1.3-3.4,1.3v1.4h-1.3v-1.4C516.4,171.3,515.2,170.8,514.3,170z"/>
	<path class="st0" d="M520.7,167.1c0-0.4-0.1-0.8-0.4-1.1c-0.4-0.4-0.8-0.6-1.3-0.8v3.7c0.5,0,0.9-0.2,1.3-0.6
		C520.6,168,520.8,167.6,520.7,167.1z"/>
	<path class="st0" d="M517.7,161.9v-4.1c-0.5,0-1,0.3-1.4,0.7c-0.3,0.4-0.5,0.9-0.5,1.4c0,0.5,0.1,0.9,0.4,1.3
		C516.7,161.5,517.2,161.7,517.7,161.9L517.7,161.9z"/>
	<path class="st0" d="M463.9,128.9c11.3,0,20.4-9.1,20.4-20.4c0-11.3-9.1-20.4-20.4-20.4c-11.3,0-20.4,9.1-20.4,20.4
		C443.4,119.8,452.6,128.9,463.9,128.9z"/>
	<path class="st1" d="M467.9,149.1c-1.4,0.1-2.7,0.2-4.1,0.2c-3.7,0-7.3-0.5-10.8-1.5c-6.7,9.1-19.5,11-28.6,4.4
		c-9.1-6.7-11-19.4-4.4-28.5c1.2-1.7,2.7-3.1,4.4-4.4c-1-3.5-1.5-7.1-1.5-10.8c0-1.4,0.1-2.7,0.2-4.1c-17.3,7.3-25.4,27.3-18,44.6
		c5.4,12.5,17.7,20.7,31.4,20.7C450.2,169.7,462.6,161.6,467.9,149.1z"/>
	<path class="st1" d="M480.2,162.9c0,2.3,1.8,4.1,4.1,4.1c2.3,0,4.1-1.8,4.1-4.1c0-2.2-1.8-4.1-4.1-4.1
		C482,158.8,480.2,160.6,480.2,162.9z"/>
	<path class="st1" d="M463.9,142.5c18.8,0,34.1-15.2,34.1-34c0-18.8-15.2-34-34.1-34c-18.8,0-34.1,15.2-34.1,34
		C429.8,127.3,445,142.5,463.9,142.5z M463.9,88.1c11.3,0,20.4,9.1,20.4,20.4c0,11.3-9.1,20.4-20.4,20.4c-11.3,0-20.4-9.1-20.4-20.4
		C443.4,97.3,452.6,88.1,463.9,88.1z"/>
	<path class="st1" d="M519,172.7v-1.4c1.3,0,2.5-0.4,3.4-1.3c0.9-0.9,1.3-2,1.3-3.2c0.1-1-0.3-2.1-1.1-2.8c-1.1-0.9-2.3-1.4-3.6-1.7
		v-4.5c0.6,0.1,1.1,0.4,1.4,0.9c0.4,0.6,0.6,1.2,0.6,1.9h2.9c0.1-1.3-0.4-2.7-1.2-3.7c-1-0.9-2.3-1.4-3.7-1.4l0-2.1h-1.3v2.1
		c-1.3,0-2.6,0.6-3.6,1.4c-0.9,0.9-1.3,2.1-1.3,3.3c0,1.1,0.3,2.1,1.1,2.9c1.1,0.9,2.4,1.6,3.8,1.9v3.9c-0.5,0-0.9-0.2-1.2-0.6
		c-0.3-0.4-0.5-1-0.5-1.5h-3c0,1.2,0.5,2.4,1.3,3.3c0.9,0.8,2.1,1.3,3.3,1.3v1.4H519z M519,165.2c0.5,0.1,1,0.4,1.3,0.8
		c0.3,0.3,0.4,0.7,0.4,1.1c0,0.4-0.1,0.9-0.5,1.3c-0.3,0.3-0.8,0.6-1.3,0.6V165.2z M516.3,161.1c-0.3-0.3-0.5-0.8-0.4-1.3
		c0-0.5,0.2-1,0.5-1.4c0.4-0.4,0.8-0.6,1.4-0.7v4.1l0,0C517.2,161.7,516.7,161.5,516.3,161.1z"/>
	<path class="st1" d="M498.7,125.5c-2.6,5.3-6.4,10-11.1,13.6h85.2v47.6h-109v-23.4c-3.9,3.8-8.5,6.8-13.6,8.7v28.3h136.2v-74.7
		H498.7z"/>
	<path class="st1" d="M556.5,162.9c0-2.2-1.8-4.1-4.1-4.1c-2.3,0-4.1,1.8-4.1,4.1c0,2.3,1.8,4.1,4.1,4.1
		C554.7,167,556.5,165.1,556.5,162.9z"/>
	<path class="st1" d="M538.1,162.9c0-10.9-8.8-19.7-19.8-19.7c-10.9,0-19.8,8.8-19.8,19.7c0,10.9,8.8,19.7,19.8,19.7
		C529.3,182.6,538.1,173.8,538.1,162.9z M503.4,162.9c0-8.2,6.7-14.9,15-14.9c8.3,0,15,6.7,15,14.9c0,8.3-6.7,15-15,15
		C510.1,177.8,503.4,171.1,503.4,162.9z"/>
</g>
<g>
	<path class="st2" d="M12.5,37.1l15.1-26.2h30.3l15.1,26.2L57.9,63.3H27.7L12.5,37.1z M21.4,0L0,37.1l21.4,37.1h42.8l21.4-37.1
		L64.2,0H21.4z"/>
	<path class="st2" d="M67.3,68.7l15.1-26.2h30.3l15.1,26.2l-15.1,26.2H82.5L67.3,68.7z M76.2,31.6L54.8,68.7l21.4,37.1H119
		l21.4-37.1L119,31.6H76.2z"/>
	<path class="st2" d="M12.5,100.3l15.1-26.2h30.3l15.1,26.2l-15.1,26.2H27.7L12.5,100.3z M21.4,63.3L0,100.3l21.4,37.1h42.8
		l21.4-37.1L64.2,63.3H21.4z"/>
	<g>
		<defs>
			<rect id="SVGID_1_" y="0" width="140.4" height="137.4"/>
		</defs>
		<clipPath id="SVGID_00000093865769019456481770000011189013382109883067_">
			<use xlink:href="#SVGID_1_"  style="overflow:visible;"/>
		</clipPath>
		<path style="clip-path:url(#SVGID_00000093865769019456481770000011189013382109883067_);fill:#FDB913;" d="M42.9,30.6
			c-2.7,0-4.9-2.1-4.9-4.8v-0.1c0-2.7,2.1-4.8,4.8-4.9c2.7,0,4.9,2.1,4.9,4.8C47.8,28.4,45.6,30.6,42.9,30.6 M42.8,15.9L42.8,15.9
			c-5.4-0.1-9.9,4.3-9.9,9.7c-0.1,5.4,4.3,9.9,9.7,9.9c5.4,0.1,9.9-4.3,9.9-9.7c0,0,0-0.1,0-0.1C52.6,20.4,48.2,16,42.8,15.9"/>
		<path style="clip-path:url(#SVGID_00000093865769019456481770000011189013382109883067_);fill:#FDB913;" d="M52.8,66.6h-20V46
			c0-0.8,0.6-1.4,1.4-1.4h17.2v0c0.8,0,1.4,0.6,1.4,1.4V66.6z M51.4,39.6H34.2c-3.5,0-6.3,2.9-6.3,6.4v25.5h29.8V46
			C57.7,42.5,54.9,39.7,51.4,39.6"/>
		<path style="clip-path:url(#SVGID_00000093865769019456481770000011189013382109883067_);fill:#FDB913;" d="M98.3,64.9
			c-2.6,0-4.7-2-4.8-4.6v-0.1c0-2.6,2.1-4.7,4.6-4.7c2.6,0,4.7,2,4.8,4.6S100.9,64.9,98.3,64.9 M98.2,50.7L98.2,50.7
			c-5.3-0.1-9.6,4.1-9.6,9.4c-0.1,5.3,4.1,9.5,9.4,9.6c5.3,0.1,9.6-4.1,9.6-9.4c0,0,0-0.1,0-0.1C107.7,55,103.4,50.7,98.2,50.7"/>
		<path style="clip-path:url(#SVGID_00000093865769019456481770000011189013382109883067_);fill:#FDB913;" d="M107.9,99.7H88.6V79.8
			c0-0.7,0.6-1.4,1.3-1.4h16.6v0c0.8,0,1.3,0.6,1.3,1.4V99.7z M106.6,73.6H89.9c-3.4,0-6.1,2.8-6.1,6.2v24.7h28.8V79.8
			C112.7,76.4,109.9,73.7,106.6,73.6"/>
		<path style="clip-path:url(#SVGID_00000093865769019456481770000011189013382109883067_);fill:#FDB913;" d="M47.9,118
			c-0.9,0.7-1.9,1.3-3.4,1.5v-10.1c1.6,0.5,2.8,1.2,3.4,2c0.7,0.7,1.1,1.8,1.1,3.1C49.1,115.9,48.7,117.1,47.9,118 M41.2,100.9
			c-1.6-0.5-2.7-1.1-3.3-1.8c-0.7-0.7-1.1-1.7-1.1-2.8c0-1.3,0.3-2.4,1.1-3.2c0.8-0.7,1.9-1.2,3.3-1.4V100.9z M53.9,106.6
			c-1.9-1.7-5.1-3.3-9.6-4.8v-9.9c1.3,0.2,2.3,0.7,3,1.5c0.6,0.9,1,2.2,1.1,3.9h7.4c-0.2-3.6-1.3-6.3-3.2-8.3c-2-2-4.7-3-8.3-3.2
			v-3.5h-3.2v3.5c-3.6,0-6.3,1-8.5,3.1c-2.1,2.1-3.2,4.7-3.2,8.1c0,3,0.9,5.4,2.7,7.1c1.8,1.7,4.7,3.1,9.1,4.2v11.3
			c-1.6-0.3-2.8-1.1-3.8-2c-0.8-1.2-1.3-2.7-1.4-4.7h-7.3c0,4.1,1,7.1,3.1,9.3c2.1,2.1,5.1,3.2,9.3,3.5v5.3h3.2v-5.3
			c3.9-0.4,6.9-1.5,9.1-3.6c2.1-2.1,3.2-4.9,3.2-8.4C56.7,110.7,55.7,108.3,53.9,106.6"/>
	</g>
</g>
<g>
	<path class="st4" d="M9.7,344.6L9.7,344.6l-42.5,0c-1.9,0-3.4,1.6-3.4,3.5v50.8h49.4v-50.8C13.1,346.2,11.6,344.6,9.7,344.6
		 M-76.5,344.6L-76.5,344.6l-42.5,0c-1.9,0-3.4,1.6-3.4,3.5v50.8H-73v-50.8C-73,346.2-74.5,344.6-76.5,344.6 M-32.8,332.4H9.7
		c8.6,0.1,15.6,7.1,15.6,15.8v63.1h-73.7v-63.1C-48.4,339.5-41.5,332.4-32.8,332.4 M-119,332.4h42.5h0c8.6,0.1,15.6,7.1,15.6,15.8
		v63.1h-73.7v-63.1C-134.6,339.5-127.6,332.4-119,332.4 M-12.2,286.1c-6.6,0.1-11.9,5.4-11.9,12v0.2c0.1,6.6,5.5,12,12.2,11.9
		c6.6-0.1,11.9-5.5,11.9-12.2C-0.1,291.3-5.5,286-12.2,286.1 M-97.7,286.1c-6.6,0.1-11.9,5.4-11.9,12v0.2c0.1,6.6,5.5,12,12.2,11.9
		c6.6-0.1,12-5.5,11.9-12.2C-85.6,291.3-91.1,286-97.7,286.1 M-12.2,273.8L-12.2,273.8c13.3,0.1,24.1,10.9,24,24.3v0.3
		c-0.2,13.4-11.1,24.2-24.5,24c-13.4-0.2-24.2-11.1-24-24.5C-36.6,284.4-25.6,273.7-12.2,273.8 M-97.7,273.8L-97.7,273.8
		c13.3,0.1,24.1,10.9,24,24.3c0,0.1,0,0.2,0,0.3c-0.1,13.4-11.1,24.2-24.5,24c-13.4-0.2-24.1-11.1-24-24.5
		C-122.1,284.4-111.1,273.7-97.7,273.8"/>
</g>
<g>
	<path class="st5" d="M302.1,262.8c-7.1,0-13.3-4.4-15.7-11.1v-0.1c-0.5-1.5-1.6-2.1-2.2-2.3c-0.6-0.3-1.8-0.6-3.3,0.1l-0.6,0.3
		c-6.3,2.7-13.4,1.3-18.3-3.6c-5-5-6.3-12.3-3.4-18.7l0.1-0.3c0.7-1.4,0.3-2.7,0.1-3.3c-0.3-0.6-0.9-1.7-2.3-2.3h-0.1
		c-6.7-2.4-11-8.6-11-15.7c0-7.1,4.3-13.3,11-15.7h0.1c1.4-0.5,2.1-1.6,2.3-2.3c0.3-0.6,0.6-1.8-0.1-3.3l-0.1-0.1
		c-3-6.4-1.7-13.8,3.4-18.9c5-5,12.2-6.3,18.6-3.4l0.3,0.1c1.4,0.7,2.7,0.3,3.3,0.1c0.6-0.3,1.7-0.9,2.2-2.3v-0.1
		c2.4-6.7,8.5-11,15.7-11c7,0,13.1,4.2,15.5,10.7v0.1l0.1,0.4c0.5,1.4,1.6,2.1,2.3,2.3c0.6,0.3,1.8,0.6,3.3-0.1l0.3-0.1
		c6.4-2.9,13.6-1.6,18.6,3.4c5.1,5.1,6.3,12.5,3.3,19v0.1c-0.6,1.4-0.3,2.6-0.1,3.2c0.3,0.6,0.9,1.7,2.3,2.3l0.4,0.1
		c6.5,2.5,10.7,8.6,10.7,15.6c0,7-4.2,13.1-10.7,15.6h-0.1l-0.4,0.1c-1.4,0.5-2.1,1.6-2.3,2.3c-0.3,0.6-0.6,1.8,0.1,3.2
		c3.1,6.4,1.8,13.9-3.3,19c-4.9,4.9-12,6.3-18.3,3.6h-0.1l-0.5-0.3c-1.4-0.7-2.7-0.3-3.3-0.1c-0.6,0.3-1.7,0.9-2.3,2.3l-0.1,0.4
		C315.2,258.6,309.2,262.8,302.1,262.8 M298.4,247.5c0.9,2.4,2.9,2.7,3.8,2.7c0.8,0,2.9-0.2,3.8-2.7l0.1-0.4
		c1.7-4.3,4.9-7.7,9.2-9.4c4.1-1.7,8.8-1.7,12.9,0.1h0.1l0.5,0.3c2.3,1.1,4-0.2,4.5-0.8c0.6-0.6,1.9-2.3,0.8-4.5
		c-2-4.3-2.1-9.2-0.3-13.5c1.8-4.3,5.2-7.6,9.4-9.2h0.1l0.4-0.1c2.4-0.9,2.7-2.9,2.7-3.8c0-0.9-0.3-2.9-2.7-3.8l-0.4-0.1
		c-4.2-1.7-7.7-4.9-9.4-9.2c-1.8-4.4-1.7-9.3,0.3-13.5v-0.1c1.1-2.3-0.2-3.9-0.8-4.5c-0.6-0.6-2.3-1.9-4.5-0.8l-0.3,0.1
		c-4.2,1.9-9,2-13.3,0.2c-4.2-1.8-7.5-5.2-9.2-9.4v-0.1l-0.1-0.4c-0.9-2.4-2.9-2.7-3.8-2.7c-0.8,0-2.9,0.3-3.8,2.7v0.1
		c-1.6,4.5-5,8.1-9.3,9.8c-4.2,1.8-9,1.7-13.3-0.2l-0.3-0.1c-2.3-1.1-4,0.2-4.5,0.8c-0.6,0.6-1.9,2.3-0.8,4.5l0.1,0.1
		c2,4.2,2.1,9.1,0.3,13.4c-1.8,4.3-5.4,7.7-9.7,9.3h-0.1c-2.4,0.9-2.7,2.9-2.7,3.8c0,0.9,0.3,2.9,2.7,3.8h0.1c4.4,1.6,8,5,9.7,9.3
		c1.8,4.2,1.7,9-0.2,13.3l-0.1,0.3c-1.1,2.3,0.2,4,0.8,4.5c0.6,0.6,2.3,1.9,4.5,0.8l0.6-0.3c4.1-1.8,8.8-1.8,12.9-0.1
		C293.4,239.5,296.8,243,298.4,247.5 M302.1,231.2c-14,0-25.3-11.3-25.3-25.3c0-14,11.3-25.3,25.3-25.3c14,0,25.3,11.3,25.3,25.3
		C327.4,219.8,316.1,231.2,302.1,231.2 M302.1,193.2c-6.9,0-12.6,5.7-12.6,12.7c0,7,5.7,12.7,12.6,12.7c7,0,12.6-5.7,12.6-12.7
		C314.8,198.9,309.1,193.2,302.1,193.2 M288.8,261.7l-4.4,13.9l-8.7-8.2l-11.8,1.7l4.6-14.9c-3.5-0.9-6.6-2.7-9.3-5.4
		c-0.6-0.6-1.2-1.3-1.7-1.9l-11.6,37.6l25.6-3.8l19,17.7l10-32C296.1,266.2,292,264.5,288.8,261.7 M345,248.8
		c-2.7,2.7-5.8,4.4-9.3,5.4l4.6,14.9l-11.8-1.7l-8.6,8.2l-4.3-13.9c-3.2,2.8-7.3,4.6-11.7,4.9l10,32l19-17.7l25.6,3.8L346.7,247
		C346.1,247.6,345.5,248.2,345,248.8"/>
</g>
<g>
	<path class="st6" d="M624,654.4l-5.1-1.6l-1.8,5c-0.8,2.2-20.1,54.4-1.7,92.1c7.9,16.2,21.8,27.5,40.3,32.7c7.1,2,14.4,3,21.7,3.1
		l6,12.3c1.4,2.8,4.7,3.9,7.4,2.6c2.8-1.3,3.9-4.7,2.6-7.4l-6-12.3c4.5-5.8,8.2-12.2,11-19c7.3-17.7,7-35.7-0.8-51.9
		C679.2,672.2,626.3,655.1,624,654.4 M688.3,757.2c-1.7,4.3-3.9,8.3-6.4,12.2l-9.4-19.2l8.7-14.8c1.6-2.7,0.7-6.1-2-7.6
		c-2.7-1.6-6.1-0.7-7.6,2l-4.9,8.3l-4.9-10l8.6-14.7c1.6-2.7,0.7-6.1-2-7.7c-2.7-1.6-6.1-0.7-7.6,2L656,716l-11.5-23.7
		c-1.4-2.7-4.7-3.9-7.5-2.5c-2.7,1.4-3.9,4.7-2.5,7.5L646,721l-9.6-1.3c-3.1-0.5-5.9,1.6-6.4,4.6c-0.5,3,1.6,5.9,4.6,6.4
		c0.1,0,0.2,0,0.3,0l16.9,2.3l4.8,9.9l-9.6-1.4c-3-0.5-5.9,1.5-6.4,4.6c-0.5,3,1.5,5.9,4.6,6.4c0.1,0,0.2,0,0.3,0.1l17.2,2.5
		l9.3,19.2c-4.6-0.4-9.1-1.2-13.5-2.5c-15.4-4.4-26.5-13.4-33-26.7c-13.1-27-3.8-64.5,0.4-78.1c13.3,5.1,48.6,20.8,61.7,47.9
		C694,728.1,694.3,742.4,688.3,757.2"/>
</g>
<g>
	<path class="st7" d="M395.9,664.3c-8.1-8.1-21.1-8.8-30-1.5c-9.6-7.8-23.6-6.4-31.4,3.2c-7.2,8.9-6.6,21.8,1.4,29.9l29.7,29.8
		l0.3-0.2l0.3,0.2l29.7-29.8C404.6,687.2,404.6,673,395.9,664.3 M351.7,668c3.2,0,6.3,1.3,8.6,3.6l5.6,5.6l5.6-5.6
		c4.7-4.7,12.4-4.7,17.1,0c4.7,4.8,4.7,12.4,0,17.2l-22.5,22.5l-0.3-0.2l-0.3,0.2l-22.5-22.5c-4.7-4.7-4.8-12.4,0-17.2
		C345.4,669.3,348.5,668,351.7,668 M357.5,766.1c0.2-9.5-1.1-16.8-4.1-23c-3.6-7.4-9.2-10.5-14.5-13.5l-0.2-0.1
		c-0.9-0.5-1.9-1-2.9-1.6c-4.4-2.6-8.2-6.6-12.1-10.6c-0.8-0.8-1.6-1.6-2.4-2.4c-1.1-1.2-5.5-5.2-6.1-5.7c-0.8-0.9-1.8-1.6-2.9-2.1
		v-17.4c0-6.6-5-12.3-11.3-12.9c-6.9-0.6-13.1,4.5-13.7,11.4c0,0.4-0.1,0.8-0.1,1.1V733c0,3.2,1.2,6.3,3.5,8.5
		c3.6,3.6,21.7,21.8,25.7,25.6c0,0,0.1,0.1,0.1,0.2l2.2,16.3H329l-2.6-19.7c-0.2-1.4-1.2-2.4-3.7-4.8c-0.3-0.3-0.6-0.5-0.8-0.7
		l-23.8-23.8c-0.7-1-0.7-1.3-0.7-1.4v-8.8c0.4,0.6,0.8,1.1,1.3,1.6l20.6,20.5c1.1,1.4,2.7,2.2,4.5,2.1c1.6-0.1,3.1-1,4.1-2.3
		c1.3-2.2,0.4-5-1.1-6.6l-20.8-21c-0.3-0.3-0.4-0.6-0.4-1c0-0.4,0.2-0.8,0.4-1c0.6-0.5,1.6-0.5,2.1,0.1l0.1,0.1
		c1.6,1.5,5.1,4.7,5.8,5.5c0.8,0.8,1.5,1.6,2.3,2.4c4.1,4.2,8.7,9.1,14.2,12.3c1,0.6,2.1,1.2,3.1,1.8l0.2,0.1
		c4.7,2.6,8.1,4.5,10.3,9c2.3,4.7,3.3,10.5,3,18.5v0.1l0.9,17.3h10.2L357.5,766.1z M297.5,689.4c0-0.6,0.3-1.3,0.8-1.7
		c0.4-0.4,1-0.6,1.6-0.6h0.2c1.2,0.1,2.1,1.3,2.1,2.7v17.2c-1.2,0.6-2.3,1.3-3.3,2.3c-0.5,0.5-1,1-1.4,1.6V689.4z M373.5,783.4h10.2
		l0.9-17.3v0c-0.2-7.9,0.8-13.8,3-18.5c2.2-4.5,5.6-6.4,10.3-9l0.2-0.1c1-0.6,2-1.1,3.1-1.7c5.6-3.3,10.2-8.1,14.2-12.3
		c0.8-0.8,1.5-1.6,2.3-2.4c0.8-0.8,4.2-4,5.8-5.5l0.1-0.1c0.6-0.6,1.5-0.6,2.1-0.1c0.3,0.3,0.4,0.7,0.4,1c0,0.4-0.2,0.8-0.4,1
		l-20.8,21c-1.5,1.6-2.4,4.4-1.1,6.6c1,1.3,2.5,2.2,4.1,2.3c1.7,0.1,3.4-0.7,4.5-2.1l20.6-20.5c0.5-0.5,0.9-1,1.3-1.6v8.8
		c0,0.1,0,0.4-0.7,1.4l-23.8,23.8c-0.2,0.2-0.5,0.5-0.8,0.7c-2.5,2.3-3.5,3.4-3.7,4.8l-2.6,19.7h10.3l2.1-16.3c0-0.1,0-0.1,0.1-0.1
		c4-3.8,22.1-22,25.7-25.6c2.3-2.2,3.6-5.3,3.5-8.5v-43.6c0-7-5.7-12.6-12.6-12.6c-0.4,0-0.8,0-1.1,0.1c-6.4,0.6-11.4,6.3-11.4,12.9
		v17.4c-1.1,0.5-2.1,1.2-2.9,2.1c-0.6,0.5-4.9,4.5-6.1,5.7c-0.8,0.8-1.6,1.6-2.4,2.4c-3.8,4-7.7,8-12.1,10.6c-1,0.6-2,1.1-2.9,1.6
		l-0.2,0.1c-5.4,3-11,6-14.6,13.5c-3,6.1-4.3,13.4-4.1,22.9L373.5,783.4z M434.4,710.9c-0.4-0.6-0.8-1.1-1.3-1.6
		c-1-1-2.1-1.7-3.3-2.3v-17.2c0-1.4,0.9-2.6,2.1-2.7h0.2c0.6,0,1.2,0.2,1.6,0.6c0.5,0.4,0.8,1,0.8,1.7L434.4,710.9z"/>
</g>
</svg>
