<?xml version="1.0" encoding="utf-8"?>
<!-- Generator: Adobe Illustrator 26.0.1, SVG Export Plug-In . SVG Version: 6.00 Build 0)  -->
<svg version="1.1" id="Layer_1" xmlns="http://www.w3.org/2000/svg" xmlns:xlink="http://www.w3.org/1999/xlink" x="0px" y="0px"
	 viewBox="0 0 140.4 137.4" style="enable-background:new 0 0 140.4 137.4;" xml:space="preserve">
<style type="text/css">
	.st0{fill:#FFFFFF;}
	.st1{fill:none;}
	.st2{fill:#01519C;}
	.st3{fill:#FDB913;}
	.st4{clip-path:url(#SVGID_00000044135319865234817670000016583871463548639916_);fill:#FDB913;}
	.st5{clip-path:url(#SVGID_00000109000627159097754430000013193195572122901665_);fill:#FDB913;}
	.st6{clip-path:url(#SVGID_00000103228204904103801770000017846329549169529227_);fill:#FDB913;}
	.st7{clip-path:url(#SVGID_00000158028190127342308850000001650739549924726659_);fill:#FDB913;}
	.st8{clip-path:url(#SVGID_00000050630659967574873860000007779742549053443493_);fill:#FDB913;}
	.st9{fill:#ED7F22;}
	.st10{fill:#39B54A;}
	.st11{fill:#A6CE39;}
	.st12{fill:#ED328C;}
</style>
<path class="st0" d="M-122.2,297.9c0.1-13.5,11.1-24.3,24.5-24.1c13.3,0.1,24.1,10.9,24,24.3v0.3c-0.1,13.4-11.1,24.2-24.5,24
	C-111.6,322.2-122.3,311.3-122.2,297.9z"/>
<path class="st0" d="M-65.5,337.1c2.8,2.8,4.6,6.8,4.6,11.1v63.1h-73.6v-63.1c-0.1-8.8,6.9-15.8,15.5-15.8h42.5
	C-72.2,332.4-68.3,334.2-65.5,337.1z"/>
<path class="st0" d="M-36.7,297.9c0.1-13.5,11.1-24.3,24.5-24.1c13.3,0.1,24.1,10.9,24,24.3v0.3c-0.2,13.4-11.1,24.2-24.5,24
	C-26.1,322.2-36.9,311.3-36.7,297.9z"/>
<path class="st0" d="M25.3,348.2v63.1h-73.7v-63.1c0-8.8,6.9-15.8,15.6-15.8H9.7C18.3,332.5,25.3,339.5,25.3,348.2z"/>
<path class="st0" d="M429.5,736.4l-20.6,20.5c-1.1,1.4-2.8,2.2-4.5,2.1c-1.6-0.1-3.1-1-4.1-2.3c-1.3-2.2-0.4-5,1.1-6.6l20.8-21
	c0.2-0.2,0.4-0.6,0.4-1c0-0.3-0.1-0.7-0.4-1c-0.6-0.5-1.5-0.5-2.1,0.1l-0.1,0.1c-1.6,1.5-5,4.7-5.8,5.5c-0.8,0.8-1.5,1.6-2.3,2.4
	c-4,4.2-8.6,9-14.2,12.3c-1.1,0.6-2.1,1.1-3.1,1.7l-0.2,0.1c-4.7,2.6-8.1,4.5-10.3,9c-2,4.3-3,9.6-3,16.6c0,0.6,0,1.3,0,1.9
	l-0.9,17.3l29.3-0.1h-10.3l2.6-19.7c0.2-1.4,1.2-2.5,3.7-4.8c0.3-0.2,0.6-0.5,0.8-0.7l23.8-23.8c0.7-1,0.7-1.3,0.7-1.4v-8.8
	C430.4,735.4,430,735.9,429.5,736.4z"/>
<path class="st0" d="M354.7,794.5h-10.2l0-0.3h-29.3l-2.2-16.3c0-0.1-0.1-0.2-0.1-0.2c-4-3.8-22.1-22-25.7-25.6
	c-2.3-2.2-3.5-5.3-3.5-8.5V700c0-0.3,0.1-0.7,0.1-1.1c0.6-6.9,6.8-12,13.7-11.4c6.3,0.6,11.3,6.3,11.3,12.9v17.4
	c1.1,0.5,2.1,1.2,2.9,2.1c0.6,0.5,5,4.5,6.1,5.7c0.8,0.8,1.6,1.6,2.4,2.4c3.9,4,7.7,8,12.1,10.6c1,0.6,2,1.1,2.9,1.6l0.2,0.1
	c5.3,3,10.9,6.1,14.5,13.5c3,6.2,4.3,13.5,4.1,23l0.7,17.3v0.1L354.7,794.5z"/>
<path class="st0" d="M392.4,706.5l-29.7,29.8l-0.3-0.2l-0.3,0.2l-29.7-29.8c-8-8.1-8.6-21-1.4-29.9c7.8-9.6,21.8-11,31.4-3.2
	c8.9-7.3,21.9-6.6,30,1.5C401.1,683.7,401.1,697.8,392.4,706.5z"/>
<path class="st0" d="M440.9,700.1v43.4c0.1,3.2-1.2,6.3-3.5,8.5c-3.6,3.6-21.7,21.8-25.7,25.6c-0.1,0-0.1,0-0.1,0.1l-2.1,16.3h-10.3
	l2.6-19.7c0.2-1.4,1.2-2.5,3.7-4.8c0.3-0.2,0.6-0.5,0.8-0.7l23.8-23.8c0.7-1,0.7-1.3,0.7-1.4v-8.8c-0.4,0.6-0.8,1.1-1.3,1.6
	l-20.6,20.5c-1.1,1.4-2.8,2.2-4.5,2.1c-1.6-0.1-3.1-1-4.1-2.3c-1.3-2.2-0.4-5,1.1-6.6l20.8-21c0.2-0.2,0.4-0.6,0.4-1
	c0-0.3-0.1-0.7-0.4-1c-0.6-0.5-1.5-0.5-2.1,0.1l-0.1,0.1c-1.6,1.5-5,4.7-5.8,5.5c-0.8,0.8-1.5,1.6-2.3,2.4c-4,4.2-8.6,9-14.2,12.3
	c-1.1,0.6-2.1,1.1-3.1,1.7l-0.2,0.1c-4.7,2.6-8.1,4.5-10.3,9c-2,4.3-3,9.6-3,16.6c0,0.6,0,1.3,0,1.9l-0.9,17.3v0H370v0l0.7-17.3
	c-0.2-9.5,1.1-16.8,4.1-22.9c3.6-7.5,9.2-10.5,14.6-13.5l0.2-0.1c0.9-0.5,1.9-1,2.9-1.6c4.4-2.6,8.3-6.6,12.1-10.6
	c0.8-0.8,1.6-1.6,2.4-2.4c1.2-1.2,5.5-5.2,6.1-5.7c0.8-0.9,1.8-1.6,2.9-2.1v-17.4c0-6.6,5-12.4,11.2-12.9c0.3-0.1,0.7-0.1,1.1-0.1
	C435.2,687.5,440.9,693.1,440.9,700.1z"/>
<g>
	<path class="st0" d="M710.7,30.7v74.7H574.4V72c-4.2,1.8-8.9,2.8-13.7,2.8c-13.7,0-26-8.2-31.4-20.7c-7.4-17.3,0.7-37.3,18-44.6
		c-0.1,1.4-0.2,2.7-0.2,4.1c0,3.7,0.5,7.3,1.5,10.8c-1.7,1.3-3.2,2.7-4.4,4.4c-6.6,9.1-4.7,21.8,4.4,28.5c8,5.8,18.7,5,25.8-1.3
		V44.8c-12-5.3-20.4-17.3-20.4-31.2c0-18.8,15.3-34,34.1-34c18.9,0,34.1,15.2,34.1,34c0,6.2-1.7,12-4.6,17l5.2,0.1c0,0,0-0.1,0-0.1
		v0.1H710.7z"/>
	<g>
		<path class="st1" d="M643.3,53c-0.2,0-0.4,0-0.7,0c-0.3,0-0.5,0-0.8,0c-8,0.4-14.3,6.9-14.3,14.9c0,8.1,6.3,14.6,14.3,15
			c0.2,0,0.5,0,0.8,0c0.2,0,0.5,0,0.7,0c7.9-0.4,14.2-6.9,14.2-15C657.5,60,651.2,53.4,643.3,53z M648.1,65.6h-2.9
			c0-0.7-0.2-1.3-0.6-1.9c-0.3-0.4-0.9-0.8-1.4-0.9v4.5c1.3,0.2,2.6,0.8,3.6,1.7c0.2,0.2,0.3,0.4,0.4,0.6c0.4,0.7,0.7,1.5,0.7,2.2
			v0.1c0,0.1,0,0.2,0,0.4c-0.1,1-0.5,2-1.3,2.8c-0.9,0.8-2.1,1.3-3.4,1.3v1.4h-1.3v-1.4c-1.3,0.1-2.5-0.4-3.4-1.2
			c-0.7-0.8-1.2-1.8-1.3-2.8c0-0.1,0-0.2,0-0.4v-0.1h3c0,0.6,0.2,1.1,0.5,1.5c0.3,0.4,0.7,0.6,1.2,0.6V70c-1.4-0.4-2.7-1-3.8-1.9
			c-0.7-0.8-1.1-1.7-1.1-2.8v-0.1c-0.1-1.2,0.4-2.4,1.3-3.3c1-0.9,2.3-1.4,3.6-1.4v-2.1h1.3v2.1c1.4,0,2.7,0.5,3.7,1.4
			c0.8,0.9,1.2,2.1,1.2,3.4C648.1,65.4,648.1,65.5,648.1,65.6z"/>
		<path class="st1" d="M644.9,72.2c0-0.4-0.1-0.8-0.4-1.1c-0.4-0.4-0.8-0.6-1.3-0.8V74c0.5,0,0.9-0.2,1.3-0.6
			C644.8,73.1,645,72.6,644.9,72.2z"/>
		<path class="st1" d="M641.9,67v-4.1c-0.5,0-1,0.3-1.4,0.7c-0.3,0.4-0.5,0.9-0.5,1.4s0.1,0.9,0.4,1.3
			C640.9,66.5,641.3,66.8,641.9,67L641.9,67z"/>
		<path class="st1" d="M588.1,34c11.3,0,20.4-9.1,20.4-20.4c0-11.3-9.1-20.4-20.4-20.4s-20.4,9.1-20.4,20.4
			C567.6,24.9,576.8,34,588.1,34z"/>
		<path class="st2" d="M592.1,54.2c-3.4,8.1-9.9,14.4-17.7,17.8c-4.2,1.8-8.9,2.8-13.7,2.8c-13.7,0-26-8.2-31.4-20.7
			c-7.4-17.3,0.7-37.3,18-44.6c-0.1,1.4-0.2,2.7-0.2,4.1c0,3.7,0.5,7.3,1.5,10.8c-1.7,1.3-3.2,2.7-4.4,4.4
			c-6.6,9.1-4.7,21.8,4.4,28.5c8,5.8,18.7,5,25.8-1.3c1-0.9,2-1.9,2.8-3.1c3.5,1,7.1,1.5,10.8,1.5C589.4,54.4,590.7,54.3,592.1,54.2
			z"/>
		<path class="st2" d="M604.4,67.9c0,2.3,1.8,4.1,4.1,4.1c2.3,0,4.1-1.8,4.1-4.1c0-2.2-1.8-4.1-4.1-4.1
			C606.2,63.9,604.4,65.7,604.4,67.9z"/>
		<path class="st2" d="M588.1-20.4c-18.8,0-34.1,15.2-34.1,34c0,13.9,8.4,25.9,20.4,31.2c4.2,1.8,8.8,2.8,13.7,2.8
			c12.6,0,23.6-6.8,29.5-17c2.9-5,4.6-10.8,4.6-17C622.2-5.2,607-20.4,588.1-20.4z M588.1,34c-0.3,0-0.7,0-1,0
			c-0.7,0-1.3-0.1-1.9-0.2c-0.7-0.1-1.4-0.2-2.1-0.4c-2.6-0.7-5.1-1.9-7.2-3.4c-4.4-3.3-7.4-8.4-8-14.2c-0.1-0.6-0.1-1.3-0.1-1.9
			v-0.2c0-0.3,0-0.7,0-1c0-0.4,0-0.7,0.1-1c0.8-8.6,7-15.6,15.2-17.7c0.7-0.2,1.4-0.3,2.1-0.4c0.6-0.1,1.3-0.2,1.9-0.2
			c0.3,0,0.7,0,1,0c11.3,0,20.4,9.1,20.4,20.4c0,6.9-3.4,13-8.7,16.7C596.5,32.6,592.5,34,588.1,34z"/>
		<path class="st2" d="M646.9,62c-1-0.9-2.3-1.4-3.7-1.4v-2.1h-1.3v2.1c-1.3,0-2.6,0.6-3.6,1.4c-0.9,0.9-1.3,2-1.3,3.2v0.1
			c0,1.1,0.3,2.1,1.1,2.9c1.1,0.9,2.4,1.6,3.8,1.9V74c-0.5,0-0.9-0.2-1.2-0.6c-0.3-0.4-0.5-1-0.5-1.5h-3c0,0.1,0,0.2,0,0.4
			c0.1,1.1,0.6,2.1,1.3,2.9c0.9,0.8,2.1,1.3,3.3,1.3v1.4h1.4v-1.5c1.3,0,2.5-0.4,3.4-1.3c0.8-0.8,1.2-1.8,1.3-2.8c0-0.1,0-0.2,0-0.4
			c0.1-0.8-0.2-1.7-0.7-2.3c-0.1-0.2-0.3-0.3-0.4-0.5c-1.1-0.9-2.3-1.4-3.6-1.7v-4.5c0.6,0.1,1.1,0.4,1.4,0.9
			c0.4,0.6,0.6,1.2,0.6,1.9h2.9c0,0,0-0.1,0-0.1c0-0.1,0-0.2,0-0.3C648.1,64.1,647.7,62.9,646.9,62z M640.3,63.9
			c0.1-0.2,0.2-0.3,0.3-0.5c0.4-0.4,0.8-0.6,1.4-0.7v4.1h-0.1c-0.6,0-1-0.3-1.4-0.7c-0.3-0.3-0.5-0.8-0.4-1.3c0-0.2,0-0.5,0.1-0.7
			C640.3,64,640.3,63.9,640.3,63.9z M644.5,71.1c0.3,0.3,0.4,0.7,0.4,1.1c0,0.4-0.1,0.8-0.4,1.2c0,0,0,0-0.1,0.1c0,0,0,0-0.1,0.1
			c-0.3,0.3-0.8,0.6-1.3,0.6v-3.8h0.1C643.7,70.4,644.2,70.7,644.5,71.1z"/>
		<path class="st2" d="M710.7,30.7v74.7H574.4V77.1c5.1-1.9,9.7-4.9,13.6-8.7v23.4h109V44.2h-85.2c4.6-3.6,8.4-8.2,11-13.4
			c0,0,0-0.1,0-0.1c0,0,0-0.1,0-0.1v0.1H710.7z"/>
		<path class="st2" d="M680.7,67.9c0-2.2-1.8-4.1-4.1-4.1s-4.1,1.8-4.1,4.1c0,2.3,1.8,4.1,4.1,4.1S680.7,70.2,680.7,67.9z"/>
		<path class="st2" d="M642.5,48.2c-10.9,0-19.8,8.8-19.8,19.7c0,10.9,8.8,19.7,19.8,19.7s19.8-8.8,19.8-19.7
			C662.3,57,653.5,48.2,642.5,48.2z M643.3,82.9c-0.2,0-0.4,0-0.7,0c-0.3,0-0.5,0-0.8,0c-7.9-0.4-14.2-6.9-14.2-15
			c0-7.9,6.3-14.5,14.2-14.9c0.2,0,0.5,0,0.8,0c0.2,0,0.5,0,0.7,0c8,0.4,14.3,6.9,14.3,14.9C657.6,76,651.3,82.5,643.3,82.9z"/>
	</g>
</g>
<g>
	<polygon class="st0" points="140.4,68.7 119,105.8 82.4,105.8 64.2,137.4 21.4,137.4 0,100.3 18.2,68.7 0,37.1 21.4,0 64.2,0 
		82.4,31.6 119,31.6 	"/>
	<g>
		<path class="st3" d="M82.4,31.6L64.2,0H21.4L0,37.1l18.2,31.6l3.2,5.5h42.8l3.1-5.4l0-0.1l15.1-26.2l3.1-5.4L82.4,31.6z M12.5,37
			l15.1-26.2h30.3L73,37L57.9,63.2H27.6L12.5,37z"/>
		<path class="st3" d="M119,31.6H76.2L58,63.2l-3.2,5.5l3.2,5.5l18.2,31.6H119l21.4-37.1L119,31.6z M112.7,94.9H82.5l-2.6-4.5
			L67.3,68.8l0-0.1l0-0.1l15.1-26.1h30.3l15.1,26.2L112.7,94.9z"/>
		<path class="st3" d="M79.9,90.4L67.4,68.7l0-0.1l-3.1-5.4H21.4l-3.2,5.5L0,100.3l21.4,37.1h42.8l18.2-31.6l3.2-5.5L79.9,90.4z
			 M57.9,126.5H27.6l-15.1-26.2l15-26.1l0.1-0.1h30.3l0.1,0.1l15,26.1L57.9,126.5z"/>
		<g>
			<g>
				<defs>
					<rect id="SVGID_1_" width="140.4" height="137.4"/>
				</defs>
				<clipPath id="SVGID_00000170982283579735628070000005693279756704077962_">
					<use xlink:href="#SVGID_1_"  style="overflow:visible;"/>
				</clipPath>
				<path style="clip-path:url(#SVGID_00000170982283579735628070000005693279756704077962_);fill:#FDB913;" d="M42.9,30.6
					c-2.7,0-4.9-2.1-4.9-4.8v-0.1c0-2.7,2.1-4.8,4.8-4.9c2.7,0,4.9,2.1,4.9,4.8C47.8,28.4,45.6,30.6,42.9,30.6 M42.8,15.9L42.8,15.9
					c-5.4-0.1-9.9,4.3-9.9,9.7c-0.1,5.4,4.3,9.9,9.7,9.9c5.4,0.1,9.9-4.3,9.9-9.7v-0.1C52.5,20.3,48.2,15.9,42.8,15.9"/>
			</g>
			<g>
				<defs>
					<rect id="SVGID_00000091012486045512277320000002505518655395870346_" width="140.4" height="137.4"/>
				</defs>
				<clipPath id="SVGID_00000137101685517475694710000007786522465222864574_">
					<use xlink:href="#SVGID_00000091012486045512277320000002505518655395870346_"  style="overflow:visible;"/>
				</clipPath>
				<path style="clip-path:url(#SVGID_00000137101685517475694710000007786522465222864574_);fill:#FDB913;" d="M52.8,66.6h-20V46
					c0-0.8,0.6-1.4,1.4-1.4h17.2l0,0c0.8,0,1.4,0.6,1.4,1.4L52.8,66.6L52.8,66.6z M51.4,39.6H34.2c-3.5,0-6.3,2.9-6.3,6.4v25.5h29.8
					V46C57.7,42.5,54.9,39.6,51.4,39.6"/>
			</g>
			<g>
				<defs>
					<rect id="SVGID_00000056412794507499918530000011748524091999143103_" width="140.4" height="137.4"/>
				</defs>
				<clipPath id="SVGID_00000051347926498495305390000011862746528116265899_">
					<use xlink:href="#SVGID_00000056412794507499918530000011748524091999143103_"  style="overflow:visible;"/>
				</clipPath>
				<path style="clip-path:url(#SVGID_00000051347926498495305390000011862746528116265899_);fill:#FDB913;" d="M98.3,64.9
					c-2.6,0-4.7-2-4.8-4.6v-0.1c0-2.6,2.1-4.7,4.6-4.7c2.6,0,4.7,2,4.8,4.6C103,62.7,100.9,64.9,98.3,64.9 M98.2,50.7L98.2,50.7
					c-5.3-0.1-9.6,4.1-9.6,9.4c0,5.3,4.1,9.5,9.4,9.6c5.3,0.1,9.6-4.1,9.6-9.4v-0.1C107.7,55,103.4,50.7,98.2,50.7"/>
			</g>
			<g>
				<defs>
					<rect id="SVGID_00000181808321392548972150000014450498418204424580_" width="140.4" height="137.4"/>
				</defs>
				<clipPath id="SVGID_00000018953065865916146260000015964148064556840327_">
					<use xlink:href="#SVGID_00000181808321392548972150000014450498418204424580_"  style="overflow:visible;"/>
				</clipPath>
				<path style="clip-path:url(#SVGID_00000018953065865916146260000015964148064556840327_);fill:#FDB913;" d="M107.9,99.7H88.6
					V79.8c0-0.7,0.6-1.4,1.3-1.4h16.6l0,0c0.8,0,1.4,0.6,1.4,1.4L107.9,99.7L107.9,99.7z M106.5,73.6H89.8c-3.4,0-6.1,2.8-6.1,6.2
					v24.7h28.8V79.8C112.7,76.4,109.9,73.6,106.5,73.6"/>
			</g>
			<g>
				<defs>
					<rect id="SVGID_00000115474319449170229130000012662545123938657452_" width="140.4" height="137.4"/>
				</defs>
				<clipPath id="SVGID_00000096738240682086277990000005175238418756388257_">
					<use xlink:href="#SVGID_00000115474319449170229130000012662545123938657452_"  style="overflow:visible;"/>
				</clipPath>
				<path style="clip-path:url(#SVGID_00000096738240682086277990000005175238418756388257_);fill:#FDB913;" d="M47.9,118
					c-0.9,0.7-1.9,1.3-3.4,1.5v-10.1c1.6,0.5,2.8,1.2,3.4,2c0.7,0.7,1.1,1.8,1.1,3.1C49.1,115.9,48.7,117.1,47.9,118 M41.2,100.8
					c-1.6-0.5-2.7-1.1-3.3-1.8c-0.7-0.7-1.1-1.7-1.1-2.8c0-1.3,0.3-2.4,1.1-3.2c0.8-0.7,1.9-1.2,3.3-1.4V100.8z M53.9,106.5
					c-1.9-1.7-5.1-3.3-9.6-4.8v-9.9c1.3,0.2,2.3,0.7,3,1.5c0.6,0.9,1,2.2,1.1,3.9h7.4c-0.2-3.6-1.3-6.3-3.2-8.3c-2-2-4.7-3-8.3-3.2
					v-3.5h-3.2v3.5c-3.6,0-6.3,1-8.5,3.1c-2.1,2.1-3.2,4.7-3.2,8.1c0,3,0.9,5.4,2.7,7.1c1.8,1.7,4.7,3.1,9.1,4.2v11.3
					c-1.6-0.3-2.8-1.1-3.8-2c-0.8-1.2-1.3-2.7-1.4-4.7h-7.3c0,4.1,1,7.1,3.1,9.3c2.1,2.1,5.1,3.2,9.3,3.5v5.3h3.2v-5.3
					c3.9-0.4,6.9-1.5,9.1-3.6c2.1-2.1,3.2-4.9,3.2-8.4C56.6,110.7,55.7,108.3,53.9,106.5"/>
			</g>
		</g>
	</g>
</g>
<g>
	<path class="st9" d="M-97.7,273.8c-13.4-0.2-24.4,10.6-24.5,24.1c-0.1,13.4,10.6,24.3,24,24.5c13.4,0.2,24.4-10.6,24.5-24v-0.3
		C-73.6,284.7-84.4,273.9-97.7,273.8z M-97.4,310.2c-6.7,0.1-12.1-5.3-12.2-11.9v-0.2c0-6.6,5.3-11.9,11.9-12
		c6.6-0.1,12.1,5.2,12.2,11.9C-85.4,304.7-90.8,310.1-97.4,310.2z M-12.2,273.8c-13.4-0.2-24.4,10.6-24.5,24.1
		c-0.2,13.4,10.6,24.3,24,24.5c13.4,0.2,24.3-10.6,24.5-24v-0.3C11.9,284.7,1.1,273.9-12.2,273.8z M-11.9,310.2
		c-6.7,0.1-12.1-5.3-12.2-11.9v-0.2c0-6.6,5.3-11.9,11.9-12C-5.5,286-0.1,291.3,0,298C0,304.7-5.3,310.1-11.9,310.2z M-65.5,337.1
		c-2.8-2.9-6.7-4.6-11-4.7H-119c-8.6,0-15.6,7-15.5,15.8v63.1h73.6v-63.1C-60.9,343.8-62.6,339.9-65.5,337.1z M-73,398.9h-49.4
		v-50.8c0-1.9,1.5-3.5,3.4-3.5h42.5c2,0,3.5,1.6,3.5,3.5V398.9z M9.7,332.4h-42.5c-8.7,0-15.6,7-15.6,15.8v63.1h73.7v-63.1
		C25.3,339.5,18.3,332.5,9.7,332.4z M13.2,398.9h-49.4v-50.8c0-1.9,1.5-3.5,3.4-3.5H9.7c1.9,0,3.4,1.6,3.5,3.5V398.9z"/>
</g>
<g>
	<path class="st0" d="M698.4,761.9c-2.8,6.8-6.5,13.2-11,19l6,12.3c0.2,0.4,0.3,0.9,0.4,1.3h-12.1l-4.3-8.8
		c-7.3-0.1-14.6-1.1-21.7-3.1c-18.5-5.2-32.4-16.5-40.3-32.7c-14.7-30.2-5.2-69.9-0.5-85.5h32.8c17.2,8.9,39.3,23.8,49.9,45.6
		C705.4,726.2,705.7,744.2,698.4,761.9z"/>
	<g>
		<path class="st10" d="M697.6,710c-10.6-21.8-32.7-36.7-49.9-45.6c-12.7-6.5-22.7-9.8-23.7-10l-5-1.6l-1.9,5
			c-0.2,0.4-1,2.8-2.2,6.6c-4.7,15.6-14.2,55.2,0.5,85.5c7.9,16.2,21.8,27.5,40.3,32.7c7.1,2,14.4,3,21.7,3.1l4.3,8.8l1.7,3.5
			c1.4,2.8,4.7,3.9,7.4,2.6c2.4-1.1,3.5-3.7,3-6.1c-0.1-0.4-0.2-0.9-0.4-1.3l-6-12.3c4.5-5.8,8.2-12.2,11-19
			C705.7,744.2,705.4,726.2,697.6,710z M688.2,757.2c-1.7,4.3-3.9,8.3-6.4,12.2l-9.3-19.2l8.7-14.8c1.6-2.7,0.7-6.1-2-7.6
			c-2.7-1.6-6.1-0.7-7.6,2l-4.9,8.3l-4.9-10l8.7-14.8c1.6-2.7,0.7-6.1-2-7.7s-6.1-0.7-7.6,2L656,716l-11.6-23.7
			c-1.4-2.7-4.7-3.9-7.5-2.5c-2.7,1.4-3.9,4.7-2.5,7.5l11.5,23.7l-9.6-1.3c-3.1-0.5-5.9,1.6-6.4,4.6s1.6,5.9,4.6,6.4h0.3l16.9,2.3
			l4.8,9.9l-9.6-1.4c-3-0.5-5.9,1.5-6.4,4.6c-0.5,3,1.5,5.9,4.6,6.4c0.1,0,0.2,0,0.3,0.1l17.2,2.5l9.3,19.2
			c-4.6-0.4-9.1-1.2-13.5-2.5c-15.4-4.4-26.5-13.4-33-26.7c-13.1-27-3.8-64.5,0.4-78.1c13.3,5.1,48.6,20.8,61.7,47.9
			C694,728.1,694.3,742.4,688.2,757.2z"/>
	</g>
</g>
<g>
	<path class="st11" d="M392.4,674.9c-8.1-8.1-21.1-8.8-30-1.5c-9.6-7.8-23.6-6.4-31.4,3.2c-7.2,8.9-6.6,21.8,1.4,29.9l29.7,29.8
		l0.3-0.2l0.3,0.2l29.7-29.8C401.1,697.8,401.1,683.7,392.4,674.9z M385.1,699.4l-22.5,22.5l-0.3-0.2l-0.3,0.2l-22.5-22.5
		c-4.7-4.7-4.8-12.4,0-17.2c2.4-2.3,5.5-3.6,8.7-3.6s6.3,1.3,8.6,3.6l5.6,5.6l5.6-5.6c4.7-4.7,12.4-4.7,17.1,0
		C389.8,687,389.8,694.6,385.1,699.4z M354.7,794.2L354.7,794.2l-0.7-17.4c0.2-9.5-1.1-16.8-4.1-23c-3.6-7.4-9.2-10.5-14.5-13.5
		l-0.2-0.1c-0.9-0.5-1.9-1-2.9-1.6c-4.4-2.6-8.2-6.6-12.1-10.6c-0.8-0.8-1.6-1.6-2.4-2.4c-1.1-1.2-5.5-5.2-6.1-5.7
		c-0.8-0.9-1.8-1.6-2.9-2.1v-17.4c0-6.6-5-12.3-11.3-12.9c-6.9-0.6-13.1,4.5-13.7,11.4c0,0.4-0.1,0.8-0.1,1.1v43.6
		c0,3.2,1.2,6.3,3.5,8.5c3.6,3.6,21.7,21.8,25.7,25.6c0,0,0.1,0.1,0.1,0.2l2.2,16.3h10.3v0l-2.6-19.7c-0.2-1.4-1.2-2.4-3.7-4.8
		c-0.3-0.3-0.6-0.5-0.8-0.7l-23.8-23.8c-0.7-1-0.7-1.3-0.7-1.4V735c0.4,0.6,0.8,1.1,1.3,1.6l20.6,20.5c1.1,1.4,2.7,2.2,4.5,2.1
		c1.6-0.1,3.1-1,4.1-2.3c1.3-2.2,0.4-5-1.1-6.6l-20.8-21c-0.3-0.3-0.4-0.6-0.4-1c0-0.4,0.2-0.8,0.4-1c0.6-0.5,1.6-0.5,2.1,0.1
		l0.1,0.1c1.6,1.5,5.1,4.7,5.8,5.5c0.8,0.8,1.5,1.6,2.3,2.4c4.1,4.2,8.7,9.1,14.2,12.3c1,0.6,2.1,1.2,3.1,1.8l0.2,0.1
		c4.7,2.6,8.1,4.5,10.3,9c2.3,4.7,3.3,10.5,3,18.5v0.1l0.9,16.9v0.1l0,0.3h10.2L354.7,794.2z M298.7,717.6c-1.2,0.6-2.3,1.3-3.3,2.3
		c-0.5,0.5-1,1-1.4,1.6V700c0-0.6,0.3-1.3,0.8-1.7c0.4-0.4,1-0.6,1.6-0.6h0.2c1.2,0.1,2.1,1.3,2.1,2.7V717.6z M428.3,687.5
		c-0.4,0-0.8,0-1.1,0.1c-6.2,0.5-11.2,6.3-11.2,12.9v17.4c-1.1,0.5-2.1,1.2-2.9,2.1c-0.6,0.5-4.9,4.5-6.1,5.7
		c-0.8,0.8-1.6,1.6-2.4,2.4c-3.8,4-7.7,8-12.1,10.6c-1,0.6-2,1.1-2.9,1.6l-0.2,0.1c-5.4,3-11,6-14.6,13.5c-3,6.1-4.3,13.4-4.1,22.9
		l-0.7,17.3v0h10.2v0l0.9-17.3c0-0.7,0-1.3,0-1.9c0-6.9,1-12.3,3-16.6c2.2-4.5,5.6-6.4,10.3-9l0.2-0.1c1-0.6,2-1.1,3.1-1.7
		c5.6-3.3,10.2-8.1,14.2-12.3c0.8-0.8,1.5-1.6,2.3-2.4c0.8-0.8,4.2-4,5.8-5.5l0.1-0.1c0.6-0.6,1.5-0.6,2.1-0.1
		c0.3,0.3,0.4,0.7,0.4,1c0,0.4-0.2,0.8-0.4,1l-20.8,21c-1.5,1.6-2.4,4.4-1.1,6.6c1,1.3,2.5,2.2,4.1,2.3c1.7,0.1,3.4-0.7,4.5-2.1
		l20.6-20.5c0.5-0.5,0.9-1,1.3-1.6v8.8c0,0.1,0,0.4-0.7,1.4l-23.8,23.8c-0.2,0.2-0.5,0.5-0.8,0.7c-2.5,2.3-3.5,3.4-3.7,4.8
		l-2.6,19.7h10.3l2.1-16.3c0-0.1,0-0.1,0.1-0.1c4-3.8,22.1-22,25.7-25.6c2.3-2.2,3.6-5.3,3.5-8.5v-43.4
		C440.9,693.1,435.2,687.5,428.3,687.5z M430.9,721.5c-0.4-0.6-0.8-1.1-1.3-1.6c-1-1-2.1-1.7-3.3-2.3v-17.2c0-1.4,0.9-2.6,2.1-2.7
		h0.2c0.6,0,1.2,0.2,1.6,0.6c0.5,0.4,0.8,1,0.8,1.7L430.9,721.5z"/>
</g>
<polyline class="st1" points="409.5,794 380.2,794.1 370,794.1 354.7,794.1 344.5,794.1 325.5,794.2 315.2,794.2 "/>
<g>
	<path class="st0" d="M1072.3,284.7c2.4-4.6,2.6-10,0.2-14.9c-0.7-1.4-0.4-2.6-0.1-3.2c0.2-0.7,0.9-1.8,2.3-2.3l0.4-0.1h0.1
		c6.5-2.5,10.7-8.6,10.7-15.6s-4.2-13.1-10.7-15.6l-0.4-0.1c-1.4-0.6-2-1.7-2.3-2.3c-0.2-0.6-0.5-1.8,0.1-3.2v-0.1
		c3-6.5,1.8-13.9-3.3-19c-5-5-12.2-6.3-18.6-3.4l-0.3,0.1c-1.5,0.7-2.7,0.4-3.3,0.1c-0.7-0.2-1.8-0.9-2.3-2.3l-0.1-0.4v-0.1
		c-2.4-6.5-8.5-10.7-15.5-10.7c-7.2,0-13.3,4.3-15.7,11v0.1c-0.5,1.4-1.6,2-2.2,2.3c-0.6,0.2-1.9,0.6-3.3-0.1l-0.3-0.1
		c-6.4-2.9-13.6-1.6-18.6,3.4c-5.1,5.1-6.4,12.5-3.4,18.9l0.1,0.1c0.7,1.5,0.4,2.7,0.1,3.3c-0.2,0.7-0.9,1.8-2.3,2.3h-0.1
		c-6.7,2.4-11,8.6-11,15.7c0,7.1,4.3,13.3,11,15.7h0.1c1.4,0.6,2,1.7,2.3,2.3c0.2,0.6,0.6,1.9-0.1,3.3l-0.1,0.3
		c-2.2,4.9-2,10.3,0.5,14.9l-1.6,4.6L973,327.2l25.6-3.8l19,17.7l10-32l3.4,0.2l10,32l19-17.7l25.6,3.8l-5.2-16.6L1072.3,284.7z"/>
	<g>
		<path class="st12" d="M1073.8,289.9c-0.6,0.5-1.2,1.2-1.7,1.8c-2.7,2.7-5.8,4.4-9.3,5.4l4.6,14.9l-11.8-1.7l-8.6,8.2l-4.3-13.9
			c-3.2,2.8-7.3,4.6-11.7,4.9l10,32l19-17.7l25.6,3.8L1073.8,289.9z M1015.9,304.6l-4.4,13.9l-8.7-8.2L991,312l4.6-14.9
			c-3.5-0.9-6.6-2.7-9.3-5.4c-0.6-0.6-1.2-1.3-1.7-1.9L973,327.4l25.6-3.8l19,17.7l10-32C1023.2,309.1,1019.1,307.3,1015.9,304.6z
			 M1029.2,223.4c-14,0-25.3,11.3-25.3,25.3c0,14,11.3,25.3,25.3,25.3s25.3-11.3,25.3-25.3C1054.5,234.7,1043.2,223.4,1029.2,223.4z
			 M1029.2,261.4c-6.9,0-12.6-5.7-12.6-12.7s5.7-12.7,12.6-12.7c7,0,12.7,5.7,12.6,12.7C1041.8,255.7,1036.2,261.4,1029.2,261.4z
			 M1029.2,223.4c-14,0-25.3,11.3-25.3,25.3c0,14,11.3,25.3,25.3,25.3s25.3-11.3,25.3-25.3C1054.5,234.7,1043.2,223.4,1029.2,223.4z
			 M1029.2,261.4c-6.9,0-12.6-5.7-12.6-12.7s5.7-12.7,12.6-12.7c7,0,12.7,5.7,12.6,12.7C1041.8,255.7,1036.2,261.4,1029.2,261.4z
			 M1075.2,233.2l-0.4-0.1c-1.4-0.6-2-1.7-2.3-2.3c-0.2-0.6-0.5-1.8,0.1-3.2v-0.1c3-6.5,1.8-13.9-3.3-19c-5-5-12.2-6.3-18.6-3.4
			l-0.3,0.1c-1.5,0.7-2.7,0.4-3.3,0.1c-0.7-0.2-1.8-0.9-2.3-2.3l-0.1-0.4v-0.1c-2.4-6.5-8.5-10.7-15.5-10.7c-7.2,0-13.3,4.3-15.7,11
			v0.1c-0.5,1.4-1.6,2-2.2,2.3c-0.6,0.2-1.9,0.6-3.3-0.1l-0.3-0.1c-6.4-2.9-13.6-1.6-18.6,3.4c-5.1,5.1-6.4,12.5-3.4,18.9l0.1,0.1
			c0.7,1.5,0.4,2.7,0.1,3.3c-0.2,0.7-0.9,1.8-2.3,2.3h-0.1c-6.7,2.4-11,8.6-11,15.7c0,7.1,4.3,13.3,11,15.7h0.1
			c1.4,0.6,2,1.7,2.3,2.3c0.2,0.6,0.6,1.9-0.1,3.3l-0.1,0.3c-2.9,6.4-1.6,13.7,3.4,18.7c4.9,4.9,12,6.3,18.3,3.6l0.6-0.3
			c1.5-0.7,2.7-0.4,3.3-0.1c0.6,0.2,1.7,0.8,2.2,2.3v0.1c2.4,6.7,8.6,11.1,15.7,11.1c7.1,0,13.1-4.2,15.4-10.8l0.1-0.4
			c0.6-1.4,1.7-2,2.3-2.3c0.6-0.2,1.9-0.6,3.3,0.1l0.5,0.3h0.1c6.3,2.7,13.4,1.3,18.3-3.6c5.1-5.1,6.4-12.6,3.3-19
			c-0.7-1.4-0.4-2.6-0.1-3.2c0.2-0.7,0.9-1.8,2.3-2.3l0.4-0.1h0.1c6.5-2.5,10.7-8.6,10.7-15.6S1081.7,235.7,1075.2,233.2z
			 M1070.8,252.9l-0.4,0.1h-0.1c-4.2,1.6-7.6,4.9-9.4,9.2c-1.8,4.3-1.7,9.2,0.3,13.5c1.1,2.2-0.2,3.9-0.8,4.5
			c-0.5,0.6-2.2,1.9-4.5,0.8l-0.5-0.3h-0.1c-4.1-1.8-8.8-1.8-12.9-0.1c-4.3,1.7-7.5,5.1-9.2,9.4l-0.1,0.4c-0.9,2.5-3,2.7-3.8,2.7
			c-0.9,0-2.9-0.3-3.8-2.7c-1.6-4.5-5-8.1-9.3-9.8c-4.1-1.7-8.8-1.7-12.9,0.1l-0.6,0.3c-2.2,1.1-3.9-0.2-4.5-0.8
			c-0.6-0.5-1.9-2.2-0.8-4.5l0.1-0.3c1.9-4.3,2-9.1,0.2-13.3c-1.7-4.3-5.3-7.7-9.7-9.3h-0.1c-2.4-0.9-2.7-2.9-2.7-3.8
			s0.3-2.9,2.7-3.8h0.1c4.3-1.6,7.9-5,9.7-9.3c1.8-4.3,1.7-9.2-0.3-13.4l-0.1-0.1c-1.1-2.2,0.2-3.9,0.8-4.5c0.5-0.6,2.2-1.9,4.5-0.8
			l0.3,0.1c4.3,1.9,9.1,2,13.3,0.2c4.3-1.7,7.7-5.3,9.3-9.8v-0.1c0.9-2.4,3-2.7,3.8-2.7c0.9,0,2.9,0.3,3.8,2.7l0.1,0.4v0.1
			c1.7,4.2,5,7.6,9.2,9.4c4.3,1.8,9.1,1.7,13.3-0.2l0.3-0.1c2.2-1.1,3.9,0.2,4.5,0.8c0.6,0.6,1.9,2.2,0.8,4.5v0.1
			c-2,4.2-2.1,9.1-0.3,13.5c1.7,4.3,5.2,7.5,9.4,9.2l0.4,0.1c2.4,0.9,2.7,2.9,2.7,3.8C1073.5,250,1073.2,252,1070.8,252.9z
			 M1029.2,223.4c-14,0-25.3,11.3-25.3,25.3c0,14,11.3,25.3,25.3,25.3s25.3-11.3,25.3-25.3C1054.5,234.7,1043.2,223.4,1029.2,223.4z
			 M1029.2,261.4c-6.9,0-12.6-5.7-12.6-12.7s5.7-12.7,12.6-12.7c7,0,12.7,5.7,12.6,12.7C1041.8,255.7,1036.2,261.4,1029.2,261.4z"/>
		<path class="st1" d="M947.9,189.5v169h159.5v-169H947.9z M1017.6,341.3l-19-17.7l-25.6,3.8l11.6-37.6c0.5,0.6,1.1,1.3,1.7,1.9
			c2.7,2.7,5.8,4.5,9.3,5.4L991,312l11.8-1.7l8.7,8.2l4.4-13.9c3.2,2.7,7.3,4.5,11.7,4.7L1017.6,341.3z M1060,323.8l-19,17.7l-10-32
			c4.4-0.3,8.5-2.1,11.7-4.9l4.3,13.9l8.6-8.2l11.8,1.7l-4.6-14.9c3.5-1,6.6-2.7,9.3-5.4c0.5-0.6,1.1-1.3,1.7-1.8l11.8,37.7
			L1060,323.8z M1075.2,264.4L1075.2,264.4l-0.5,0.1c-1.4,0.5-2.1,1.6-2.3,2.3c-0.3,0.6-0.6,1.8,0.1,3.2c3.1,6.4,1.8,13.9-3.3,19
			c-4.9,4.9-12,6.3-18.3,3.6h-0.1l-0.5-0.3c-1.4-0.7-2.7-0.3-3.3-0.1c-0.6,0.3-1.7,0.9-2.3,2.3l-0.1,0.4
			c-2.3,6.6-8.3,10.8-15.4,10.8c-7.1,0-13.3-4.4-15.7-11.1v-0.1c-0.5-1.5-1.6-2.1-2.2-2.3c-0.6-0.3-1.8-0.6-3.3,0.1l-0.6,0.3
			c-6.3,2.7-13.4,1.3-18.3-3.6c-5-5-6.3-12.3-3.4-18.7l0.1-0.3c0.7-1.4,0.3-2.7,0.1-3.3c-0.3-0.6-0.9-1.7-2.3-2.3h-0.1
			c-6.7-2.4-11-8.6-11-15.7c0-7.1,4.3-13.3,11-15.7h0.1c1.4-0.5,2.1-1.6,2.3-2.3c0.3-0.6,0.6-1.8-0.1-3.3l-0.1-0.1
			c-3-6.4-1.7-13.8,3.4-18.9c5-5,12.2-6.3,18.6-3.4l0.3,0.1c1.4,0.7,2.7,0.3,3.3,0.1c0.6-0.3,1.7-0.9,2.2-2.3v-0.1
			c2.4-6.7,8.5-11,15.7-11c7,0,13.1,4.2,15.5,10.7v0.1l0.1,0.4c0.5,1.4,1.6,2.1,2.3,2.3c0.6,0.3,1.8,0.6,3.3-0.1l0.3-0.1
			c6.4-2.9,13.6-1.6,18.6,3.4c5.1,5.1,6.3,12.5,3.3,19v0.1c-0.6,1.4-0.3,2.6-0.1,3.2c0.3,0.6,0.9,1.7,2.3,2.3l0.4,0.1
			c6.5,2.5,10.7,8.6,10.7,15.6S1081.7,261.9,1075.2,264.4z"/>
	</g>
</g>
</svg>
