<?xml version="1.0" encoding="utf-8"?>
<!-- Generator: Adobe Illustrator 26.0.1, SVG Export Plug-In . SVG Version: 6.00 Build 0)  -->
<svg version="1.1" id="Layer_1" xmlns="http://www.w3.org/2000/svg" xmlns:xlink="http://www.w3.org/1999/xlink" x="0px" y="0px"
	 viewBox="0 0 184 125.7" style="enable-background:new 0 0 184 125.7;" xml:space="preserve">
<style type="text/css">
	.st0{fill:none;}
	.st1{fill:#01519C;}
	.st2{fill:#FDB913;}
	.st3{clip-path:url(#SVGID_00000135661285340402253210000001828329996077691285_);fill:#FDB913;}
	.st4{fill:#ED7F22;}
	.st5{fill:#ED328C;}
	.st6{fill:#39B54A;}
	.st7{fill:#A6CE39;}
</style>
<g>
	<path class="st0" d="M130.9,88.3c0-8.2-6.7-14.9-15-14.9c-8.3,0-15,6.7-15,14.9c0,8.3,6.7,15,15,15
		C124.2,103.3,130.9,96.6,130.9,88.3z M111.9,95.4c-0.8-0.9-1.3-2.1-1.3-3.3h3c0,0.6,0.2,1.1,0.5,1.5c0.3,0.4,0.7,0.6,1.2,0.6v-3.9
		c-1.4-0.4-2.7-1-3.8-1.9c-0.7-0.8-1.1-1.8-1.1-2.9c-0.1-1.2,0.4-2.4,1.3-3.3c1-0.9,2.3-1.4,3.6-1.4v-2.1h1.3l0,2.1
		c1.4,0,2.7,0.5,3.7,1.4c0.9,1,1.3,2.3,1.2,3.7h-2.9c0-0.7-0.2-1.3-0.6-1.9c-0.3-0.4-0.9-0.8-1.4-0.9v4.5c1.3,0.2,2.6,0.8,3.6,1.7
		c0.7,0.8,1.1,1.8,1.1,2.8c0,1.2-0.4,2.4-1.3,3.2c-0.9,0.8-2.1,1.3-3.4,1.3v1.4h-1.3v-1.4C114,96.8,112.8,96.3,111.9,95.4z"/>
	<path class="st0" d="M118.3,92.6c0-0.4-0.1-0.8-0.4-1.1c-0.4-0.4-0.8-0.6-1.3-0.8v3.7c0.5,0,0.9-0.2,1.3-0.6
		C118.1,93.5,118.3,93,118.3,92.6z"/>
	<path class="st0" d="M115.2,87.3v-4.1c-0.5,0-1,0.3-1.4,0.7c-0.3,0.4-0.5,0.9-0.5,1.4c0,0.5,0.1,0.9,0.4,1.3
		C114.2,86.9,114.7,87.2,115.2,87.3L115.2,87.3z"/>
	<path class="st0" d="M61.4,54.4c11.3,0,20.4-9.1,20.4-20.4c0-11.3-9.1-20.4-20.4-20.4C50.1,13.6,41,22.7,41,34
		C41,45.2,50.1,54.4,61.4,54.4z"/>
	<path class="st1" d="M65.5,74.5c-1.4,0.1-2.7,0.2-4.1,0.2c-3.7,0-7.3-0.5-10.8-1.5c-6.7,9.1-19.5,11-28.6,4.4
		c-9.1-6.7-11-19.4-4.4-28.5c1.2-1.7,2.7-3.1,4.4-4.4c-1-3.5-1.5-7.1-1.5-10.8c0-1.4,0.1-2.7,0.2-4.1C3.4,37.2-4.6,57.2,2.7,74.5
		C8.1,87,20.5,95.1,34.1,95.1C47.8,95.1,60.1,87,65.5,74.5z"/>
	<path class="st1" d="M77.7,88.3c0,2.3,1.8,4.1,4.1,4.1c2.3,0,4.1-1.8,4.1-4.1c0-2.2-1.8-4.1-4.1-4.1C79.6,84.2,77.7,86.1,77.7,88.3
		z"/>
	<path class="st1" d="M61.4,67.9c18.8,0,34.1-15.2,34.1-34c0-18.8-15.2-34-34.1-34C42.6,0,27.3,15.2,27.3,34
		C27.3,52.7,42.6,67.9,61.4,67.9z M61.4,13.6c11.3,0,20.4,9.1,20.4,20.4c0,11.3-9.1,20.4-20.4,20.4C50.1,54.4,41,45.2,41,34
		C41,22.7,50.1,13.6,61.4,13.6z"/>
	<path class="st1" d="M116.5,98.1v-1.4c1.3,0,2.5-0.4,3.4-1.3c0.9-0.9,1.3-2,1.3-3.2c0.1-1-0.3-2.1-1.1-2.8
		c-1.1-0.9-2.3-1.4-3.6-1.7v-4.5c0.6,0.1,1.1,0.4,1.4,0.9c0.4,0.6,0.6,1.2,0.6,1.9h2.9c0.1-1.3-0.4-2.7-1.2-3.7
		c-1-0.9-2.3-1.4-3.7-1.4l0-2.1h-1.3v2.1c-1.3,0-2.6,0.6-3.6,1.4c-0.9,0.9-1.3,2.1-1.3,3.3c0,1.1,0.3,2.1,1.1,2.9
		c1.1,0.9,2.4,1.6,3.8,1.9v3.9c-0.5,0-0.9-0.2-1.2-0.6c-0.3-0.4-0.5-1-0.5-1.5h-3c0,1.2,0.5,2.4,1.3,3.3c0.9,0.8,2.1,1.3,3.3,1.3
		v1.4H116.5z M116.5,90.7c0.5,0.1,1,0.4,1.3,0.8c0.3,0.3,0.4,0.7,0.4,1.1c0,0.4-0.1,0.9-0.5,1.3c-0.3,0.3-0.8,0.6-1.3,0.6V90.7z
		 M113.8,86.5c-0.3-0.3-0.5-0.8-0.4-1.3c0-0.5,0.2-1,0.5-1.4c0.4-0.4,0.8-0.6,1.4-0.7v4.1l0,0C114.7,87.2,114.2,86.9,113.8,86.5z"/>
	<path class="st1" d="M96.3,51c-2.6,5.3-6.4,10-11.1,13.6h85.2v47.6h-109V88.7c-3.9,3.8-8.5,6.8-13.6,8.7v28.3H184V51H96.3z"/>
	<path class="st1" d="M154,88.3c0-2.2-1.8-4.1-4.1-4.1c-2.3,0-4.1,1.8-4.1,4.1c0,2.3,1.8,4.1,4.1,4.1C152.2,92.4,154,90.6,154,88.3z
		"/>
	<path class="st1" d="M135.6,88.3c0-10.9-8.8-19.7-19.8-19.7c-10.9,0-19.8,8.8-19.8,19.7c0,10.9,8.8,19.7,19.8,19.7
		C126.8,108,135.6,99.2,135.6,88.3z M100.9,88.3c0-8.2,6.7-14.9,15-14.9c8.3,0,15,6.7,15,14.9c0,8.3-6.7,15-15,15
		C107.6,103.3,100.9,96.6,100.9,88.3z"/>
</g>
<g>
	<path class="st2" d="M-389.9-37.5l15.1-26.2h30.3l15.1,26.2l-15.1,26.2h-30.3L-389.9-37.5z M-381.1-74.6l-21.4,37.1l21.4,37.1h42.8
		l21.4-37.1l-21.4-37.1H-381.1z"/>
	<path class="st2" d="M-335.1-5.9l15.1-26.2h30.3l15.1,26.2l-15.1,26.2H-320L-335.1-5.9z M-326.3-42.9l-21.4,37.1l21.4,37.1h42.8
		l21.4-37.1l-21.4-37.1H-326.3z"/>
	<path class="st2" d="M-389.9,25.8l15.1-26.2h30.3l15.1,26.2L-344.5,52h-30.3L-389.9,25.8z M-381.1-11.3l-21.4,37.1l21.4,37.1h42.8
		l21.4-37.1l-21.4-37.1H-381.1z"/>
	<g>
		<defs>
			<rect id="SVGID_1_" x="-402.5" y="-74.6" width="140.4" height="137.4"/>
		</defs>
		<clipPath id="SVGID_00000051361686725578543840000012567400733177519547_">
			<use xlink:href="#SVGID_1_"  style="overflow:visible;"/>
		</clipPath>
		<path style="clip-path:url(#SVGID_00000051361686725578543840000012567400733177519547_);fill:#FDB913;" d="M-359.5-43.9
			c-2.7,0-4.9-2.1-4.9-4.8v-0.1c0-2.7,2.1-4.8,4.8-4.9c2.7,0,4.9,2.1,4.9,4.8C-354.7-46.2-356.9-44-359.5-43.9 M-359.7-58.6
			L-359.7-58.6c-5.4-0.1-9.9,4.3-9.9,9.7c-0.1,5.4,4.3,9.9,9.7,9.9c5.4,0.1,9.9-4.3,9.9-9.7c0,0,0-0.1,0-0.1
			C-349.9-54.2-354.3-58.6-359.7-58.6"/>
		<path style="clip-path:url(#SVGID_00000051361686725578543840000012567400733177519547_);fill:#FDB913;" d="M-349.7-8h-20v-20.6
			c0-0.8,0.6-1.4,1.4-1.4h17.2v0c0.8,0,1.4,0.6,1.4,1.4V-8z M-351.1-34.9h-17.2c-3.5,0-6.3,2.9-6.3,6.4V-3h29.8v-25.5
			C-344.7-32-347.6-34.9-351.1-34.9"/>
		<path style="clip-path:url(#SVGID_00000051361686725578543840000012567400733177519547_);fill:#FDB913;" d="M-304.1-9.6
			c-2.6,0-4.7-2-4.8-4.6v-0.1c0-2.6,2.1-4.7,4.6-4.7c2.6,0,4.7,2,4.8,4.6C-299.4-11.8-301.5-9.7-304.1-9.6 M-304.2-23.8L-304.2-23.8
			c-5.3-0.1-9.6,4.1-9.6,9.4c0,5.3,4.1,9.5,9.4,9.6c5.3,0.1,9.6-4.1,9.6-9.4c0,0,0-0.1,0-0.1C-294.8-19.6-299-23.8-304.2-23.8"/>
		<path style="clip-path:url(#SVGID_00000051361686725578543840000012567400733177519547_);fill:#FDB913;" d="M-294.6,25.1h-19.3
			V5.3c0-0.7,0.6-1.4,1.3-1.4h16.6v0c0.8,0,1.3,0.6,1.3,1.4V25.1z M-295.9-0.9h-16.7c-3.4,0-6.1,2.8-6.1,6.2v24.7h28.8V5.3
			C-289.8,1.9-292.5-0.9-295.9-0.9"/>
		<path style="clip-path:url(#SVGID_00000051361686725578543840000012567400733177519547_);fill:#FDB913;" d="M-354.5,43.4
			c-0.9,0.7-1.9,1.3-3.4,1.5V34.9c1.6,0.5,2.8,1.2,3.4,2c0.7,0.7,1.1,1.8,1.1,3.1C-353.4,41.4-353.8,42.5-354.5,43.4 M-361.2,26.3
			c-1.6-0.5-2.7-1.1-3.3-1.8c-0.7-0.7-1.1-1.7-1.1-2.8c0-1.3,0.3-2.4,1.1-3.2c0.8-0.7,1.9-1.2,3.3-1.4V26.3z M-348.5,32
			c-1.9-1.7-5.1-3.3-9.6-4.8v-9.9c1.3,0.2,2.3,0.7,3,1.5c0.6,0.9,1,2.2,1.1,3.9h7.4c-0.2-3.6-1.3-6.3-3.2-8.3c-2-2-4.7-3-8.3-3.2
			V7.7h-3.2v3.5c-3.6,0-6.3,1-8.5,3.1c-2.1,2.1-3.2,4.7-3.2,8.1c0,3,0.9,5.4,2.7,7.1c1.8,1.7,4.7,3.1,9.1,4.2V45
			c-1.6-0.3-2.8-1.1-3.8-2c-0.8-1.2-1.3-2.7-1.4-4.7h-7.3c0,4.1,1,7.1,3.1,9.3c2.1,2.1,5.1,3.2,9.3,3.5v5.3h3.2v-5.3
			c3.9-0.4,6.9-1.5,9.1-3.6c2.1-2.1,3.2-4.9,3.2-8.4C-345.8,36.2-346.8,33.8-348.5,32"/>
	</g>
</g>
<g>
	<path class="st4" d="M-392.8,270.1L-392.8,270.1l-42.5,0c-1.9,0-3.4,1.6-3.4,3.5v50.8h49.4v-50.8
		C-389.3,271.7-390.9,270.1-392.8,270.1 M-478.9,270.1L-478.9,270.1l-42.5,0c-1.9,0-3.4,1.6-3.4,3.5v50.8h49.4v-50.8
		C-475.5,271.7-477,270.1-478.9,270.1 M-435.3,257.8h42.5c8.6,0.1,15.6,7.1,15.6,15.8v63.1h-73.7v-63.1
		C-450.9,264.9-443.9,257.9-435.3,257.8 M-521.4,257.8h42.5h0c8.6,0.1,15.6,7.1,15.6,15.8v63.1H-537v-63.1
		C-537,264.9-530.1,257.9-521.4,257.8 M-414.6,211.5c-6.6,0.1-11.9,5.4-11.9,12v0.2c0.1,6.6,5.5,12,12.2,11.9
		c6.6-0.1,11.9-5.5,11.9-12.2C-402.6,216.7-408,211.4-414.6,211.5 M-500.2,211.5c-6.6,0.1-11.9,5.4-11.9,12v0.2
		c0.1,6.6,5.5,12,12.2,11.9c6.6-0.1,12-5.5,11.9-12.2C-488.1,216.7-493.5,211.4-500.2,211.5 M-414.6,199.3L-414.6,199.3
		c13.3,0.1,24.1,10.9,24,24.3v0.3c-0.2,13.4-11.1,24.2-24.5,24c-13.4-0.2-24.2-11.1-24-24.5C-439,209.9-428.1,199.1-414.6,199.3
		 M-500.2,199.3L-500.2,199.3c13.3,0.1,24.1,10.9,24,24.3c0,0.1,0,0.2,0,0.3c-0.1,13.4-11.1,24.2-24.5,24
		c-13.4-0.2-24.1-11.1-24-24.5C-524.6,209.9-513.6,199.1-500.2,199.3"/>
</g>
<g>
	<path class="st5" d="M-100.3,188.3c-7.1,0-13.3-4.4-15.7-11.1v-0.1c-0.5-1.5-1.6-2.1-2.2-2.3c-0.6-0.3-1.8-0.6-3.3,0.1l-0.6,0.3
		c-6.3,2.7-13.4,1.3-18.3-3.6c-5-5-6.3-12.3-3.4-18.7l0.1-0.3c0.7-1.4,0.3-2.7,0.1-3.3c-0.3-0.6-0.9-1.7-2.3-2.3h-0.1
		c-6.7-2.4-11-8.6-11-15.7c0-7.1,4.3-13.3,11-15.7h0.1c1.4-0.5,2.1-1.6,2.3-2.3c0.3-0.6,0.6-1.8-0.1-3.3l-0.1-0.1
		c-3-6.4-1.7-13.8,3.4-18.9c5-5,12.2-6.3,18.6-3.4l0.3,0.1c1.4,0.7,2.7,0.3,3.3,0.1c0.6-0.3,1.7-0.9,2.2-2.3v-0.1
		c2.4-6.7,8.5-11,15.7-11c7,0,13.1,4.2,15.5,10.7v0.1l0.1,0.4c0.5,1.4,1.6,2.1,2.3,2.3c0.6,0.3,1.8,0.6,3.3-0.1l0.3-0.1
		c6.4-2.9,13.6-1.6,18.6,3.4c5.1,5.1,6.3,12.5,3.3,19v0.1c-0.6,1.4-0.3,2.6-0.1,3.2c0.3,0.6,0.9,1.7,2.3,2.3l0.4,0.1
		c6.5,2.5,10.7,8.6,10.7,15.6c0,7-4.2,13.1-10.7,15.6h-0.1l-0.4,0.1c-1.4,0.5-2.1,1.6-2.3,2.3c-0.3,0.6-0.6,1.8,0.1,3.2
		c3.1,6.4,1.8,13.9-3.3,19c-4.9,4.9-12,6.3-18.3,3.6h-0.1l-0.5-0.3c-1.4-0.7-2.7-0.3-3.3-0.1c-0.6,0.3-1.7,0.9-2.3,2.3l-0.1,0.4
		C-87.3,184.1-93.3,188.3-100.3,188.3 M-104.1,172.9c0.9,2.4,2.9,2.7,3.8,2.7c0.8,0,2.9-0.2,3.8-2.7l0.1-0.4
		c1.7-4.3,4.9-7.7,9.2-9.4c4.1-1.7,8.8-1.7,12.9,0.1h0.1l0.5,0.3c2.3,1.1,4-0.2,4.5-0.8c0.6-0.6,1.9-2.3,0.8-4.5
		c-2-4.3-2.1-9.2-0.3-13.5c1.8-4.3,5.2-7.6,9.4-9.2h0.1l0.4-0.1c2.4-0.9,2.7-2.9,2.7-3.8c0-0.9-0.3-2.9-2.7-3.8l-0.4-0.1
		c-4.2-1.7-7.7-4.9-9.4-9.2c-1.8-4.4-1.7-9.3,0.3-13.5v-0.1c1.1-2.3-0.2-3.9-0.8-4.5c-0.6-0.6-2.3-1.9-4.5-0.8l-0.3,0.1
		c-4.2,1.9-9,2-13.3,0.2c-4.2-1.8-7.5-5.2-9.2-9.4v-0.1l-0.1-0.4c-0.9-2.4-2.9-2.7-3.8-2.7c-0.8,0-2.9,0.3-3.8,2.7v0.1
		c-1.6,4.5-5,8.1-9.3,9.8c-4.2,1.8-9,1.7-13.3-0.2l-0.3-0.1c-2.3-1.1-4,0.2-4.5,0.8c-0.6,0.6-1.9,2.3-0.8,4.5l0.1,0.1
		c2,4.2,2.1,9.1,0.3,13.4c-1.8,4.3-5.4,7.7-9.7,9.3h-0.1c-2.4,0.9-2.7,2.9-2.7,3.8c0,0.9,0.3,2.9,2.7,3.8h0.1c4.4,1.6,8,5,9.7,9.3
		c1.8,4.2,1.7,9-0.2,13.3l-0.1,0.3c-1.1,2.3,0.2,4,0.8,4.5c0.6,0.6,2.3,1.9,4.5,0.8l0.6-0.3c4.1-1.8,8.8-1.8,12.9-0.1
		C-109.1,164.9-105.7,168.5-104.1,172.9 M-100.3,156.6c-14,0-25.3-11.3-25.3-25.3c0-14,11.3-25.3,25.3-25.3
		c14,0,25.3,11.3,25.3,25.3C-75.1,145.3-86.4,156.6-100.3,156.6 M-100.3,118.6c-6.9,0-12.6,5.7-12.6,12.7c0,7,5.7,12.7,12.6,12.7
		c7,0,12.6-5.7,12.6-12.7C-87.7,124.3-93.4,118.6-100.3,118.6 M-113.7,187.1L-118,201l-8.7-8.2l-11.8,1.7l4.6-14.9
		c-3.5-0.9-6.6-2.7-9.3-5.4c-0.6-0.6-1.2-1.3-1.7-1.9l-11.6,37.6l25.6-3.8l19,17.7l10-32C-106.4,191.6-110.5,189.9-113.7,187.1
		 M-57.5,174.3c-2.7,2.7-5.8,4.4-9.3,5.4l4.6,14.9l-11.8-1.7l-8.6,8.2l-4.3-13.9c-3.2,2.8-7.3,4.6-11.7,4.9l10,32l19-17.7l25.6,3.8
		l-11.8-37.7C-56.3,173-56.9,173.6-57.5,174.3"/>
</g>
<g>
	<path class="st6" d="M221.6,579.9l-5.1-1.6l-1.8,5c-0.8,2.2-20.1,54.4-1.7,92.1c7.9,16.2,21.8,27.5,40.3,32.7
		c7.1,2,14.4,3,21.7,3.1l6,12.3c1.4,2.8,4.7,3.9,7.4,2.6c2.8-1.3,3.9-4.7,2.6-7.4l-6-12.3c4.5-5.8,8.2-12.2,11-19
		c7.3-17.7,7-35.7-0.8-51.9C276.8,597.6,223.8,580.6,221.6,579.9 M285.8,682.7c-1.7,4.3-3.9,8.3-6.4,12.2l-9.4-19.2l8.7-14.8
		c1.6-2.7,0.7-6.1-2-7.6c-2.7-1.6-6.1-0.7-7.6,2l-4.9,8.3l-4.9-10l8.6-14.7c1.6-2.7,0.7-6.1-2-7.7c-2.7-1.6-6.1-0.7-7.6,2l-4.9,8.4
		L242,617.8c-1.4-2.7-4.7-3.9-7.5-2.5c-2.7,1.4-3.9,4.7-2.5,7.5l11.5,23.7l-9.6-1.3c-3.1-0.5-5.9,1.6-6.4,4.6
		c-0.5,3,1.6,5.9,4.6,6.4c0.1,0,0.2,0,0.3,0l16.9,2.3l4.8,9.9l-9.6-1.4c-3-0.5-5.9,1.5-6.4,4.6c-0.5,3,1.5,5.9,4.6,6.4
		c0.1,0,0.2,0,0.3,0.1l17.2,2.5l9.3,19.2c-4.6-0.4-9.1-1.2-13.5-2.5c-15.4-4.4-26.5-13.4-33-26.7c-13.1-27-3.8-64.5,0.4-78.1
		c13.3,5.1,48.6,20.8,61.7,47.9C291.6,653.6,291.8,667.8,285.8,682.7"/>
</g>
<g>
	<path class="st7" d="M-6.5,589.7c-8.1-8.1-21.1-8.8-30-1.5c-9.6-7.8-23.6-6.4-31.4,3.2c-7.2,8.9-6.6,21.8,1.4,29.9l29.7,29.8
		l0.3-0.2l0.3,0.2l29.7-29.8C2.2,612.6,2.2,598.5-6.5,589.7 M-50.8,593.4c3.2,0,6.3,1.3,8.6,3.6l5.6,5.6l5.6-5.6
		c4.7-4.7,12.4-4.7,17.1,0c4.7,4.8,4.7,12.4,0,17.2l-22.5,22.5l-0.3-0.2l-0.3,0.2l-22.5-22.5c-4.7-4.7-4.8-12.4,0-17.2
		C-57.1,594.7-54,593.4-50.8,593.4 M-44.9,691.6c0.2-9.5-1.1-16.8-4.1-23c-3.6-7.4-9.2-10.5-14.5-13.5l-0.2-0.1
		c-0.9-0.5-1.9-1-2.9-1.6c-4.4-2.6-8.2-6.6-12.1-10.6c-0.8-0.8-1.6-1.6-2.4-2.4c-1.1-1.2-5.5-5.2-6.1-5.7c-0.8-0.9-1.8-1.6-2.9-2.1
		v-17.4c0-6.6-5-12.3-11.3-12.9c-6.9-0.6-13.1,4.5-13.7,11.4c0,0.4-0.1,0.8-0.1,1.1v43.6c0,3.2,1.2,6.3,3.5,8.5
		c3.6,3.6,21.7,21.8,25.7,25.6c0,0,0.1,0.1,0.1,0.2l2.2,16.3h10.3l-2.6-19.7c-0.2-1.4-1.2-2.4-3.7-4.8c-0.3-0.3-0.6-0.5-0.8-0.7
		l-23.8-23.8c-0.7-1-0.7-1.3-0.7-1.4v-8.8c0.4,0.6,0.8,1.1,1.3,1.6l20.6,20.5c1.1,1.4,2.7,2.2,4.5,2.1c1.6-0.1,3.1-1,4.1-2.3
		c1.3-2.2,0.4-5-1.1-6.6l-20.8-21c-0.3-0.3-0.4-0.6-0.4-1c0-0.4,0.2-0.8,0.4-1c0.6-0.5,1.6-0.5,2.1,0.1l0.1,0.1
		c1.6,1.5,5.1,4.7,5.8,5.5c0.8,0.8,1.5,1.6,2.3,2.4c4.1,4.2,8.7,9.1,14.2,12.3c1,0.6,2.1,1.2,3.1,1.8l0.2,0.1
		c4.7,2.6,8.1,4.5,10.3,9c2.3,4.7,3.3,10.5,3,18.5v0.1l0.9,17.3h10.2L-44.9,691.6z M-105,614.8c0-0.6,0.3-1.3,0.8-1.7
		c0.4-0.4,1-0.6,1.6-0.6h0.2c1.2,0.1,2.1,1.3,2.1,2.7v17.2c-1.2,0.6-2.3,1.3-3.3,2.3c-0.5,0.5-1,1-1.4,1.6V614.8z M-29,708.9h10.2
		l0.9-17.3v0c-0.2-7.9,0.8-13.8,3-18.5c2.2-4.5,5.6-6.4,10.3-9l0.2-0.1c1-0.6,2-1.1,3.1-1.7c5.6-3.3,10.2-8.1,14.2-12.3
		c0.8-0.8,1.5-1.6,2.3-2.4c0.8-0.8,4.2-4,5.8-5.5l0.1-0.1c0.6-0.6,1.5-0.6,2.1-0.1c0.3,0.3,0.4,0.7,0.4,1c0,0.4-0.2,0.8-0.4,1
		L2.5,665c-1.5,1.6-2.4,4.4-1.1,6.6c1,1.3,2.5,2.2,4.1,2.3c1.7,0.1,3.4-0.7,4.5-2.1l20.6-20.5c0.5-0.5,0.9-1,1.3-1.6v8.8
		c0,0.1,0,0.4-0.7,1.4L7.4,683.7c-0.2,0.2-0.5,0.5-0.8,0.7c-2.5,2.3-3.5,3.4-3.7,4.8l-2.6,19.7h10.3l2.1-16.3c0-0.1,0-0.1,0.1-0.1
		c4-3.8,22.1-22,25.7-25.6c2.3-2.2,3.6-5.3,3.5-8.5v-43.6c0-7-5.7-12.6-12.6-12.6c-0.4,0-0.8,0-1.1,0.1C22,602.9,17,608.6,17,615.3
		v17.4c-1.1,0.5-2.1,1.2-2.9,2.1c-0.6,0.5-4.9,4.5-6.1,5.7c-0.8,0.8-1.6,1.6-2.4,2.4c-3.8,4-7.7,8-12.1,10.6c-1,0.6-2,1.1-2.9,1.6
		l-0.2,0.1c-5.4,3-11,6-14.6,13.5c-3,6.1-4.3,13.4-4.1,22.9L-29,708.9z M31.9,636.3c-0.4-0.6-0.8-1.1-1.3-1.6c-1-1-2.1-1.7-3.3-2.3
		v-17.2c0-1.4,0.9-2.6,2.1-2.7h0.2c0.6,0,1.2,0.2,1.6,0.6c0.5,0.4,0.8,1,0.8,1.7L31.9,636.3z"/>
</g>
</svg>
