<?xml version="1.0" encoding="utf-8"?>
<!-- Generator: Adobe Illustrator 26.0.1, SVG Export Plug-In . SVG Version: 6.00 Build 0)  -->
<svg version="1.1" id="Layer_1" xmlns="http://www.w3.org/2000/svg" xmlns:xlink="http://www.w3.org/1999/xlink" x="0px" y="0px"
	 viewBox="0 0 184.1 125.8" style="enable-background:new 0 0 184.1 125.8;" xml:space="preserve">
<style type="text/css">
	.st0{fill:#FFFFFF;}
	.st1{fill:none;}
	.st2{fill:#01519C;}
	.st3{fill:#FDB913;}
	.st4{clip-path:url(#SVGID_00000077285856223231419030000008163865005525959846_);fill:#FDB913;}
	.st5{clip-path:url(#SVGID_00000153681067826035387380000007532121966901319061_);fill:#FDB913;}
	.st6{clip-path:url(#SVGID_00000070832756361866244120000004663261892577278609_);fill:#FDB913;}
	.st7{clip-path:url(#SVGID_00000166667334133372051480000002389454502136288940_);fill:#FDB913;}
	.st8{clip-path:url(#SVGID_00000095333663099518184200000014243928627257849735_);fill:#FDB913;}
	.st9{fill:#ED7F22;}
	.st10{fill:#39B54A;}
	.st11{fill:#A6CE39;}
	.st12{fill:#ED328C;}
</style>
<path class="st0" d="M-648.8,318.3c0.1-13.5,11.1-24.3,24.5-24.1c13.3,0.1,24.1,10.9,24,24.3v0.3c-0.1,13.4-11.1,24.2-24.5,24
	C-638.2,342.6-648.9,331.7-648.8,318.3z"/>
<path class="st0" d="M-592.1,357.5c2.8,2.8,4.6,6.8,4.6,11.1v63.1h-73.6v-63.1c-0.1-8.8,6.9-15.8,15.5-15.8h42.5
	C-598.8,352.8-594.9,354.6-592.1,357.5z"/>
<path class="st0" d="M-563.3,318.3c0.1-13.5,11.1-24.3,24.5-24.1c13.3,0.1,24.1,10.9,24,24.3v0.3c-0.2,13.4-11.1,24.2-24.5,24
	C-552.7,342.6-563.5,331.7-563.3,318.3z"/>
<path class="st0" d="M-501.3,368.6v63.1H-575v-63.1c0-8.8,6.9-15.8,15.6-15.8h42.5C-508.3,352.9-501.3,359.9-501.3,368.6z"/>
<path class="st0" d="M-97.1,756.8l-20.6,20.5c-1.1,1.4-2.8,2.2-4.5,2.1c-1.6-0.1-3.1-1-4.1-2.3c-1.3-2.2-0.4-5,1.1-6.6l20.8-21
	c0.2-0.2,0.4-0.6,0.4-1c0-0.3-0.1-0.7-0.4-1c-0.6-0.5-1.5-0.5-2.1,0.1l-0.1,0.1c-1.6,1.5-5,4.7-5.8,5.5c-0.8,0.8-1.5,1.6-2.3,2.4
	c-4,4.2-8.6,9-14.2,12.3c-1.1,0.6-2.1,1.1-3.1,1.7l-0.2,0.1c-4.7,2.6-8.1,4.5-10.3,9c-2,4.3-3,9.6-3,16.6c0,0.6,0,1.3,0,1.9
	l-0.9,17.3l29.3-0.1h-10.3l2.6-19.7c0.2-1.4,1.2-2.5,3.7-4.8c0.3-0.2,0.6-0.5,0.8-0.7l23.8-23.8c0.7-1,0.7-1.3,0.7-1.4v-8.8
	C-96.2,755.8-96.6,756.3-97.1,756.8z"/>
<path class="st0" d="M-171.9,814.9h-10.2l0-0.3h-29.3l-2.2-16.3c0-0.1-0.1-0.2-0.1-0.2c-4-3.8-22.1-22-25.7-25.6
	c-2.3-2.2-3.5-5.3-3.5-8.5v-43.6c0-0.3,0.1-0.7,0.1-1.1c0.6-6.9,6.8-12,13.7-11.4c6.3,0.6,11.3,6.3,11.3,12.9v17.4
	c1.1,0.5,2.1,1.2,2.9,2.1c0.6,0.5,5,4.5,6.1,5.7c0.8,0.8,1.6,1.6,2.4,2.4c3.9,4,7.7,8,12.1,10.6c1,0.6,2,1.1,2.9,1.6l0.2,0.1
	c5.3,3,10.9,6.1,14.5,13.5c3,6.2,4.3,13.5,4.1,23l0.7,17.3v0.1L-171.9,814.9z"/>
<path class="st0" d="M-134.2,726.9l-29.7,29.8l-0.3-0.2l-0.3,0.2l-29.7-29.8c-8-8.1-8.6-21-1.4-29.9c7.8-9.6,21.8-11,31.4-3.2
	c8.9-7.3,21.9-6.6,30,1.5C-125.5,704.1-125.5,718.2-134.2,726.9z"/>
<path class="st0" d="M-85.7,720.5v43.4c0.1,3.2-1.2,6.3-3.5,8.5c-3.6,3.6-21.7,21.8-25.7,25.6c-0.1,0-0.1,0-0.1,0.1l-2.1,16.3h-10.3
	l2.6-19.7c0.2-1.4,1.2-2.5,3.7-4.8c0.3-0.2,0.6-0.5,0.8-0.7l23.8-23.8c0.7-1,0.7-1.3,0.7-1.4v-8.8c-0.4,0.6-0.8,1.1-1.3,1.6
	l-20.6,20.5c-1.1,1.4-2.8,2.2-4.5,2.1c-1.6-0.1-3.1-1-4.1-2.3c-1.3-2.2-0.4-5,1.1-6.6l20.8-21c0.2-0.2,0.4-0.6,0.4-1
	c0-0.3-0.1-0.7-0.4-1c-0.6-0.5-1.5-0.5-2.1,0.1l-0.1,0.1c-1.6,1.5-5,4.7-5.8,5.5c-0.8,0.8-1.5,1.6-2.3,2.4c-4,4.2-8.6,9-14.2,12.3
	c-1.1,0.6-2.1,1.1-3.1,1.7l-0.2,0.1c-4.7,2.6-8.1,4.5-10.3,9c-2,4.3-3,9.6-3,16.6c0,0.6,0,1.3,0,1.9l-0.9,17.3v0h-10.2v0l0.7-17.3
	c-0.2-9.5,1.1-16.8,4.1-22.9c3.6-7.5,9.2-10.5,14.6-13.5l0.2-0.1c0.9-0.5,1.9-1,2.9-1.6c4.4-2.6,8.3-6.6,12.1-10.6
	c0.8-0.8,1.6-1.6,2.4-2.4c1.2-1.2,5.5-5.2,6.1-5.7c0.8-0.9,1.8-1.6,2.9-2.1v-17.4c0-6.6,5-12.4,11.2-12.9c0.3-0.1,0.7-0.1,1.1-0.1
	C-91.4,707.9-85.7,713.5-85.7,720.5z"/>
<g>
	<path class="st0" d="M184.1,51.1v74.7H47.8V92.4c-4.2,1.8-8.9,2.8-13.7,2.8c-13.7,0-26-8.2-31.4-20.7c-7.4-17.3,0.7-37.3,18-44.6
		c-0.1,1.4-0.2,2.7-0.2,4.1c0,3.7,0.5,7.3,1.5,10.8c-1.7,1.3-3.2,2.7-4.4,4.4C11,58.3,12.9,71,22,77.7c8,5.8,18.7,5,25.8-1.3V65.2
		c-12-5.3-20.4-17.3-20.4-31.2c0-18.8,15.3-34,34.1-34c18.9,0,34.1,15.2,34.1,34c0,6.2-1.7,12-4.6,17l5.2,0.1c0,0,0-0.1,0-0.1v0.1
		H184.1z"/>
	<g>
		<path class="st1" d="M116.7,73.4c-0.2,0-0.4,0-0.7,0c-0.3,0-0.5,0-0.8,0c-8,0.4-14.3,6.9-14.3,14.9c0,8.1,6.3,14.6,14.3,15
			c0.2,0,0.5,0,0.8,0c0.2,0,0.5,0,0.7,0c7.9-0.4,14.2-6.9,14.2-15C130.9,80.4,124.7,73.8,116.7,73.4z M121.5,86h-2.9
			c0-0.7-0.2-1.3-0.6-1.9c-0.3-0.4-0.9-0.8-1.4-0.9v4.5c1.3,0.2,2.6,0.8,3.6,1.7c0.2,0.2,0.3,0.4,0.4,0.6c0.4,0.7,0.7,1.5,0.7,2.2
			v0.1c0,0.1,0,0.2,0,0.4c-0.1,1-0.5,2-1.3,2.8c-0.9,0.8-2.1,1.3-3.4,1.3v1.4h-1.3v-1.4c-1.3,0.1-2.5-0.4-3.4-1.2
			c-0.7-0.8-1.2-1.8-1.3-2.8c0-0.1,0-0.2,0-0.4v-0.1h3c0,0.6,0.2,1.1,0.5,1.5c0.3,0.4,0.7,0.6,1.2,0.6v-3.9c-1.4-0.4-2.7-1-3.8-1.9
			c-0.7-0.8-1.1-1.7-1.1-2.8v-0.1c-0.1-1.2,0.4-2.4,1.3-3.3c1-0.9,2.3-1.4,3.6-1.4v-2.1h1.3v2.1c1.4,0,2.7,0.5,3.7,1.4
			c0.8,0.9,1.2,2.1,1.2,3.4C121.6,85.8,121.6,85.9,121.5,86z"/>
		<path class="st1" d="M118.3,92.6c0-0.4-0.1-0.8-0.4-1.1c-0.4-0.4-0.8-0.6-1.3-0.8v3.7c0.5,0,0.9-0.2,1.3-0.6
			C118.2,93.5,118.4,93,118.3,92.6z"/>
		<path class="st1" d="M115.3,87.4v-4.1c-0.5,0-1,0.3-1.4,0.7c-0.3,0.4-0.5,0.9-0.5,1.4s0.1,0.9,0.4,1.3
			C114.3,86.9,114.7,87.2,115.3,87.4L115.3,87.4z"/>
		<path class="st1" d="M61.5,54.4c11.3,0,20.4-9.1,20.4-20.4c0-11.3-9.1-20.4-20.4-20.4S41.1,22.7,41.1,34
			C41,45.3,50.2,54.4,61.5,54.4z"/>
		<path class="st2" d="M65.5,74.6c-3.4,8.1-9.9,14.4-17.7,17.8c-4.2,1.8-8.9,2.8-13.7,2.8c-13.7,0-26-8.2-31.4-20.7
			c-7.4-17.3,0.7-37.3,18-44.6c-0.1,1.4-0.2,2.7-0.2,4.1c0,3.7,0.5,7.3,1.5,10.8c-1.7,1.3-3.2,2.7-4.4,4.4C11,58.3,12.9,71,22,77.7
			c8,5.8,18.7,5,25.8-1.3c1-0.9,2-1.9,2.8-3.1c3.5,1,7.1,1.5,10.8,1.5C62.8,74.8,64.1,74.7,65.5,74.6z"/>
		<path class="st2" d="M77.8,88.3c0,2.3,1.8,4.1,4.1,4.1c2.3,0,4.1-1.8,4.1-4.1c0-2.2-1.8-4.1-4.1-4.1
			C79.6,84.3,77.8,86.1,77.8,88.3z"/>
		<path class="st2" d="M61.5,0C42.7,0,27.4,15.2,27.4,34c0,13.9,8.4,25.9,20.4,31.2C52,67,56.7,68,61.5,68c12.6,0,23.6-6.8,29.5-17
			c2.9-5,4.6-10.8,4.6-17C95.6,15.2,80.4,0,61.5,0z M61.5,54.4c-0.3,0-0.7,0-1,0c-0.7,0-1.3-0.1-1.9-0.2c-0.7-0.1-1.4-0.2-2.1-0.4
			c-2.6-0.7-5.1-1.9-7.2-3.4c-4.4-3.3-7.4-8.4-8-14.2c-0.1-0.6-0.1-1.3-0.1-1.9V34c0-0.3,0-0.7,0-1c0-0.4,0-0.7,0.1-1
			c0.8-8.6,7-15.6,15.2-17.7c0.7-0.2,1.4-0.3,2.1-0.4c0.6-0.1,1.3-0.2,1.9-0.2c0.3,0,0.7,0,1,0c11.3,0,20.4,9.1,20.4,20.4
			c0,6.9-3.4,13-8.7,16.7C69.9,53,65.9,54.4,61.5,54.4z"/>
		<path class="st2" d="M120.3,82.4c-1-0.9-2.3-1.4-3.7-1.4v-2.1h-1.3V81c-1.3,0-2.6,0.6-3.6,1.4c-0.9,0.9-1.3,2-1.3,3.2v0.1
			c0,1.1,0.3,2.1,1.1,2.9c1.1,0.9,2.4,1.6,3.8,1.9v3.9c-0.5,0-0.9-0.2-1.2-0.6c-0.3-0.4-0.5-1-0.5-1.5h-3c0,0.1,0,0.2,0,0.4
			c0.1,1.1,0.6,2.1,1.3,2.9c0.9,0.8,2.1,1.3,3.3,1.3v1.4h1.4v-1.5c1.3,0,2.5-0.4,3.4-1.3c0.8-0.8,1.2-1.8,1.3-2.8c0-0.1,0-0.2,0-0.4
			c0.1-0.8-0.2-1.7-0.7-2.3c-0.1-0.2-0.3-0.3-0.4-0.5c-1.1-0.9-2.3-1.4-3.6-1.7v-4.5c0.6,0.1,1.1,0.4,1.4,0.9
			c0.4,0.6,0.6,1.2,0.6,1.9h2.9c0,0,0-0.1,0-0.1c0-0.1,0-0.2,0-0.3C121.5,84.5,121.1,83.3,120.3,82.4z M113.8,84.3
			c0.1-0.2,0.2-0.3,0.3-0.5c0.4-0.4,0.8-0.6,1.4-0.7v4.1h-0.1c-0.6,0-1-0.3-1.4-0.7c-0.3-0.3-0.5-0.8-0.4-1.3c0-0.2,0-0.5,0.1-0.7
			C113.7,84.4,113.7,84.3,113.8,84.3z M117.9,91.5c0.3,0.3,0.4,0.7,0.4,1.1c0,0.4-0.1,0.8-0.4,1.2c0,0,0,0-0.1,0.1c0,0,0,0-0.1,0.1
			c-0.3,0.3-0.8,0.6-1.3,0.6v-3.8h0.1C117.1,90.8,117.6,91.1,117.9,91.5z"/>
		<path class="st2" d="M184.1,51.1v74.7H47.8V97.5c5.1-1.9,9.7-4.9,13.6-8.7v23.4h109V64.6H85.2c4.6-3.6,8.4-8.2,11-13.4
			c0,0,0-0.1,0-0.1c0,0,0-0.1,0-0.1v0.1H184.1z"/>
		<path class="st2" d="M154.1,88.3c0-2.2-1.8-4.1-4.1-4.1s-4.1,1.8-4.1,4.1c0,2.3,1.8,4.1,4.1,4.1S154.1,90.6,154.1,88.3z"/>
		<path class="st2" d="M115.9,68.6c-10.9,0-19.8,8.8-19.8,19.7c0,10.9,8.8,19.7,19.8,19.7s19.8-8.8,19.8-19.7
			C135.7,77.4,126.9,68.6,115.9,68.6z M116.7,103.3c-0.2,0-0.4,0-0.7,0c-0.3,0-0.5,0-0.8,0c-7.9-0.4-14.2-6.9-14.2-15
			c0-7.9,6.3-14.5,14.2-14.9c0.2,0,0.5,0,0.8,0c0.2,0,0.5,0,0.7,0c8,0.4,14.3,6.9,14.3,14.9C131,96.4,124.7,102.9,116.7,103.3z"/>
	</g>
</g>
<g>
	<path class="st3" d="M-514.1,57.4l15.1-26.2h30.3l15.1,26.2l-15.1,26.2H-499L-514.1,57.4z M-505.2,20.4l-21.4,37.1l21.4,37.1h42.8
		l21.4-37.1l-21.4-37.1H-505.2z"/>
	<path class="st3" d="M-459.3,89.1l15.1-26.2h30.3l15.1,26.2l-15.1,26.2h-30.2L-459.3,89.1z M-450.4,52l-21.4,37.1l21.4,37.1h42.8
		l21.4-37.1L-407.6,52H-450.4z"/>
	<path class="st3" d="M-514.1,120.7l15.1-26.2h30.3l15.1,26.2l-15.1,26.2H-499L-514.1,120.7z M-505.2,83.6l-21.4,37.1l21.4,37.1
		h42.8l21.4-37.1l-21.4-37.1H-505.2z"/>
	<g>
		<g>
			<defs>
				<rect id="SVGID_1_" x="-526.6" y="20.4" width="140.4" height="137.4"/>
			</defs>
			<clipPath id="SVGID_00000029042631088518782670000002376861773567418780_">
				<use xlink:href="#SVGID_1_"  style="overflow:visible;"/>
			</clipPath>
			<path style="clip-path:url(#SVGID_00000029042631088518782670000002376861773567418780_);fill:#FDB913;" d="M-483.7,51
				c-2.7,0-4.9-2.1-4.9-4.8v-0.1c0-2.7,2.1-4.8,4.8-4.9c2.7,0,4.9,2.1,4.9,4.8C-478.8,48.8-481,51-483.7,51 M-483.8,36.3
				L-483.8,36.3c-5.4-0.1-9.9,4.3-9.9,9.7c-0.1,5.4,4.3,9.9,9.7,9.9c5.4,0.1,9.9-4.3,9.9-9.7v-0.1
				C-474.1,40.7-478.4,36.3-483.8,36.3"/>
		</g>
		<g>
			<defs>
				<rect id="SVGID_00000096756440161808830480000000286805407057083060_" x="-526.6" y="20.4" width="140.4" height="137.4"/>
			</defs>
			<clipPath id="SVGID_00000132087872517592340530000006121749136456101760_">
				<use xlink:href="#SVGID_00000096756440161808830480000000286805407057083060_"  style="overflow:visible;"/>
			</clipPath>
			<path style="clip-path:url(#SVGID_00000132087872517592340530000006121749136456101760_);fill:#FDB913;" d="M-473.8,87h-20V66.4
				c0-0.8,0.6-1.4,1.4-1.4h17.2l0,0c0.8,0,1.4,0.6,1.4,1.4L-473.8,87L-473.8,87z M-475.2,60h-17.2c-3.5,0-6.3,2.9-6.3,6.4v25.5h29.8
				V66.4C-468.9,62.9-471.7,60-475.2,60"/>
		</g>
		<g>
			<defs>
				<rect id="SVGID_00000078723528908154688960000005145681638744531898_" x="-526.6" y="20.4" width="140.4" height="137.4"/>
			</defs>
			<clipPath id="SVGID_00000124158303089746979180000001872113889166901434_">
				<use xlink:href="#SVGID_00000078723528908154688960000005145681638744531898_"  style="overflow:visible;"/>
			</clipPath>
			<path style="clip-path:url(#SVGID_00000124158303089746979180000001872113889166901434_);fill:#FDB913;" d="M-428.3,85.3
				c-2.6,0-4.7-2-4.8-4.6v-0.1c0-2.6,2.1-4.7,4.6-4.7c2.6,0,4.7,2,4.8,4.6C-423.6,83.1-425.7,85.3-428.3,85.3 M-428.4,71.1
				L-428.4,71.1c-5.3-0.1-9.6,4.1-9.6,9.4c0,5.3,4.1,9.5,9.4,9.6c5.3,0.1,9.6-4.1,9.6-9.4v-0.1C-418.9,75.4-423.2,71.1-428.4,71.1"
				/>
		</g>
		<g>
			<defs>
				<rect id="SVGID_00000064317724742328880810000001128888445537370520_" x="-526.6" y="20.4" width="140.4" height="137.4"/>
			</defs>
			<clipPath id="SVGID_00000073715321909802454930000014008974833151645083_">
				<use xlink:href="#SVGID_00000064317724742328880810000001128888445537370520_"  style="overflow:visible;"/>
			</clipPath>
			<path style="clip-path:url(#SVGID_00000073715321909802454930000014008974833151645083_);fill:#FDB913;" d="M-418.7,120.1H-438
				v-19.9c0-0.7,0.6-1.4,1.3-1.4h16.6l0,0c0.8,0,1.4,0.6,1.4,1.4L-418.7,120.1L-418.7,120.1z M-420.1,94h-16.7
				c-3.4,0-6.1,2.8-6.1,6.2v24.7h28.8v-24.7C-413.9,96.8-416.7,94-420.1,94"/>
		</g>
		<g>
			<defs>
				<rect id="SVGID_00000046312019725070153440000000507469680798988938_" x="-526.6" y="20.4" width="140.4" height="137.4"/>
			</defs>
			<clipPath id="SVGID_00000004536538484306404340000010065168272481895869_">
				<use xlink:href="#SVGID_00000046312019725070153440000000507469680798988938_"  style="overflow:visible;"/>
			</clipPath>
			<path style="clip-path:url(#SVGID_00000004536538484306404340000010065168272481895869_);fill:#FDB913;" d="M-478.7,138.4
				c-0.9,0.7-1.9,1.3-3.4,1.5v-10.1c1.6,0.5,2.8,1.2,3.4,2c0.7,0.7,1.1,1.8,1.1,3.1C-477.5,136.3-477.9,137.5-478.7,138.4
				 M-485.4,121.2c-1.6-0.5-2.7-1.1-3.3-1.8c-0.7-0.7-1.1-1.7-1.1-2.8c0-1.3,0.3-2.4,1.1-3.2c0.8-0.7,1.9-1.2,3.3-1.4V121.2z
				 M-472.7,126.9c-1.9-1.7-5.1-3.3-9.6-4.8v-9.9c1.3,0.2,2.3,0.7,3,1.5c0.6,0.9,1,2.2,1.1,3.9h7.4c-0.2-3.6-1.3-6.3-3.2-8.3
				c-2-2-4.7-3-8.3-3.2v-3.5h-3.2v3.5c-3.6,0-6.3,1-8.5,3.1c-2.1,2.1-3.2,4.7-3.2,8.1c0,3,0.9,5.4,2.7,7.1c1.8,1.7,4.7,3.1,9.1,4.2
				v11.3c-1.6-0.3-2.8-1.1-3.8-2c-0.8-1.2-1.3-2.7-1.4-4.7h-7.3c0,4.1,1,7.1,3.1,9.3c2.1,2.1,5.1,3.2,9.3,3.5v5.3h3.2V146
				c3.9-0.4,6.9-1.5,9.1-3.6c2.1-2.1,3.2-4.9,3.2-8.4C-470,131.1-470.9,128.7-472.7,126.9"/>
		</g>
	</g>
</g>
<g>
	<path class="st9" d="M-624.3,294.2c-13.4-0.2-24.4,10.6-24.5,24.1c-0.1,13.4,10.6,24.3,24,24.5c13.4,0.2,24.4-10.6,24.5-24v-0.3
		C-600.2,305.1-611,294.3-624.3,294.2z M-624,330.6c-6.7,0.1-12.1-5.3-12.2-11.9v-0.2c0-6.6,5.3-11.9,11.9-12
		c6.6-0.1,12.1,5.2,12.2,11.9C-612,325.1-617.4,330.5-624,330.6z M-538.8,294.2c-13.4-0.2-24.4,10.6-24.5,24.1
		c-0.2,13.4,10.6,24.3,24,24.5c13.4,0.2,24.3-10.6,24.5-24v-0.3C-514.7,305.1-525.5,294.3-538.8,294.2z M-538.5,330.6
		c-6.7,0.1-12.1-5.3-12.2-11.9v-0.2c0-6.6,5.3-11.9,11.9-12c6.7-0.1,12.1,5.2,12.2,11.9C-526.6,325.1-531.9,330.5-538.5,330.6z
		 M-592.1,357.5c-2.8-2.9-6.7-4.6-11-4.7h-42.5c-8.6,0-15.6,7-15.5,15.8v63.1h73.6v-63.1C-587.5,364.2-589.2,360.3-592.1,357.5z
		 M-599.6,419.3H-649v-50.8c0-1.9,1.5-3.5,3.4-3.5h42.5c2,0,3.5,1.6,3.5,3.5V419.3z M-516.9,352.8h-42.5c-8.7,0-15.6,7-15.6,15.8
		v63.1h73.7v-63.1C-501.3,359.9-508.3,352.9-516.9,352.8z M-513.4,419.3h-49.4v-50.8c0-1.9,1.5-3.5,3.4-3.5h42.5
		c1.9,0,3.4,1.6,3.5,3.5V419.3z"/>
</g>
<g>
	<path class="st0" d="M171.8,782.3c-2.8,6.8-6.5,13.2-11,19l6,12.3c0.2,0.4,0.3,0.9,0.4,1.3h-12.1l-4.3-8.8
		c-7.3-0.1-14.6-1.1-21.7-3.1c-18.5-5.2-32.4-16.5-40.3-32.7c-14.7-30.2-5.2-69.9-0.5-85.5h32.8c17.2,8.9,39.3,23.8,49.9,45.6
		C178.8,746.6,179.1,764.6,171.8,782.3z"/>
	<g>
		<path class="st10" d="M171,730.4c-10.6-21.8-32.7-36.7-49.9-45.6c-12.7-6.5-22.7-9.8-23.7-10l-5-1.6l-1.9,5
			c-0.2,0.4-1,2.8-2.2,6.6c-4.7,15.6-14.2,55.2,0.5,85.5c7.9,16.2,21.8,27.5,40.3,32.7c7.1,2,14.4,3,21.7,3.1l4.3,8.8l1.7,3.5
			c1.4,2.8,4.7,3.9,7.4,2.6c2.4-1.1,3.5-3.7,3-6.1c-0.1-0.4-0.2-0.9-0.4-1.3l-6-12.3c4.5-5.8,8.2-12.2,11-19
			C179.1,764.6,178.8,746.6,171,730.4z M161.6,777.6c-1.7,4.3-3.9,8.3-6.4,12.2l-9.3-19.2l8.7-14.8c1.6-2.7,0.7-6.1-2-7.6
			c-2.7-1.6-6.1-0.7-7.6,2l-4.9,8.3l-4.9-10l8.7-14.8c1.6-2.7,0.7-6.1-2-7.7s-6.1-0.7-7.6,2l-4.9,8.4l-11.6-23.7
			c-1.4-2.7-4.7-3.9-7.5-2.5c-2.7,1.4-3.9,4.7-2.5,7.5l11.5,23.7l-9.6-1.3c-3.1-0.5-5.9,1.6-6.4,4.6s1.6,5.9,4.6,6.4h0.3l16.9,2.3
			l4.8,9.9l-9.6-1.4c-3-0.5-5.9,1.5-6.4,4.6c-0.5,3,1.5,5.9,4.6,6.4c0.1,0,0.2,0,0.3,0.1l17.2,2.5l9.3,19.2
			c-4.6-0.4-9.1-1.2-13.5-2.5c-15.4-4.4-26.5-13.4-33-26.7c-13.1-27-3.8-64.5,0.4-78.1c13.3,5.1,48.6,20.8,61.7,47.9
			C167.4,748.5,167.7,762.8,161.6,777.6z"/>
	</g>
</g>
<g>
	<path class="st11" d="M-134.2,695.3c-8.1-8.1-21.1-8.8-30-1.5c-9.6-7.8-23.6-6.4-31.4,3.2c-7.2,8.9-6.6,21.8,1.4,29.9l29.7,29.8
		l0.3-0.2l0.3,0.2l29.7-29.8C-125.5,718.2-125.5,704.1-134.2,695.3z M-141.5,719.8l-22.5,22.5l-0.3-0.2l-0.3,0.2l-22.5-22.5
		c-4.7-4.7-4.8-12.4,0-17.2c2.4-2.3,5.5-3.6,8.7-3.6s6.3,1.3,8.6,3.6l5.6,5.6l5.6-5.6c4.7-4.7,12.4-4.7,17.1,0
		C-136.8,707.4-136.8,715-141.5,719.8z M-171.9,814.6L-171.9,814.6l-0.7-17.4c0.2-9.5-1.1-16.8-4.1-23c-3.6-7.4-9.2-10.5-14.5-13.5
		l-0.2-0.1c-0.9-0.5-1.9-1-2.9-1.6c-4.4-2.6-8.2-6.6-12.1-10.6c-0.8-0.8-1.6-1.6-2.4-2.4c-1.1-1.2-5.5-5.2-6.1-5.7
		c-0.8-0.9-1.8-1.6-2.9-2.1v-17.4c0-6.6-5-12.3-11.3-12.9c-6.9-0.6-13.1,4.5-13.7,11.4c0,0.4-0.1,0.8-0.1,1.1V764
		c0,3.2,1.2,6.3,3.5,8.5c3.6,3.6,21.7,21.8,25.7,25.6c0,0,0.1,0.1,0.1,0.2l2.2,16.3h10.3v0l-2.6-19.7c-0.2-1.4-1.2-2.4-3.7-4.8
		c-0.3-0.3-0.6-0.5-0.8-0.7l-23.8-23.8c-0.7-1-0.7-1.3-0.7-1.4v-8.8c0.4,0.6,0.8,1.1,1.3,1.6l20.6,20.5c1.1,1.4,2.7,2.2,4.5,2.1
		c1.6-0.1,3.1-1,4.1-2.3c1.3-2.2,0.4-5-1.1-6.6l-20.8-21c-0.3-0.3-0.4-0.6-0.4-1c0-0.4,0.2-0.8,0.4-1c0.6-0.5,1.6-0.5,2.1,0.1
		l0.1,0.1c1.6,1.5,5.1,4.7,5.8,5.5c0.8,0.8,1.5,1.6,2.3,2.4c4.1,4.2,8.7,9.1,14.2,12.3c1,0.6,2.1,1.2,3.1,1.8l0.2,0.1
		c4.7,2.6,8.1,4.5,10.3,9c2.3,4.7,3.3,10.5,3,18.5v0.1l0.9,16.9v0.1l0,0.3h10.2L-171.9,814.6z M-227.9,738c-1.2,0.6-2.3,1.3-3.3,2.3
		c-0.5,0.5-1,1-1.4,1.6v-21.5c0-0.6,0.3-1.3,0.8-1.7c0.4-0.4,1-0.6,1.6-0.6h0.2c1.2,0.1,2.1,1.3,2.1,2.7V738z M-98.3,707.9
		c-0.4,0-0.8,0-1.1,0.1c-6.2,0.5-11.2,6.3-11.2,12.9v17.4c-1.1,0.5-2.1,1.2-2.9,2.1c-0.6,0.5-4.9,4.5-6.1,5.7
		c-0.8,0.8-1.6,1.6-2.4,2.4c-3.8,4-7.7,8-12.1,10.6c-1,0.6-2,1.1-2.9,1.6l-0.2,0.1c-5.4,3-11,6-14.6,13.5c-3,6.1-4.3,13.4-4.1,22.9
		l-0.7,17.3v0h10.2v0l0.9-17.3c0-0.7,0-1.3,0-1.9c0-6.9,1-12.3,3-16.6c2.2-4.5,5.6-6.4,10.3-9l0.2-0.1c1-0.6,2-1.1,3.1-1.7
		c5.6-3.3,10.2-8.1,14.2-12.3c0.8-0.8,1.5-1.6,2.3-2.4c0.8-0.8,4.2-4,5.8-5.5l0.1-0.1c0.6-0.6,1.5-0.6,2.1-0.1
		c0.3,0.3,0.4,0.7,0.4,1c0,0.4-0.2,0.8-0.4,1l-20.8,21c-1.5,1.6-2.4,4.4-1.1,6.6c1,1.3,2.5,2.2,4.1,2.3c1.7,0.1,3.4-0.7,4.5-2.1
		l20.6-20.5c0.5-0.5,0.9-1,1.3-1.6v8.8c0,0.1,0,0.4-0.7,1.4l-23.8,23.8c-0.2,0.2-0.5,0.5-0.8,0.7c-2.5,2.3-3.5,3.4-3.7,4.8
		l-2.6,19.7h10.3l2.1-16.3c0-0.1,0-0.1,0.1-0.1c4-3.8,22.1-22,25.7-25.6c2.3-2.2,3.6-5.3,3.5-8.5v-43.4
		C-85.7,713.5-91.4,707.9-98.3,707.9z M-95.7,741.9c-0.4-0.6-0.8-1.1-1.3-1.6c-1-1-2.1-1.7-3.3-2.3v-17.2c0-1.4,0.9-2.6,2.1-2.7h0.2
		c0.6,0,1.2,0.2,1.6,0.6c0.5,0.4,0.8,1,0.8,1.7L-95.7,741.9z"/>
</g>
<polyline class="st1" points="-117.1,814.4 -146.4,814.5 -156.6,814.5 -171.9,814.5 -182.1,814.5 -201.1,814.6 -211.4,814.6 "/>
<g>
	<path class="st0" d="M545.7,305.1c2.4-4.6,2.6-10,0.2-14.9c-0.7-1.4-0.4-2.6-0.1-3.2c0.2-0.7,0.9-1.8,2.3-2.3l0.4-0.1h0.1
		c6.5-2.5,10.7-8.6,10.7-15.6s-4.2-13.1-10.7-15.6l-0.4-0.1c-1.4-0.6-2-1.7-2.3-2.3c-0.2-0.6-0.5-1.8,0.1-3.2v-0.1
		c3-6.5,1.8-13.9-3.3-19c-5-5-12.2-6.3-18.6-3.4l-0.3,0.1c-1.5,0.7-2.7,0.4-3.3,0.1c-0.7-0.2-1.8-0.9-2.3-2.3l-0.1-0.4v-0.1
		c-2.4-6.5-8.5-10.7-15.5-10.7c-7.2,0-13.3,4.3-15.7,11v0.1c-0.5,1.4-1.6,2-2.2,2.3c-0.6,0.2-1.9,0.6-3.3-0.1l-0.3-0.1
		c-6.4-2.9-13.6-1.6-18.6,3.4c-5.1,5.1-6.4,12.5-3.4,18.9l0.1,0.1c0.7,1.5,0.4,2.7,0.1,3.3c-0.2,0.7-0.9,1.8-2.3,2.3H457
		c-6.7,2.4-11,8.6-11,15.7c0,7.1,4.3,13.3,11,15.7h0.1c1.4,0.6,2,1.7,2.3,2.3c0.2,0.6,0.6,1.9-0.1,3.3l-0.1,0.3
		c-2.2,4.9-2,10.3,0.5,14.9l-1.6,4.6l-11.6,37.6l25.6-3.8l19,17.7l10-32l3.4,0.2l10,32l19-17.7l25.6,3.8l-5.2-16.6L545.7,305.1z"/>
	<g>
		<path class="st12" d="M547.2,310.3c-0.6,0.5-1.2,1.2-1.7,1.8c-2.7,2.7-5.8,4.4-9.3,5.4l4.6,14.9l-11.8-1.7l-8.6,8.2l-4.3-13.9
			c-3.2,2.8-7.3,4.6-11.7,4.9l10,32l19-17.7L559,348L547.2,310.3z M489.3,325l-4.4,13.9l-8.7-8.2l-11.8,1.7l4.6-14.9
			c-3.5-0.9-6.6-2.7-9.3-5.4c-0.6-0.6-1.2-1.3-1.7-1.9l-11.6,37.6L472,344l19,17.7l10-32C496.6,329.5,492.5,327.7,489.3,325z
			 M502.6,243.8c-14,0-25.3,11.3-25.3,25.3s11.3,25.3,25.3,25.3s25.3-11.3,25.3-25.3S516.6,243.8,502.6,243.8z M502.6,281.8
			c-6.9,0-12.6-5.7-12.6-12.7s5.7-12.7,12.6-12.7c7,0,12.7,5.7,12.6,12.7C515.2,276.1,509.6,281.8,502.6,281.8z M502.6,243.8
			c-14,0-25.3,11.3-25.3,25.3s11.3,25.3,25.3,25.3s25.3-11.3,25.3-25.3S516.6,243.8,502.6,243.8z M502.6,281.8
			c-6.9,0-12.6-5.7-12.6-12.7s5.7-12.7,12.6-12.7c7,0,12.7,5.7,12.6,12.7C515.2,276.1,509.6,281.8,502.6,281.8z M548.6,253.6
			l-0.4-0.1c-1.4-0.6-2-1.7-2.3-2.3c-0.2-0.6-0.5-1.8,0.1-3.2v-0.1c3-6.5,1.8-13.9-3.3-19c-5-5-12.2-6.3-18.6-3.4l-0.3,0.1
			c-1.5,0.7-2.7,0.4-3.3,0.1c-0.7-0.2-1.8-0.9-2.3-2.3l-0.1-0.4v-0.1c-2.4-6.5-8.5-10.7-15.5-10.7c-7.2,0-13.3,4.3-15.7,11v0.1
			c-0.5,1.4-1.6,2-2.2,2.3c-0.6,0.2-1.9,0.6-3.3-0.1l-0.3-0.1c-6.4-2.9-13.6-1.6-18.6,3.4c-5.1,5.1-6.4,12.5-3.4,18.9l0.1,0.1
			c0.7,1.5,0.4,2.7,0.1,3.3c-0.2,0.7-0.9,1.8-2.3,2.3h-0.1c-6.7,2.4-11,8.6-11,15.7c0,7.1,4.3,13.3,11,15.7h0.1
			c1.4,0.6,2,1.7,2.3,2.3c0.2,0.6,0.6,1.9-0.1,3.3l-0.1,0.3c-2.9,6.4-1.6,13.7,3.4,18.7c4.9,4.9,12,6.3,18.3,3.6l0.6-0.3
			c1.5-0.7,2.7-0.4,3.3-0.1c0.6,0.2,1.7,0.8,2.2,2.3v0.1c2.4,6.7,8.6,11.1,15.7,11.1c7.1,0,13.1-4.2,15.4-10.8l0.1-0.4
			c0.6-1.4,1.7-2,2.3-2.3c0.6-0.2,1.9-0.6,3.3,0.1l0.5,0.3h0.1c6.3,2.7,13.4,1.3,18.3-3.6c5.1-5.1,6.4-12.6,3.3-19
			c-0.7-1.4-0.4-2.6-0.1-3.2c0.2-0.7,0.9-1.8,2.3-2.3l0.4-0.1h0.1c6.5-2.5,10.7-8.6,10.7-15.6S555.1,256.1,548.6,253.6z
			 M544.2,273.3l-0.4,0.1h-0.1c-4.2,1.6-7.6,4.9-9.4,9.2c-1.8,4.3-1.7,9.2,0.3,13.5c1.1,2.2-0.2,3.9-0.8,4.5
			c-0.5,0.6-2.2,1.9-4.5,0.8l-0.5-0.3h-0.1c-4.1-1.8-8.8-1.8-12.9-0.1c-4.3,1.7-7.5,5.1-9.2,9.4l-0.1,0.4c-0.9,2.5-3,2.7-3.8,2.7
			c-0.9,0-2.9-0.3-3.8-2.7c-1.6-4.5-5-8.1-9.3-9.8c-4.1-1.7-8.8-1.7-12.9,0.1l-0.6,0.3c-2.2,1.1-3.9-0.2-4.5-0.8
			c-0.6-0.5-1.9-2.2-0.8-4.5l0.1-0.3c1.9-4.3,2-9.1,0.2-13.3c-1.7-4.3-5.3-7.7-9.7-9.3h-0.1c-2.4-0.9-2.7-2.9-2.7-3.8
			s0.3-2.9,2.7-3.8h0.1c4.3-1.6,7.9-5,9.7-9.3c1.8-4.3,1.7-9.2-0.3-13.4l-0.1-0.1c-1.1-2.2,0.2-3.9,0.8-4.5c0.5-0.6,2.2-1.9,4.5-0.8
			l0.3,0.1c4.3,1.9,9.1,2,13.3,0.2c4.3-1.7,7.7-5.3,9.3-9.8v-0.1c0.9-2.4,3-2.7,3.8-2.7c0.9,0,2.9,0.3,3.8,2.7l0.1,0.4v0.1
			c1.7,4.2,5,7.6,9.2,9.4c4.3,1.8,9.1,1.7,13.3-0.2l0.3-0.1c2.2-1.1,3.9,0.2,4.5,0.8c0.6,0.6,1.9,2.2,0.8,4.5v0.1
			c-2,4.2-2.1,9.1-0.3,13.5c1.7,4.3,5.2,7.5,9.4,9.2l0.4,0.1c2.4,0.9,2.7,2.9,2.7,3.8C546.9,270.4,546.6,272.4,544.2,273.3z
			 M502.6,243.8c-14,0-25.3,11.3-25.3,25.3s11.3,25.3,25.3,25.3s25.3-11.3,25.3-25.3S516.6,243.8,502.6,243.8z M502.6,281.8
			c-6.9,0-12.6-5.7-12.6-12.7s5.7-12.7,12.6-12.7c7,0,12.7,5.7,12.6,12.7C515.2,276.1,509.6,281.8,502.6,281.8z"/>
		<path class="st1" d="M421.3,209.9v169h159.5v-169H421.3z M491,361.7L472,344l-25.6,3.8l11.6-37.6c0.5,0.6,1.1,1.3,1.7,1.9
			c2.7,2.7,5.8,4.5,9.3,5.4l-4.6,14.9l11.8-1.7l8.7,8.2l4.4-13.9c3.2,2.7,7.3,4.5,11.7,4.7L491,361.7z M533.4,344.2l-19,17.7l-10-32
			c4.4-0.3,8.5-2.1,11.7-4.9l4.3,13.9l8.6-8.2l11.8,1.7l-4.6-14.9c3.5-1,6.6-2.7,9.3-5.4c0.5-0.6,1.1-1.3,1.7-1.8L559,348
			L533.4,344.2z M548.6,284.8h-0.1l-0.4,0.1c-1.4,0.5-2.1,1.6-2.3,2.3c-0.3,0.6-0.6,1.8,0.1,3.2c3.1,6.4,1.8,13.9-3.3,19
			c-4.9,4.9-12,6.3-18.3,3.6h-0.1l-0.5-0.3c-1.4-0.7-2.7-0.3-3.3-0.1c-0.6,0.3-1.7,0.9-2.3,2.3l-0.1,0.4
			c-2.3,6.6-8.3,10.8-15.4,10.8c-7.1,0-13.3-4.4-15.7-11.1v-0.1c-0.5-1.5-1.6-2.1-2.2-2.3c-0.6-0.3-1.8-0.6-3.3,0.1l-0.6,0.3
			c-6.3,2.7-13.4,1.3-18.3-3.6c-5-5-6.3-12.3-3.4-18.7l0.1-0.3c0.7-1.4,0.3-2.7,0.1-3.3c-0.3-0.6-0.9-1.7-2.3-2.3h-0.1
			c-6.7-2.4-11-8.6-11-15.7c0-7.1,4.3-13.3,11-15.7h0.1c1.4-0.5,2.1-1.6,2.3-2.3c0.3-0.6,0.6-1.8-0.1-3.3l-0.1-0.1
			c-3-6.4-1.7-13.8,3.4-18.9c5-5,12.2-6.3,18.6-3.4l0.3,0.1c1.4,0.7,2.7,0.3,3.3,0.1c0.6-0.3,1.7-0.9,2.2-2.3v-0.1
			c2.4-6.7,8.5-11,15.7-11c7,0,13.1,4.2,15.5,10.7v0.1l0.1,0.4c0.5,1.4,1.6,2.1,2.3,2.3c0.6,0.3,1.8,0.6,3.3-0.1l0.3-0.1
			c6.4-2.9,13.6-1.6,18.6,3.4c5.1,5.1,6.3,12.5,3.3,19v0.1c-0.6,1.4-0.3,2.6-0.1,3.2c0.3,0.6,0.9,1.7,2.3,2.3l0.4,0.1
			c6.5,2.5,10.7,8.6,10.7,15.6S555.1,282.3,548.6,284.8z"/>
	</g>
</g>
</svg>
