<?xml version="1.0" encoding="utf-8"?>
<!-- Generator: Adobe Illustrator 26.0.1, SVG Export Plug-In . SVG Version: 6.00 Build 0)  -->
<svg version="1.1" id="Layer_1" xmlns="http://www.w3.org/2000/svg" xmlns:xlink="http://www.w3.org/1999/xlink" x="0px" y="0px"
	 viewBox="0 0 1920.5 128.4" style="enable-background:new 0 0 1920.5 128.4;" xml:space="preserve">
<style type="text/css">
	.st0{fill:#697F36;stroke:#6B8036;stroke-width:0.25;stroke-miterlimit:10;}
	.st1{fill:#ADC936;stroke:#ADC936;stroke-width:0.25;stroke-miterlimit:10;}
	.st2{fill:#697F36;stroke:#6A7F36;stroke-width:0.25;stroke-miterlimit:10;}
	.st3{fill:#5B3289;}
	.st4{fill:#ED7F22;}
	.st5{fill:#697F36;}
	.st6{fill:#04ABE3;}
	.st7{fill:#E52782;}
	.st8{fill:#213061;}
	.st9{fill:#01519C;}
	.st10{fill:#697F36;stroke:#04ABE3;stroke-width:4;stroke-miterlimit:100;}
	.st11{fill:#ED7F22;stroke:#04ABE3;stroke-width:4;stroke-miterlimit:100;}
	.st12{fill:#E52782;stroke:#04ABE3;stroke-width:4;stroke-miterlimit:100;}
	.st13{fill:none;stroke:#04ABE3;stroke-width:4;stroke-linecap:round;stroke-linejoin:round;stroke-miterlimit:10;}
</style>
<g>
	<g>
		<g>
			<g>
				<path class="st0" d="M503.8,47.4c-8.3,0-15.1-6.8-15.1-15.1c0-8.3,6.8-15.1,15.1-15.1c8.3,0,15.1,6.8,15.1,15.1
					C518.9,40.6,512.2,47.4,503.8,47.4z M503.8,19c-7.3,0-13.3,6-13.3,13.3c0,7.3,6,13.3,13.3,13.3c7.3,0,13.3-6,13.3-13.3
					C517.1,25,511.1,19,503.8,19z"/>
			</g>
			<g>
				<g>
					<path class="st0" d="M503.8,31.1c0,12.6,0,25.2,0,37.8"/>
					<rect x="502.9" y="31.1" class="st0" width="1.8" height="40.5"/>
				</g>
				<g>
					<line class="st0" x1="503.8" y1="41.4" x2="508.8" y2="36.4"/>
					
						<rect x="502.8" y="38" transform="matrix(0.7071 -0.7071 0.7071 0.7071 120.795 369.4261)" class="st0" width="7.1" height="1.8"/>
				</g>
				<g>
					<line class="st0" x1="503.8" y1="37.2" x2="499.5" y2="32.9"/>
					
						<rect x="500.8" y="32" transform="matrix(0.7072 -0.707 0.707 0.7072 122.113 364.9502)" class="st0" width="1.8" height="6.1"/>
				</g>
			</g>
		</g>
		<g>
			<g>
				<path class="st0" d="M494.3,43.7c-0.6-0.4-1.1-0.9-1.5-1.5v0.6c0,5.3-4.3,9.7-9.7,9.7H481c-5.3,0-9.7-4.3-9.7-9.7V25.5
					c0-5.3,4.3-9.7,9.7-9.7h2.1c4.8,0,8.7,3.5,9.5,8.1c0.2,0,0.3-0.1,0.5-0.1v-0.8h1.2c-1.1-5.2-5.7-9-11.2-9H481
					c-6.3,0-11.5,5.2-11.5,11.5v17.3c0,6.3,5.2,11.5,11.5,11.5h2.1c6,0,10.9-4.6,11.5-10.5C494.5,43.8,494.4,43.8,494.3,43.7z"/>
			</g>
			<g>
				<g>
					<path class="st0" d="M481.8,32.2c0,12.2,0,24.4,0,36.6"/>
					<rect x="480.8" y="32.2" class="st0" width="1.8" height="39.3"/>
				</g>
				<g>
					<line class="st0" x1="481.8" y1="44.7" x2="485.4" y2="41.1"/>
					
						<rect x="481" y="42" transform="matrix(0.7071 -0.7071 0.7071 0.7071 111.304 354.5229)" class="st0" width="5.2" height="1.8"/>
				</g>
				<g>
					<line class="st0" x1="481.8" y1="41.7" x2="478.6" y2="38.5"/>
					
						<rect x="479.3" y="37.9" transform="matrix(0.707 -0.7072 0.7072 0.707 112.3306 351.3123)" class="st0" width="1.8" height="4.5"/>
				</g>
			</g>
		</g>
	</g>
	<g>
		<g>
			<g>
				<path class="st1" d="M739.4,18.4c0-8.3,6.8-15.1,15.1-15.1c8.3,0,15.1,6.8,15.1,15.1s-6.8,15.1-15.1,15.1
					C746.1,33.5,739.4,26.7,739.4,18.4z M741.2,18.4c0,7.3,6,13.3,13.3,13.3c7.3,0,13.3-6,13.3-13.3s-6-13.3-13.3-13.3
					C747.2,5.1,741.2,11.1,741.2,18.4z"/>
			</g>
			<g>
				<g>
					<path class="st1" d="M754.5,17.2c0,10.8,0,21.5,0,32.3"/>
					<rect x="753.6" y="17.2" class="st1" width="1.8" height="35"/>
				</g>
				<g>
					<line class="st1" x1="754.5" y1="27.5" x2="749.5" y2="22.5"/>
					
						<rect x="751.1" y="21.5" transform="matrix(0.7071 -0.7072 0.7072 0.7071 202.6013 539.0865)" class="st1" width="1.8" height="7.1"/>
				</g>
				<g>
					<line class="st1" x1="754.5" y1="23.3" x2="758.8" y2="19"/>
					
						<rect x="753.6" y="20.2" transform="matrix(0.707 -0.7072 0.7072 0.707 206.7247 541.2853)" class="st1" width="6.1" height="1.8"/>
				</g>
			</g>
		</g>
		<g>
			<g>
				<path class="st1" d="M777.4,0.1h-2.1c-5.1,0-9.4,3.3-10.9,7.8c0.2,0.1,0.4,0.2,0.6,0.4c0.4,0.4,0.6,0.8,0.8,1.2
					c1-4.3,4.8-7.6,9.4-7.6h2.1c5.3,0,9.7,4.3,9.7,9.7v17.3c0,5.3-4.3,9.7-9.7,9.7h-2.1c-5.3,0-9.7-4.3-9.7-9.7v-1.8
					c-0.1,0.4-0.3,0.8-0.5,1.2c-0.2,0.5-0.8,0.7-1.3,0.8c0.1,6.3,5.2,11.4,11.5,11.4h2.1c6.3,0,11.5-5.2,11.5-11.5V11.6
					C788.9,5.3,783.7,0.1,777.4,0.1z"/>
			</g>
			<g>
				<g>
					<path class="st1" d="M776.5,18.4c0,10.5,0,20.9,0,31.4"/>
					<rect x="775.6" y="18.4" class="st1" width="1.8" height="33.8"/>
				</g>
				<g>
					<line class="st1" x1="776.5" y1="30.9" x2="772.9" y2="27.2"/>
					
						<rect x="773.8" y="26.4" transform="matrix(0.7072 -0.7071 0.7071 0.7072 206.3514 556.2534)" class="st1" width="1.8" height="5.2"/>
				</g>
				<g>
					<line class="st1" x1="776.5" y1="27.8" x2="779.7" y2="24.6"/>
					
						<rect x="775.9" y="25.3" transform="matrix(0.7071 -0.7071 0.7071 0.7071 209.3581 557.8487)" class="st1" width="4.5" height="1.8"/>
				</g>
			</g>
		</g>
	</g>
	<g>
		<g>
			<g>
				<path class="st2" d="M1093.3,47.4c-8.3,0-15.1-6.8-15.1-15.1c0-8.3,6.8-15.1,15.1-15.1c8.3,0,15.1,6.8,15.1,15.1
					C1108.4,40.6,1101.6,47.4,1093.3,47.4z M1093.3,19c-7.3,0-13.3,6-13.3,13.3c0,7.3,6,13.3,13.3,13.3c7.3,0,13.3-6,13.3-13.3
					C1106.6,25,1100.6,19,1093.3,19z"/>
			</g>
			<g>
				<g>
					<path class="st2" d="M1093.3,31.1c0,14.7,0,29.3,0,44"/>
					<path class="st2" d="M1094.2,75.9V31.1h-1.8v45.5C1092.8,76,1093.5,75.8,1094.2,75.9z"/>
				</g>
				<g>
					<line class="st2" x1="1093.3" y1="41.4" x2="1098.3" y2="36.4"/>
					
						<rect x="1092.2" y="38" transform="matrix(0.7071 -0.7071 0.7071 0.7071 293.446 786.2424)" class="st2" width="7.1" height="1.8"/>
				</g>
				<g>
					<line class="st2" x1="1093.3" y1="37.2" x2="1089" y2="32.9"/>
					
						<rect x="1090.2" y="32" transform="matrix(0.7072 -0.707 0.707 0.7072 294.7087 781.7112)" class="st2" width="1.8" height="6.1"/>
				</g>
			</g>
		</g>
		<g>
			<g>
				<path class="st2" d="M1082.2,41.5v1.3c0,5.3-4.3,9.7-9.7,9.7h-2.1c-5.3,0-9.7-4.3-9.7-9.7V25.5c0-5.3,4.3-9.7,9.7-9.7h2.1
					c4.4,0,8,2.9,9.2,6.9c0.2-0.2,0.4-0.3,0.7-0.4c0.4-0.1,0.8,0,1.2,0.1c-1.3-4.9-5.8-8.5-11.1-8.5h-2.1c-6.3,0-11.5,5.2-11.5,11.5
					v17.3c0,6.3,5.2,11.5,11.5,11.5h2.1c6.3,0,11.5-5.2,11.5-11.5v-0.6C1083.4,42.4,1082.6,42.2,1082.2,41.5z"/>
			</g>
			<g>
				<g>
					<path class="st2" d="M1071.2,32.2c0,11.3,0,22.7,0,34"/>
					<rect x="1070.3" y="32.2" class="st2" width="1.8" height="36.5"/>
				</g>
				<g>
					<line class="st2" x1="1071.2" y1="44.7" x2="1074.9" y2="41.1"/>
					
						<rect x="1070.5" y="42" transform="matrix(0.7071 -0.7071 0.7071 0.7071 283.955 771.3392)" class="st2" width="5.2" height="1.8"/>
				</g>
				<g>
					<line class="st2" x1="1071.2" y1="41.7" x2="1068.1" y2="38.5"/>
					
						<rect x="1068.7" y="37.9" transform="matrix(0.707 -0.7072 0.7072 0.707 285.0193 768.1664)" class="st2" width="1.8" height="4.5"/>
				</g>
			</g>
		</g>
	</g>
	<path class="st1" d="M1402.3,38.2c0-8.3,6.8-15.1,15.1-15.1s15.1,6.8,15.1,15.1c0,8.3-6.8,15.1-15.1,15.1S1402.3,46.6,1402.3,38.2z
		 M1404.1,38.2c0,7.3,6,13.3,13.3,13.3c7.3,0,13.3-6,13.3-13.3c0-7.3-6-13.3-13.3-13.3C1410.1,24.9,1404.1,30.9,1404.1,38.2z
		 M1417.4,37c0,10.3,0,20.6,0,30.9 M1418.3,70.5V37h-1.8v33.5H1418.3z M1417.4,47.4l-5-5 M1416.7,48l1.3-1.3l-5-5l-1.3,1.3
		L1416.7,48z M1421.7,38.8l-4.3,4.3 M1418,43.8l4.3-4.3l-1.3-1.3l-4.3,4.3L1418,43.8z M1440.3,20h-2.1c-5.1,0-9.5,3.4-11,8
		c0.7-0.1,1.4,0.1,1.8,0.6c1.2-3.9,4.9-6.8,9.2-6.8h2.1c5.3,0,9.7,4.3,9.7,9.7v17.3c0,5.3-4.3,9.7-9.7,9.7h-2.1
		c-5.3,0-9.7-4.3-9.7-9.7v-1.5c-0.3,0.7-1.1,0.9-1.8,0.8v0.7c0,6.3,5.2,11.5,11.5,11.5h2.1c6.3,0,11.5-5.2,11.5-11.5V31.5
		C1451.8,25.1,1446.6,20,1440.3,20z M1439.4,38.2c0,10,0,20,0,30 M1440.4,70.5V38.2h-1.8v32.3H1440.4z M1435.8,47l3.7,3.7
		 M1438.8,51.3l1.3-1.3l-3.7-3.7l-1.3,1.3L1438.8,51.3z M1439.4,47.6l3.2-3.2 M1440.1,48.3l3.2-3.2l-1.3-1.3l-3.2,3.2L1440.1,48.3z"
		/>
	<g>
		<g>
			<path class="st3" d="M622.4,124.4h-12.2c-0.9,0-1.5-0.7-1.5-1.5v-15.5c0-4.2,3.4-7.6,7.6-7.6c2,0,4,0.8,5.4,2.2
				c1.4,1.4,2.2,3.4,2.2,5.4v15.5C623.9,123.7,623.2,124.4,622.4,124.4z M611.7,121.3h9.1v-13.9c0-1.2-0.5-2.4-1.3-3.2
				c-0.9-0.9-2-1.3-3.2-1.3c-2.5,0-4.6,2-4.6,4.6V121.3z"/>
		</g>
		<g>
			<path class="st3" d="M622.4,92h-12.2c-0.9,0-1.5-0.7-1.5-1.5v-6.2c0-4.2,3.4-7.6,7.6-7.6c2,0,4,0.8,5.4,2.2
				c1.4,1.4,2.2,3.4,2.2,5.4v6.2C623.9,91.3,623.2,92,622.4,92z M611.7,88.9h9.1v-4.7c0-1.2-0.5-2.4-1.3-3.2c-0.9-0.9-2-1.3-3.2-1.3
				c-2.5,0-4.6,2-4.6,4.6V88.9z"/>
		</g>
		<g>
			<path class="st3" d="M639.3,124.4h-46.2c-0.9,0-1.5-0.7-1.5-1.5V90.5c0-0.9,0.7-1.5,1.5-1.5h46.2c0.9,0,1.5,0.7,1.5,1.5v32.3
				C640.8,123.7,640.1,124.4,639.3,124.4z M594.6,121.3h43.1V92h-43.1V121.3z"/>
		</g>
		<g>
			<path class="st3" d="M639.3,97h-46.2c-0.9,0-1.5-0.7-1.5-1.5s0.7-1.5,1.5-1.5h46.2c0.9,0,1.5,0.7,1.5,1.5S640.1,97,639.3,97z"/>
		</g>
		<g>
			<path class="st3" d="M653.6,121.3h-86c-0.9,0-1.5,0.7-1.5,1.5c0,0.9,0.7,1.5,1.5,1.5h86V121.3z"/>
		</g>
		<g>
			<g>
				<path class="st3" d="M653.6,121.3h-3.6V103h3.6v-3.1h-5.1c-0.9,0-1.5,0.7-1.5,1.5v21.3c0,0.9,0.7,1.5,1.5,1.5h5.1V121.3z"/>
			</g>
			<g>
				<path class="st3" d="M653.6,99.9h-3.6V81.7h4.5v-3.1h-6c-0.9,0-1.5,0.7-1.5,1.5v21.3c0,0.9,0.7,1.5,1.5,1.5h5.1V99.9z"/>
			</g>
			<g>
				<path class="st3" d="M653.6,99.9h-14.4c-0.9,0-1.5,0.7-1.5,1.5c0,0.9,0.7,1.5,1.5,1.5h14.4V99.9z"/>
			</g>
			<g>
				<g>
					<path class="st3" d="M654.5,78.6H650v-5.4c0-2.4,1.9-4.3,4.3-4.3c1.2,0,2.2,0.4,3.1,1.3c0.8,0.8,1.3,1.9,1.3,3.1v4.4h3.1v-4.4
						c0-2-0.8-3.8-2.2-5.2c-1.4-1.4-3.3-2.2-5.2-2.2c-4.1,0-7.4,3.3-7.4,7.4v6.9c0,0.9,0.7,1.5,1.5,1.5h6V78.6z"/>
				</g>
				<g>
					<path class="st3" d="M648.5,81.7h-5.2c-0.9,0-1.5-0.7-1.5-1.5s0.7-1.5,1.5-1.5h5.2c0.9,0,1.5,0.7,1.5,1.5
						S649.3,81.7,648.5,81.7z"/>
				</g>
			</g>
			<g>
				<path class="st3" d="M653.6,91h0.9v-1.7c0,0-0.1,0-0.1,0c-0.9,0-1.5,0.7-1.5,1.5v10.7c0,0.6,0.3,1.1,0.8,1.3V91z"/>
			</g>
			<g>
				<path class="st3" d="M653.6,108.7c-0.5,0.3-0.8,0.7-0.8,1.3v10.7c0,0.6,0.3,1.1,0.8,1.3V108.7z"/>
			</g>
		</g>
		<g>
			<path class="st3" d="M654.7,68.1c-0.9,0-1.5-0.7-1.5-1.5v-6.2c0-0.9,0.7-1.5,1.5-1.5s1.5,0.7,1.5,1.5v6.2
				C656.2,67.4,655.5,68.1,654.7,68.1z"/>
		</g>
		<g>
			<g>
				<path class="st3" d="M583.9,124.4h-11.7c-0.9,0-1.5-0.7-1.5-1.5v-21.3c0-0.9,0.7-1.5,1.5-1.5h11.7c0.9,0,1.5,0.7,1.5,1.5v21.3
					C585.4,123.7,584.7,124.4,583.9,124.4z M573.7,121.3h8.7V103h-8.7V121.3z"/>
			</g>
			<g>
				<path class="st3" d="M583.9,103h-11.7c-0.9,0-1.5-0.7-1.5-1.5V80.2c0-0.9,0.7-1.5,1.5-1.5h11.7c0.9,0,1.5,0.7,1.5,1.5v21.3
					C585.4,102.3,584.7,103,583.9,103z M573.7,99.9h8.7V81.7h-8.7V99.9z"/>
			</g>
			<g>
				<path class="st3" d="M592.3,99.9h-25.4c-0.4,0-0.8,0.2-1.1,0.4c0,0,0,0,0.1,0c1.7,0,2.6,1.3,2.7,2.6h23.7c0.9,0,1.5-0.7,1.5-1.5
					C593.8,100.6,593.1,99.9,592.3,99.9z"/>
			</g>
			<g>
				<g>
					<path class="st3" d="M583.9,81.7h-11.7c-0.9,0-1.5-0.7-1.5-1.5v-6.9c0-2,0.8-3.8,2.2-5.2c1.4-1.4,3.3-2.2,5.2-2.2
						c4.1,0,7.4,3.3,7.4,7.4v6.9C585.4,81,584.7,81.7,583.9,81.7z M573.7,78.6h8.6v-5.4c0-2.4-1.9-4.3-4.3-4.3
						c-1.2,0-2.2,0.4-3.1,1.3c-0.8,0.8-1.3,1.9-1.3,3.1V78.6z"/>
				</g>
				<g>
					<path class="st3" d="M572.2,81.7h-5.3c-0.9,0-1.5-0.7-1.5-1.5s0.7-1.5,1.5-1.5h5.3c0.9,0,1.5,0.7,1.5,1.5S573,81.7,572.2,81.7z
						"/>
				</g>
				<g>
					<path class="st3" d="M589.1,81.7h-5.2c-0.9,0-1.5-0.7-1.5-1.5s0.7-1.5,1.5-1.5h5.2c0.9,0,1.5,0.7,1.5,1.5S590,81.7,589.1,81.7z
						"/>
				</g>
			</g>
			<g>
				<path class="st3" d="M578,103c-0.9,0-1.5-0.7-1.5-1.5V90.8c0-0.9,0.7-1.5,1.5-1.5c0.9,0,1.5,0.7,1.5,1.5v10.7
					C579.5,102.3,578.8,103,578,103z"/>
			</g>
			<g>
				<path class="st3" d="M578,122.2c-0.9,0-1.5-0.7-1.5-1.5V110c0-0.9,0.7-1.5,1.5-1.5c0.9,0,1.5,0.7,1.5,1.5v10.7
					C579.5,121.5,578.8,122.2,578,122.2z"/>
			</g>
		</g>
		<g>
			<path class="st3" d="M577.7,68.1c-0.9,0-1.5-0.7-1.5-1.5v-6.2c0-0.9,0.7-1.5,1.5-1.5s1.5,0.7,1.5,1.5v6.2
				C579.2,67.4,578.5,68.1,577.7,68.1z"/>
		</g>
		<g>
			<path class="st3" d="M633.7,91.2c-0.9,0-1.5-0.7-1.5-1.5V81l-7.3-8.3h-16.7l-8,7.4v9.6c0,0.9-0.7,1.5-1.5,1.5
				c-0.9,0-1.5-0.7-1.5-1.5V79.5c0-0.4,0.2-0.8,0.5-1.1l8.9-8.3c0.3-0.3,0.7-0.4,1-0.4h18c0.4,0,0.9,0.2,1.2,0.5l8.1,9.2
				c0.2,0.3,0.4,0.6,0.4,1v9.2C635.2,90.5,634.5,91.2,633.7,91.2z"/>
		</g>
		<g>
			<path class="st3" d="M605.2,124.4h-7.1c-0.9,0-1.5-0.7-1.5-1.5V110c0-2.8,2.3-5.1,5.1-5.1c1.4,0,2.6,0.5,3.6,1.5
				c1,0.9,1.5,2.2,1.5,3.6v12.8C606.7,123.7,606,124.4,605.2,124.4z M599.6,121.3h4V110c0-0.5-0.2-1-0.6-1.4
				c-0.4-0.4-0.9-0.6-1.4-0.6c-1.1,0-2,0.9-2,2V121.3z"/>
		</g>
		<g>
			<path class="st3" d="M634.4,124.4h-7.1c-0.9,0-1.5-0.7-1.5-1.5V110c0-2.8,2.3-5.1,5.1-5.1c1.4,0,2.6,0.5,3.6,1.5
				c1,0.9,1.5,2.2,1.5,3.6v12.8C636,123.7,635.3,124.4,634.4,124.4z M628.9,121.3h4V110c0-0.5-0.2-1-0.6-1.4
				c-0.4-0.4-0.9-0.6-1.4-0.6c-1.1,0-2,0.9-2,2V121.3z"/>
		</g>
		<g>
			<path class="st3" d="M601.6,78.3C601.6,78.3,601.6,78.3,601.6,78.3c-0.9-0.1-1.6-0.8-1.5-1.6c0-0.6,1.1-15.8,15.2-26.8
				c0.7-0.5,1.6-0.4,2.2,0.3c0.5,0.7,0.4,1.6-0.3,2.2c-13,10.1-14,24.4-14,24.5C603.1,77.6,602.4,78.3,601.6,78.3z"/>
		</g>
		<g>
			<path class="st3" d="M630.9,78.3c-0.8,0-1.5-0.6-1.5-1.4l0,0c0-0.1-1-14.5-14-24.5c-0.7-0.5-0.8-1.5-0.3-2.2
				c0.5-0.7,1.5-0.8,2.2-0.3c14.2,11,15.2,26.2,15.2,26.8C632.5,77.5,631.8,78.2,630.9,78.3C631,78.3,630.9,78.3,630.9,78.3z"/>
		</g>
		<g>
			<path class="st3" d="M616.2,53.1c-0.9,0-1.5-0.7-1.5-1.5V45c0-0.9,0.7-1.5,1.5-1.5c0.9,0,1.5,0.7,1.5,1.5v6.5
				C617.7,52.4,617,53.1,616.2,53.1z"/>
		</g>
	</g>
	<g>
		<g>
			<path class="st4" d="M690.6,117.2c-11.1,0-20-9-20-20c0-11.1,9-20,20-20s20,9,20,20C710.6,108.2,701.6,117.2,690.6,117.2z
				 M690.6,80.2c-9.4,0-17,7.6-17,17c0,9.4,7.6,17,17,17s17-7.6,17-17C707.5,87.8,699.9,80.2,690.6,80.2z"/>
		</g>
		<g>
			<path class="st4" d="M712,123.6h13.7v-1h-76.8c-0.9,0-1.5,0.7-1.5,1.5c0,0.9,0.7,1.5,1.5,1.5H712V123.6z"/>
		</g>
		<g>
			<path class="st4" d="M705,125.7h-3.1V75.6c0-0.3,0.1-0.5,0.2-0.8L714.3,54h-46.1l11.4,20.9c0.1,0.2,0.2,0.5,0.2,0.7v50.1h-3.1V76
				l-12.5-22.8c-0.3-0.5-0.3-1.1,0-1.5c0.3-0.5,0.8-0.8,1.3-0.8H717c0.6,0,1.1,0.3,1.3,0.8c0.3,0.5,0.3,1.1,0,1.5L705,76V125.7z"/>
		</g>
		<g>
			<rect x="689.8" y="53.2" class="st4" width="3.1" height="70.9"/>
		</g>
		<g>
			<path class="st4" d="M666.4,125.7h-3.1V80.2l-8.6-2.6v46.5h-3.1V75.6c0-0.5,0.2-0.9,0.6-1.2c0.4-0.3,0.9-0.4,1.4-0.2l11.6,3.5
				c0.7,0.2,1.1,0.8,1.1,1.5V125.7z"/>
		</g>
		<g>
			<path class="st4" d="M718,123.6V80.2l7.7-2.3v-3.2l-9.7,2.9c-0.7,0.2-1.1,0.8-1.1,1.5v44.5H718z"/>
		</g>
	</g>
	<g>
		<g>
			<path class="st5" d="M453.6,99.8v-1c0-0.6,0.1-1.1,0.3-1.6c-0.4,0.1-0.7,0.2-1.3,0.2c-1.5,0-2.1-0.5-3.1-1.3
				c-1.1-0.9-2.5-2-5.1-2c-2.6,0-4,1.1-5.1,2c-1,0.8-1.6,1.3-3.1,1.3c-1.5,0-2.1-0.5-3.1-1.3c-1.1-0.9-2.5-2-5.1-2
				c-2.6,0-4,1.1-5.1,2c-1,0.8-1.6,1.3-3.1,1.3c-1.5,0-2.1-0.5-3.1-1.3c-1.1-0.9-2.5-2-5.1-2c-2.6,0-4,1.1-5.1,2
				c-1,0.8-1.6,1.3-3.1,1.3c-1.5,0-2.1-0.5-3.1-1.3c-1.1-0.9-2.5-2-5.1-2c-2.6,0-4,1.1-5.1,2c-1,0.8-1.6,1.3-3.1,1.3
				c-1.5,0-2.1-0.5-3.1-1.3c-1.1-0.9-2.5-2-5.1-2c-0.9,0-1.6,0.7-1.6,1.6c0,0.9,0.7,1.6,1.6,1.6c1.5,0,2.1,0.5,3.1,1.3
				c1.1,0.9,2.5,2,5.1,2c2.6,0,4-1.1,5.1-2c1-0.8,1.6-1.3,3.1-1.3c1.5,0,2.1,0.5,3.1,1.3c1.1,0.9,2.5,2,5.1,2c2.6,0,4-1.1,5.1-2
				c1-0.8,1.6-1.3,3.1-1.3c1.5,0,2.1,0.5,3.1,1.3c1.1,0.9,2.5,2,5.1,2c2.6,0,4-1.1,5.1-2c1-0.8,1.6-1.3,3.1-1.3
				c1.5,0,2.1,0.5,3.1,1.3c1.1,0.9,2.5,2,5.1,2c2.6,0,4-1.1,5.1-2c1-0.8,1.6-1.3,3.1-1.3c1.5,0,2.1,0.5,3.1,1.3c1.1,0.9,2.5,2,5.1,2
				c0.4,0,0.7,0,1-0.1C453.6,100.3,453.5,100,453.6,99.8z"/>
		</g>
		<g>
			<g>
				<path class="st4" d="M439.3,53.1c-2.2,0-4.3,0.8-5.9,2.4c-1.6,1.6-2.4,3.6-2.4,5.8c0,2.2,0.9,4.3,2.4,5.8
					c1.6,1.6,3.6,2.4,5.8,2.4c0,0,0,0,0,0c2.2,0,4.3-0.9,5.8-2.4c1.6-1.6,2.4-3.6,2.4-5.8C447.5,56.9,443.8,53.2,439.3,53.1z
					 M439.3,67.5C439.3,67.5,439.3,67.5,439.3,67.5c-3.4,0-6.1-2.7-6.1-6.1c0-1.6,0.6-3.2,1.8-4.3c1.2-1.2,2.7-1.8,4.3-1.8
					c0,0,0,0,0,0c3.3,0,6.1,2.7,6.1,6.1C445.4,64.8,442.6,67.5,439.3,67.5z"/>
			</g>
			<g>
				<path class="st4" d="M439.3,51.7C439.3,51.7,439.3,51.7,439.3,51.7c0.6,0,1-0.5,1.1-1c0-0.2,0-0.4,0-0.7c0,0,0-0.1,0-0.1l0-0.5
					c0-0.2,0-0.4,0-0.6c0-0.6-0.5-1.1-1.1-1.1c0,0,0,0,0,0c-0.6,0-1.1,0.5-1.1,1.1c0,0.6,0,1.3,0,1.9
					C438.2,51.3,438.7,51.7,439.3,51.7z"/>
			</g>
			<g>
				<path class="st4" d="M428.5,60.3c-0.2,0-0.4,0-0.6,0l-0.3,0l-0.3,0c-0.2,0-0.4,0-0.6,0c-0.6,0-1.1,0.5-1.1,1.1
					c0,0.6,0.4,1.1,1.1,1.1c0.3,0,0.6,0,0.9,0c0.3,0,0.6,0,0.9,0c0.6,0,1.1-0.5,1.1-1.1C429.6,60.8,429.1,60.3,428.5,60.3z"/>
			</g>
			<g>
				<path class="st4" d="M452.6,60.7c-0.2-0.2-0.4-0.3-0.7-0.3c-0.6,0-1.3,0-2,0c-0.6,0-1,0.5-1,1.1c0,0.6,0.4,1,1,1.1
					c0.2,0,0.5,0,0.7,0c0.1,0,0.2,0,0.3,0c0.1,0,0.2,0,0.3,0c0.1,0,0.2,0,0.3,0c0.1,0,0.3,0,0.4,0c0.6-0.1,0.9-0.4,1-1
					C452.9,61.2,452.8,60.9,452.6,60.7z"/>
			</g>
			<g>
				<path class="st4" d="M439.3,71.1C439.3,71.1,439.3,71.1,439.3,71.1c-0.6,0-1.1,0.4-1.1,1c0,0.2,0,0.5,0,0.7l0,0.3
					c0,0.1,0,0.2,0,0.3c0,0.2,0,0.4,0,0.7c0,0.6,0.5,1,1.1,1c0,0,0,0,0,0c0.6,0,1-0.4,1.1-1c0-0.6,0-1.3,0-1.9
					C440.3,71.5,439.9,71.1,439.3,71.1z"/>
			</g>
			<g>
				<path class="st4" d="M431,54.6c0.2,0.2,0.4,0.2,0.6,0.2c0.2,0,0.4,0,0.5-0.1c0.4-0.2,0.6-0.5,0.6-1c0-0.1,0-0.4-0.2-0.5
					c-0.5-0.6-1-1.1-1.6-1.6c-0.4-0.3-1-0.3-1.4,0.2c-0.4,0.4-0.4,1-0.1,1.4C429.9,53.6,430.4,54.1,431,54.6z"/>
			</g>
			<g>
				<path class="st4" d="M446.9,54.9C446.9,54.9,446.9,54.9,446.9,54.9c0.7,0,2.3-1.7,2.3-2.3c0-0.4-0.2-0.7-0.5-0.9
					c-0.4-0.2-0.8-0.2-1.2,0.1c-0.5,0.5-1,1-1.5,1.5c-0.3,0.3-0.3,0.7-0.1,1.2C446.2,54.7,446.5,54.9,446.9,54.9z"/>
			</g>
			<g>
				<path class="st4" d="M432.2,68.1c-0.4-0.2-0.8-0.2-1.2,0.1c-0.5,0.5-1,1-1.5,1.5c-0.3,0.3-0.3,0.7-0.1,1.2
					c0.2,0.3,0.5,0.5,0.9,0.5c0,0,0,0,0,0c0.6,0,2.3-1.7,2.3-2.3C432.7,68.6,432.6,68.3,432.2,68.1z"/>
			</g>
			<g>
				<path class="st4" d="M449.1,69.8c-0.5-0.7-1.1-1.2-1.7-1.7c-0.4-0.3-0.9-0.2-1.3,0.2c-0.4,0.4-0.4,1-0.1,1.4
					c0.5,0.6,1,1.1,1.5,1.5c0.2,0.2,0.4,0.2,0.6,0.2c0.2,0,0.4,0,0.5-0.1c0.4-0.2,0.6-0.6,0.6-1.1l0-0.1
					C449.2,70,449.2,69.9,449.1,69.8z"/>
			</g>
		</g>
		<g>
			<path class="st5" d="M462.4,125.1h-85c-0.9,0-1.6-0.7-1.6-1.6c0-0.9,0.7-1.6,1.6-1.6h85c0.9,0,1.6,0.7,1.6,1.6
				C464,124.4,463.3,125.1,462.4,125.1z"/>
		</g>
		<g>
			<path class="st5" d="M400.3,124.3c-0.9,0-1.6-0.7-1.6-1.6v-45c0-0.9,0.7-1.6,1.6-1.6c0.9,0,1.6,0.7,1.6,1.6v45
				C401.9,123.6,401.2,124.3,400.3,124.3z"/>
		</g>
		<g>
			<path class="st5" d="M400.3,68.7c-0.9,0-1.6-0.7-1.6-1.6v-4c0-0.9,0.7-1.6,1.6-1.6c0.9,0,1.6,0.7,1.6,1.6v4
				C401.9,68,401.2,68.7,400.3,68.7z"/>
		</g>
		<g>
			<path class="st5" d="M421.1,85.1h-41.7c-0.9,0-1.6-0.7-1.6-1.6v-6.2c0-0.6,0.4-1.2,0.9-1.5l20.4-9.8c0.4-0.2,0.9-0.2,1.4,0
				l21.3,9.4c0.6,0.3,1,0.8,1,1.5v6.6C422.8,84.3,422,85.1,421.1,85.1z M381.1,81.8h38.4v-3.9l-19.6-8.7l-18.8,9V81.8z"/>
		</g>
		<g>
			<path class="st5" d="M452.8,110.4h-33l-6.1-6.8c-0.6-0.7-1.6-0.7-2.3-0.1c-0.7,0.6-0.7,1.6-0.1,2.3l6.5,7.4
				c0.3,0.3,0.8,0.5,1.2,0.5h34C452.7,112.6,452.6,111.5,452.8,110.4z"/>
		</g>
		<g>
			<path class="st5" d="M419.1,125.1c-0.9,0-1.6-0.7-1.6-1.6V112c0-0.9,0.7-1.6,1.6-1.6c0.9,0,1.6,0.7,1.6,1.6v11.4
				C420.7,124.4,420,125.1,419.1,125.1z"/>
		</g>
		<g>
			<path class="st5" d="M425.6,125.1c-0.9,0-1.6-0.7-1.6-1.6V112c0-0.9,0.7-1.6,1.6-1.6c0.9,0,1.6,0.7,1.6,1.6v11.4
				C427.3,124.4,426.5,125.1,425.6,125.1z"/>
		</g>
		<g>
			<path class="st5" d="M451,125.1c-0.9,0-1.6-0.7-1.6-1.6V112c0-0.9,0.7-1.6,1.6-1.6c0.9,0,1.6,0.7,1.6,1.6v11.4
				C452.6,124.4,451.9,125.1,451,125.1z"/>
		</g>
	</g>
	<g>
		<g>
			<path class="st6" d="M1287.4,122.3c0.1-0.2,0.1-0.5,0.2-0.7c-0.7-0.2-1.2-0.7-1.2-1.5c0-0.1,0-0.2,0.1-0.3h-43.9
				c0,0.6-0.2,1.3-0.8,1.5c-1.6,0.7-3.1,1.1-4.9,1.2c-0.9,0-1.8-0.1-2.7-0.3c-1.6-0.3-3.8-0.9-4.3-2.5h-19.3c-0.9,0-1.7,0.7-1.7,1.7
				c0,0.9,0.7,1.7,1.7,1.7h76.8C1287.4,122.9,1287.4,122.6,1287.4,122.3z"/>
		</g>
		<g>
			<path class="st6" d="M1303.9,69.9h-98.2c-0.9,0-1.7-0.7-1.7-1.7c0-0.9,0.7-1.7,1.7-1.7h98.2c0.9,0,1.7,0.7,1.7,1.7
				C1305.6,69.2,1304.8,69.9,1303.9,69.9z"/>
		</g>
		<g>
			<path class="st6" d="M1303.9,96.4h-98.2c-0.9,0-1.7-0.7-1.7-1.7c0-0.9,0.7-1.7,1.7-1.7h98.2c0.9,0,1.7,0.7,1.7,1.7
				C1305.6,95.7,1304.8,96.4,1303.9,96.4z"/>
		</g>
		<g>
			<g>
				<path class="st6" d="M1227.4,98.3c0.2-0.1,0.3-0.1,0.5-0.1c0.3,0,0.6,0,0.8,0.1c0.4,0,0.8,0.1,1.1,0.2c0.3,0.1,0.6,0.3,0.9,0.5
					v-4c0-0.9-0.7-1.7-1.7-1.7h-10.8c-0.9,0-1.7,0.7-1.7,1.7v7.9h3.3v-6.2h7.5V98.3z"/>
			</g>
			<g>
				<path class="st6" d="M1226.2,110.7c-0.2,0.1-0.3,0.2-0.4,0.3c-0.1,0.1-0.1,0.1-0.2,0.2c-0.2,0.2-0.5,0.4-0.7,0.6v8h-2.5V115
					c0,0.1,0,0,0,0v0c-0.4,0.8-1.1,1.3-2,1.1c-0.8-0.2-1.5-1.2-1.2-2c0.1-0.2,0.1-0.4,0.2-0.7c-0.1-0.2-0.2-0.4-0.3-0.6v8.7
					c0,0.9,0.7,1.7,1.7,1.7h5.8c0.9,0,1.7-0.7,1.7-1.7v-11.8h-0.5C1227.2,110.1,1226.7,110.4,1226.2,110.7z"/>
			</g>
		</g>
		<g>
			<g>
				<path class="st6" d="M1291.4,108.5h-10.8c-0.9,0-1.7-0.7-1.7-1.7V94.9c0-0.9,0.7-1.7,1.7-1.7h10.8c0.9,0,1.7,0.7,1.7,1.7v11.9
					C1293.1,107.7,1292.4,108.5,1291.4,108.5z M1282.3,105.1h7.5v-8.6h-7.5V105.1z"/>
			</g>
			<g>
				<path class="st6" d="M1287.4,122.3c0.1-0.2,0.1-0.5,0.2-0.7c-0.7-0.2-1.2-0.7-1.2-1.5c0-0.1,0-0.2,0.1-0.3h-1.8v-11.4h2.5v10.3
					c0.3-0.2,0.5-0.3,0.9-0.3c0.5,0,0.9,0.1,1.4,0.1c0.3-0.4,0.7-0.7,1.1-1.1v-10.7c0-0.9-0.7-1.7-1.7-1.7h-5.8
					c-0.9,0-1.7,0.7-1.7,1.7v14.7c0,0.9,0.7,1.7,1.7,1.7h4.4C1287.4,122.9,1287.4,122.6,1287.4,122.3z"/>
			</g>
		</g>
		<g>
			<g>
				<path class="st6" d="M1260.2,108.5h-10.8c-0.9,0-1.7-0.7-1.7-1.7V94.9c0-0.9,0.7-1.7,1.7-1.7h10.8c0.9,0,1.7,0.7,1.7,1.7v11.9
					C1261.9,107.7,1261.2,108.5,1260.2,108.5z M1251.1,105.1h7.5v-8.6h-7.5V105.1z"/>
			</g>
			<g>
				<path class="st6" d="M1257.7,123.2h-5.8c-0.9,0-1.7-0.7-1.7-1.7v-14.7c0-0.9,0.7-1.7,1.7-1.7h5.8c0.9,0,1.7,0.7,1.7,1.7v14.7
					C1259.4,122.4,1258.7,123.2,1257.7,123.2z M1253.6,119.8h2.5v-11.4h-2.5V119.8z"/>
			</g>
		</g>
		<g>
			<path class="st6" d="M1300.6,95.7c-0.6,0-1.1-0.3-1.4-0.8l-13.3-23.3l-14.1,23.4c-0.3,0.5-0.8,0.8-1.4,0.8
				c-0.6,0-1.1-0.3-1.4-0.8l-13.8-22.8l-14.3,22.9c-0.3,0.5-0.9,0.8-1.5,0.8c-0.6,0-1.1-0.3-1.4-0.9l-12.6-22.7L1210.4,95
				c-0.5,0.8-1.5,1-2.3,0.5c-0.8-0.5-1-1.5-0.5-2.3L1224,68c0.3-0.5,0.9-0.8,1.5-0.8c0.6,0,1.1,0.3,1.4,0.9l12.5,22.7l14.3-22.8
				c0.3-0.5,0.8-0.8,1.4-0.8c0,0,0,0,0,0c0.6,0,1.1,0.3,1.4,0.8l13.8,22.8l14.2-23.4c0.3-0.5,0.8-0.8,1.4-0.8c0,0,0,0,0,0
				c0.6,0,1.1,0.3,1.4,0.8l14.7,25.8c0.5,0.8,0.2,1.8-0.6,2.3C1301.2,95.6,1300.9,95.7,1300.6,95.7z"/>
		</g>
		<g>
			<g>
				<g>
					<path class="st6" d="M1223.6,69.1c-0.9,0-1.7-0.7-1.7-1.7V53.8c0-0.9,0.7-1.7,1.7-1.7c0.9,0,1.7,0.7,1.7,1.7v13.6
						C1225.3,68.3,1224.5,69.1,1223.6,69.1z"/>
				</g>
				<g>
					<path class="st6" d="M1227.8,57c-0.3,0-0.5-0.1-0.8-0.2l-8.3-4.3c-0.8-0.4-1.1-1.4-0.7-2.2c0.4-0.8,1.4-1.1,2.2-0.7l8.3,4.3
						c0.8,0.4,1.1,1.4,0.7,2.2C1229,56.7,1228.4,57,1227.8,57z"/>
				</g>
			</g>
			<g>
				<g>
					<path class="st6" d="M1244.4,69.1c-0.9,0-1.7-0.7-1.7-1.7V53.8c0-0.9,0.7-1.7,1.7-1.7c0.9,0,1.7,0.7,1.7,1.7v13.6
						C1246.1,68.3,1245.3,69.1,1244.4,69.1z"/>
				</g>
				<g>
					<path class="st6" d="M1248.6,57c-0.3,0-0.5-0.1-0.8-0.2l-8.3-4.3c-0.8-0.4-1.1-1.4-0.7-2.2c0.4-0.8,1.4-1.1,2.2-0.7l8.3,4.3
						c0.8,0.4,1.1,1.4,0.7,2.2C1249.8,56.7,1249.2,57,1248.6,57z"/>
				</g>
			</g>
			<g>
				<g>
					<path class="st6" d="M1265.2,69.1c-0.9,0-1.7-0.7-1.7-1.7V53.8c0-0.9,0.7-1.7,1.7-1.7c0.9,0,1.7,0.7,1.7,1.7v13.6
						C1266.9,68.3,1266.2,69.1,1265.2,69.1z"/>
				</g>
				<g>
					<path class="st6" d="M1269.4,57c-0.3,0-0.5-0.1-0.8-0.2l-8.3-4.3c-0.8-0.4-1.1-1.4-0.7-2.2c0.4-0.8,1.4-1.1,2.2-0.7l8.3,4.3
						c0.8,0.4,1.1,1.4,0.7,2.2C1270.6,56.7,1270,57,1269.4,57z"/>
				</g>
			</g>
			<g>
				<g>
					<path class="st6" d="M1286,69.1c-0.9,0-1.7-0.7-1.7-1.7V53.8c0-0.9,0.7-1.7,1.7-1.7s1.7,0.7,1.7,1.7v13.6
						C1287.7,68.3,1287,69.1,1286,69.1z"/>
				</g>
				<g>
					<path class="st6" d="M1290.2,57c-0.3,0-0.5-0.1-0.8-0.2l-8.3-4.3c-0.8-0.4-1.1-1.4-0.7-2.2c0.4-0.8,1.4-1.1,2.2-0.7l8.3,4.3
						c0.8,0.4,1.1,1.4,0.7,2.2C1291.4,56.7,1290.8,57,1290.2,57z"/>
				</g>
			</g>
		</g>
		<g>
			<path class="st6" d="M1216.6,95.7c-0.3,0-0.6-0.1-0.9-0.3c-0.8-0.5-1-1.5-0.5-2.3l8.3-13.3c0.5-0.8,1.5-1,2.3-0.5
				c0.8,0.5,1,1.5,0.5,2.3l-8.3,13.3C1217.6,95.4,1217.1,95.7,1216.6,95.7z"/>
		</g>
		<g>
			<path class="st6" d="M1293.1,95.7c-0.6,0-1.1-0.3-1.5-0.8l-7.5-13.3c-0.5-0.8-0.2-1.8,0.6-2.3c0.8-0.5,1.8-0.2,2.3,0.6l7.5,13.3
				c0.5,0.8,0.2,1.8-0.6,2.3C1293.7,95.6,1293.4,95.7,1293.1,95.7z"/>
		</g>
	</g>
	<g>
		<g>
			<path class="st4" d="M1107,125.3h76c1.7,0,3.4-0.1,5.1-0.2c4.6-0.2,9.3-0.6,13.9-0.6c1.4,0,2.8,0,4.2,0c0.2-0.3,0.3-0.6,0.3-0.9
				c0-1-0.8-1.8-1.8-1.8h-4.2c-0.7,0.8-1.4,1.5-2.3,2.1c-0.5,0.4-1,0.7-1.6,0.7c-0.5,0-0.9-0.2-1.2-0.5c-0.1,0-0.2-0.1-0.2-0.1
				c-0.1,0-0.3-0.1-0.4-0.1c0,0-0.2,0-0.2,0c-0.2,0-0.4,0-0.6,0c-0.4,0-0.8-0.2-1.1-0.5c-0.1,0.1-0.1,0.2-0.2,0.2
				c-0.7,0.8-2.1,0.5-2.6-0.3c-0.3-0.5-0.5-1-0.8-1.5H1107c-1,0-1.8,0.8-1.8,1.8C1105.2,124.5,1106,125.3,1107,125.3z"/>
		</g>
		<g>
			<path class="st4" d="M1156,48c-1,0-1.8-0.8-1.8-1.8V40c0-1,0.8-1.8,1.8-1.8s1.8,0.8,1.8,1.8v6.2C1157.8,47.2,1157,48,1156,48z"/>
		</g>
		<g>
			<path class="st4" d="M1159.1,48.5h-6.2c-1,0-1.8-0.8-1.8-1.8c0-1,0.8-1.8,1.8-1.8h6.2c1,0,1.8,0.8,1.8,1.8
				C1160.9,47.7,1160.1,48.5,1159.1,48.5z"/>
		</g>
		<g>
			<path class="st4" d="M1161.3,125.3h-10.7c-1,0-1.8-0.8-1.8-1.8v-22.2c0-3.9,3.2-7.1,7.1-7.1c1.9,0,3.7,0.7,5,2.1
				c1.3,1.3,2.1,3.1,2.1,5v22.2C1163.1,124.5,1162.3,125.3,1161.3,125.3z M1152.5,121.8h7.1v-20.4c0-1-0.4-1.8-1-2.5
				c-0.7-0.7-1.6-1-2.5-1c-2,0-3.6,1.6-3.6,3.6V121.8z"/>
		</g>
		<g>
			<path class="st4" d="M1171.6,125.3h-31.1c-1,0-1.8-0.8-1.8-1.8v-22.3c0-9.6,7.8-17.3,17.3-17.3s17.3,7.8,17.3,17.3v22.3
				C1173.3,124.5,1172.5,125.3,1171.6,125.3z M1142.2,121.8h27.5v-20.5c0-7.6-6.2-13.8-13.8-13.8c-7.6,0-13.8,6.2-13.8,13.8V121.8z"
				/>
		</g>
		<g>
			<path class="st4" d="M1171.6,86.6c-0.4,0-0.9-0.2-1.2-0.5c-0.6-0.5-14.2-13-28.7,0c-0.6,0.6-1.5,0.6-2.2,0.1
				c-0.7-0.5-0.9-1.4-0.6-2.1l15.1-36.4c0.3-0.7,0.9-1.1,1.6-1.1c0.8,0,1.4,0.4,1.6,1.1l15.9,36.4c0.3,0.8,0.1,1.7-0.6,2.2
				C1172.3,86.5,1171.9,86.6,1171.6,86.6z M1155.5,76.7c4.7,0,8.9,1.6,11.9,3.2l-11.8-27l-11.1,26.8
				C1148.4,77.5,1152.1,76.7,1155.5,76.7z"/>
		</g>
		<g>
			<g>
				<path class="st4" d="M1121.3,65.2c-1,0-1.8-0.8-1.8-1.8v-4.7c0-1,0.8-1.8,1.8-1.8s1.8,0.8,1.8,1.8v4.7
					C1123.1,64.4,1122.3,65.2,1121.3,65.2z"/>
			</g>
			<g>
				<path class="st4" d="M1123.7,65.6h-4.7c-1,0-1.8-0.8-1.8-1.8s0.8-1.8,1.8-1.8h4.7c1,0,1.8,0.8,1.8,1.8S1124.7,65.6,1123.7,65.6z
					"/>
			</g>
			<g>
				<path class="st4" d="M1125.4,125.3h-8.1c-1,0-1.8-0.8-1.8-1.8v-17c0-3.2,2.6-5.8,5.8-5.8c1.6,0,3,0.6,4.1,1.7
					c1.1,1.1,1.7,2.6,1.7,4.1v17C1127.1,124.5,1126.3,125.3,1125.4,125.3z M1119,121.8h4.6v-15.2c0-0.6-0.2-1.2-0.7-1.6
					c-0.4-0.4-1-0.7-1.6-0.7c-1.3,0-2.3,1-2.3,2.3V121.8z"/>
			</g>
			<g>
				<path class="st4" d="M1121.6,92.9c-0.9,0-1.8,0.1-2.6,0.3c0.7,1.4,0.1,2.8-1.1,3.7c-0.6,0.4-1.2,0.7-1.8,1c0,0.1,0,0.2,0,0.3
					c1.6-1.1,3.5-1.7,5.5-1.7c5.6,0,10.1,4.5,10.1,10.1v15.2h-20.2v-8c-0.6,1-1.4,1.9-2.3,2.6c-0.4,0.3-0.8,0.4-1.2,0.4v6.8
					c0,1,0.8,1.8,1.8,1.8h23.7c1,0,1.8-0.8,1.8-1.8v-17C1135.3,99,1129.2,92.9,1121.6,92.9z"/>
			</g>
			<g>
				<path class="st4" d="M1133.5,94.7c-0.4,0-0.9-0.2-1.2-0.5c-0.4-0.4-10.6-9.7-21.3,0c-0.6,0.6-1.5,0.6-2.2,0.1
					c-0.7-0.5-0.9-1.4-0.6-2.1l11.6-27.8c0.3-0.7,0.9-1.1,1.6-1.1c0.7,0,1.4,0.4,1.6,1.1l12.2,27.8c0.3,0.8,0.1,1.7-0.6,2.2
					C1134.2,94.6,1133.9,94.7,1133.5,94.7z M1121.3,86.3c3.2,0,6,0.9,8.3,2l-8.1-18.6l-7.7,18.4
					C1116.3,86.8,1118.9,86.3,1121.3,86.3z"/>
			</g>
		</g>
		<g>
			<g>
				<path class="st4" d="M1189.7,65.2c-1,0-1.8-0.8-1.8-1.8v-4.7c0-1,0.8-1.8,1.8-1.8c1,0,1.8,0.8,1.8,1.8v4.7
					C1191.5,64.4,1190.7,65.2,1189.7,65.2z"/>
			</g>
			<g>
				<path class="st4" d="M1192.1,65.6h-4.7c-1,0-1.8-0.8-1.8-1.8s0.8-1.8,1.8-1.8h4.7c1,0,1.8,0.8,1.8,1.8S1193.1,65.6,1192.1,65.6z
					"/>
			</g>
			<g>
				<path class="st4" d="M1185.3,125.3c0.9,0,1.9,0,2.8-0.1c2.3-0.1,4.6-0.2,6.9-0.4c0.2-0.2,0.4-0.4,0.5-0.7c0,0,0,0,0,0
					c-0.1,0-0.2-0.1-0.2-0.1c-0.1,0-0.3-0.1-0.4-0.1c0,0-0.2,0-0.2,0c-0.2,0-0.4,0-0.6,0c-0.4,0-0.8-0.2-1.1-0.5
					c-0.1,0.1-0.1,0.2-0.2,0.2c-0.7,0.8-2.1,0.5-2.6-0.3c-0.3-0.5-0.5-1-0.8-1.5h-1.9v-15.2c0-1.3,1-2.3,2.3-2.3
					c0.6,0,1.2,0.2,1.6,0.7c0.4,0.4,0.7,1,0.7,1.6v3.2c0.6-0.3,1.1-0.6,1.7-0.9c0.7-0.4,1.4-0.3,1.9,0.2v-2.4c0-0.4,0-0.8-0.1-1.2
					c-0.2-0.1-0.3-0.1-0.5-0.2c-2.2-0.7-5.2-1.9-5.5-4.5c-3.1,0.1-5.6,2.7-5.6,5.8v17C1183.9,124.4,1184.5,125.1,1185.3,125.3z"/>
			</g>
			<g>
				<path class="st4" d="M1197.2,124.5c-0.2,0-0.3,0.1-0.5,0.1c-0.5,0-0.9-0.2-1.2-0.5c-0.1,0-0.2-0.1-0.2-0.1
					c-0.1,0-0.3-0.1-0.4-0.1c0,0-0.2,0-0.2,0c-0.2,0-0.4,0-0.6,0c-0.4,0-0.8-0.2-1.1-0.5c-0.1,0.1-0.1,0.2-0.2,0.2
					c-0.7,0.8-2.1,0.5-2.6-0.3c-0.3-0.5-0.5-1-0.8-1.5h-9.4v-15.2c0-5.4,4.3-9.9,9.7-10.1c0.3-0.4,0.6-0.8,1-1
					c0.6-0.3,1.5-0.5,2.2-0.3c0.6,0.2,1.3,0.3,1.9,0.4c0.8,0.1,1.6,0.3,2.4,0.4c1.1,0.3,2.1,0.7,2.9,1.4c0.7,0.6,1.2,1.6,1.1,2.6
					c0,0.2,0,0.4-0.1,0.5c0.3,0.3,0.5,0.7,0.6,1.1c0.4,0.3,0.8,0.6,1.2,1h0.2c-1.7-5.6-6.9-9.8-13-9.8c-7.5,0-13.6,6.1-13.6,13.6v17
					c0,1,0.8,1.8,1.8,1.8h4.8c1.7,0,3.4-0.1,5.1-0.2c3-0.1,6.1-0.3,9.1-0.5V124.5z"/>
			</g>
			<g>
				<path class="st4" d="M1188.8,88.3c-0.4-0.6-0.5-1.3-0.3-2c-2,0.1-4.2,0.6-6.4,1.7l7.7-18.4l3,7c0.4-0.8,1-1.4,1.9-1.6
					c0.4-0.1,0.8-0.1,1.2-0.1l-4.6-10.5c-0.3-0.7-0.9-1.1-1.6-1.1c-0.7,0-1.4,0.4-1.6,1.1l-11.6,27.8c-0.3,0.8-0.1,1.7,0.6,2.1
					c0.7,0.5,1.6,0.4,2.2-0.1c3.8-3.4,7.6-4.5,10.8-4.4C1189.7,89.4,1189.2,88.9,1188.8,88.3z"/>
			</g>
		</g>
	</g>
	<g>
		<g>
			<path class="st7" d="M839.9,125.4c0.2-0.1,0.4-0.3,0.6-0.3c2.9-0.8,5.8-1.6,8.7-2.4h-8.1v-23c0-3,2.4-5.4,5.4-5.4
				c1.4,0,2.8,0.6,3.8,1.6c1,1,1.6,2.4,1.6,3.8v22.2c1.2-0.3,2.4-0.7,3.7-1V99.7c0-2.4-0.9-4.7-2.7-6.4c-1.7-1.7-4-2.7-6.4-2.7
				c-5,0-9.1,4.1-9.1,9.1v24.8c0,0.4,0.2,0.7,0.4,1C838.5,125.5,839.2,125.5,839.9,125.4z"/>
		</g>
		<g>
			<path class="st7" d="M829.1,126c0.9,0,1.9-0.1,2.8-0.1c2.7-0.1,5.3-0.3,8-0.4c0.2-0.1,0.4-0.3,0.6-0.3c2.9-0.8,5.8-1.6,8.7-2.4
				h-17.3V77.8h29.3v41.8c1.2-0.2,2.4-0.5,3.7-0.6V76c0-1-0.8-1.8-1.8-1.8h-33c-1,0-1.8,0.8-1.8,1.8v48.5
				C828.3,125.1,828.6,125.6,829.1,126z"/>
		</g>
		<g>
			<path class="st7" d="M863,77.8c-0.2,0-0.4,0-0.6-0.1c-1-0.3-1.5-1.3-1.2-2.3l3.9-11.9h-38.1l4.7,11.8c0.4,0.9-0.1,2-1,2.4
				c-0.9,0.4-2-0.1-2.4-1l-5.7-14.3c-0.2-0.6-0.2-1.2,0.2-1.7s0.9-0.8,1.5-0.8h43.3c0.6,0,1.1,0.3,1.5,0.8c0.3,0.5,0.4,1.1,0.3,1.6
				l-4.7,14.3C864.5,77.3,863.8,77.8,863,77.8z"/>
		</g>
		<g>
			<path class="st7" d="M863,85.3h-33c-1,0-1.8-0.8-1.8-1.8s0.8-1.8,1.8-1.8h33c1,0,1.8,0.8,1.8,1.8S864.1,85.3,863,85.3z"/>
		</g>
		<g>
			<g>
				<path class="st7" d="M834.7,63.1h-6.4c-1,0-1.8-0.8-1.8-1.8V51.2c0-1,0.8-1.8,1.8-1.8h6.4c1,0,1.8,0.8,1.8,1.8v10.1
					C836.5,62.3,835.7,63.1,834.7,63.1z M830.1,59.5h2.7v-6.4h-2.7V59.5z"/>
			</g>
			<g>
				<path class="st7" d="M839.2,53.1h-15.6c-1,0-1.8-0.8-1.8-1.8V41.2c0-1,0.8-1.8,1.8-1.8h15.6c1,0,1.8,0.8,1.8,1.8v10.1
					C841.1,52.3,840.2,53.1,839.2,53.1z M825.5,49.4h11.9V43h-11.9V49.4z"/>
			</g>
			<g>
				<path class="st7" d="M836.5,43h-10.1c-1,0-1.8-0.8-1.8-1.8v-2.3c0-3.8,3.1-6.9,6.9-6.9c3.8,0,6.9,3.1,6.9,6.9v2.3
					C838.3,42.2,837.5,43,836.5,43z M828.3,39.3h6.4v-0.5c0-1.8-1.4-3.2-3.2-3.2s-3.2,1.4-3.2,3.2V39.3z"/>
			</g>
		</g>
		<g>
			<g>
				<path class="st7" d="M864,63.1h-6.4c-1,0-1.8-0.8-1.8-1.8V51.2c0-1,0.8-1.8,1.8-1.8h6.4c1,0,1.8,0.8,1.8,1.8v10.1
					C865.8,62.3,865,63.1,864,63.1z M859.4,59.5h2.7v-6.4h-2.7V59.5z"/>
			</g>
			<g>
				<path class="st7" d="M868.5,53.1H853c-1,0-1.8-0.8-1.8-1.8V41.2c0-1,0.8-1.8,1.8-1.8h15.6c1,0,1.8,0.8,1.8,1.8v10.1
					C870.4,52.3,869.6,53.1,868.5,53.1z M854.8,49.4h11.9V43h-11.9V49.4z"/>
			</g>
			<g>
				<path class="st7" d="M865.8,43h-10.1c-1,0-1.8-0.8-1.8-1.8v-2.3c0-3.8,3.1-6.9,6.9-6.9c3.8,0,6.9,3.1,6.9,6.9v2.3
					C867.6,42.2,866.8,43,865.8,43z M857.6,39.3h6.4v-0.5c0-1.8-1.4-3.2-3.2-3.2s-3.2,1.4-3.2,3.2V39.3z"/>
			</g>
		</g>
		<g>
			<g>
				<path class="st7" d="M836.9,77.8c-1,0-1.8-0.8-1.8-1.8v-6.4c0-1,0.8-1.8,1.8-1.8c1,0,1.8,0.8,1.8,1.8V76
					C838.8,77,838,77.8,836.9,77.8z"/>
			</g>
			<g>
				<path class="st7" d="M846.6,77.8c-1,0-1.8-0.8-1.8-1.8v-6.4c0-1,0.8-1.8,1.8-1.8c1,0,1.8,0.8,1.8,1.8V76
					C848.4,77,847.6,77.8,846.6,77.8z"/>
			</g>
			<g>
				<path class="st7" d="M856.2,77.8c-1,0-1.8-0.8-1.8-1.8v-6.4c0-1,0.8-1.8,1.8-1.8c1,0,1.8,0.8,1.8,1.8V76
					C858,77,857.2,77.8,856.2,77.8z"/>
			</g>
		</g>
		<g>
			<path class="st7" d="M816.1,124.9c5.1,1.4,10.5,1.2,15.8,1c2.7-0.1,5.3-0.3,8-0.4c0.2-0.1,0.4-0.3,0.6-0.3
				c2.9-0.8,5.8-1.6,8.7-2.4h-51.1v1h18V124.9z"/>
		</g>
		<g>
			<g>
				<g>
					<path class="st7" d="M900.8,97.3h-13.9c-1,0-1.8,0.8-1.8,1.8v18.5c1.2,0,2.4,0,3.7,0.2V101H899v10.1c0.8-0.6,1.7-1.3,2.5-2
						c0.4-0.3,0.8-0.5,1.2-0.6v-9.4C902.6,98.1,901.8,97.3,900.8,97.3z"/>
				</g>
				<g>
					<path class="st7" d="M900.8,101h-13.9c-1,0-1.8-0.8-1.8-1.8V73.8c0-1,0.8-1.8,1.8-1.8h13.9c1,0,1.8,0.8,1.8,1.8v25.4
						C902.6,100.1,901.8,101,900.8,101z M888.7,97.3H899V75.6h-10.3V97.3z"/>
				</g>
				<g>
					<path class="st7" d="M907,101h-26.4c-1,0-1.8-0.8-1.8-1.8s0.8-1.8,1.8-1.8H907c1,0,1.8,0.8,1.8,1.8S908,101,907,101z"/>
				</g>
				<g>
					<g>
						<path class="st7" d="M900.7,75.6h-13.9c-1,0-1.8-0.8-1.8-1.8v-8.2c0-4.9,3.9-8.8,8.8-8.8c2.4,0,4.6,0.9,6.2,2.6
							c1.7,1.7,2.6,3.9,2.6,6.2v8.2C902.6,74.8,901.8,75.6,900.7,75.6z M888.6,71.9h10.3v-6.4c0-1.4-0.5-2.7-1.5-3.6
							c-1-1-2.3-1.5-3.6-1.5c-2.8,0-5.1,2.3-5.1,5.1V71.9z"/>
					</g>
					<g>
						<path class="st7" d="M907,75.6h-6.3c-1,0-1.8-0.8-1.8-1.8s0.8-1.8,1.8-1.8h6.3c1,0,1.8,0.8,1.8,1.8S908,75.6,907,75.6z"/>
					</g>
					<g>
						<path class="st7" d="M886.8,75.6h-6.2c-1,0-1.8-0.8-1.8-1.8s0.8-1.8,1.8-1.8h6.2c1,0,1.8,0.8,1.8,1.8S887.8,75.6,886.8,75.6z"
							/>
					</g>
				</g>
				<g>
					<path class="st7" d="M893.8,101c-1,0-1.8-0.8-1.8-1.8V86.5c0-1,0.8-1.8,1.8-1.8c1,0,1.8,0.8,1.8,1.8v12.7
						C895.7,100.1,894.8,101,893.8,101z"/>
				</g>
				<g>
					<path class="st7" d="M893.5,116c0.6-0.8,1.4-1.5,2.1-2.2v-4.5c0-1-0.8-1.8-1.8-1.8c-1,0-1.8,0.8-1.8,1.8v8.7
						C892.5,117.3,893,116.6,893.5,116z"/>
				</g>
			</g>
			<g>
				<path class="st7" d="M894.2,59.5c-1,0-1.8-0.8-1.8-1.8v-7.3c0-1,0.8-1.8,1.8-1.8c1,0,1.8,0.8,1.8,1.8v7.3
					C896,58.7,895.2,59.5,894.2,59.5z"/>
			</g>
			<g>
				<path class="st7" d="M863,82h14.4v36.4c0.3,0,0.6,0,0.9-0.1c0.9-0.1,1.9-0.2,2.8-0.4V80.2c0-1-0.8-1.8-1.8-1.8H863
					c-1,0-1.8,0.8-1.8,1.8C861.2,81.2,862,82,863,82z"/>
			</g>
			<g>
				<path class="st7" d="M879.2,89.3H863c-1,0-1.8-0.8-1.8-1.8s0.8-1.8,1.8-1.8h16.2c1,0,1.8,0.8,1.8,1.8S880.2,89.3,879.2,89.3z"/>
			</g>
			<g>
				<path class="st7" d="M873.1,118.6V96.1c0-1-0.8-1.8-1.8-1.8c-1,0-1.8,0.8-1.8,1.8v22.5C870.7,118.6,871.9,118.6,873.1,118.6z"/>
			</g>
		</g>
		<g>
			<g>
				<g>
					<path class="st7" d="M798.1,122.7v1h10.1V99.1c0-1-0.8-1.8-1.8-1.8h-8.2v3.7h6.4v21.7H798.1z"/>
				</g>
				<g>
					<path class="st7" d="M806.3,71.9H793v18.8h1.2V75.6h10.3v21.7h-6.4v3.7h8.2c1,0,1.8-0.8,1.8-1.8V73.8
						C808.1,72.8,807.3,71.9,806.3,71.9z"/>
				</g>
				<g>
					<path class="st7" d="M812.6,97.3h-14.5v3.7h14.5c1,0,1.8-0.8,1.8-1.8C814.4,98.1,813.6,97.3,812.6,97.3z"/>
				</g>
				<g>
					<g>
						<path class="st7" d="M799.4,56.7c-2.4,0-4.6,0.9-6.2,2.6c-0.1,0.1-0.1,0.1-0.2,0.2v16.1h13.4c1,0,1.8-0.8,1.8-1.8v-8.2
							C808.2,60.7,804.2,56.7,799.4,56.7z M804.5,71.9h-10.3v-6.4c0-1.4,0.5-2.7,1.5-3.6c1-1,2.3-1.5,3.6-1.5c2.8,0,5.1,2.3,5.1,5.1
							V71.9z"/>
					</g>
					<g>
						<path class="st7" d="M812.6,75.6h-6.2c-1,0-1.8-0.8-1.8-1.8s0.8-1.8,1.8-1.8h6.2c1,0,1.8,0.8,1.8,1.8S813.6,75.6,812.6,75.6z"
							/>
					</g>
				</g>
				<g>
					<path class="st7" d="M799.3,84.6c-1,0-1.8,0.8-1.8,1.8v4.3h0.6v9.7c0.3,0.3,0.8,0.5,1.3,0.5c1,0,1.8-0.8,1.8-1.8V86.5
						C801.2,85.4,800.4,84.6,799.3,84.6z"/>
				</g>
				<g>
					<path class="st7" d="M800.1,123.6c0.6-0.3,1.1-0.9,1.1-1.7v-12.7c0-1-0.8-1.8-1.8-1.8c-0.5,0-0.9,0.2-1.3,0.5v15.3
						c0.2,0.1,0.3,0.3,0.5,0.3H800.1z"/>
				</g>
			</g>
			<g>
				<path class="st7" d="M799,59.5c-1,0-1.8-0.8-1.8-1.8v-7.3c0-1,0.8-1.8,1.8-1.8c1,0,1.8,0.8,1.8,1.8v7.3
					C800.8,58.7,800,59.5,799,59.5z"/>
			</g>
			<g>
				<path class="st7" d="M830.1,78.3h-16.2c-1,0-1.8,0.8-1.8,1.8v43.5h3.7V82h14.4c1,0,1.8-0.8,1.8-1.8
					C832,79.2,831.1,78.3,830.1,78.3z"/>
			</g>
			<g>
				<path class="st7" d="M830.1,89.3h-16.2c-1,0-1.8-0.8-1.8-1.8s0.8-1.8,1.8-1.8h16.2c1,0,1.8,0.8,1.8,1.8S831.1,89.3,830.1,89.3z"
					/>
			</g>
			<g>
				<path class="st7" d="M822.9,125.9c0.5-0.3,0.8-0.8,0.8-1.5V96.1c0-1-0.8-1.8-1.8-1.8c-1,0-1.8,0.8-1.8,1.8v28.4
					c0,0.5,0.2,0.9,0.5,1.2C821.3,125.8,822.1,125.9,822.9,125.9z"/>
			</g>
		</g>
	</g>
	<path class="st8" d="M1430.3,119.6v-1.9h86.4c0.9,0,1.6,0.7,1.6,1.6c0,0.9-0.7,1.6-1.6,1.6h-27.8c-6-1.3-11.9-2.6-18.1-2.7
		c-8.3-0.2-16.5,0.2-24.8-0.2C1440.8,117.7,1435.2,117.6,1430.3,119.6z M1515.6,92.9l-1.6-1.5c-0.6-0.6-1.7-0.5-2.2,0.1
		c-0.6,0.6-0.5,1.7,0.1,2.2l1.6,1.5c1.5,1.4,2.3,3.3,2.3,5.3c0,1.9-0.7,3.7-2.1,5.1c-1.4,1.4-3.2,2.1-5.1,2.1h-80.5
		c0.4,1.1,0.8,2.1,1.2,3.2h79.3c2.8,0,5.4-1.1,7.3-3c2-2,3-4.6,3-7.3C1519,97.6,1517.7,94.9,1515.6,92.9z M1498.3,77.1l-5.8-5.3
		c-1.9-1.7-4.4-2.7-7-2.7h-64.1c0,0-10.7,0-19.1,0v3.1c8.4,0,19.1,0,19.1,0h64.1c1.8,0,3.5,0.7,4.8,1.9l5.8,5.3
		c0.3,0.3,0.7,0.4,1.1,0.4c0.4,0,0.9-0.2,1.2-0.5C1499,78.7,1499,77.7,1498.3,77.1z M1431,114.1c0-3.5,2.9-6.4,6.4-6.4h19.9
		c3.5,0,6.4,2.9,6.4,6.4c0,1.5-0.6,2.9-1.5,4c-5.4,0-10.7,0.1-16.1-0.2c-4.3-0.2-8.8-0.3-13,0.8C1431.8,117.6,1431,115.9,1431,114.1
		z M1434.2,114.1c0,1.8,1.4,3.2,3.2,3.2h19.9c1.8,0,3.2-1.4,3.2-3.2s-1.4-3.2-3.2-3.2h-19.9C1435.6,110.9,1434.2,112.3,1434.2,114.1
		z M1472.3,118.2c-1-1.1-1.6-2.5-1.6-4.1c0-3.5,2.9-6.4,6.4-6.4h19.9c3.5,0,6.4,2.9,6.4,6.4c0,3.5-2.9,6.4-6.4,6.4h-10
		C1482.2,119.4,1477.3,118.5,1472.3,118.2z M1473.9,114.1c0,1.8,1.4,3.2,3.2,3.2h19.9c1.8,0,3.2-1.4,3.2-3.2s-1.4-3.2-3.2-3.2h-19.9
		C1475.4,110.9,1473.9,112.3,1473.9,114.1z M1514.4,93.2c0.2-0.6,0.1-1.3-0.4-1.8l-15.7-14.3c-0.3-0.3-0.7-0.4-1.1-0.4h-20.1
		c-2.3,0-4.5,0.9-6.2,2.6c-1.7,1.6-2.6,3.8-2.6,6.2c0,4.8,3.9,8.8,8.8,8.8h35.8C1513.6,94.2,1514.2,93.8,1514.4,93.2z M1496.6,79.9
		l12.2,11.1h-31.7c-3.1,0-5.6-2.5-5.6-5.6c0-1.5,0.6-2.9,1.6-3.9c1-1.1,2.4-1.6,3.9-1.6H1496.6z M1463.6,109.3V79.1
		c0-0.9-0.7-1.6-1.6-1.6h-21.5c-0.9,0-1.6,0.7-1.6,1.6v30.2c0,0.9,0.7,1.6,1.6,1.6h21.5C1462.9,110.9,1463.6,110.2,1463.6,109.3z
		 M1442.1,80.7h18.3v27h-18.3V80.7z M1448.4,96.7v-5.9c0-0.9-0.7-1.6-1.6-1.6c-0.9,0-1.6,0.7-1.6,1.6v5.9c0,0.9,0.7,1.6,1.6,1.6
		C1447.7,98.3,1448.4,97.6,1448.4,96.7z M1434.2,77.5h-7.6v27.6c0.3,0.1,0.6,0.4,0.8,0.7c0.2,0.4,0.3,0.8,0.5,1.1V80.7h4.8v27h-4.5
		c0.4,1.1,0.8,2.1,1.2,3.2h4.8c0.9,0,1.6-0.7,1.6-1.6V79.1C1435.7,78.2,1435,77.5,1434.2,77.5z"/>
	<g>
		<g id="Shape_2_00000151519374772138548440000005992309445049198480_">
			<g>
				<path class="st9" d="M569.8,121.2l-7-8.9l-6.7-11.1l-33.5-0.2l-3.5,5.7c1.2,0.3,2.1,0.9,2.8,1.8l2.6-4.2l29.8,0.1l5.8,9.6
					l0.1,0.2l0.1,0.2l5,6.4l-41.4,0.1c-0.7,1.8-2.2,3.2-4.7,3.2c-2,0-3.4-0.9-4.2-2.2c0,0.8-0.2,1.6-0.6,2.2l55-0.1
					C570.4,124,570.7,121.8,569.8,121.2z"/>
			</g>
		</g>
		<g>
			<g>
				<path class="st9" d="M576.1,121.5h-52.6c-0.8,1.5-2.3,2.5-4.4,2.5c-2,0-3.4-0.9-4.2-2.2c-0.1,1.1-0.4,2.1-1,2.9h62.2
					c0.9,0,1.6-0.7,1.6-1.6S577,121.5,576.1,121.5z"/>
			</g>
			<g>
				<path class="st9" d="M550.3,74.7V101h-21.9V74.7H550.3 M553.5,71.4h-28.4v32.9h28.4V71.4L553.5,71.4z"/>
			</g>
			<g>
				<path class="st9" d="M552.6,68.6v2.7h-26.5v-2.7H552.6 M554.8,65.3h-30.9c-0.6,0-1,0.5-1,1v7.1c0,0.6,0.5,1,1,1h30.9
					c0.6,0,1-0.5,1-1v-7.1C555.8,65.8,555.4,65.3,554.8,65.3L554.8,65.3z"/>
			</g>
			<g>
				<path class="st9" d="M539.3,49.5l9.2,15.6h-18.4L539.3,49.5 M539.3,43.5c-0.1,0-0.3,0.1-0.4,0.2l-14.6,24.7h29.9l-14.6-24.7
					C539.6,43.6,539.5,43.5,539.3,43.5L539.3,43.5z"/>
			</g>
			<g>
				<g>
					<path class="st9" d="M567.7,102.4c-3.2,0-5.7-2.6-5.7-5.7v-8.2c0-3.2,2.6-5.7,5.7-5.7s5.7,2.6,5.7,5.7v8.2
						C573.5,99.8,570.9,102.4,567.7,102.4z M567.7,86c-1.4,0-2.5,1.1-2.5,2.5v8.2c0,1.4,1.1,2.5,2.5,2.5c1.4,0,2.5-1.1,2.5-2.5v-8.2
						C570.2,87.1,569.1,86,567.7,86z"/>
				</g>
				<g>
					<rect x="566.1" y="100.1" class="st9" width="3.3" height="21.4"/>
				</g>
			</g>
			<g>
				<path class="st9" d="M539.4,83c2.6,0,4.7,2.1,4.7,4.7s-2.1,4.7-4.7,4.7c-2.6,0-4.7-2.1-4.7-4.7S536.9,83,539.4,83 M539.4,79.7
					c-4.4,0-8,3.6-8,8c0,4.4,3.6,8,8,8c4.4,0,8-3.6,8-8C547.4,83.3,543.8,79.7,539.4,79.7L539.4,79.7z"/>
			</g>
			<g>
				<g>
					<path class="st9" d="M538.8,85.4c-0.7,0-1.2,0.5-1.2,1.2v2.6h2.4v-2.6C540,85.9,539.4,85.4,538.8,85.4L538.8,85.4z"/>
				</g>
				<g>
					<path class="st9" d="M541,87.6h-2.8c-0.4,0-0.7,0.3-0.7,0.7v0.8c0,0.5,0.4,0.9,0.9,0.9h2.6c0.7,0,1.2-0.5,1.2-1.2
						C542.2,88.2,541.7,87.6,541,87.6L541,87.6z"/>
				</g>
			</g>
			<g>
				<g>
					<path class="st9" d="M534.2,124.8c-0.9,0-1.6-0.7-1.6-1.6v-9.1c0-0.9,0.7-1.6,1.6-1.6s1.6,0.7,1.6,1.6v9.1
						C535.9,124.1,535.1,124.8,534.2,124.8z"/>
				</g>
				<g>
					<path class="st9" d="M544.3,124.8c-0.9,0-1.6-0.7-1.6-1.6v-9.1c0-0.9,0.7-1.6,1.6-1.6c0.9,0,1.6,0.7,1.6,1.6v9.1
						C546,124.1,545.2,124.8,544.3,124.8z"/>
				</g>
				<g>
					<path class="st9" d="M554.4,124.8c-0.9,0-1.6-0.7-1.6-1.6v-9.1c0-0.9,0.7-1.6,1.6-1.6s1.6,0.7,1.6,1.6v9.1
						C556.1,124.1,555.3,124.8,554.4,124.8z"/>
				</g>
			</g>
		</g>
	</g>
	<g>
		<g>
			<g>
				<path class="st4" d="M1317.6,40L1317.6,40C1317.6,40,1317.6,40,1317.6,40c-2.3,0-4.4,0.9-6,2.5c-1.6,1.6-2.5,3.7-2.5,6
					c0,2.3,0.9,4.4,2.5,6c1.6,1.6,3.7,2.5,6,2.5c2.3,0,4.4-0.9,6-2.5c1.6-1.6,2.5-3.7,2.5-6C1326,43.8,1322.2,40,1317.6,40z
					 M1317.5,54.4c-3.3,0-5.9-2.7-6-5.9c0-1.6,0.6-3.1,1.7-4.2c1.1-1.1,2.6-1.7,4.2-1.7c3.3,0,5.9,2.7,5.9,6
					C1323.5,51.8,1320.8,54.4,1317.5,54.4l0,0.2L1317.5,54.4z"/>
			</g>
			<g>
				<path class="st4" d="M1317.5,38.9L1317.5,38.9c0.7,0,1.2-0.5,1.3-1.2c0-0.2,0-0.5,0-0.7l0-0.1l0-0.5c0-0.2,0-0.4,0-0.6
					c0-0.7-0.6-1.3-1.3-1.3c-0.7,0-1.2,0.5-1.3,1.2c0,0.6,0,1.3,0,1.9C1316.3,38.4,1316.8,38.9,1317.5,38.9z"/>
			</g>
			<g>
				<path class="st4" d="M1308,48.5c0-0.7-0.5-1.2-1.3-1.3c-0.2,0-0.4,0-0.6,0l-0.3,0l-0.3,0c-0.2,0-0.4,0-0.6,0
					c-0.7,0-1.3,0.6-1.3,1.3c0,0.7,0.5,1.3,1.2,1.3c0.3,0,0.6,0,0.9,0c0.3,0,0.6,0,0.9,0C1307.4,49.7,1308,49.2,1308,48.5z"/>
			</g>
			<g>
				<path class="st4" d="M1331.1,47.6c-0.2-0.2-0.5-0.4-0.8-0.4c-0.6,0-1.3,0-2,0c-0.7,0-1.2,0.6-1.2,1.3c0,0.7,0.5,1.2,1.2,1.3
					c0.2,0,0.5,0,0.7,0c0.1,0,0.2,0,0.3,0c0.1,0,0.1,0,0.2,0l0.1,0c0.1,0,0.2,0,0.3,0c0.1,0,0.3,0,0.4,0c0.7-0.1,1.1-0.5,1.1-1.2
					C1331.5,48.2,1331.4,47.9,1331.1,47.6z"/>
			</g>
			<g>
				<path class="st4" d="M1317.6,58.1L1317.6,58.1c-0.7,0-1.3,0.5-1.3,1.2c0,0.2,0,0.5,0,0.7l0,0.3c0,0.1,0,0.2,0,0.3
					c0,0.2,0,0.4,0,0.7c0.1,0.7,0.6,1.2,1.3,1.2c0.7,0,1.2-0.5,1.3-1.2c0-0.6,0-1.3,0-1.9C1318.8,58.6,1318.2,58.1,1317.6,58.1z"/>
			</g>
			<g>
				<path class="st4" d="M1309.1,41.8c0.2,0.2,0.5,0.3,0.7,0.3c0.2,0,0.4-0.1,0.6-0.2c0.4-0.2,0.7-0.6,0.7-1.2c0-0.2,0-0.5-0.2-0.7
					c-0.5-0.6-1-1.2-1.7-1.6c-0.5-0.4-1.2-0.3-1.6,0.2c-0.4,0.5-0.5,1.1-0.1,1.6C1308,40.8,1308.4,41.2,1309.1,41.8z"/>
			</g>
			<g>
				<path class="st4" d="M1325.2,42.1L1325.2,42.1c0.8,0,2.6-1.8,2.6-2.5c0-0.5-0.2-0.9-0.7-1.1c-0.5-0.3-1-0.2-1.4,0.1
					c-0.5,0.5-1.1,1-1.5,1.5c-0.3,0.4-0.4,0.9-0.1,1.4C1324.3,41.9,1324.7,42.1,1325.2,42.1z"/>
			</g>
			<g>
				<path class="st4" d="M1310.5,55.1c-0.5-0.3-1-0.2-1.4,0.1c-0.5,0.5-1.1,1-1.5,1.5c-0.3,0.4-0.4,0.9-0.1,1.4
					c0.2,0.4,0.6,0.6,1.1,0.6c0,0,0,0,0,0c0.8,0,2.5-1.8,2.5-2.6C1311.1,55.7,1310.9,55.3,1310.5,55.1z"/>
			</g>
			<g>
				<path class="st4" d="M1327.6,56.8c-0.5-0.7-1.1-1.3-1.7-1.7c-0.5-0.4-1.1-0.3-1.6,0.2c-0.5,0.5-0.5,1.1-0.1,1.6
					c0.5,0.6,1,1.1,1.5,1.5c0.2,0.2,0.5,0.3,0.8,0.3c0.2,0,0.4-0.1,0.6-0.2c0.5-0.2,0.7-0.7,0.7-1.3l0-0.1
					C1327.7,57.1,1327.7,57,1327.6,56.8z"/>
			</g>
		</g>
		<g>
			<path class="st5" d="M1357.4,126.6c0.8,0,1.6,0,2.4,0l0.6-0.6l-39.3-40.1l-39.3,38.2h5.1l34.1-33.2l34.8,35.6
				C1356.4,126.5,1356.9,126.5,1357.4,126.6z"/>
		</g>
		<g>
			<polygon class="st5" points="1303.9,125.9 1293.2,116 1295.7,113.4 1303.8,120.9 1312.8,112.2 1320.5,120.1 1328.6,110.9 
				1336.7,119.5 1343.5,112.3 1346.1,114.8 1336.7,124.7 1328.7,116.2 1320.7,125.4 1312.7,117.2 			"/>
		</g>
		<g>
			<path class="st5" d="M1360.6,104.7c-1-0.8-0.5-1.9,0.3-2.4v-0.9l-9.2-9.3l-13.3,14l2.6,2.5l10.8-11.3l9.2,9.3V105
				C1360.8,104.9,1360.7,104.8,1360.6,104.7z"/>
		</g>
		<g>
			<path class="st10" d="M1282.1,109.9"/>
		</g>
		<g>
			<g>
				<g>
					<path class="st5" d="M1341.6,77c-0.2-0.2-6-4-6.5-10.3c-0.3-4.2,1.8-8.3,6.3-12.2l2.4,2.7c-3.6,3.2-5.3,6.3-5.1,9.3
						c0.3,4.5,4.8,7.5,4.9,7.5L1341.6,77z"/>
				</g>
				<g>
					<path class="st5" d="M1340.8,77l-2-3c0,0,4.6-3.1,4.9-7.5c0.2-3-1.5-6.1-5.1-9.3l2.4-2.7c4.5,3.9,6.6,8.1,6.3,12.2
						C1346.8,73,1341,76.8,1340.8,77z"/>
				</g>
			</g>
			<g>
				<g>
					<path class="st5" d="M1340.6,90.4c0-0.3-0.3-7.2,4.6-11.3c3.2-2.7,7.8-3.4,13.6-2l-0.8,3.5c-4.7-1.1-8.2-0.6-10.5,1.3
						c-3.5,2.9-3.3,8.3-3.3,8.4L1340.6,90.4z"/>
				</g>
				<g>
					<path class="st5" d="M1345.8,90.8c-3.1,0-5.5-0.9-5.7-1l1.3-3.3c0.1,0,5.1,1.9,9-0.4c2.6-1.6,4.1-4.8,4.6-9.5l3.6,0.4
						c-0.6,5.9-2.7,10-6.3,12.2C1350.1,90.4,1347.8,90.8,1345.8,90.8z"/>
				</g>
			</g>
			<g>
				<g>
					<path class="st5" d="M1341.7,90.4l-3.6-0.2l1.8,0.1l-1.8-0.1c0-0.1,0.2-5.5-3.3-8.4c-2.3-1.9-5.8-2.3-10.5-1.3l-0.8-3.5
						c5.8-1.3,10.4-0.7,13.6,2C1342,83.2,1341.7,90.2,1341.7,90.4z"/>
				</g>
				<g>
					<path class="st5" d="M1336.5,90.8c-2,0-4.3-0.4-6.4-1.7c-3.6-2.2-5.7-6.3-6.3-12.2l3.6-0.4c0.5,4.7,2,8,4.6,9.5
						c3.8,2.4,8.9,0.5,9,0.4l1.3,3.3C1342,89.9,1339.6,90.8,1336.5,90.8z"/>
				</g>
			</g>
			<g>
				<path class="st5" d="M1341.2,107.3c-1,0-1.8-0.8-1.8-1.8V73.3c0-1,0.8-1.8,1.8-1.8s1.8,0.8,1.8,1.8v32.3
					C1343,106.5,1342.2,107.3,1341.2,107.3z"/>
			</g>
		</g>
	</g>
	<g>
		<g>
			<path class="st11" d="M453,108.7"/>
		</g>
		<g>
			<g>
				<path class="st4" d="M451.1,107.1c-0.2,1.8-0.4,3.5-0.5,5.3c-0.1,1.3,1.1,2,2.3,1.3c0.4-0.2,0.6-0.5,0.7-1
					c0.3-2.1,0.6-4.1,0.9-6.2c0.4-3.3,0.8-6.6,1.2-9.9c0-0.3,0.2-0.4,0.5-0.4c1.6,0,3.1-0.1,4.7-0.1c3,0,5.9,0,8.9,0
					c0.4,0,0.6,0.1,0.7,0.5c1,4.7,1.9,9.5,2.9,14.2c0.2,1.1,0.5,1.4,1.6,1.4c2.4,0.1,4.9,0.1,7.3,0.1c0.2,0,0.4,0,0.6,0
					c0,1.1,0,2.1,0,3.2c-0.2,0-0.4,0-0.6,0c-3.2,0-6.5,0-9.7,0.1c-0.4,0-0.7,0-1.1,0.1c-0.9,0.1-1.4,0.6-1.4,1.4
					c-0.1,0.7,0.4,1.5,1.2,1.7c0.3,0.1,0.6,0.1,1,0.1c6.4,0,12.8,0,19.1,0c4.7,0,9.5,0,14.2,0c0.4,0,0.6-0.1,0.9-0.3
					c3.9-3.4,7.8-6.7,11.7-10.1c0.1-0.1,0.3-0.2,0.5-0.4c1,0.8,2.1,1.7,3.2,2.6c-0.2,0-0.3,0.1-0.4,0.1c-0.9,0.1-1.8,0.1-2.7,0.2
					c-3,0.3-5,2.1-6.1,4.8c-1.3,2.9-0.1,6.3,2.6,8.3c1.7,1.3,3.7,1.6,5.7,1.2c2-0.4,3.6-1.7,4.7-3.5c1.3-2.1,1.3-4.3,0.3-6.5
					c-0.1-0.3-0.3-0.6-0.5-1c0.3,0,0.6,0,0.8,0c0.4-0.1,0.8-0.1,1.2-0.3c1.1-0.5,1.3-1.7,0.3-2.5c-1.7-1.5-3.5-2.9-5.2-4.3
					c-0.6-0.5-1.3-1-1.9-1.5c-0.3-0.2-0.4-0.4-0.4-0.8c0-2.8,0-5.6,0-8.4c0-0.2,0-0.5-0.2-0.7c-4.4-8-8.8-16.1-13.2-24.1
					c-0.1-0.2-0.2-0.3-0.3-0.5c-0.3-0.5-0.7-0.7-1.2-0.7c-4.1,0-8.1,0-12.2,0c-10.5,0-21,0-31.5,0.1c-1.6,0-3.3,0.1-4.9,0.2
					c-1,0-1.2,0.2-1.3,1.2c-0.5,3.4-0.9,6.8-1.3,10.2c-0.6,4.7-1.1,9.4-1.7,14.1C451.9,99.7,451.5,103.4,451.1,107.1z M523.3,117.3
					c0.4,2.4-0.9,4.4-3.3,4.8c-1.9,0.3-3.7-0.6-4.4-2.1c-0.8-1.7-0.3-4,1-5.1c0.8-0.7,1.8-0.7,2.9-0.7c0.2,0,0.6,0,0.9,0.1
					C521.9,114.4,523,115.7,523.3,117.3z M507.1,97.9c3.2,0,6.5,0,9.8,0c0,0.2,0,0.4,0,0.5c0,2.1,0,4.3,0,6.4c0,0.3-0.1,0.5-0.3,0.7
					c-2.6,2.2-5.2,4.5-7.8,6.7c-0.5,0.4-1,0.9-1.5,1.3c-0.1,0-0.1,0-0.2,0C507.1,108.2,507.1,103.1,507.1,97.9z M507,78.7
					c0,0,0.1,0,0.1,0c2.9,5.3,5.7,10.6,8.6,15.9c-3,0-5.9,0-8.8,0C507,89.2,507,83.9,507,78.7z M486.2,73.5c5.9,0,11.7,0,17.6,0
					c0,14,0,28,0,42c-5.9,0-11.7,0-17.6,0C486.2,101.5,486.2,87.5,486.2,73.5z M473,73.5c3.3,0,6.5,0,9.7,0c0,11.9,0,23.7,0,35.6
					c-2.1,0-4.2,0-6.2,0c-0.4,0-0.5-0.1-0.6-0.5c-0.7-3.5-1.4-6.9-2.1-10.4c-0.2-1.2-0.6-2.4-0.6-3.6c-0.1-6.9-0.1-13.7-0.1-20.6
					C473,73.9,473,73.7,473,73.5z M456,92.9c0-0.2,0-0.3,0-0.5c0.2-1.7,0.4-3.4,0.6-5.1c0.5-4.3,1-8.7,1.5-13
					c0.1-0.7,0.1-0.8,0.8-0.8c3.5,0,7.1,0,10.6,0c0.1,0,0.1,0,0.2,0c0,6.5,0,12.9,0,19.3C465.2,92.9,460.6,92.9,456,92.9z"/>
			</g>
			<g>
				<path class="st4" d="M453.6,118.2c0,3.5,3.7,7.5,7.3,7.1c3.4,0.5,7.5-3.6,7.2-7.5c-0.2-3.4-3.7-7-7.2-6.9
					C456.4,110.9,453.6,115,453.6,118.2z M456.9,118.1c0-2.1,1.2-4,4.1-4c2.6,0,4,2,4,4c0,2.4-1.6,4-4,4.1
					C458.6,122.1,456.9,120.5,456.9,118.1z"/>
			</g>
			<g>
				<path class="st4" d="M499.2,102.6c-0.2,0-0.4,0.1-0.6,0.1c-2.6,0-5.2,0-7.9,0c-0.5,0-1.3-0.8-1.3-1.3c0-4,0-7.9,0-11.9
					c0-0.6,0-1.3,0.1-1.9c0.1-0.8,0.7-1.1,1.6-1.1c0.8,0,1.2,0.5,1.3,1.2c0,0.3,0.1,0.5,0.1,0.8c0.1,3.4,0.1,6.8,0.1,10.2
					c0,0.2,0,0.4,0,0.6c0.2,0,0.4,0,0.5,0c1.1,0,2.2,0,3.3,0.1c1.1,0,2.1,0.1,3.2,0.2c0.4,0,0.7,0.2,0.9,0.6
					C501,101.4,500.4,102.4,499.2,102.6z"/>
			</g>
		</g>
	</g>
	<g>
		<g>
			<g>
				<path class="st12" d="M1187.1,112.2"/>
			</g>
			<g>
				<path class="st7" d="M1245.3,114.5c-0.3-2.1-1.3-3.9-2.9-5.4c-2.1-1.8-4.6-2.5-7.4-2.1l0-0.1c0-0.1-0.1-0.2-0.1-0.3
					c-0.2-0.7-0.4-1.5-0.7-2.2c-0.5-1.6-1-3.3-1.5-5c-0.7-2.2-1.4-2.7-3.8-2.8c-0.6,0-1.2,0-1.8,0c-0.3,0-0.5,0-0.8,0h-0.1v1.9h0.9
					c0.2,0,0.5,0,0.7,0c0.5,0,1.1,0,1.7,0c0.3,0,0.8,0.1,1,0.6c0.2,0.7,0.4,1.3,0.5,2c0.1,0.3,0.1,0.5,0.2,0.8h-15.3l-0.5-1.6l0.1,0
					c0.1,0,0.2-0.1,0.3-0.1c0.3-0.1,0.6-0.1,0.9-0.2c0.7-0.1,1.4-0.3,2.1-0.5c0.4-0.1,0.6-0.3,0.5-0.7c-0.1-0.4-0.4-0.5-0.7-0.5h0
					c-1.2,0-2.4,0-3.6,0c-0.9,0-1.7,0-2.6,0c-0.3,0-0.6,0-0.9,0c0,0-0.1,0-0.1,0l-0.1,0v1.8l0.4,0c0.2,0,0.4,0,0.6,0
					c1.1,0,1.1,0,1.4,1.1c0,0.1,0.2,0.6,0.1,0.8c-2,4.5-4,9-5.9,13.2c0,0.1-0.2,0.2-0.3,0.2c-1.1,0-2.1,0-3.3,0l-0.8,0
					c-0.8-4.8-4.9-8.2-9.6-7.8c-4.6,0.4-8.2,4.1-8.3,8.6c-0.1,3.9,2.1,7.2,5.4,8.7c2.7-0.1,5.4-0.3,8-0.4c0.1-0.1,0.2-0.1,0.3-0.1
					c2.4-1.6,3.9-3.8,4.3-6.7l0.1,0c0.1,0,0.2,0,0.3,0l3.9,0c4.1,0,8.4-0.1,12.6-0.1c1,0,1.8-0.3,2.5-1c0.1-0.1,0.2-0.2,0.3-0.3
					c0.2-0.2,0.3-0.3,0.5-0.5c0.6-0.7,1.2-1.3,1.8-2c1.2-1.3,2.4-2.7,3.6-4.1c0.8-0.9,1.6-1.7,2.4-2.6c0.4-0.4,0.7-0.8,1.1-1.1
					c0,0,0,0,0,0c0,0.1,0.1,0.1,0.1,0.1c0.1,0.4,0.3,0.9,0.4,1.3l0.1,0.2c-5,2.3-6.3,7.8-4.7,11.7c1.7,4.1,6.3,6.3,10.6,5.2
					C1243.2,123.4,1245.9,119.2,1245.3,114.5z M1194.2,123.5c-0.1,0-0.2,0-0.3,0c-3.5-0.1-6.3-3.2-6.3-6.8c0-3.6,2.8-6.6,6.3-6.8
					c4.4-0.2,6.8,3.2,7.1,5.6h-1c-0.9,0-1.8,0-2.6,0h-0.5c-0.9,0-1.7,0-2.6,0c-0.3,0-0.6,0.1-0.8,0.3c-0.2,0.2-0.3,0.5-0.3,0.8
					c0,0.6,0.5,1,1.1,1c1.5,0,3,0,4.5-0.1l1.9,0c0.1,0,0.2,0,0.4,0l0.1,0C1200.7,121.1,1197.8,123.5,1194.2,123.5z M1209.7,115.7
					l4.9-11l4.2,11H1209.7z M1220.9,115.3l-4.3-11.5h14.8L1220.9,115.3z M1242.6,118.6c-0.7,1.7-2.1,2.9-3.8,3.6
					c-1.7,0.7-3.6,0.6-5.3-0.2c-1.7-0.8-2.9-2.2-3.5-3.9c-1.3-3.9,1.2-7.2,3.5-8.2c0.1,0.3,0.2,0.6,0.3,1c0.2,0.8,0.5,1.5,0.7,2.3
					l0,0.1c0.3,0.9,0.6,1.9,0.9,2.8c0.2,0.7,0.6,0.9,1.2,0.8c0.5-0.1,0.8-0.6,0.7-1.2c-0.1-0.5-0.2-1-0.4-1.5
					c-0.4-1.1-0.7-2.3-1.1-3.4l-0.4-1.3c0.8-0.3,1.9-0.3,3.1,0.2c1.8,0.7,3.4,2.3,4,3.9C1243.3,115.1,1243.3,116.9,1242.6,118.6z"/>
			</g>
			<g>
				<path class="st7" d="M1206.4,109.8c-0.1,0-0.3,0-0.4-0.1l-17.2-6.6c-0.5-0.2-0.8-0.6-0.8-1.1l-0.2-7.7c0-0.4,0.2-0.7,0.4-1
					c0.3-0.2,0.7-0.3,1-0.2l9.4,2.3c0.3,0.1,0.5,0.3,0.7,0.5l7.9,12c0.3,0.4,0.3,1-0.1,1.4C1207.1,109.7,1206.7,109.8,1206.4,109.8z
					 M1190.4,101.2l12.9,5l-5.6-8.5l-7.4-1.8L1190.4,101.2z"/>
			</g>
			<g>
				<path class="st7" d="M1198.7,94.4c-0.1,0-0.2,0-0.3,0l-9.7-2.5c-0.5-0.1-0.9-0.6-0.9-1.2l0.1-10.5c0-0.3,0.1-0.6,0.4-0.9l5.4-5
					c0.2-0.2,0.5-0.3,0.8-0.3h17.8c0.5,0,0.9,0.3,1.1,0.7c0.2,0.4,0.2,0.9-0.1,1.3l-13.5,17.9C1199.4,94.2,1199,94.4,1198.7,94.4z
					 M1190.2,89.8l8,2.1l11.6-15.4h-14.9l-4.7,4.3L1190.2,89.8z"/>
			</g>
			<g>
				<path class="st7" d="M1197.4,88.4c-0.2,0-0.5-0.1-0.7-0.2c-0.5-0.4-0.6-1.1-0.2-1.7l5.4-7.2c0.4-0.5,1.1-0.6,1.7-0.2
					c0.5,0.4,0.6,1.1,0.2,1.7l-5.4,7.2C1198.1,88.2,1197.8,88.4,1197.4,88.4z"/>
			</g>
		</g>
	</g>
	<path class="st4" d="M1344.1,126c-0.1-0.2-0.1-0.5-0.1-0.7c0-1.1,0.9-2,2-2h58.6c-6.3,0.7-12.6,1.5-18.9,2.2c-10,1-19.9,1.4-30,1.2
		C1351.8,126.5,1348,126.4,1344.1,126z M1368.6,101.9c-0.3,5.2,2.7,10,7.1,12.2c1.6-2.8,3.2-5.6,4.9-8.5c-1.4-0.9-2.1-2.1-2.2-3.7
		C1375.1,101.9,1371.8,101.9,1368.6,101.9z M1375.2,112.4c-3.3-2-5.3-6-5.3-9.2c0,0,0,0,0,0c2.4,0,4.8,0,7.3,0
		c0.1,0,0.2,0.1,0.2,0.2c0.3,0.9,0.7,1.7,1.4,2.4c0.1,0.1,0.1,0.2,0,0.3c-0.2,0.3-0.3,0.6-0.5,0.9
		C1377.3,108.8,1376.3,110.6,1375.2,112.4z M1375.9,114.3l4.9-8.5c0.1-0.2,0-0.4-0.1-0.5c-1.3-0.8-1.9-2-2-3.5
		c0-0.2-0.2-0.3-0.4-0.3h-9.8c-0.2,0-0.3,0.1-0.4,0.3c-0.3,5.2,2.6,10.2,7.3,12.5c0.1,0,0.1,0,0.2,0
		C1375.8,114.5,1375.9,114.4,1375.9,114.3z M1378,102.3c0.2,1.5,0.8,2.6,2,3.5l-4.6,7.9c-4.2-2.2-6.7-6.7-6.6-11.4H1378z
		 M1375.3,112.8c0.1,0,0.2-0.1,0.2-0.2l3.1-5.4l0.1-0.2c0.1-0.2,0.3-0.5,0.4-0.7c0.1-0.2,0.1-0.6-0.1-0.7c-0.7-0.7-1.1-1.4-1.3-2.3
		c-0.1-0.2-0.3-0.4-0.6-0.4c-2.2,0-4.4,0-6.7,0l-0.6,0c-0.1,0-0.2,0-0.2,0.1c-0.1,0.1-0.1,0.2-0.1,0.3c0,3.6,2.3,7.5,5.5,9.5
		C1375.1,112.7,1375.2,112.8,1375.3,112.8C1375.3,112.8,1375.3,112.8,1375.3,112.8z M1370.5,103.5c2.2,0,4.4,0,6.6,0
		c0.3,0.9,0.8,1.8,1.4,2.5c-0.1,0.2-0.2,0.4-0.4,0.6l-0.2,0.3l0,0l-2.9,5c-2.7-1.8-4.7-5.3-4.9-8.4L1370.5,103.5z M1377.2,103.5
		L1377.2,103.5L1377.2,103.5z M1387,102c-0.1,1.6-0.8,2.8-2.2,3.7c1.6,2.8,3.3,5.7,4.9,8.5c4.4-2.3,7.3-7.1,7.1-12.2
		C1393.5,102,1390.3,102,1387,102z M1395.5,103.2c-0.1,3.7-2.4,7.5-5.3,9.2c0,0,0,0,0,0c-1.2-2.1-2.4-4.2-3.6-6.2
		c-0.1-0.2,0-0.3,0.1-0.4c0.7-0.7,1.1-1.5,1.4-2.4c0-0.1,0.1-0.1,0.1-0.2C1390.5,103.2,1393,103.2,1395.5,103.2z M1389.9,114.5
		c4.6-2.3,7.5-7.4,7.3-12.5c0-0.2-0.2-0.3-0.4-0.3h-9.8c-0.2,0-0.3,0.1-0.4,0.3c-0.1,1.5-0.7,2.6-2,3.4c-0.2,0.1-0.2,0.3-0.1,0.5
		l4.9,8.5c0.1,0.1,0.2,0.2,0.3,0.2C1389.8,114.5,1389.8,114.5,1389.9,114.5z M1387.3,102.3h9.1c0.1,4.7-2.5,9.2-6.6,11.4l-4.6-7.9
		C1386.5,104.9,1387.2,103.8,1387.3,102.3z M1390.3,112.7c3.1-1.8,5.5-5.8,5.5-9.5c0-0.1,0-0.2-0.1-0.3c-0.1-0.1-0.2-0.1-0.3-0.1
		h-7.5c-0.1,0-0.3,0.2-0.4,0.3c0,0.1,0,0.1-0.1,0.2c-0.2,0.8-0.7,1.6-1.3,2.2c-0.1,0.1-0.4,0.4-0.1,0.8c0.9,1.5,1.7,3,2.6,4.5l1,1.7
		c0,0,0.1,0.1,0.1,0.1c0.1,0.1,0.2,0.1,0.2,0.1C1390.2,112.7,1390.2,112.7,1390.3,112.7z M1388.2,103.5h6.9
		c-0.2,3.2-2.2,6.6-4.9,8.4l-0.8-1.5c-0.9-1.5-1.7-3-2.6-4.5C1387.5,105.3,1388,104.5,1388.2,103.5z M1380.6,98.1
		c1.4-0.7,2.9-0.7,4.3,0.1c1.7-2.8,3.3-5.6,4.9-8.3c-3.7-2.5-9.4-3-14.1,0C1377.3,92.6,1378.9,95.3,1380.6,98.1z M1381.2,96.7
		c-1.2-2.1-2.5-4.2-3.8-6.3c3.6-1.8,7.1-1.8,10.7,0c0,0.1,0,0.1,0,0.1c-1.2,2-2.4,4-3.6,6.1c-0.1,0.2-0.2,0.2-0.4,0.1
		c-0.7-0.2-1.4-0.3-2.1-0.2C1381.7,96.6,1381.4,96.6,1381.2,96.7z M1385.2,98.4l4.9-8.3c0.1-0.2,0-0.4-0.1-0.5
		c-3.5-2.4-9.4-3.3-14.5,0c-0.2,0.1-0.2,0.3-0.1,0.5l4.9,8.3c0.1,0.2,0.3,0.2,0.5,0.1c1.4-0.6,2.6-0.6,4,0.1c0.1,0,0.1,0,0.2,0
		C1385,98.6,1385.1,98.5,1385.2,98.4z M1380.7,97.7l-4.6-7.7c4.7-2.8,9.9-2,13.2,0l-4.6,7.8c-0.7-0.3-1.4-0.5-2.1-0.5
		C1382,97.3,1381.4,97.4,1380.7,97.7z M1384.7,96.7c0.9-1.5,1.8-3.1,2.7-4.6l0.9-1.5c0-0.1,0-0.1,0.1-0.2c0.1-0.2,0-0.4-0.2-0.4
		c-3.6-1.8-7.3-1.8-11,0c-0.1,0-0.2,0.1-0.2,0.2c0,0.1,0,0.2,0,0.3l3.7,6.3c0.1,0.1,0.2,0.2,0.4,0.2l0.8-0.2
		c0.6-0.1,1.2-0.1,1.9,0.2c0.1,0,0.2,0.1,0.3,0.1C1384.4,97.1,1384.6,97,1384.7,96.7z M1381.9,96.1L1381.9,96.1l-0.5,0.1l-3.4-5.8
		c3.3-1.5,6.4-1.5,9.7,0l-0.8,1.3c-0.9,1.5-1.8,3-2.7,4.5c0,0,0,0,0,0c-0.6-0.2-1-0.3-1.5-0.3C1382.4,96.1,1382.1,96.1,1381.9,96.1z
		 M1385.7,101.9c0-1.7-1.4-3.1-3.1-3.1c-1.7,0-3.1,1.4-3.1,3.1c0,1.7,1.4,3.1,3.1,3.1C1384.4,105,1385.7,103.6,1385.7,101.9z
		 M1382.7,103.8c-1,0-1.8-0.8-1.9-1.8c0-1,0.8-1.9,1.8-1.9c1,0,1.8,0.8,1.9,1.8C1384.5,102.9,1383.7,103.8,1382.7,103.8z
		 M1386.1,101.9c0-0.9-0.4-1.8-1-2.4c-0.6-0.6-1.5-1-2.4-1c0,0,0,0,0,0c-1.9,0-3.4,1.5-3.4,3.4c0,1.9,1.5,3.4,3.4,3.4c0,0,0,0,0,0
		C1384.6,105.3,1386.1,103.8,1386.1,101.9z M1380,101.9c0-1.5,1.2-2.7,2.7-2.7c0,0,0,0,0,0c0.7,0,1.4,0.3,1.9,0.8
		c0.5,0.5,0.8,1.2,0.8,1.9c0,1.5-1.2,2.7-2.7,2.7c0,0,0,0,0,0C1381.2,104.6,1380,103.4,1380,101.9z M1382.7,104.1
		c0.6,0,1.1-0.2,1.5-0.6c0.4-0.4,0.6-1,0.6-1.6l0,0c0-1.2-1-2.2-2.2-2.2c0,0,0,0,0,0c-0.6,0-1.1,0.2-1.5,0.6c-0.4,0.4-0.6,1-0.6,1.6
		C1380.5,103.2,1381.5,104.1,1382.7,104.1C1382.7,104.1,1382.7,104.1,1382.7,104.1z M1384.2,101.9L1384.2,101.9
		c0,0.4-0.1,0.8-0.4,1.1c-0.3,0.3-0.6,0.4-1,0.4c0,0,0,0,0,0c-0.8,0-1.5-0.6-1.5-1.5c0-0.4,0.1-0.8,0.4-1.1c0.3-0.3,0.6-0.4,1-0.4
		c0,0,0,0,0,0C1383.5,100.4,1384.1,101.1,1384.2,101.9z M1379.7,56.7c0.5-1,0.1-2.2-0.9-2.7c-0.5-0.3-1.6-1.2-0.5-3.7
		c0.5-1.2,1.4-2,2.2-2.8c2.5-2.4,4.3-4.8,2-10.8c-0.4-1-1.6-1.6-2.6-1.1c-1,0.4-1.6,1.6-1.1,2.6c1.5,4,0.7,4.7-1,6.4
		c-1,1-2.2,2.2-3.1,4c-2.4,5.3,0.9,8.3,2.4,9c0.3,0.1,0.6,0.2,0.9,0.2C1378.7,57.8,1379.4,57.4,1379.7,56.7z M1390.8,56.7
		c0.5-1,0.1-2.2-0.9-2.7c-0.5-0.3-1.6-1.2-0.5-3.7c0.5-1.2,1.4-2,2.2-2.8c2.5-2.4,4.3-4.8,2-10.8c-0.4-1-1.6-1.6-2.6-1.1
		c-1,0.4-1.6,1.6-1.1,2.6c1.5,4,0.7,4.7-1,6.4c-1,1-2.2,2.2-3.1,4c-2.4,5.3,0.9,8.3,2.4,9c0.3,0.1,0.6,0.2,0.9,0.2
		C1389.8,57.8,1390.5,57.4,1390.8,56.7z M1352.8,126.5c1,0,2,0,3,0.1c10.1,0.2,20-0.1,30-1.2c6.3-0.7,12.6-1.4,18.9-2.1h-47.4
		c11.8-33.4,9.1-51.8,7.2-58.5h36.5c-0.7,2.3-1.4,6-1.6,11.3c-0.4,9.2,0.9,24.6,8.7,46.8c1.4-0.2,2.8-0.3,4.1-0.5
		c-7.9-22.1-9.1-37.3-8.7-46.2c0.4-8.5,2.2-12.6,2.3-12.6c0.3-0.6,0.3-1.4-0.1-2c-0.4-0.6-1-1-1.7-1h-42.2c-0.7,0-1.3,0.4-1.7,0.9
		c-0.4,0.6-0.4,1.3-0.1,2c0.1,0.2,8.4,18.4-7.3,60.9C1352.3,125.2,1352.3,125.9,1352.8,126.5
		C1352.7,126.4,1352.8,126.4,1352.8,126.5z M1403.3,76.3c0-1.1-0.9-2-2-2h-37.2c-1.1,0-2,0.9-2,2c0,1.1,0.9,2,2,2h37.2
		C1402.4,78.4,1403.3,77.5,1403.3,76.3z M1408.5,76.1c0-1.1-0.9-2-2-2h-5.2c-1.1,0-2,0.9-2,2c0,1.1,0.9,2,2,2h5.2
		C1407.6,78.1,1408.5,77.2,1408.5,76.1z M1404.3,78.1h21.2c-1.5,5.4-3.1,18.7,4.6,41.5c1.2-0.5,2.5-0.9,3.9-1.2
		c-9.8-28.9-3.9-41.4-3.8-41.5c0.3-0.6,0.3-1.4-0.1-2c-0.4-0.6-1-1-1.7-1h-24c-1.1,0-2,0.9-2,2C1402.3,77.2,1403.2,78.1,1404.3,78.1
		z M1427.3,86.1c0-1.1-0.9-2-2-2H1411c-1.1,0-2,0.9-2,2c0,1.1,0.9,2,2,2h14.3C1426.4,88.1,1427.3,87.2,1427.3,86.1z"/>
	<g>
		<g>
			<path class="st7" d="M1072.4,123.4c-0.3-0.8-1-1.5-2-1.5h-23.1c3.9,0.5,7.8,1.2,11.6,1.7c1.6,0.2,2.4,1.3,2.5,2.5h8.9
				c0.2,0,0.5-0.1,0.7-0.1C1071.2,124.9,1071.6,123.9,1072.4,123.4z"/>
		</g>
		<g>
			<path class="st7" d="M951.6,100.3c0.8,1,1.6,2.1,2.4,3.1V76.8l14.1,2v38.4c1.4,1.1,2.7,2.2,3.9,3.4c0.1,0.1,0.2,0.2,0.3,0.4V77
				c0-1-0.8-1.9-1.8-2.1l-18.3-2.6c-0.6-0.1-1.2,0.1-1.7,0.5c-0.5,0.4-0.7,1-0.7,1.6V99C950.5,99.2,951.1,99.7,951.6,100.3z"/>
		</g>
		<g>
			<path class="st7" d="M959.2,109.4c0.4-0.6,1.1-1.1,1.8-1.1c1.3,0,2.4,1.3,2.4,2.9c0,0.7-0.2,1.3-0.5,1.8c0.8,0.7,1.6,1.3,2.4,2
				c0.8-1,1.2-2.3,1.2-3.8c0-3.3-2.5-6-5.5-6c-1.6,0-3,0.7-4,1.9C957.7,107.8,958.5,108.6,959.2,109.4z"/>
		</g>
		<g>
			<path class="st7" d="M977.1,120.9c0.8-1.4,2.2-1.8,3.6-1.6V64.5h19.8v52.8c1.4,0,2.8-0.1,4.2-0.1V62.4c0-1.2-0.9-2.1-2.1-2.1h-24
				c-1.2,0-2.1,0.9-2.1,2.1v59.2c0.1,0,0.2,0,0.3,0.1C976.9,121.4,977,121.2,977.1,120.9z"/>
		</g>
		<g>
			<path class="st7" d="M1018.3,117.8V64.5h19.8v56.4c0.1,0,0.2,0,0.3,0c1.3,0.1,2.6,0.2,3.9,0.4V62.4c0-1.2-0.9-2.1-2.1-2.1h-24
				c-1.2,0-2.1,0.9-2.1,2.1v54.9C1015.5,117.4,1016.9,117.6,1018.3,117.8z"/>
		</g>
		<g>
			<path class="st7" d="M1016.2,82.2h-13.6c-1.2,0-2.1-0.9-2.1-2.1c0-1.2,0.9-2.1,2.1-2.1h13.6c1.2,0,2.1,0.9,2.1,2.1
				C1018.3,81.3,1017.4,82.2,1016.2,82.2z"/>
		</g>
		<g>
			<path class="st7" d="M1036.7,63.5c-1.2,0-2.1-0.9-2.1-2.1v-9.5l-11.4-7.3v4.8c0,1.2-0.9,2.1-2.1,2.1h-21.4
				c-1.2,0-2.1-0.9-2.1-2.1v-4.9L985.5,52v9.5c0,1.2-0.9,2.1-2.1,2.1s-2.1-0.9-2.1-2.1V50.8c0-0.7,0.4-1.4,1-1.8l16.3-9.9
				c0.6-0.4,1.5-0.4,2.1,0c0.7,0.4,1.1,1.1,1.1,1.8v6.5h17.2v-6.5c0-0.8,0.4-1.5,1.1-1.8c0.7-0.4,1.5-0.3,2.1,0.1l15.6,9.9
				c0.6,0.4,1,1,1,1.8v10.7C1038.8,62.6,1037.9,63.5,1036.7,63.5z"/>
		</g>
		<g>
			<path class="st7" d="M963.4,78.1c-1.2,0-2.1-0.9-2.1-2.1V65.5c0-0.4,0.1-0.8,0.3-1.1l8.3-12.9c0.4-0.6,1-1,1.8-1h11.7
				c1.2,0,2.1,0.9,2.1,2.1s-0.9,2.1-2.1,2.1h-10.6l-7.3,11.4V76C965.5,77.2,964.6,78.1,963.4,78.1z"/>
		</g>
		<g>
			<path class="st7" d="M965,102.7h-7.9c-0.5,0-1-0.2-1.2-0.6c-0.3-0.4-0.4-0.9-0.3-1.4l4.7-16.8c0.2-0.7,0.9-1.2,1.6-1.1
				c0.7,0,1.3,0.6,1.5,1.3l3.1,16.8c0.1,0.5,0,0.9-0.3,1.3C965.9,102.5,965.4,102.7,965,102.7z M959.1,99.6h3.9l-1.6-8.4L959.1,99.6
				z"/>
		</g>
		<g>
			<path class="st7" d="M1068.9,116.6c-1.4-1-2.8-2.1-4.1-3.2v7.9h-14.1V78.8l9-1.3c-0.4-1.4-0.9-2.7-1.5-4l-9.8,1.4
				c-1,0.1-1.8,1-1.8,2.1v44.8c4.2,0.6,8.3,1.2,12.5,1.8c1.3,0.2,2.1,0.9,2.4,1.8h5.5c1.2,0,2.1-0.9,2.1-2.1L1068.9,116.6
				C1069,116.6,1068.9,116.6,1068.9,116.6z"/>
		</g>
		<g>
			<path class="st7" d="M1060.6,109.3c-1.2-1.3-2.3-2.6-3.3-4.1c-2.8,0.2-5.1,2.8-5.1,6c0,3.3,2.5,6,5.5,6c2.8,0,5.1-2.3,5.4-5.3
				C1062.3,111.1,1061.4,110.2,1060.6,109.3z M1057.8,114.1c-1.3,0-2.4-1.3-2.4-2.9s1.1-2.9,2.4-2.9c1.3,0,2.4,1.3,2.4,2.9
				S1059.1,114.1,1057.8,114.1z"/>
		</g>
		<g>
			<path class="st7" d="M1057.3,71.9c-0.6-1.1-0.5-2.1,0.1-2.9v-3.5c0-0.4-0.1-0.8-0.3-1.1l-8.3-12.9c-0.4-0.6-1-1-1.8-1h-10
				c-1.2,0-2.1,0.9-2.1,2.1c0,1.2,0.9,2.1,2.1,2.1h8.8l7.3,11.4V76c0,1.2,0.9,2.1,2.1,2.1c1.2,0,2.1-0.9,2.1-2.1v-3.9
				C1057.4,72,1057.3,72,1057.3,71.9z"/>
		</g>
		<g>
			<path class="st7" d="M1054.9,99.7c-0.2-1,0-2,0.7-2.7c0.2-0.2,0.4-0.3,0.6-0.5l1-5.3l1.5,5.2c1.2,0.4,2.4,0.9,3.6,1.3l-3.9-13.7
				c-0.2-0.7-0.9-1.2-1.6-1.1c-0.7,0-1.3,0.6-1.5,1.3l-3.1,16.8c-0.1,0.5,0,0.9,0.3,1.3c0.3,0.4,0.7,0.6,1.2,0.6h2.1
				C1055.5,101.7,1055.1,100.7,1054.9,99.7z"/>
		</g>
	</g>
	<g>
		<g>
			<path class="st3" d="M775.5,84.6L775.5,84.6C775.5,84.6,775.4,84.6,775.5,84.6L775.5,84.6z"/>
		</g>
		<g>
			<path class="st3" d="M773.9,81.2c-4.6-5.1-9.5-7.6-14.5-7.4c-8.2,0.2-14.1,7.3-14.1,7.4l-2.4-2c0.3-0.3,6.9-8.3,16.5-8.5
				c6-0.2,11.7,2.7,16.9,8.5L773.9,81.2z"/>
		</g>
		<g>
			<path class="st3" d="M727.3,123.2h-8.8c-0.4,0-0.8,0.2-1.1,0.5h9.7C727.1,123.5,727.2,123.3,727.3,123.2z"/>
		</g>
		<g>
			<path class="st3" d="M755.8,117.8v-15.9c0-2.1,1.7-3.9,3.9-3.9c1,0,2,0.4,2.7,1.1c0.7,0.7,1.1,1.7,1.1,2.7v15.6c1,0,2.1,0,3.1,0
				v-15.7c0-1.9-0.7-3.6-2.1-4.9c-1.3-1.3-3.1-2.1-4.9-2.1c-3.9,0-7,3.1-7,7v16.2C753.7,118,754.7,117.9,755.8,117.8z"/>
		</g>
		<g>
			<path class="st3" d="M742.9,119.2c0.1,0,0.2,0,0.4,0V109c0-1,0.8-1.8,1.8-1.8c0.5,0,0.9,0.2,1.3,0.5c0.3,0.3,0.5,0.8,0.5,1.3v9.7
				c1-0.1,2.1-0.2,3.1-0.4V109c0-1.3-0.5-2.6-1.4-3.5c-0.9-0.9-2.2-1.5-3.5-1.5c-2.7,0-5,2.2-5,5v10.5
				C741.1,119.4,742,119.3,742.9,119.2z"/>
		</g>
		<g>
			<path class="st3" d="M772.3,117.8V109c0-1,0.8-1.8,1.8-1.8c0.5,0,0.9,0.2,1.3,0.5c0.3,0.3,0.5,0.8,0.5,1.3v9.1
				c0.8,0.1,1.6,0.2,2.4,0.3c0.3,0,0.5,0.1,0.7,0.1V109c0-1.3-0.5-2.6-1.4-3.5c-0.9-0.9-2.2-1.5-3.5-1.5c-2.7,0-5,2.2-5,5v8.6
				C770.2,117.6,771.3,117.7,772.3,117.8z"/>
		</g>
		<g>
			<path class="st3" d="M737.1,120l2.7-38.1H780l0.5,8.3v0L782,119c1.1,0.2,2.1,0.4,3.2,0.7L783,80.3c0-0.8-0.7-1.5-1.6-1.5h-43.2
				c-0.8,0-1.5,0.6-1.6,1.5l-2.8,40.4C734.9,120.4,736,120.2,737.1,120z"/>
		</g>
		<g>
			<path class="st3" d="M792.3,91.8H782c-0.8,0-1.5-0.7-1.6-1.5L780,82h-40.2l-0.6,8.3c-0.1,0.8-0.7,1.5-1.6,1.5h-11.2
				c-0.9,0-1.6-0.7-1.6-1.6V52.5c0-0.9,0.7-1.6,1.6-1.6h65.9c0.9,0,1.6,0.7,1.6,1.6v37.7C793.9,91.1,793.2,91.8,792.3,91.8z
				 M783.5,88.6h7.3V54.1H728v34.5h8.2l0.6-8.3c0.1-0.8,0.7-1.5,1.6-1.5h43.2c0.8,0,1.5,0.7,1.6,1.5L783.5,88.6z"/>
		</g>
		<g>
			<path class="st3" d="M727.3,123.2h-4V91.8h12.6l-2,28.9c1.1-0.3,2.1-0.5,3.2-0.7l2.1-29.7c0-0.4-0.1-0.9-0.4-1.2
				c-0.3-0.3-0.7-0.5-1.1-0.5h-15.9c-0.9,0-1.6,0.7-1.6,1.6v33.4h7C727.1,123.5,727.2,123.3,727.3,123.2z"/>
		</g>
		<g>
			<path class="st3" d="M797,88.6h-15c-0.4,0-0.8,0.2-1.1,0.5c-0.3,0.3-0.5,0.7-0.4,1.2L782,119c1.1,0.2,2.1,0.4,3.2,0.7l-1.5-28
				h11.8V122c0.3,0.1,0.6,0.1,0.9,0.2c0.9,0.1,1.2,0.8,1.2,1.4h1V90.2C798.6,89.3,797.9,88.6,797,88.6z"/>
		</g>
		<g>
			<path class="st3" d="M791.8,65.2h-65.4c-0.9,0-1.6-0.7-1.6-1.6s0.7-1.6,1.6-1.6h65.4c0.9,0,1.6,0.7,1.6,1.6
				S792.7,65.2,791.8,65.2z"/>
		</g>
	</g>
	<g>
		<g>
			<path class="st6" d="M889.9,118.5c1.3,0,2.5,0.1,3.8,0.3c17.9-15.8,27.4-36,32.3-51.5c2.3-7.3,3.9-14.1,4.9-19.9
				c5.3,32.2,16.7,51.6,26.1,62.7c5.6,6.6,11,11,15.2,13.8c0.3-0.5,0.7-1,1.2-1.3c0.3-0.3,0.7-0.4,1-0.6c0.6-0.3,1.1-0.4,1.7-0.3
				c-4.2-2.6-10.1-7-16.3-14.3c-10.5-12.5-23.7-36-27.1-77.4c-0.1-1.1-1-1.9-2-1.8c-1.1,0-1.9,0.9-1.9,2c0,0.6-1.3,56-40.1,87.9
				c0.1,0,0.2,0,0.4,0C889.4,118,889.7,118.2,889.9,118.5z"/>
			<path class="st6" d="M905.7,127.5c0.4,0.2,0.7,0.5,0.9,0.9h6.8C910.8,128.2,908.3,127.9,905.7,127.5z"/>
		</g>
		<g>
			<path class="st6" d="M921.8,121.8l8.9-43.5l9,45c1.4,0,2.7,0,4.1,0.1l-13-65.1l-13,63.3C919.1,121.6,920.4,121.7,921.8,121.8z"/>
		</g>
		<g>
			<rect x="924.8" y="97.1" class="st6" width="12" height="4"/>
		</g>
		<g>
			<path class="st6" d="M955,123.7l-8.1-36.6L943,88l7.9,35.6C952.2,123.6,953.6,123.7,955,123.7z"/>
		</g>
		<g>
			<path class="st6" d="M963.5,123.9c0.9,0,1.8,0,2.7,0.1l-4.1-13.8l-3.8,1.1l3.7,12.6C962.5,123.9,963,123.9,963.5,123.9z"/>
		</g>
		<g>
			<path class="st6" d="M909.9,121l7.3-33l-3.9-0.9l-7.4,33.3C907.3,120.7,908.6,120.9,909.9,121z"/>
		</g>
		<g>
			<path class="st6" d="M899.4,119.5l3-9.8l-3.8-1.2l-3.2,10.4C896.7,119.1,898.1,119.3,899.4,119.5z"/>
		</g>
	</g>
	<g>
		<g>
			<path class="st6" d="M1089.7,124.5c4.9,0.3,9.9,0.4,14.8,0.8c6.9,0.6,13.9,0.4,20.9,0.3c0.4-0.3,0.7-0.7,0.7-1.2
				c0-0.8-0.6-1.4-1.4-1.4h-49.3C1080.2,123.5,1084.9,124.2,1089.7,124.5z"/>
			<path class="st6" d="M1073.4,123h-18.6c1.4,0.2,2.8,0.4,4.2,0.6c1.5,0.2,2.3,1.1,2.5,2.2h9.7C1071.3,124.5,1072,123.3,1073.4,123
				z"/>
		</g>
		<g>
			<g>
				<g>
					<path class="st6" d="M1079.9,120.5c0,0,0.1,0.1,0.1,0.1c3.9,2.3,7.4,3.4,10.5,3.9c1.5,0.1,3,0.1,4.6,0.2c3.2-0.2,5.9-1,7.9-2.1
						c8.6-4.4,13-14,13.4-18.2c0.6-5.8,5.2-9.7,5.2-9.8c0.3-0.3,0.5-0.7,0.5-1.1c0-0.4-0.2-0.8-0.5-1.1c-7.4-6.2-13.5,0.5-18,5.5
						c-2.8,3-5.6,6.2-7.9,5.8c-1.4-0.3-3.6-2-6.2-8.9c-10.8-28.1-29-35.2-29.8-35.5c-0.4-0.1-0.8-0.1-1.2,0.1
						c-0.4,0.2-0.6,0.5-0.7,0.9c-4.9,18.2,6.5,35.6,8,37.8C1070.4,113.7,1079.5,120.3,1079.9,120.5z M1068.4,96.7
						c-0.1-0.2-11.8-16.8-8.2-33.9c4.5,2.3,18.1,10.9,26.6,33.1c2.6,6.7,5.2,10.1,8.3,10.7c3.8,0.7,7.1-2.9,10.5-6.7
						c5-5.5,8.5-8.7,12.8-6.1c-1.7,1.8-4.5,5.5-5,10.4c-0.4,3.5-4.4,12.1-11.9,15.9c-5.9,3-12.7,2.4-20.2-1.9
						c-0.7-0.5-8.8-7-12.9-21C1068.6,97,1068.5,96.9,1068.4,96.7z"/>
				</g>
				<g>
					<path class="st13" d="M1085.2,90.8"/>
				</g>
				<g>
					<path class="st6" d="M1103.2,101.7c-0.4,0-0.9-0.2-1.1-0.6c-4.8-6.4-1.3-20.9,0.2-26.5c-12.6,2.5-15.7,13.3-15.9,13.7
						c-0.2,0.8-1,1.2-1.8,1c-0.8-0.2-1.2-1-1-1.7c0-0.1,4.1-14.4,20.5-16.2c0.5-0.1,1,0.1,1.3,0.5c0.3,0.4,0.4,0.9,0.2,1.3
						c-1.8,5.4-5.4,20.5-1.3,26.1c0.5,0.6,0.3,1.5-0.3,2C1103.8,101.6,1103.5,101.7,1103.2,101.7z"/>
				</g>
				<g>
					<path class="st6" d="M1077.5,89.9c-0.5,0-1.1-0.3-1.3-0.8c-5.1-11.5-13.5-17.6-13.6-17.6c-0.6-0.5-0.8-1.3-0.3-2
						c0.5-0.6,1.3-0.8,2-0.3c0.4,0.3,9.1,6.6,14.6,18.8c0.3,0.7,0,1.6-0.7,1.9C1077.9,89.9,1077.7,89.9,1077.5,89.9z"/>
				</g>
				<g>
					<path class="st6" d="M1113.7,97.2c0,0.8-0.6,1.4-1.4,1.4c-0.8,0-1.4-0.6-1.4-1.4c0-0.8,0.6-1.4,1.4-1.4
						C1113.1,95.8,1113.7,96.4,1113.7,97.2z"/>
				</g>
				<g>
					<path class="st6" d="M1094.4,118.6c-7.7,0-13.7-5.6-13.8-5.7c-0.6-0.5-0.6-1.5,0-2c0.5-0.6,1.5-0.6,2,0l0,0
						c0.4,0.4,10.1,9.4,20,2c0.6-0.5,1.5-0.3,2,0.3c0.5,0.6,0.3,1.5-0.3,2C1100.9,117.7,1097.5,118.6,1094.4,118.6z"/>
				</g>
			</g>
			<g>
				<path class="st6" d="M1089.7,124.5c0.7,0,1.4,0.1,2.1,0.1c0.6-0.2,1.1-0.7,1-1.4c0-0.8-0.6-1.4-1.4-1.4h0
					c-21.6,0.2-32.3-13.3-35-20.5c-1-2.8-0.7-4.2-0.5-4.4c0.1,0,0.3,0,0.8,0.2c8.4,3.5,10.9,2.3,11.6,1.3c0.5-0.6,0.3-1.5-0.3-2
					c-0.6-0.4-1.3-0.4-1.8,0.1c-0.3,0.1-2.2,0.6-8.4-2c-2.1-0.9-3.4-0.1-3.9,0.5c-1.5,1.5-1.4,4.5,0.2,8.3
					c2.8,6.6,11.2,17,26.5,20.4C1083.7,124,1086.7,124.3,1089.7,124.5z"/>
				<path class="st6" d="M1066.1,96.7C1066.1,96.7,1066.1,96.7,1066.1,96.7C1066.1,96.7,1066.1,96.7,1066.1,96.7z"/>
				<path class="st6" d="M1066.1,96.7C1066.1,96.7,1066.1,96.7,1066.1,96.7C1066.1,96.7,1066.1,96.7,1066.1,96.7z"/>
				<path class="st6" d="M1066.1,96.7L1066.1,96.7L1066.1,96.7z"/>
			</g>
		</g>
	</g>
	<path class="st8" d="M1920.5,122.3v4l-401.5,0c-1.4,0-2.8,0.1-4.4,0.1c-16.2,0-24.4-2-32.3-4c-7.6-1.9-14.8-3.7-29.5-3.7
		c-14.7,0-21.9,1.8-29.5,3.7c-7.9,2-16.1,4-32.2,4l-0.7,0.1h-324.2v-0.1c-15.1-0.1-23-2.1-30.6-4c-7.4-1.8-14.4-3.6-28.3-3.7
		c-13.9,0.1-20.9,1.8-28.3,3.7c-7.9,2-16.1,4-32.3,4l-1.2,0l-2.7,0v0c-13.7-0.3-21.1-2.2-28.4-3.9c-7.6-1.9-14.8-3.7-29.4-3.7
		c-14.7,0-21.9,1.8-29.5,3.7c-7.9,2-16.1,4-32.3,4c-16.2,0-24.4-2-32.3-4c-7.6-1.9-14.8-3.7-29.5-3.7c-14.7,0-21.9,1.8-29.5,3.7
		c-7.9,2-16.1,4-32.2,4l-0.7,0.1H0v-4.1l699.9,0.1c14.7,0,21.8-1.8,29.4-3.7c7.9-2,16.1-4,32.3-4c16.2,0,24.4,2,32.3,4
		c7.6,1.9,14.8,3.7,29.4,3.7c14.7,0,21.9-1.8,29.5-3.7c7.9-2,16.1-4,32.3-4c16.2,0,24.4,2,32.3,4c7.4,1.8,14.4,3.6,28.3,3.7
		c13.9-0.1,20.9-1.8,28.3-3.7c7.9-2,16.1-4,32.3-4l1.2,0l2.7,0v0c13.6,0.3,21.1,2.2,28.4,3.9c7.3,1.8,14.2,3.5,27.8,3.6l0.7,0h324.2
		v0.1c14.7,0,21.8-1.8,29.4-3.7c7.9-2,16.1-4,32.3-4c16.2,0,24.4,2,32.3,4c7.6,1.9,14.8,3.7,29.4,3.7c1.5,0,3,0,4.3-0.1
		L1920.5,122.3z"/>
</g>
</svg>
