<?xml version="1.0" encoding="utf-8"?>
<!-- Generator: Adobe Illustrator 26.0.1, SVG Export Plug-In . SVG Version: 6.00 Build 0)  -->
<svg version="1.1" id="Layer_1" xmlns="http://www.w3.org/2000/svg" xmlns:xlink="http://www.w3.org/1999/xlink" x="0px" y="0px"
	 viewBox="0 0 1920.5 11.7" style="enable-background:new 0 0 1920.5 11.7;" xml:space="preserve">
<style type="text/css">
	.st0{fill:#213061;}
</style>
<path class="st0" d="M1920.5,7.6v4l-401.5,0c-1.4,0-2.8,0.1-4.4,0.1c-16.2,0-24.4-2-32.3-4c-7.6-1.9-14.8-3.7-29.5-3.7
	c-14.7,0-21.9,1.8-29.5,3.7c-7.9,2-16.1,4-32.2,4l-0.7,0.1h-324.2v-0.1c-15.1-0.1-23-2.1-30.6-4c-7.4-1.8-14.4-3.6-28.3-3.7
	c-13.9,0.1-20.9,1.8-28.3,3.7c-7.9,2-16.1,4-32.3,4l-1.2,0l-2.7,0v0c-13.7-0.3-21.1-2.2-28.4-3.9C907,5.8,899.8,4,885.1,4
	c-14.7,0-21.9,1.8-29.5,3.7c-7.9,2-16.1,4-32.3,4c-16.2,0-24.4-2-32.3-4C783.5,5.8,776.3,4,761.6,4c-14.7,0-21.9,1.8-29.5,3.7
	c-7.9,2-16.1,4-32.2,4l-0.7,0.1H0V7.6l699.9,0.1c14.7,0,21.8-1.8,29.4-3.7c7.9-2,16.1-4,32.3-4c16.2,0,24.4,2,32.3,4
	c7.6,1.9,14.8,3.7,29.4,3.7c14.7,0,21.9-1.8,29.5-3.7c7.9-2,16.1-4,32.3-4c16.2,0,24.4,2,32.3,4c7.4,1.8,14.4,3.6,28.3,3.7
	c13.9-0.1,20.9-1.8,28.3-3.7c7.9-2,16.1-4,32.3-4l1.2,0l2.7,0v0c13.6,0.3,21.1,2.2,28.4,3.9c7.3,1.8,14.2,3.5,27.8,3.6l0.7,0h324.2
	v0.1c14.7,0,21.8-1.8,29.4-3.7c7.9-2,16.1-4,32.3-4c16.2,0,24.4,2,32.3,4c7.6,1.9,14.8,3.7,29.4,3.7c1.5,0,3,0,4.3-0.1L1920.5,7.6z"
	/>
</svg>
