<?xml version="1.0" encoding="utf-8"?>
<!-- Generator: Adobe Illustrator 26.0.1, SVG Export Plug-In . SVG Version: 6.00 Build 0)  -->
<svg version="1.1" id="Layer_1" xmlns="http://www.w3.org/2000/svg" xmlns:xlink="http://www.w3.org/1999/xlink" x="0px" y="0px"
	 viewBox="0 0 1920.5 10.2" style="enable-background:new 0 0 1920.5 10.2;" xml:space="preserve" >
	 
<style type="text/css">
	.st0{fill:#04ABE3;}
</style>
<path class="st0 " d="M1514.6,7.7c-14.8,0-22-1.8-29.6-3.7c-7.9-2-16-4-32.1-4c-16.1,0-24.2,2-32.1,4c-7.7,1.9-14.9,3.7-29.6,3.7
	h-0.7V7.5H1067v0.2c-14.1-0.1-21.2-1.8-28.7-3.7c-7.4-1.8-14.9-3.7-28.9-3.9v0h-0.8c-0.4,0-0.8,0-1.2,0c-0.4,0-0.8,0-1.2,0
	c-16.1,0-24.2,2-32.1,4c-7.4,1.8-14.5,3.6-28.5,3.7c-14-0.1-21-1.8-28.4-3.7c-7.9-2-16-4-32.1-4C869,0,860.9,2,853,4
	c-7.7,1.9-14.9,3.7-29.6,3.7c-14.8,0-22-1.8-29.6-3.7c-7.9-2-16-4-32.1-4c-16.1,0-24.2,2-32.1,4c-7.7,1.9-14.9,3.7-29.6,3.7h-0.7
	V7.5H0v2.6h699.1v0.1h0.8c16.1,0,24.2-2,32.1-4c7.7-1.9,14.9-3.7,29.6-3.7c14.8,0,22,1.8,29.6,3.7c7.9,2,16,4,32.1,4
	c16.1,0,24.2-2,32.1-4c7.7-1.9,14.9-3.7,29.6-3.7c14.8,0,22,1.8,29.6,3.7c7.3,1.8,14.9,3.7,28.9,3.9v0h0.8c0.4,0,0.8,0,1.2,0
	c0.4,0,0.8,0,1.2,0c16.1,0,24.2-2,32.1-4c7.4-1.8,14.5-3.6,28.5-3.7c14,0.1,21,1.8,28.4,3.7c7.7,1.9,15.7,3.9,31.3,4v-0.1h323.2v0.1
	h0.8c16.1,0,24.2-2,32.1-4c7.7-1.9,14.9-3.7,29.6-3.7c14.8,0,22,1.8,29.6,3.7c7.9,2,16,4,32.1,4c1.5,0,394.9,0,405.9-0.1V7.6
	C1909.5,7.6,1516.2,7.7,1514.6,7.7z"/>
</svg>
